<svg xmlns="http://www.w3.org/2000/svg" id="Layer_1" data-name="Layer 1" viewBox="0 0 242 84"><defs><clipPath id="clippath"><path d="M0 0h242v84H0z" class="cls-1"/></clipPath><clipPath id="clippath-1"><path d="M0 0h242v84H0z" class="cls-1"/></clipPath><clipPath id="clippath-2"><path d="M0 0h242v84H0z" class="cls-1"/></clipPath><clipPath id="clippath-3"><path d="M0 0h242v84H0z" class="cls-1"/></clipPath><clipPath id="clippath-4"><path d="M0 0h242v84H0z" class="cls-1"/></clipPath><clipPath id="clippath-5"><path d="M0 0h242v84H0z" class="cls-1"/></clipPath><clipPath id="clippath-6"><path d="M0 0h242v84H0z" class="cls-1"/></clipPath><style>.cls-1,.cls-2,.cls-3{fill:none}.cls-2,.cls-3{stroke-width:.82px;stroke:#000}.cls-3{stroke-width:1.02px}</style></defs><path d="M16.02 28.94h-1.89v-1.15h5.11v1.15h-1.88v5.32h-1.34zM25.78 31.01c0 1.8-1.04 3.35-3.05 3.35s-2.97-1.47-2.97-3.33 1.13-3.32 3.05-3.32c1.82 0 2.97 1.32 2.97 3.3M21.14 31c0 1.27.53 2.22 1.63 2.22 1.2 0 1.62-1.04 1.62-2.2 0-1.23-.49-2.19-1.64-2.19s-1.61.9-1.61 2.16ZM26.94 34.26v-6.47h1.67c.77 1.45 2.21 4.07 2.49 4.78h.02c-.07-.68-.07-1.8-.07-2.86V27.8h1.22v6.47h-1.58c-.67-1.27-2.25-4.27-2.57-5.02h-.02c.04.56.06 1.9.06 3.05v1.97h-1.22ZM38.01 31.48h-2.97v1.64h3.28l-.16 1.15h-4.42V27.8h4.4v1.15h-3.1v1.38h2.97zM42.19 34.26v-4.62c-.27.13-.77.24-1.07.27v-1c.57-.11 1.13-.44 1.47-.83h.92v6.18H42.2ZM49.52 27.43c-.73 1.02-1.4 2.47-1.4 4.18 0 1.58.54 3.09 1.4 4.3h-1.23c-.73-1.05-1.32-2.48-1.32-4.31s.62-3.12 1.32-4.17zM50.23 29.67c.08-.76.59-1.7 2.08-1.7 1.37 0 1.98.81 1.98 1.68 0 .74-.41 1.1-.74 1.26v.03c.39.14.96.53.96 1.48 0 .89-.51 1.95-2.21 1.95-1.59 0-2.13-1-2.19-1.81h1.25c.08.42.36.78.97.78s.89-.39.89-.94c0-.57-.29-.92-.97-.92h-.54v-1.03h.48c.58 0 .83-.21.83-.72 0-.42-.24-.71-.76-.71-.6 0-.75.36-.81.66h-1.22ZM55.21 35.9c.73-1.02 1.4-2.47 1.4-4.18 0-1.58-.54-3.09-1.4-4.3h1.23c.72 1.05 1.32 2.48 1.32 4.31s-.62 3.12-1.32 4.17zM16.52 61.68h-1.89v-1.14h5.11v1.14h-1.88V67h-1.34zM26.28 63.74c0 1.8-1.04 3.35-3.05 3.35s-2.97-1.47-2.97-3.33 1.13-3.32 3.05-3.32c1.82 0 2.97 1.32 2.97 3.3m-4.63-.01c0 1.27.53 2.22 1.63 2.22 1.2 0 1.62-1.04 1.62-2.2 0-1.23-.49-2.19-1.64-2.19s-1.61.9-1.61 2.16ZM27.45 67v-6.47h1.67c.77 1.45 2.21 4.07 2.49 4.78h.02c-.07-.68-.07-1.8-.07-2.86v-1.91h1.22v6.47H31.2c-.67-1.27-2.25-4.27-2.57-5.02h-.02c.04.56.06 1.9.06 3.05v1.97h-1.22ZM38.52 64.21h-2.97v1.64h3.28l-.16 1.14h-4.42v-6.47h4.4v1.14h-3.1v1.38h2.97v1.15ZM41.62 67v-.08c0-1.08.46-1.95 1.75-2.93.84-.64 1.09-.85 1.09-1.4s-.25-.84-.75-.84c-.59 0-.79.38-.87.91H41.6c.08-1.06.75-1.95 2.12-1.95 1.52 0 2.04.95 2.04 1.87s-.38 1.33-1.47 2.13c-.73.54-1.03.89-1.13 1.17h2.81L45.81 67zM51.42 60.17c-.73 1.02-1.4 2.47-1.4 4.18 0 1.58.54 3.09 1.4 4.3h-1.23c-.73-1.05-1.32-2.48-1.32-4.31s.62-3.12 1.32-4.17zM54.72 67v-1.39h-2.67v-1.17l2.47-3.61h1.4v3.7h.72l-.13 1.09h-.59v1.39h-1.2Zm0-3.58c0-.67 0-1.04.03-1.43-.23.52-1.01 1.69-1.57 2.52h1.54v-1.1ZM57.15 68.64c.73-1.02 1.4-2.47 1.4-4.18 0-1.58-.54-3.09-1.4-4.3h1.23c.72 1.05 1.32 2.48 1.32 4.31s-.62 3.12-1.32 4.17z"/><path d="M63.78 20.96v19.3m.75 14.09v19.3" class="cls-2"/><path d="M97.23 29.33h-1.89v-1.15h5.11v1.15h-1.88v5.32h-1.34zM102.73 34.65l-2.19-6.47h1.44l.92 2.98c.29.9.5 1.67.64 2.34h.02c.13-.61.37-1.4.67-2.32l.97-3h1.37l-2.25 6.47h-1.58ZM108.46 33.16l-.48 1.49h-1.32l2.11-6.47h1.68l2.21 6.47h-1.41l-.51-1.49h-2.27Zm1.98-1.14c-.44-1.37-.72-2.24-.87-2.82-.15.64-.46 1.65-.81 2.82h1.69Z"/><path d="M111.93 37.62c1.57 0 2.83-1.32 2.83-2.96v-7.1c0-1.63-1.27-2.96-2.83-2.96H96.35c-1.56 0-2.83 1.32-2.83 2.96v7.1c0 1.63 1.27 2.96 2.83 2.96z" class="cls-2" style="clip-path:url(#clippath)"/><path d="M140.96 29.2h-1.89v-1.15h5.11v1.15h-1.88v5.32h-1.34zM146.46 34.52l-2.19-6.47h1.44l.92 2.98c.29.9.5 1.67.64 2.34h.02c.13-.61.37-1.4.67-2.32l.97-3h1.37l-2.25 6.47h-1.58ZM151.03 28.06h4.33v1.15h-3.02v1.59h2.83v1.15h-2.83v2.59h-1.31v-6.47Z"/><path d="M155.41 37.49c1.56 0 2.83-1.32 2.83-2.96v-7.1c0-1.63-1.27-2.96-2.83-2.96h-15.59c-1.56 0-2.83 1.32-2.83 2.96v7.1c0 1.63 1.27 2.96 2.83 2.96z" class="cls-2" style="clip-path:url(#clippath-1)"/><path d="m72 34.13-1.58-6.47h1.43c.58 2.97.85 4.29.92 5 .23-1.19.84-3.44 1.2-5h1.21c.32 1.24.95 3.74 1.15 4.94.21-1.43.81-3.93 1.04-4.94h1.3L77 34.13h-1.4c-.32-1.44-.87-3.53-1.09-4.64-.23 1.15-.78 3.33-1.12 4.64zM84.96 34.13h-.98c-.05-.2-.09-.42-.11-.64-.34.49-.94.75-1.81.75-1.8 0-2.81-1.43-2.81-3.27 0-1.94 1.09-3.41 3.04-3.41 1.59 0 2.54.94 2.68 2.04h-1.34c-.13-.43-.45-.95-1.36-.95-1.28 0-1.64 1.12-1.64 2.25s.41 2.21 1.65 2.21c1.14 0 1.36-.84 1.36-1.41v-.07h-1.36v-1.14h2.67v3.62Z"/><path d="M85.52 37.62c1.56 0 2.83-1.32 2.83-2.96v-7.1c0-1.63-1.27-2.96-2.83-2.96H71.35c-1.57 0-2.83 1.32-2.83 2.96v7.1c0 1.63 1.27 2.96 2.83 2.96z" class="cls-2" style="clip-path:url(#clippath-2)"/><path d="m72.5 67-1.58-6.47h1.43c.58 2.97.85 4.29.92 5 .23-1.19.84-3.44 1.2-5h1.21c.32 1.24.95 3.74 1.15 4.94.21-1.43.81-3.93 1.04-4.94h1.3L77.5 67h-1.4c-.32-1.44-.87-3.53-1.09-4.64-.23 1.15-.78 3.33-1.12 4.64zM85.46 67h-.98c-.05-.2-.09-.42-.11-.64-.34.49-.94.75-1.81.75-1.8 0-2.81-1.43-2.81-3.27 0-1.94 1.09-3.41 3.04-3.41 1.59 0 2.54.94 2.68 2.04h-1.34c-.13-.43-.45-.95-1.36-.95-1.28 0-1.64 1.12-1.64 2.25s.41 2.21 1.65 2.21c1.14 0 1.36-.83 1.36-1.41v-.07h-1.36v-1.14h2.67v3.62Z"/><path d="M86.02 70.49c1.56 0 2.83-1.32 2.83-2.96v-7.1c0-1.63-1.27-2.96-2.83-2.96H71.85c-1.56 0-2.83 1.33-2.83 2.96v7.1c0 1.63 1.27 2.96 2.83 2.96z" class="cls-2" style="clip-path:url(#clippath-3)"/><path d="M184.94 62.2h-1.89v-1.14h5.11v1.14h-1.88v5.32h-1.34zM190.44 67.52l-2.19-6.47h1.44l.92 2.98c.29.9.5 1.67.64 2.34h.02c.13-.61.37-1.4.67-2.32l.97-3h1.37l-2.25 6.47h-1.58ZM195.01 61.05h4.33v1.14h-3.02v1.59h2.83v1.15h-2.83v2.59h-1.31z"/><path d="M199.39 70.49c1.56 0 2.83-1.32 2.83-2.96v-7.1c0-1.63-1.27-2.96-2.83-2.96h-15.58c-1.56 0-2.83 1.33-2.83 2.96v7.1c0 1.63 1.27 2.96 2.83 2.96z" class="cls-2" style="clip-path:url(#clippath-4)"/><path d="M211.67 62.2h-1.89v-1.14h5.11v1.14h-1.88v5.32h-1.34zM217.18 67.52l-2.19-6.47h1.44l.92 2.98c.29.9.5 1.67.64 2.34h.02c.13-.61.37-1.4.67-2.32l.97-3h1.37l-2.25 6.47h-1.58ZM222.91 66.03l-.48 1.49h-1.32l2.11-6.47h1.68l2.21 6.47h-1.41l-.51-1.49h-2.27Zm1.98-1.15c-.44-1.37-.72-2.24-.87-2.83-.15.64-.46 1.65-.81 2.83h1.69Z"/><g style="clip-path:url(#clippath-5)"><path d="M228.25 40.48c3.13 0 5.67-2.65 5.67-5.92v-7.39c0-3.27-2.54-5.92-5.67-5.92H15.75c-3.13 0-5.67 2.65-5.67 5.92v7.39c0 3.27 2.54 5.92 5.67 5.92h212.51Zm-.03 33.09c3.13 0 5.66-2.65 5.66-5.91v-7.4c0-3.27-2.54-5.91-5.66-5.91H15.72c-3.13 0-5.67 2.65-5.67 5.91v7.4c0 3.27 2.54 5.91 5.67 5.91h212.51Zm-1.84-3.08c1.57 0 2.83-1.32 2.83-2.96v-7.1c0-1.63-1.27-2.96-2.83-2.96H210.8c-1.56 0-2.83 1.33-2.83 2.96v7.1c0 1.63 1.27 2.96 2.83 2.96z" class="cls-2"/><path d="M207.96 63.74h-5.75M88.39 30.87h5.19" class="cls-3"/></g><path d="M16.02 7.77h-1.89V6.62h5.11v1.15h-1.88v5.32h-1.34z"/><path d="M21.08 13.09V10.8c0-.07 0-.13-.05-.21l-2.14-3.97h1.52c.48.98 1.1 2.27 1.41 2.98.27-.68.95-2.05 1.41-2.98h1.4l-2.17 3.95s-.04.08-.04.21v2.31zM24.94 6.63h2.57c1.32 0 2.21.77 2.21 2 0 1.41-1.02 2.06-2.24 2.06h-1.2v2.41h-1.34zm1.34 2.93h1.03c.62 0 1.06-.25 1.06-.91s-.47-.92-1.04-.92h-1.05zM34.75 10.3h-2.97v1.64h3.28l-.16 1.15h-4.42V6.62h4.4v1.15h-3.1v1.38h2.97zM37.12 13.09v-.08c0-1.08.46-1.95 1.75-2.93.84-.64 1.09-.85 1.09-1.4s-.25-.83-.75-.83c-.59 0-.79.38-.87.91H37.1c.08-1.06.75-1.95 2.12-1.95 1.52 0 2.04.95 2.04 1.87s-.38 1.33-1.47 2.13c-.73.53-1.03.89-1.13 1.17h2.81l-.16 1.12h-4.19Z"/><path d="M88.83 63.74h26.18l7-16.17m-7.13-16.7L122 47.56h8.5l6.5-16.69m21.48 0 22.49 32.87" class="cls-3" style="clip-path:url(#clippath-6)"/></svg>