<svg xmlns="http://www.w3.org/2000/svg" id="Layer_1" data-name="Layer 1" viewBox="0 0 242 84"><defs><clipPath id="clippath"><path d="M0 0h242v84H0z" class="cls-1"/></clipPath><clipPath id="clippath-1"><path d="M0 0h242v84H0z" class="cls-1"/></clipPath><clipPath id="clippath-2"><path d="M0 0h242v84H0z" class="cls-1"/></clipPath><clipPath id="clippath-3"><path d="M0 0h242v84H0z" class="cls-1"/></clipPath><clipPath id="clippath-4"><path d="M0 0h242v84H0z" class="cls-1"/></clipPath><clipPath id="clippath-5"><path d="M0 0h242v84H0z" class="cls-1"/></clipPath><clipPath id="clippath-6"><path d="M0 0h242v84H0z" class="cls-1"/></clipPath><style>.cls-1,.cls-2,.cls-3{fill:none}.cls-2,.cls-3{stroke-width:.81px;stroke:#000}.cls-3{stroke-width:1.01px}</style></defs><path d="M15.35 29.25h-1.89v-1.11h5.11v1.11h-1.88v5.18h-1.34zM25.11 31.26c0 1.75-1.04 3.26-3.05 3.26s-2.97-1.44-2.97-3.24 1.13-3.24 3.05-3.24c1.82 0 2.97 1.29 2.97 3.22m-4.63-.01c0 1.23.53 2.17 1.63 2.17 1.2 0 1.62-1.01 1.62-2.14 0-1.2-.49-2.13-1.64-2.13s-1.61.88-1.61 2.1M26.28 34.43v-6.3h1.67c.77 1.41 2.21 3.97 2.49 4.65h.02c-.07-.66-.07-1.75-.07-2.79v-1.86h1.22v6.3h-1.58c-.67-1.23-2.25-4.16-2.57-4.89h-.02c.05.55.06 1.85.06 2.97v1.92zM37.35 31.72h-2.97v1.6h3.28l-.16 1.12h-4.42v-6.3h4.4v1.11h-3.1v1.34h2.97v1.12ZM41.53 34.43v-4.5c-.27.13-.77.24-1.07.27v-.98c.57-.11 1.13-.43 1.47-.81h.92v6.02h-1.31ZM48.86 27.78c-.73 1-1.4 2.4-1.4 4.07 0 1.54.54 3.01 1.4 4.19h-1.23c-.73-1.02-1.32-2.41-1.32-4.2s.62-3.04 1.32-4.06zM49.57 29.96c.08-.74.59-1.65 2.08-1.65 1.37 0 1.98.79 1.98 1.64 0 .72-.41 1.07-.74 1.22v.03c.39.14.96.51.96 1.44 0 .87-.51 1.9-2.21 1.9-1.59 0-2.13-.97-2.19-1.76h1.25c.08.41.36.76.97.76s.89-.38.89-.91c0-.56-.29-.9-.97-.9h-.54v-1.01h.48c.58 0 .83-.2.83-.7 0-.41-.24-.69-.76-.69-.6 0-.75.35-.81.64h-1.22ZM54.54 36.03c.73-1 1.4-2.4 1.4-4.07 0-1.54-.54-3.01-1.4-4.19h1.23c.72 1.02 1.32 2.41 1.32 4.2s-.62 3.04-1.32 4.06zM15.85 61.11h-1.89v-1.12h5.11v1.12h-1.88v5.18h-1.34zM25.62 63.12c0 1.75-1.04 3.26-3.05 3.26s-2.97-1.44-2.97-3.25 1.13-3.24 3.05-3.24c1.82 0 2.97 1.29 2.97 3.22Zm-4.64-.01c0 1.23.53 2.17 1.63 2.17 1.2 0 1.62-1.01 1.62-2.14 0-1.2-.49-2.13-1.64-2.13s-1.61.88-1.61 2.1M26.78 66.29v-6.3h1.67c.77 1.41 2.21 3.97 2.49 4.65h.02c-.07-.66-.07-1.75-.07-2.79v-1.87h1.22v6.3h-1.58c-.67-1.23-2.25-4.16-2.57-4.89h-.02c.05.55.06 1.85.06 2.97v1.92h-1.22ZM37.85 63.57h-2.97v1.6h3.28L38 66.29h-4.42v-6.3h4.4v1.12h-3.1v1.34h2.97zM40.95 66.29v-.08c0-1.05.46-1.9 1.75-2.85.84-.62 1.09-.83 1.09-1.36s-.25-.81-.75-.81c-.59 0-.79.37-.87.89h-1.24c.08-1.03.75-1.9 2.12-1.9 1.52 0 2.04.92 2.04 1.82s-.38 1.3-1.47 2.07c-.73.52-1.03.87-1.13 1.14h2.81l-.16 1.09h-4.19ZM50.76 59.63c-.73 1-1.4 2.4-1.4 4.07 0 1.54.54 3.01 1.4 4.19h-1.23c-.73-1.02-1.32-2.41-1.32-4.2s.62-3.04 1.32-4.06zM54.06 66.29v-1.35h-2.67V63.8l2.47-3.52h1.4v3.6h.72l-.13 1.06h-.59v1.35zm0-3.48c0-.65 0-1.01.03-1.39-.23.5-1.01 1.65-1.57 2.46h1.54zM56.49 67.89c.73-1 1.4-2.4 1.4-4.07 0-1.54-.54-3.01-1.4-4.19h1.23c.72 1.02 1.32 2.41 1.32 4.2s-.62 3.04-1.32 4.06z"/><path d="M63.1 21.92v18.59m.75 13.46v18.78" class="cls-2"/><path d="M96.56 29.63h-1.89v-1.11h5.11v1.11H97.9v5.18h-1.34zM102.07 34.81l-2.19-6.3h1.44l.92 2.91c.29.88.5 1.63.64 2.28h.02c.13-.59.37-1.36.67-2.26l.97-2.92h1.37l-2.25 6.3h-1.58ZM107.8 33.36l-.48 1.45H106l2.11-6.3h1.68l2.21 6.3h-1.41l-.51-1.45h-2.27Zm1.98-1.12c-.44-1.33-.72-2.18-.87-2.75-.15.62-.46 1.61-.81 2.75h1.69Z"/><path d="M111.26 37.7c1.57 0 2.83-1.29 2.83-2.88v-6.91c0-1.59-1.27-2.88-2.83-2.88H95.68c-1.57 0-2.83 1.29-2.83 2.88v6.91c0 1.59 1.27 2.88 2.83 2.88z" class="cls-2" style="clip-path:url(#clippath)"/><path d="M154.04 29.63h-1.89v-1.11h5.11v1.11h-1.88v5.18h-1.34zM159.54 34.81l-2.19-6.3h1.44l.92 2.91c.29.88.5 1.63.64 2.28h.02c.13-.59.37-1.36.67-2.26l.97-2.92h1.37l-2.25 6.3h-1.58ZM164.11 28.51h4.33v1.11h-3.02v1.54h2.83v1.12h-2.83v2.52h-1.31v-6.3Z"/><path d="M168.48 37.7c1.57 0 2.83-1.29 2.83-2.88v-6.91c0-1.59-1.27-2.88-2.83-2.88H152.9c-1.56 0-2.83 1.29-2.83 2.88v6.91c0 1.59 1.27 2.88 2.83 2.88z" class="cls-2" style="clip-path:url(#clippath-1)"/><path d="M71.33 34.3 69.75 28h1.43c.58 2.89.85 4.18.92 4.87.23-1.16.84-3.35 1.2-4.87h1.21c.32 1.21.95 3.65 1.15 4.81.21-1.39.81-3.83 1.04-4.81H78l-1.67 6.3h-1.4c-.32-1.4-.87-3.44-1.09-4.52-.23 1.12-.78 3.24-1.12 4.52zM84.29 34.3h-.98c-.05-.19-.09-.41-.11-.62-.34.48-.94.73-1.81.73-1.8 0-2.81-1.39-2.81-3.18 0-1.89 1.09-3.32 3.04-3.32 1.59 0 2.54.91 2.68 1.98h-1.34c-.13-.42-.45-.92-1.36-.92-1.28 0-1.64 1.09-1.64 2.19s.41 2.16 1.65 2.16c1.14 0 1.36-.81 1.36-1.37v-.06h-1.36v-1.11h2.67v3.53Z"/><path d="M84.85 37.7c1.56 0 2.83-1.29 2.83-2.88v-6.91c0-1.59-1.27-2.88-2.83-2.88H70.68c-1.57 0-2.83 1.29-2.83 2.88v6.91c0 1.59 1.27 2.88 2.83 2.88z" class="cls-2" style="clip-path:url(#clippath-2)"/><path d="m71.83 66.29-1.58-6.3h1.43c.58 2.89.85 4.18.92 4.87.23-1.16.84-3.35 1.2-4.87h1.21c.32 1.21.95 3.65 1.15 4.81.21-1.39.81-3.83 1.04-4.81h1.3l-1.67 6.3h-1.4c-.32-1.4-.87-3.44-1.09-4.52-.23 1.12-.78 3.25-1.12 4.52zM84.79 66.29h-.98c-.05-.19-.09-.41-.11-.62-.34.47-.94.73-1.81.73-1.8 0-2.81-1.39-2.81-3.18 0-1.89 1.09-3.32 3.04-3.32 1.59 0 2.54.91 2.68 1.98h-1.34c-.13-.42-.45-.92-1.36-.92-1.28 0-1.64 1.09-1.64 2.19s.41 2.16 1.65 2.16c1.14 0 1.36-.81 1.36-1.37v-.06h-1.36v-1.12h2.67v3.53Z"/><path d="M85.35 69.68c1.56 0 2.83-1.29 2.83-2.88v-6.91c0-1.59-1.27-2.88-2.83-2.88H71.18c-1.57 0-2.83 1.29-2.83 2.88v6.91c0 1.59 1.27 2.88 2.83 2.88z" class="cls-2" style="clip-path:url(#clippath-3)"/><path d="M184.27 61.61h-1.89v-1.12h5.11v1.12h-1.88v5.18h-1.34zM189.78 66.8l-2.19-6.3h1.44l.92 2.91c.29.88.5 1.63.64 2.28h.02c.13-.59.37-1.36.67-2.26l.97-2.92h1.37l-2.25 6.3h-1.58ZM194.35 60.5h4.33v1.12h-3.02v1.54h2.83v1.12h-2.83v2.52h-1.31z"/><path d="M198.72 69.68c1.57 0 2.83-1.29 2.83-2.88v-6.91c0-1.59-1.27-2.88-2.83-2.88h-15.58c-1.57 0-2.83 1.29-2.83 2.88v6.91c0 1.59 1.27 2.88 2.83 2.88z" class="cls-2" style="clip-path:url(#clippath-4)"/><path d="M211.01 61.61h-1.89v-1.12h5.11v1.12h-1.88v5.18h-1.34zM216.51 66.8l-2.19-6.3h1.44l.92 2.91c.29.88.5 1.63.64 2.28h.02c.13-.59.37-1.36.67-2.26l.97-2.92h1.37l-2.25 6.3h-1.58ZM222.24 65.34l-.48 1.45h-1.32l2.11-6.3h1.68l2.21 6.3h-1.41l-.51-1.45h-2.27Zm1.98-1.11c-.44-1.33-.72-2.18-.87-2.75-.15.62-.46 1.61-.81 2.75h1.69Z"/><g style="clip-path:url(#clippath-5)"><path d="M227.58 40.48c3.13 0 5.66-2.58 5.66-5.76v-7.2c0-3.18-2.54-5.76-5.66-5.76H15.07c-3.13 0-5.67 2.58-5.67 5.76v7.2c0 3.18 2.54 5.76 5.67 5.76zm-.03 32.2c3.13 0 5.66-2.58 5.66-5.76v-7.2c0-3.18-2.54-5.76-5.66-5.76H15.04c-3.13 0-5.67 2.58-5.67 5.76v7.2c0 3.18 2.54 5.76 5.67 5.76zm-1.84-3c1.57 0 2.83-1.29 2.83-2.88v-6.91c0-1.59-1.27-2.88-2.83-2.88h-15.58c-1.57 0-2.83 1.29-2.83 2.88v6.91c0 1.59 1.27 2.88 2.83 2.88z" class="cls-2"/><path d="M123.32 36.97h13.49v20.31h-13.49z" class="cls-2"/><path d="M123.32 57.27h13.49V36.96h-13.49zm8.67-8.35v.31c0 .42 0 .9.09 1.2h-1.28c-.11-.27-.13-.75-.13-1.42v-.09c0-.69-.17-1.01-1.17-1.01h-.88v2.52h-1.31v-6.3h2.73c1.35 0 2.08.75 2.08 1.73 0 .84-.45 1.3-.9 1.49.31.12.77.44.77 1.57"/><path d="M129.77 45.21h-1.15v1.61h1.12c.73 0 1.02-.28 1.02-.8s-.33-.8-.99-.8"/><path d="M207.29 63.11h-5.62M87.72 31.13h5.19" class="cls-3"/></g><path d="M15.35 8.83h-1.89V7.72h5.11v1.11h-1.88v5.18h-1.34z"/><path d="M20.41 14.02v-2.23c0-.06 0-.13-.05-.2l-2.14-3.87h1.52c.48.95 1.1 2.21 1.41 2.9.27-.66.95-1.99 1.41-2.9h1.4l-2.17 3.85s-.04.07-.04.2v2.25zM24.26 7.72h2.57c1.32 0 2.21.75 2.21 1.95 0 1.37-1.02 2-2.24 2h-1.2v2.35h-1.34zm1.35 2.86h1.03c.62 0 1.06-.25 1.06-.89s-.47-.9-1.04-.9h-1.05v1.78ZM34.07 11.3H31.1v1.6h3.28l-.16 1.12H29.8v-6.3h4.4v1.11h-3.1v1.34h2.97v1.12ZM40.5 9.07h-2.38c-.04.32-.13.9-.18 1.14.23-.18.56-.32 1.07-.32 1.17 0 1.83.86 1.83 2s-.63 2.23-2.23 2.23c-1.17 0-2.03-.61-2.16-1.68h1.29c.12.41.4.68.9.68.61 0 .91-.46.91-1.12s-.23-1.08-.91-1.08c-.55 0-.77.25-.91.6l-1.16-.16c.16-.76.41-2.55.51-3.37h3.6l-.18 1.07Z"/><path d="M136.82 46.87h7l6.25-15.49m21.24 0 9 31.73m-66.17-32.05 9.18 15.8-9 16.25H88.08" class="cls-3" style="clip-path:url(#clippath-6)"/></svg>