<svg xmlns="http://www.w3.org/2000/svg" id="Layer_1" data-name="Layer 1" viewBox="0 0 242 84"><defs><clipPath id="clippath"><path d="M0 0h242v84H0z" class="cls-1"/></clipPath><clipPath id="clippath-1"><path d="M0 0h242v84H0z" class="cls-1"/></clipPath><clipPath id="clippath-2"><path d="M0 0h242v84H0z" class="cls-1"/></clipPath><clipPath id="clippath-3"><path d="M0 0h242v84H0z" class="cls-1"/></clipPath><clipPath id="clippath-4"><path d="M0 0h242v84H0z" class="cls-1"/></clipPath><clipPath id="clippath-5"><path d="M0 0h242v84H0z" class="cls-1"/></clipPath><clipPath id="clippath-6"><path d="M0 0h242v84H0z" class="cls-1"/></clipPath><style>.cls-1,.cls-2{fill:none}.cls-2{stroke-width:.81px;stroke:#000}</style></defs><path d="M16.02 29.24h-1.89v-1.11h5.11v1.11h-1.88v5.18h-1.34zM25.79 31.25c0 1.75-1.04 3.26-3.05 3.26s-2.97-1.44-2.97-3.24 1.13-3.24 3.05-3.24c1.82 0 2.97 1.29 2.97 3.22m-4.64-.01c0 1.23.53 2.17 1.63 2.17 1.2 0 1.62-1.01 1.62-2.14 0-1.2-.49-2.13-1.64-2.13s-1.61.88-1.61 2.1M26.95 34.42v-6.3h1.67c.77 1.41 2.21 3.97 2.49 4.65h.02c-.07-.66-.07-1.75-.07-2.79v-1.86h1.22v6.3H30.7c-.67-1.23-2.25-4.16-2.57-4.89h-.02c.04.55.06 1.85.06 2.97v1.92zM38.02 31.7h-2.97v1.6h3.28l-.16 1.12h-4.42v-6.3h4.4v1.11h-3.1v1.34h2.97v1.12ZM42.2 34.42v-4.5c-.27.13-.77.24-1.07.27v-.98c.57-.11 1.13-.43 1.47-.81h.92v6.02h-1.31ZM49.53 27.76c-.73 1-1.4 2.4-1.4 4.07 0 1.54.54 3.01 1.4 4.19H48.3c-.73-1.02-1.32-2.41-1.32-4.2s.62-3.04 1.32-4.06zM50.24 29.95c.08-.74.59-1.65 2.08-1.65 1.37 0 1.98.79 1.98 1.64 0 .72-.41 1.07-.74 1.22v.03c.39.14.96.51.96 1.44 0 .87-.51 1.9-2.21 1.9-1.59 0-2.13-.97-2.19-1.76h1.25c.08.41.36.76.97.76s.89-.38.89-.91c0-.56-.29-.9-.97-.9h-.54v-1.01h.48c.58 0 .83-.2.83-.7 0-.41-.24-.69-.76-.69-.6 0-.75.35-.81.64h-1.22ZM55.22 36.02c.73-1 1.4-2.4 1.4-4.07 0-1.54-.54-3.01-1.4-4.19h1.23c.72 1.02 1.32 2.41 1.32 4.2s-.62 3.04-1.32 4.06zM16.53 61.09h-1.89v-1.12h5.11v1.12h-1.88v5.18h-1.34zM26.29 63.1c0 1.75-1.04 3.26-3.05 3.26s-2.97-1.44-2.97-3.25 1.13-3.24 3.05-3.24c1.82 0 2.97 1.29 2.97 3.22Zm-4.63-.01c0 1.23.53 2.17 1.63 2.17 1.2 0 1.62-1.01 1.62-2.14 0-1.2-.49-2.13-1.64-2.13s-1.61.88-1.61 2.1M27.46 66.27v-6.3h1.67c.77 1.41 2.21 3.97 2.49 4.65h.02c-.07-.66-.07-1.75-.07-2.79v-1.87h1.22v6.3h-1.58c-.67-1.23-2.25-4.16-2.57-4.89h-.02c.04.55.06 1.85.06 2.97v1.92h-1.22ZM38.52 63.56h-2.97v1.6h3.28l-.16 1.12h-4.42v-6.3h4.4v1.12h-3.1v1.34h2.97zM41.62 66.27v-.08c0-1.05.46-1.9 1.75-2.85.84-.62 1.09-.83 1.09-1.36s-.25-.81-.75-.81c-.59 0-.79.37-.87.89H41.6c.08-1.03.75-1.9 2.12-1.9 1.52 0 2.04.92 2.04 1.82s-.38 1.3-1.47 2.07c-.73.52-1.03.87-1.13 1.14h2.81l-.16 1.09h-4.19ZM51.43 59.62c-.73 1-1.4 2.4-1.4 4.07 0 1.54.54 3.01 1.4 4.19H50.2c-.73-1.02-1.32-2.41-1.32-4.2s.62-3.04 1.32-4.06zM54.73 66.27v-1.35h-2.67v-1.14l2.47-3.52h1.4v3.6h.72l-.13 1.06h-.59v1.35zm0-3.48c0-.65 0-1.01.03-1.39-.23.5-1.01 1.65-1.57 2.46h1.54zM57.16 67.87c.73-1 1.4-2.4 1.4-4.07 0-1.54-.54-3.01-1.4-4.19h1.23c.72 1.02 1.32 2.41 1.32 4.2s-.62 3.04-1.32 4.06z"/><path d="M63.78 21.47v18.78m.75 13.71v18.78" class="cls-2"/><path d="M211.68 29.62h-1.89v-1.11h5.11v1.11h-1.88v5.18h-1.34zM217.19 34.8 215 28.5h1.44l.92 2.91c.29.88.5 1.63.64 2.28h.02c.13-.59.37-1.36.67-2.26l.97-2.92h1.37l-2.25 6.3h-1.58ZM222.92 33.34l-.48 1.45h-1.32l2.11-6.3h1.68l2.21 6.3h-1.41l-.51-1.45h-2.27Zm1.98-1.11c-.44-1.33-.72-2.18-.87-2.75-.15.62-.46 1.61-.81 2.75h1.69Z"/><path d="M226.38 37.69c1.57 0 2.83-1.29 2.83-2.88V27.9c0-1.59-1.27-2.88-2.83-2.88H210.8c-1.57 0-2.83 1.29-2.83 2.88v6.91c0 1.59 1.27 2.88 2.83 2.88z" class="cls-2" style="clip-path:url(#clippath)"/><path d="M140.97 29.62h-1.89v-1.11h5.11v1.11h-1.88v5.18h-1.34zM146.47 34.8l-2.19-6.3h1.44l.92 2.91c.29.88.5 1.63.64 2.28h.02c.13-.59.37-1.36.67-2.26l.97-2.92h1.37l-2.25 6.3h-1.58ZM151.04 28.5h4.33v1.11h-3.02v1.54h2.83v1.12h-2.83v2.52h-1.31v-6.3Z"/><path d="M155.41 37.69c1.57 0 2.83-1.29 2.83-2.88V27.9c0-1.59-1.27-2.88-2.83-2.88h-15.58c-1.56 0-2.83 1.29-2.83 2.88v6.91c0 1.59 1.27 2.88 2.83 2.88z" class="cls-2" style="clip-path:url(#clippath-1)"/><path d="m72.01 34.29-1.58-6.3h1.43c.58 2.89.85 4.18.92 4.87.23-1.16.84-3.35 1.2-4.87h1.21c.32 1.21.95 3.65 1.15 4.81.21-1.39.81-3.83 1.04-4.81h1.3l-1.67 6.3h-1.4c-.32-1.4-.87-3.44-1.09-4.52-.23 1.12-.78 3.24-1.12 4.52zM84.96 34.29h-.98c-.05-.19-.09-.41-.11-.62-.34.48-.95.73-1.81.73-1.8 0-2.81-1.39-2.81-3.18 0-1.89 1.09-3.32 3.04-3.32 1.59 0 2.54.91 2.68 1.98h-1.34c-.13-.42-.45-.92-1.36-.92-1.28 0-1.64 1.09-1.64 2.19s.41 2.16 1.65 2.16c1.14 0 1.36-.81 1.36-1.37v-.06h-1.36v-1.11h2.67v3.53Z"/><path d="M85.52 37.69c1.56 0 2.83-1.29 2.83-2.88V27.9c0-1.59-1.27-2.88-2.83-2.88H71.35c-1.57 0-2.83 1.29-2.83 2.88v6.91c0 1.59 1.27 2.88 2.83 2.88z" class="cls-2" style="clip-path:url(#clippath-2)"/><path d="m72.51 66.27-1.58-6.3h1.43c.58 2.89.85 4.18.92 4.87.23-1.16.84-3.35 1.2-4.87h1.21c.32 1.21.95 3.65 1.15 4.81.21-1.39.81-3.83 1.04-4.81h1.3l-1.67 6.3h-1.4c-.32-1.4-.87-3.44-1.09-4.52-.23 1.12-.78 3.25-1.12 4.52zM85.46 66.27h-.98c-.05-.19-.09-.41-.11-.62-.34.47-.95.73-1.81.73-1.8 0-2.81-1.39-2.81-3.18 0-1.89 1.09-3.32 3.04-3.32 1.59 0 2.54.91 2.68 1.98h-1.34c-.13-.42-.45-.92-1.36-.92-1.28 0-1.64 1.09-1.64 2.19s.41 2.16 1.65 2.16c1.14 0 1.36-.81 1.36-1.37v-.06h-1.36v-1.12h2.67v3.53Z"/><path d="M86.02 69.67c1.56 0 2.83-1.29 2.83-2.88v-6.91c0-1.59-1.27-2.88-2.83-2.88H71.85c-1.56 0-2.83 1.29-2.83 2.88v6.91c0 1.59 1.27 2.88 2.83 2.88z" class="cls-2" style="clip-path:url(#clippath-3)"/><path d="M140.97 61.6h-1.89v-1.12h5.11v1.12h-1.88v5.18h-1.34zM146.47 66.78l-2.19-6.3h1.44l.92 2.91c.29.88.5 1.63.64 2.28h.02c.13-.59.37-1.36.67-2.26l.97-2.92h1.37l-2.25 6.3h-1.58ZM151.04 60.48h4.33v1.12h-3.02v1.54h2.83v1.12h-2.83v2.52h-1.31z"/><path d="M155.41 69.67c1.57 0 2.83-1.29 2.83-2.88v-6.91c0-1.59-1.27-2.88-2.83-2.88h-15.58c-1.56 0-2.83 1.29-2.83 2.88v6.91c0 1.59 1.27 2.88 2.83 2.88z" class="cls-2" style="clip-path:url(#clippath-4)"/><path d="M211.68 61.6h-1.89v-1.12h5.11v1.12h-1.88v5.18h-1.34zM217.19 66.78l-2.19-6.3h1.44l.92 2.91c.29.88.5 1.63.64 2.28h.02c.13-.59.37-1.36.67-2.26l.97-2.92h1.37l-2.25 6.3h-1.58ZM222.92 65.33l-.48 1.45h-1.32l2.11-6.3h1.68l2.21 6.3h-1.41l-.51-1.45h-2.27Zm1.98-1.12c-.44-1.33-.72-2.18-.87-2.75-.15.62-.46 1.61-.81 2.75h1.69Z"/><path d="M228.25 40.47c3.13 0 5.66-2.58 5.66-5.76v-7.19c0-3.18-2.54-5.76-5.66-5.76H15.75c-3.13 0-5.67 2.58-5.67 5.76v7.19c0 3.18 2.54 5.76 5.67 5.76h212.51Zm-.03 32.2c3.13 0 5.66-2.58 5.66-5.76v-7.2c0-3.18-2.54-5.76-5.66-5.76H15.72c-3.13 0-5.67 2.58-5.67 5.76v7.2c0 3.18 2.54 5.76 5.67 5.76h212.51Zm-1.84-3c1.57 0 2.83-1.29 2.83-2.88v-6.91c0-1.59-1.27-2.88-2.83-2.88H210.8c-1.57 0-2.83 1.29-2.83 2.88v6.91c0 1.59 1.27 2.88 2.83 2.88z" class="cls-2" style="clip-path:url(#clippath-5)"/><path d="M16.02 8.82h-1.89V7.71h5.11v1.11h-1.88V14h-1.34z"/><path d="M21.08 14v-2.23c0-.06 0-.13-.05-.2L18.89 7.7h1.52c.48.95 1.1 2.21 1.41 2.9.27-.66.95-1.99 1.41-2.9h1.4l-2.17 3.85s-.04.07-.04.2V14zM24.94 7.7h2.57c1.32 0 2.21.75 2.21 1.95 0 1.37-1.02 2-2.24 2h-1.2V14h-1.34zm1.34 2.87h1.03c.62 0 1.06-.25 1.06-.89s-.47-.9-1.04-.9h-1.05v1.78ZM34.75 11.29h-2.97v1.6h3.28l-.16 1.12h-4.42v-6.3h4.4v1.11h-3.1v1.34h2.97v1.12ZM38.2 14V9.5c-.27.13-.77.24-1.07.27v-.98c.57-.11 1.13-.43 1.47-.81h.92V14h-1.31Z"/><g style="clip-path:url(#clippath-6)"><path d="M158.23 63.42h49.73m-118.95 0c.12-.01 47.98 0 47.98 0m21.49-31.73h49.48m-119.45 0h48.48" style="fill:none;stroke:#000;stroke-width:1.01px"/></g></svg>