<?xml version="1.0" encoding="UTF-8"?>
<svg xmlns="http://www.w3.org/2000/svg" xmlns:xlink="http://www.w3.org/1999/xlink" width="172" height="152" viewBox="0 0 172 152">
<path fill-rule="nonzero" fill="rgb(0%, 0%, 0%)" fill-opacity="1" d="M 78.816406 133.039062 L 69.652344 133.039062 L 69.652344 136.027344 L 66.722656 135.515625 L 66.722656 130.675781 L 82.121094 130.675781 L 82.121094 132.90625 L 74.867188 144.800781 L 71.347656 144.800781 Z M 78.816406 133.039062 "/>
<path fill-rule="nonzero" fill="rgb(0%, 0%, 0%)" fill-opacity="1" d="M 99.664062 136.90625 C 97.273438 137.148438 95.207031 137.257812 93.542969 137.257812 C 91.207031 137.257812 90.453125 136.960938 90.453125 135.535156 L 90.453125 134.757812 C 90.453125 133.46875 91.019531 133.039062 93.003906 133.039062 L 96.84375 133.039062 C 99.503906 133.039062 99.742188 133.578125 99.742188 136.074219 C 99.742188 136.289062 99.71875 136.585938 99.664062 136.90625 M 99.503906 139.023438 C 98.457031 141.964844 95.582031 142.609375 90.425781 142.609375 L 89.539062 142.609375 L 91.445312 144.835938 C 91.769531 144.859375 92.117188 144.859375 92.441406 144.859375 C 98.941406 144.859375 102.675781 141.933594 102.675781 136.773438 L 102.675781 134.945312 C 102.675781 131.640625 101.546875 130.675781 98.105469 130.675781 L 92.253906 130.675781 C 89.027344 130.675781 87.523438 131.722656 87.523438 134.058594 L 87.523438 135.914062 C 87.523438 138.726562 89.136719 139.476562 93.378906 139.476562 C 95.527344 139.476562 97.570312 139.316406 99.503906 139.023438 "/>
<path fill-rule="nonzero" fill="rgb(0%, 0%, 0%)" fill-opacity="1" d="M 65.984375 109.136719 C 65.261719 109.136719 64.566406 109.605469 64.566406 110.699219 C 64.566406 111.664062 65.121094 112.300781 66.027344 112.300781 C 67.0625 112.300781 67.460938 111.40625 67.460938 110.710938 C 67.460938 110.003906 67.089844 109.136719 65.984375 109.136719 "/>
<path fill-rule="nonzero" fill="rgb(0%, 0%, 0%)" fill-opacity="1" d="M 66.027344 107.628906 C 66.804688 107.628906 67.261719 107.105469 67.261719 106.382812 C 67.261719 105.617188 66.734375 105.136719 66.097656 105.136719 C 65.203125 105.136719 64.738281 105.644531 64.738281 106.382812 C 64.738281 106.980469 65.175781 107.628906 66.027344 107.628906 "/>
<path fill-rule="nonzero" fill="rgb(0%, 0%, 0%)" fill-opacity="1" d="M 67.460938 73.175781 C 67.460938 71.898438 66.636719 71.488281 66.011719 71.488281 C 65.261719 71.488281 64.496094 71.953125 64.496094 73.21875 C 64.496094 74.3125 65.117188 75.09375 66.066406 75.09375 C 66.792969 75.09375 67.460938 74.539062 67.460938 73.175781 "/>
<path fill-rule="nonzero" fill="rgb(0%, 0%, 0%)" fill-opacity="1" d="M 85.023438 109.835938 C 85.023438 107.402344 85.066406 105.828125 85.066406 105.519531 L 85.039062 105.519531 L 82.507812 109.835938 Z M 85.023438 109.835938 "/>
<path fill-rule="nonzero" fill="rgb(0%, 0%, 0%)" fill-opacity="1" d="M 112.066406 79.167969 L 103.675781 79.167969 L 103.675781 77.8125 L 109.675781 77.8125 L 109.675781 64.894531 L 103.675781 64.894531 L 103.675781 62.507812 L 112.066406 62.507812 Z M 102.644531 76.414062 L 102.644531 69.464844 L 100.242188 69.464844 L 100.242188 68.070312 L 100.527344 68.070312 C 102.445312 68.070312 102.957031 67.082031 103 66.332031 L 104.636719 66.332031 L 104.636719 76.414062 Z M 81.035156 76.414062 C 81.109375 75.234375 81.191406 74 83.382812 72.410156 C 85.199219 71.089844 85.921875 70.582031 85.921875 69.445312 C 85.921875 68.777344 85.496094 68.011719 84.53125 68.011719 C 83.140625 68.011719 83.097656 69.160156 83.082031 69.898438 L 81.152344 69.898438 C 81.152344 66.617188 83.550781 66.335938 84.445312 66.335938 C 86.375 66.335938 87.914062 67.472656 87.914062 69.515625 C 87.914062 71.246094 86.789062 72.128906 85.804688 72.792969 C 84.472656 73.730469 83.78125 74.183594 83.550781 74.652344 L 87.925781 74.652344 L 87.925781 76.414062 Z M 87.683594 87.75 C 87.683594 88.769531 87.042969 89.410156 86.476562 89.664062 L 86.476562 89.691406 C 86.832031 89.792969 88 90.320312 88 92.035156 C 88 93.9375 86.589844 95.289062 84.558594 95.289062 C 83.609375 95.289062 81.050781 95.074219 81.050781 91.925781 L 83 91.925781 L 82.984375 91.9375 C 82.984375 92.476562 83.128906 93.695312 84.460938 93.695312 C 85.253906 93.695312 85.953125 93.15625 85.953125 92.035156 C 85.953125 90.660156 84.617188 90.605469 83.683594 90.605469 L 83.683594 89.183594 L 84.003906 89.183594 C 84.601562 89.183594 85.695312 89.125 85.695312 87.820312 C 85.695312 87.449219 85.523438 86.53125 84.433594 86.53125 C 83.070312 86.53125 83.070312 87.820312 83.070312 88.175781 L 81.21875 88.175781 C 81.21875 86.289062 82.289062 84.9375 84.558594 84.9375 C 85.90625 84.9375 87.683594 85.621094 87.683594 87.75 M 87.015625 103.542969 L 87.015625 109.835938 L 88.136719 109.835938 L 88.136719 111.386719 L 87.015625 111.386719 L 87.015625 113.625 L 85.023438 113.625 L 85.023438 111.386719 L 81.042969 111.386719 L 81.042969 109.667969 L 84.753906 103.542969 Z M 62.515625 110.824219 C 62.515625 110.3125 62.515625 108.980469 64.054688 108.269531 C 63.257812 107.871094 62.832031 107.230469 62.832031 106.296875 C 62.832031 104.578125 64.210938 103.542969 65.96875 103.542969 C 68.058594 103.542969 69.167969 104.777344 69.167969 106.167969 C 69.167969 107.035156 68.808594 107.769531 68 108.199219 C 68.964844 108.679688 69.507812 109.320312 69.507812 110.625 C 69.507812 111.902344 68.683594 113.894531 66.011719 113.894531 C 63.414062 113.894531 62.515625 112.203125 62.515625 110.824219 M 63.84375 95.019531 C 64.054688 90.988281 66.585938 87.78125 67.441406 86.871094 L 62.421875 86.871094 L 62.464844 85.109375 L 69.570312 85.109375 L 69.570312 86.644531 C 68.605469 87.695312 66.132812 90.675781 65.890625 95.019531 Z M 62.503906 71.613281 C 62.503906 69.699219 62.757812 66.335938 66.253906 66.335938 C 66.664062 66.335938 67.816406 66.488281 68.3125 66.988281 C 68.867188 67.527344 69.066406 67.828125 69.25 68.890625 L 67.277344 68.890625 C 67.21875 68.324219 66.851562 67.925781 66.113281 67.925781 C 64.820312 67.925781 64.523438 69.398438 64.453125 70.703125 L 64.480469 70.734375 C 64.75 70.363281 65.246094 69.894531 66.367188 69.894531 C 68.457031 69.894531 69.449219 71.5 69.449219 73.007812 C 69.449219 75.207031 68.097656 76.6875 66.15625 76.6875 C 63.101562 76.6875 62.503906 74.128906 62.503906 71.613281 M 62.445312 55.113281 L 64.4375 55.113281 C 64.523438 55.9375 64.960938 56.488281 65.84375 56.488281 C 66.792969 56.488281 67.347656 55.679688 67.347656 54.601562 C 67.347656 53.707031 66.917969 52.800781 65.871094 52.800781 C 65.597656 52.800781 64.917969 52.8125 64.539062 53.523438 L 62.757812 53.4375 L 63.457031 47.902344 L 68.996094 47.902344 L 68.996094 49.578125 L 64.890625 49.578125 L 64.539062 51.761719 C 64.90625 51.503906 65.359375 51.203125 66.339844 51.203125 C 67.6875 51.203125 69.394531 52.144531 69.394531 54.460938 C 69.394531 55.839844 68.699219 58.082031 65.730469 58.082031 C 64.152344 58.082031 62.546875 57.144531 62.445312 55.113281 M 102.761719 61.597656 L 102.761719 64.894531 L 96.757812 64.894531 L 96.757812 77.8125 L 102.761719 77.8125 L 102.761719 81.234375 L 85.070312 81.234375 L 85.070312 77.8125 L 91.074219 77.8125 L 91.074219 64.894531 L 78.15625 64.894531 L 78.15625 77.8125 L 84.160156 77.8125 L 84.160156 83.5 L 78.15625 83.5 L 78.15625 96.417969 L 84.160156 96.417969 L 84.160156 102.101562 L 78.15625 102.101562 L 78.15625 115.019531 L 84.160156 115.019531 L 84.160156 120.355469 L 66.46875 120.355469 L 66.46875 115.019531 L 72.472656 115.019531 L 72.472656 102.101562 L 66.46875 102.101562 L 66.46875 96.417969 L 72.472656 96.417969 L 72.472656 83.5 L 66.46875 83.5 L 66.46875 77.8125 L 72.472656 77.8125 L 72.472656 64.894531 L 66.46875 64.894531 L 66.46875 59.210938 L 72.472656 59.210938 L 72.472656 46.292969 L 59.550781 46.292969 L 59.550781 59.210938 L 65.554688 59.210938 L 65.554688 64.894531 L 59.550781 64.894531 L 59.550781 77.8125 L 65.554688 77.8125 L 65.554688 83.5 L 59.550781 83.5 L 59.550781 96.417969 L 65.554688 96.417969 L 65.554688 102.101562 L 59.550781 102.101562 L 59.550781 115.019531 L 65.554688 115.019531 L 65.554688 121.269531 L 85.070312 121.269531 L 85.070312 115.019531 L 91.074219 115.019531 L 91.074219 102.101562 L 85.070312 102.101562 L 85.070312 96.417969 L 91.074219 96.417969 L 91.074219 83.5 L 85.070312 83.5 L 85.070312 82.144531 L 103.675781 82.144531 L 103.675781 80.078125 L 112.976562 80.078125 L 112.976562 61.597656 Z M 102.761719 61.597656 "/>
</svg>
