<?xml version="1.0" encoding="UTF-8"?>
<svg xmlns="http://www.w3.org/2000/svg" xmlns:xlink="http://www.w3.org/1999/xlink" width="172" height="152" viewBox="0 0 172 152">
<path fill-rule="nonzero" fill="rgb(0%, 0%, 0%)" fill-opacity="1" d="M 78.816406 133.039062 L 69.652344 133.039062 L 69.652344 136.027344 L 66.722656 135.515625 L 66.722656 130.675781 L 82.125 130.675781 L 82.125 132.90625 L 74.867188 144.800781 L 71.347656 144.800781 Z M 78.816406 133.039062 "/>
<path fill-rule="nonzero" fill="rgb(0%, 0%, 0%)" fill-opacity="1" d="M 98.570312 138.535156 C 99.644531 138.535156 99.886719 138.804688 99.886719 139.796875 L 99.886719 140.8125 C 99.886719 141.804688 99.644531 142.042969 98.570312 142.042969 L 91.460938 142.042969 C 90.382812 142.042969 90.140625 141.832031 90.140625 140.8125 L 90.140625 139.796875 C 90.140625 138.804688 90.382812 138.535156 91.460938 138.535156 Z M 98.257812 133.039062 C 99.332031 133.039062 99.574219 133.308594 99.574219 134.3125 L 99.574219 135.015625 C 99.574219 136.015625 99.332031 136.285156 98.257812 136.285156 L 91.796875 136.285156 C 90.722656 136.285156 90.453125 136.015625 90.453125 135.015625 L 90.453125 134.3125 C 90.453125 133.308594 90.722656 133.039062 91.796875 133.039062 Z M 99.332031 130.675781 L 90.695312 130.675781 C 88.332031 130.675781 87.523438 131.1875 87.523438 133.390625 L 87.523438 134.664062 C 87.523438 136.285156 88.25 136.984375 90.183594 137.355469 C 88.179688 137.574219 87.210938 138.429688 87.210938 140.117188 L 87.210938 141.5625 C 87.210938 143.710938 87.910156 144.542969 90.574219 144.542969 L 99.457031 144.542969 C 102.121094 144.542969 102.84375 143.710938 102.84375 141.5625 L 102.84375 140.117188 C 102.84375 138.429688 101.878906 137.574219 99.886719 137.355469 C 101.804688 136.984375 102.503906 136.285156 102.503906 134.664062 L 102.503906 133.390625 C 102.503906 131.1875 101.699219 130.675781 99.332031 130.675781 "/>
<path fill-rule="nonzero" fill="rgb(0%, 0%, 0%)" fill-opacity="1" d="M 130.667969 97.769531 L 122.277344 97.769531 L 122.277344 96.417969 L 128.28125 96.417969 L 128.28125 83.5 L 122.277344 83.5 L 122.277344 81.113281 L 130.667969 81.113281 Z M 121.25 95.019531 L 121.25 88.070312 L 118.847656 88.070312 L 118.847656 86.675781 L 119.132812 86.675781 C 121.050781 86.675781 121.5625 85.6875 121.605469 84.9375 L 123.242188 84.9375 L 123.242188 95.019531 Z M 99.640625 95.019531 C 99.710938 93.839844 99.796875 92.601562 101.984375 91.011719 C 103.804688 89.695312 104.527344 89.183594 104.527344 88.050781 C 104.527344 87.382812 104.101562 86.617188 103.136719 86.617188 C 101.746094 86.617188 101.703125 87.765625 101.6875 88.503906 L 99.753906 88.503906 C 99.753906 85.222656 102.15625 84.9375 103.050781 84.9375 C 104.980469 84.9375 106.515625 86.074219 106.515625 88.121094 C 106.515625 89.851562 105.394531 90.730469 104.414062 91.398438 C 103.078125 92.332031 102.382812 92.789062 102.15625 93.253906 L 106.53125 93.253906 L 106.53125 95.019531 Z M 106.289062 106.351562 C 106.289062 107.375 105.648438 108.011719 105.078125 108.269531 L 105.078125 108.296875 C 105.4375 108.398438 106.601562 108.921875 106.601562 110.640625 C 106.601562 112.542969 105.191406 113.894531 103.164062 113.894531 C 102.214844 113.894531 99.65625 113.679688 99.65625 110.527344 L 101.605469 110.527344 L 101.589844 110.539062 C 101.589844 111.082031 101.730469 112.300781 103.066406 112.300781 C 103.859375 112.300781 104.554688 111.761719 104.554688 110.640625 C 104.554688 109.265625 103.222656 109.207031 102.289062 109.207031 L 102.289062 107.785156 L 102.609375 107.785156 C 103.207031 107.785156 104.296875 107.730469 104.296875 106.425781 C 104.296875 106.054688 104.125 105.132812 103.035156 105.132812 C 101.675781 105.132812 101.675781 106.425781 101.675781 106.78125 L 99.824219 106.78125 C 99.824219 104.890625 100.894531 103.542969 103.164062 103.542969 C 104.511719 103.542969 106.289062 104.226562 106.289062 106.351562 M 81.050781 110.921875 L 83.042969 110.921875 C 83.125 111.746094 83.566406 112.300781 84.445312 112.300781 C 85.398438 112.300781 85.949219 111.492188 85.949219 110.414062 C 85.949219 109.515625 85.523438 108.609375 84.476562 108.609375 C 84.207031 108.609375 83.523438 108.625 83.140625 109.332031 L 81.363281 109.25 L 82.0625 103.710938 L 87.601562 103.710938 L 87.601562 105.390625 L 83.496094 105.390625 L 83.140625 107.570312 C 83.511719 107.316406 83.964844 107.015625 84.941406 107.015625 C 86.292969 107.015625 87.996094 107.957031 87.996094 110.269531 C 87.996094 111.648438 87.300781 113.894531 84.332031 113.894531 C 82.757812 113.894531 81.148438 112.957031 81.050781 110.921875 M 81.042969 92.785156 L 81.042969 91.0625 L 84.753906 84.9375 L 87.015625 84.9375 L 87.015625 91.234375 L 88.140625 91.234375 L 88.140625 92.785156 L 87.015625 92.785156 L 87.015625 95.019531 L 85.023438 95.019531 L 85.023438 92.785156 Z M 63.84375 113.625 C 64.054688 109.59375 66.585938 106.386719 67.441406 105.476562 L 62.421875 105.476562 L 62.464844 103.710938 L 69.570312 103.710938 L 69.570312 105.25 C 68.605469 106.300781 66.132812 109.28125 65.890625 113.625 Z M 62.503906 90.214844 C 62.503906 88.300781 62.761719 84.9375 66.253906 84.9375 C 66.667969 84.9375 67.816406 85.09375 68.316406 85.589844 C 68.867188 86.132812 69.066406 86.429688 69.25 87.496094 L 67.273438 87.492188 C 67.21875 86.925781 66.851562 86.53125 66.113281 86.53125 C 64.820312 86.53125 64.523438 88.003906 64.449219 89.308594 L 64.480469 89.335938 C 64.75 88.96875 65.246094 88.5 66.367188 88.5 C 68.457031 88.5 69.453125 90.105469 69.453125 91.609375 C 69.453125 93.8125 68.101562 95.289062 66.15625 95.289062 C 63.101562 95.289062 62.503906 92.730469 62.503906 90.214844 M 43.914062 110.824219 C 43.914062 110.316406 43.914062 108.980469 45.449219 108.269531 C 44.65625 107.871094 44.230469 107.230469 44.230469 106.296875 C 44.230469 104.578125 45.609375 103.542969 47.367188 103.542969 C 49.453125 103.542969 50.5625 104.78125 50.5625 106.167969 C 50.5625 107.035156 50.207031 107.773438 49.398438 108.199219 C 50.363281 108.679688 50.90625 109.320312 50.90625 110.625 C 50.90625 111.90625 50.078125 113.894531 47.410156 113.894531 C 44.808594 113.894531 43.914062 112.203125 43.914062 110.824219 M 121.824219 80.203125 L 121.367188 80.203125 L 121.367188 83.5 L 115.363281 83.5 L 115.363281 96.417969 L 121.367188 96.417969 L 121.367188 99.839844 L 103.675781 99.839844 L 103.675781 96.417969 L 109.679688 96.417969 L 109.679688 83.5 L 96.761719 83.5 L 96.761719 96.417969 L 102.765625 96.417969 L 102.765625 102.101562 L 96.761719 102.101562 L 96.761719 115.023438 L 102.765625 115.023438 L 102.765625 120.359375 L 85.070312 120.359375 L 85.070312 115.023438 L 91.074219 115.023438 L 91.074219 102.101562 L 85.070312 102.101562 L 85.070312 96.417969 L 91.074219 96.417969 L 91.074219 83.5 L 78.15625 83.5 L 78.15625 96.417969 L 84.160156 96.417969 L 84.160156 102.101562 L 78.15625 102.101562 L 78.15625 115.023438 L 84.160156 115.023438 L 84.160156 120.359375 L 66.46875 120.359375 L 66.46875 115.023438 L 72.472656 115.023438 L 72.472656 102.101562 L 66.46875 102.101562 L 66.46875 96.417969 L 72.472656 96.417969 L 72.472656 83.5 L 59.554688 83.5 L 59.554688 96.417969 L 65.558594 96.417969 L 65.558594 102.101562 L 59.554688 102.101562 L 59.554688 115.023438 L 65.558594 115.023438 L 65.558594 120.359375 L 47.863281 120.359375 L 47.863281 115.023438 L 53.867188 115.023438 L 53.867188 102.101562 L 40.949219 102.101562 L 40.949219 115.023438 L 46.953125 115.023438 L 46.953125 121.269531 L 103.675781 121.269531 L 103.675781 115.023438 L 109.679688 115.023438 L 109.679688 102.101562 L 103.675781 102.101562 L 103.675781 100.75 L 122.277344 100.75 L 122.277344 98.679688 L 131.578125 98.679688 L 131.578125 80.203125 Z M 121.824219 80.203125 "/>
<path fill-rule="nonzero" fill="rgb(0%, 0%, 0%)" fill-opacity="1" d="M 67.460938 91.78125 C 67.460938 90.503906 66.636719 90.089844 66.015625 90.089844 C 65.261719 90.089844 64.496094 90.558594 64.496094 91.824219 C 64.496094 92.917969 65.117188 93.695312 66.070312 93.695312 C 66.792969 93.695312 67.460938 93.140625 67.460938 91.78125 "/>
<path fill-rule="nonzero" fill="rgb(0%, 0%, 0%)" fill-opacity="1" d="M 85.066406 86.914062 L 85.039062 86.914062 L 82.507812 91.234375 L 85.023438 91.234375 C 85.023438 88.800781 85.066406 87.226562 85.066406 86.914062 "/>
<path fill-rule="nonzero" fill="rgb(0%, 0%, 0%)" fill-opacity="1" d="M 47.382812 109.136719 C 46.65625 109.136719 45.964844 109.605469 45.964844 110.699219 C 45.964844 111.664062 46.515625 112.300781 47.425781 112.300781 C 48.460938 112.300781 48.859375 111.40625 48.859375 110.710938 C 48.859375 110.003906 48.488281 109.136719 47.382812 109.136719 "/>
<path fill-rule="nonzero" fill="rgb(0%, 0%, 0%)" fill-opacity="1" d="M 47.421875 107.628906 C 48.203125 107.628906 48.65625 107.105469 48.65625 106.382812 C 48.65625 105.617188 48.132812 105.136719 47.496094 105.136719 C 46.601562 105.136719 46.132812 105.644531 46.132812 106.382812 C 46.132812 106.980469 46.574219 107.628906 47.421875 107.628906 "/>
</svg>
