<?xml version="1.0" encoding="UTF-8"?>
<svg xmlns="http://www.w3.org/2000/svg" xmlns:xlink="http://www.w3.org/1999/xlink" width="172" height="152" viewBox="0 0 172 152">
<path fill-rule="nonzero" fill="rgb(0%, 0%, 0%)" fill-opacity="1" d="M 76.550781 140.199219 L 68.976562 140.199219 L 76.550781 133.984375 Z M 76.550781 145.75 L 79.480469 145.75 L 79.480469 142.503906 L 82.839844 142.503906 L 82.839844 140.199219 L 79.480469 140.199219 L 79.480469 131.539062 L 76.445312 131.539062 L 66.042969 140.199219 L 66.042969 142.503906 L 76.550781 142.503906 Z M 76.550781 145.75 "/>
<path fill-rule="nonzero" fill="rgb(0%, 0%, 0%)" fill-opacity="1" d="M 90.652344 139.324219 C 92.773438 139.109375 94.839844 139 96.800781 139 C 99.132812 139 99.859375 139.296875 99.859375 140.664062 L 99.859375 141.414062 C 99.859375 142.648438 99.324219 143.078125 97.335938 143.078125 L 93.46875 143.078125 C 90.8125 143.078125 90.597656 142.542969 90.597656 140.128906 C 90.597656 139.914062 90.597656 139.644531 90.652344 139.324219 M 90.839844 137.230469 C 91.886719 134.292969 94.730469 133.644531 99.886719 133.644531 L 100.773438 133.644531 L 98.867188 131.421875 C 98.546875 131.394531 98.195312 131.367188 97.875 131.367188 C 91.378906 131.367188 87.636719 134.320312 87.636719 139.484375 L 87.636719 141.308594 C 87.636719 144.609375 88.769531 145.578125 92.210938 145.578125 L 98.0625 145.578125 C 101.285156 145.578125 102.816406 144.53125 102.816406 142.191406 L 102.816406 140.316406 C 102.816406 137.5 101.203125 136.753906 96.960938 136.753906 C 94.8125 136.753906 92.773438 136.9375 90.839844 137.230469 "/>
<path fill-rule="nonzero" fill="rgb(0%, 0%, 0%)" fill-opacity="1" d="M 56.683594 109.136719 C 55.960938 109.136719 55.265625 109.605469 55.265625 110.699219 C 55.265625 111.660156 55.816406 112.300781 56.726562 112.300781 C 57.761719 112.300781 58.160156 111.40625 58.160156 110.710938 C 58.160156 110 57.789062 109.136719 56.683594 109.136719 "/>
<path fill-rule="nonzero" fill="rgb(0%, 0%, 0%)" fill-opacity="1" d="M 56.726562 107.628906 C 57.503906 107.628906 57.960938 107.105469 57.960938 106.382812 C 57.960938 105.613281 57.433594 105.132812 56.796875 105.132812 C 55.902344 105.132812 55.433594 105.644531 55.433594 106.382812 C 55.433594 106.976562 55.875 107.628906 56.726562 107.628906 "/>
<path fill-rule="nonzero" fill="rgb(0%, 0%, 0%)" fill-opacity="1" d="M 75.765625 86.914062 L 75.738281 86.914062 L 73.207031 91.234375 L 75.722656 91.234375 C 75.722656 88.796875 75.765625 87.226562 75.765625 86.914062 "/>
<path fill-rule="nonzero" fill="rgb(0%, 0%, 0%)" fill-opacity="1" d="M 113.9375 113.625 L 111.949219 113.625 L 111.949219 106.671875 L 109.546875 106.671875 L 109.546875 105.28125 L 109.828125 105.28125 C 111.75 105.28125 112.257812 104.289062 112.300781 103.539062 L 113.9375 103.539062 Z M 90.339844 113.625 C 90.410156 112.441406 90.496094 111.207031 92.683594 109.617188 C 94.5 108.300781 95.222656 107.785156 95.222656 106.652344 C 95.222656 105.984375 94.796875 105.21875 93.835938 105.21875 C 92.441406 105.21875 92.402344 106.371094 92.386719 107.105469 L 90.453125 107.105469 C 90.453125 103.828125 92.855469 103.542969 93.75 103.542969 C 95.679688 103.542969 97.214844 104.679688 97.214844 106.722656 C 97.214844 108.457031 96.089844 109.335938 95.109375 110.003906 C 93.777344 110.9375 93.082031 111.390625 92.855469 111.859375 L 97.226562 111.859375 L 97.226562 113.625 Z M 53.214844 110.824219 C 53.214844 110.316406 53.214844 108.980469 54.753906 108.269531 C 53.957031 107.871094 53.53125 107.230469 53.53125 106.296875 C 53.53125 104.578125 54.910156 103.542969 56.667969 103.542969 C 58.757812 103.542969 59.867188 104.777344 59.867188 106.171875 C 59.867188 107.035156 59.507812 107.773438 58.699219 108.199219 C 59.667969 108.683594 60.207031 109.320312 60.207031 110.628906 C 60.207031 111.902344 59.382812 113.894531 56.710938 113.894531 C 54.113281 113.894531 53.214844 112.203125 53.214844 110.824219 M 54.542969 95.019531 C 54.753906 90.988281 57.285156 87.78125 58.136719 86.871094 L 53.121094 86.871094 L 53.160156 85.109375 L 60.269531 85.109375 L 60.269531 86.644531 C 59.300781 87.695312 56.832031 90.679688 56.589844 95.019531 Z M 53.203125 71.613281 C 53.203125 69.699219 53.460938 66.335938 56.953125 66.335938 C 57.363281 66.335938 58.511719 66.492188 59.011719 66.988281 C 59.566406 67.527344 59.765625 67.828125 59.949219 68.890625 L 57.972656 68.890625 C 57.917969 68.324219 57.546875 67.925781 56.8125 67.925781 C 55.519531 67.925781 55.222656 69.398438 55.152344 70.707031 L 55.179688 70.734375 C 55.449219 70.363281 55.945312 69.894531 57.066406 69.894531 C 59.152344 69.894531 60.148438 71.5 60.148438 73.007812 C 60.148438 75.207031 58.796875 76.6875 56.851562 76.6875 C 53.800781 76.6875 53.203125 74.128906 53.203125 71.613281 M 53.144531 55.113281 L 55.136719 55.113281 C 55.222656 55.9375 55.660156 56.488281 56.542969 56.488281 C 57.492188 56.488281 58.042969 55.679688 58.042969 54.601562 C 58.042969 53.707031 57.621094 52.796875 56.570312 52.796875 C 56.296875 52.796875 55.621094 52.8125 55.234375 53.523438 L 53.457031 53.4375 L 54.15625 47.902344 L 59.695312 47.902344 L 59.695312 49.578125 L 55.589844 49.578125 L 55.234375 51.761719 C 55.605469 51.503906 56.058594 51.207031 57.039062 51.207031 C 58.382812 51.207031 60.09375 52.144531 60.09375 54.457031 C 60.09375 55.835938 59.398438 58.082031 56.425781 58.082031 C 54.851562 58.082031 53.246094 57.144531 53.144531 55.113281 M 71.746094 92.78125 L 71.746094 91.0625 L 75.453125 84.9375 L 77.714844 84.9375 L 77.714844 91.234375 L 78.835938 91.234375 L 78.835938 92.78125 L 77.714844 92.78125 L 77.714844 95.019531 L 75.722656 95.019531 L 75.722656 92.78125 Z M 71.75 73.320312 L 73.695312 73.320312 L 73.683594 73.335938 C 73.683594 73.871094 73.824219 75.09375 75.160156 75.09375 C 75.953125 75.09375 76.648438 74.554688 76.648438 73.433594 C 76.648438 72.058594 75.316406 72 74.382812 72 L 74.382812 70.578125 L 74.703125 70.578125 C 75.300781 70.578125 76.390625 70.519531 76.390625 69.21875 C 76.390625 68.851562 76.222656 67.925781 75.128906 67.925781 C 73.765625 67.925781 73.765625 69.21875 73.765625 69.570312 L 71.917969 69.570312 C 71.917969 67.683594 72.984375 66.335938 75.257812 66.335938 C 76.605469 66.335938 78.382812 67.019531 78.382812 69.148438 C 78.382812 70.167969 77.742188 70.804688 77.175781 71.0625 L 77.175781 71.089844 C 77.53125 71.191406 78.699219 71.714844 78.699219 73.433594 C 78.699219 75.335938 77.289062 76.6875 75.257812 76.6875 C 74.304688 76.6875 71.75 76.472656 71.75 73.320312 M 75.769531 62.507812 L 84.160156 62.515625 L 84.160156 80.203125 L 75.769531 80.203125 L 75.769531 77.8125 L 81.773438 77.8125 L 81.773438 64.894531 L 75.769531 64.894531 Z M 106.0625 102.101562 L 106.0625 115.023438 L 112.066406 115.023438 L 112.066406 120.511719 L 94.375 120.511719 L 94.375 115.023438 L 100.375 115.023438 L 100.375 102.101562 L 87.460938 102.101562 L 87.460938 115.023438 L 93.460938 115.023438 L 93.460938 120.511719 L 57.167969 120.511719 L 57.167969 115.023438 L 63.167969 115.023438 L 63.167969 102.101562 L 57.167969 102.101562 L 57.167969 99.714844 L 75.769531 99.714844 L 75.769531 96.417969 L 81.773438 96.417969 L 81.773438 83.5 L 75.769531 83.5 L 75.769531 81.113281 L 85.070312 81.113281 L 85.070312 61.605469 L 84.617188 61.601562 L 75.3125 61.597656 L 74.859375 61.597656 L 74.859375 64.894531 L 68.855469 64.894531 L 68.855469 77.8125 L 74.859375 77.8125 L 74.859375 83.5 L 68.855469 83.5 L 68.855469 96.417969 L 74.859375 96.417969 L 74.859375 98.804688 L 57.167969 98.804688 L 57.167969 96.417969 L 63.167969 96.417969 L 63.167969 83.5 L 57.167969 83.5 L 57.167969 77.8125 L 63.167969 77.8125 L 63.167969 64.894531 L 57.167969 64.894531 L 57.167969 59.210938 L 63.167969 59.210938 L 63.167969 46.289062 L 50.25 46.289062 L 50.25 59.210938 L 56.253906 59.210938 L 56.253906 64.894531 L 50.25 64.894531 L 50.25 77.8125 L 56.253906 77.8125 L 56.253906 83.5 L 50.25 83.5 L 50.25 96.417969 L 56.253906 96.417969 L 56.253906 102.101562 L 50.25 102.101562 L 50.25 115.023438 L 56.253906 115.023438 L 56.253906 121.421875 L 112.976562 121.421875 L 112.976562 115.023438 L 118.980469 115.023438 L 118.980469 102.101562 Z M 106.0625 102.101562 "/>
<path fill-rule="nonzero" fill="rgb(0%, 0%, 0%)" fill-opacity="1" d="M 58.15625 73.175781 C 58.15625 71.898438 57.335938 71.488281 56.710938 71.488281 C 55.957031 71.488281 55.191406 71.957031 55.191406 73.21875 C 55.191406 74.3125 55.816406 75.09375 56.765625 75.09375 C 57.492188 75.09375 58.15625 74.539062 58.15625 73.175781 "/>
</svg>
