<?xml version="1.0" encoding="UTF-8"?>
<svg xmlns="http://www.w3.org/2000/svg" xmlns:xlink="http://www.w3.org/1999/xlink" width="172" height="152" viewBox="0 0 172 152">
<path fill-rule="nonzero" fill="rgb(0%, 0%, 0%)" fill-opacity="1" d="M 77.796875 139.570312 C 78.875 139.570312 79.117188 139.839844 79.117188 140.828125 L 79.117188 141.84375 C 79.117188 142.835938 78.875 143.078125 77.796875 143.078125 L 70.691406 143.078125 C 69.613281 143.078125 69.371094 142.863281 69.371094 141.84375 L 69.371094 140.828125 C 69.371094 139.839844 69.613281 139.570312 70.691406 139.570312 Z M 77.492188 134.074219 C 78.5625 134.074219 78.804688 134.34375 78.804688 135.34375 L 78.804688 136.046875 C 78.804688 137.050781 78.5625 137.320312 77.492188 137.320312 L 71.023438 137.320312 C 69.953125 137.320312 69.683594 137.050781 69.683594 136.046875 L 69.683594 135.34375 C 69.683594 134.34375 69.953125 134.074219 71.023438 134.074219 Z M 78.5625 131.710938 L 69.925781 131.710938 C 67.5625 131.710938 66.757812 132.21875 66.757812 134.425781 L 66.757812 135.695312 C 66.757812 137.320312 67.480469 138.015625 69.414062 138.390625 C 67.410156 138.605469 66.441406 139.464844 66.441406 141.148438 L 66.441406 142.59375 C 66.441406 144.746094 67.140625 145.578125 69.800781 145.578125 L 78.6875 145.578125 C 81.347656 145.578125 82.074219 144.746094 82.074219 142.59375 L 82.074219 141.148438 C 82.074219 139.464844 81.105469 138.605469 79.117188 138.390625 C 81.035156 138.015625 81.730469 137.320312 81.730469 135.695312 L 81.730469 134.425781 C 81.730469 132.21875 80.925781 131.710938 78.5625 131.710938 "/>
<path fill-rule="nonzero" fill="rgb(0%, 0%, 0%)" fill-opacity="1" d="M 94.164062 134.339844 L 91.207031 134.339844 L 91.207031 132.484375 L 97.09375 131.597656 L 97.09375 145.578125 L 94.164062 145.578125 Z M 94.164062 134.339844 "/>
<path fill-rule="nonzero" fill="rgb(0%, 0%, 0%)" fill-opacity="1" d="M 85.066406 86.914062 L 85.039062 86.914062 L 82.507812 91.234375 L 85.023438 91.234375 C 85.023438 88.796875 85.066406 87.226562 85.066406 86.914062 "/>
<path fill-rule="nonzero" fill="rgb(0%, 0%, 0%)" fill-opacity="1" d="M 65.984375 109.136719 C 65.261719 109.136719 64.566406 109.605469 64.566406 110.695312 C 64.566406 111.660156 65.117188 112.300781 66.027344 112.300781 C 67.0625 112.300781 67.460938 111.40625 67.460938 110.710938 C 67.460938 110 67.089844 109.136719 65.984375 109.136719 "/>
<path fill-rule="nonzero" fill="rgb(0%, 0%, 0%)" fill-opacity="1" d="M 102.644531 95.019531 L 102.644531 88.070312 L 100.242188 88.070312 L 100.242188 86.675781 L 100.527344 86.675781 C 102.445312 86.675781 102.957031 85.683594 103 84.9375 L 104.636719 84.9375 L 104.636719 95.019531 Z M 106.515625 106.722656 C 106.515625 108.453125 105.390625 109.335938 104.410156 110 C 103.078125 110.9375 102.382812 111.390625 102.15625 111.859375 L 106.53125 111.859375 L 106.53125 113.621094 L 99.640625 113.621094 C 99.710938 112.445312 99.796875 111.207031 101.988281 109.621094 C 103.800781 108.296875 104.527344 107.789062 104.527344 106.652344 C 104.527344 105.984375 104.097656 105.21875 103.136719 105.21875 C 101.746094 105.21875 101.703125 106.367188 101.6875 107.105469 L 99.753906 107.105469 C 99.753906 103.824219 102.15625 103.542969 103.050781 103.542969 C 104.980469 103.542969 106.515625 104.679688 106.515625 106.722656 M 103.675781 81.113281 L 112.066406 81.113281 L 112.066406 98.804688 L 103.675781 98.804688 L 103.675781 96.417969 L 109.679688 96.417969 L 109.679688 83.5 L 103.675781 83.5 Z M 81.050781 110.921875 L 83.042969 110.921875 C 83.125 111.75 83.566406 112.300781 84.445312 112.300781 C 85.398438 112.300781 85.949219 111.492188 85.949219 110.414062 C 85.949219 109.519531 85.523438 108.609375 84.472656 108.609375 C 84.207031 108.609375 83.523438 108.625 83.140625 109.332031 L 81.363281 109.25 L 82.058594 103.710938 L 87.601562 103.710938 L 87.601562 105.390625 L 83.496094 105.390625 L 83.140625 107.570312 C 83.507812 107.316406 83.964844 107.015625 84.941406 107.015625 C 86.292969 107.015625 88 107.953125 88 110.269531 C 88 111.648438 87.300781 113.894531 84.332031 113.894531 C 82.757812 113.894531 81.152344 112.957031 81.050781 110.921875 M 81.042969 92.785156 L 81.042969 91.0625 L 84.753906 84.9375 L 87.015625 84.9375 L 87.015625 91.234375 L 88.136719 91.234375 L 88.136719 92.785156 L 87.015625 92.785156 L 87.015625 95.019531 L 85.023438 95.019531 L 85.023438 92.785156 Z M 81.050781 73.320312 L 83 73.320312 L 82.984375 73.335938 C 82.984375 73.875 83.125 75.09375 84.460938 75.09375 C 85.253906 75.09375 85.949219 74.554688 85.949219 73.433594 C 85.949219 72.054688 84.617188 72 83.683594 72 L 83.683594 70.578125 L 84.003906 70.578125 C 84.601562 70.578125 85.695312 70.523438 85.695312 69.214844 C 85.695312 68.847656 85.523438 67.925781 84.429688 67.925781 C 83.070312 67.925781 83.070312 69.214844 83.070312 69.574219 L 81.222656 69.574219 C 81.222656 67.683594 82.289062 66.332031 84.558594 66.332031 C 85.90625 66.332031 87.683594 67.015625 87.683594 69.144531 C 87.683594 70.164062 87.042969 70.804688 86.476562 71.0625 L 86.476562 71.089844 C 86.832031 71.1875 88 71.714844 88 73.433594 C 88 75.335938 86.589844 76.683594 84.558594 76.683594 C 83.609375 76.683594 81.050781 76.472656 81.050781 73.320312 M 62.519531 110.828125 C 62.519531 110.3125 62.519531 108.980469 64.054688 108.269531 C 63.257812 107.871094 62.832031 107.234375 62.832031 106.296875 C 62.832031 104.582031 64.210938 103.542969 65.972656 103.542969 C 68.058594 103.542969 69.164062 104.777344 69.164062 106.167969 C 69.164062 107.035156 68.808594 107.773438 68 108.199219 C 68.96875 108.679688 69.507812 109.320312 69.507812 110.625 C 69.507812 111.902344 68.683594 113.894531 66.011719 113.894531 C 63.414062 113.894531 62.519531 112.203125 62.519531 110.828125 M 63.84375 95.019531 C 64.054688 90.988281 66.585938 87.78125 67.441406 86.875 L 62.421875 86.875 L 62.464844 85.109375 L 69.574219 85.109375 L 69.574219 86.644531 C 68.605469 87.695312 66.132812 90.675781 65.890625 95.019531 Z M 62.503906 71.613281 C 62.503906 69.699219 62.757812 66.332031 66.253906 66.332031 C 66.664062 66.332031 67.816406 66.492188 68.316406 66.988281 C 68.867188 67.527344 69.066406 67.828125 69.25 68.890625 L 67.277344 68.890625 C 67.21875 68.324219 66.847656 67.925781 66.113281 67.925781 C 64.820312 67.925781 64.523438 69.402344 64.453125 70.707031 L 64.480469 70.734375 C 64.75 70.367188 65.246094 69.894531 66.367188 69.894531 C 68.457031 69.894531 69.453125 71.5 69.453125 73.007812 C 69.453125 75.207031 68.097656 76.683594 66.15625 76.683594 C 63.101562 76.683594 62.503906 74.128906 62.503906 71.613281 M 112.976562 99.714844 L 112.976562 80.199219 L 102.761719 80.199219 L 102.761719 83.5 L 96.757812 83.5 L 96.757812 96.417969 L 102.761719 96.417969 L 102.761719 102.101562 L 96.757812 102.101562 L 96.757812 115.023438 L 102.761719 115.023438 L 102.761719 120.375 L 85.074219 120.375 L 85.074219 115.023438 L 91.074219 115.023438 L 91.074219 102.101562 L 85.074219 102.101562 L 85.074219 96.417969 L 91.074219 96.417969 L 91.074219 83.5 L 85.074219 83.5 L 85.074219 77.8125 L 91.074219 77.8125 L 91.074219 64.894531 L 78.15625 64.894531 L 78.15625 77.8125 L 84.160156 77.8125 L 84.160156 83.5 L 78.15625 83.5 L 78.15625 96.417969 L 84.160156 96.417969 L 84.160156 102.101562 L 78.15625 102.101562 L 78.15625 115.023438 L 84.160156 115.023438 L 84.160156 120.375 L 66.46875 120.375 L 66.46875 115.023438 L 72.472656 115.023438 L 72.472656 102.101562 L 66.46875 102.101562 L 66.46875 96.417969 L 72.472656 96.417969 L 72.472656 83.5 L 66.46875 83.5 L 66.46875 77.8125 L 72.472656 77.8125 L 72.472656 64.894531 L 59.550781 64.894531 L 59.550781 77.8125 L 65.554688 77.8125 L 65.554688 83.5 L 59.550781 83.5 L 59.550781 96.417969 L 65.554688 96.417969 L 65.554688 102.101562 L 59.550781 102.101562 L 59.550781 115.023438 L 65.554688 115.023438 L 65.554688 121.285156 L 103.675781 121.285156 L 103.675781 115.023438 L 109.679688 115.023438 L 109.679688 102.101562 L 103.675781 102.101562 L 103.675781 99.714844 Z M 112.976562 99.714844 "/>
<path fill-rule="nonzero" fill="rgb(0%, 0%, 0%)" fill-opacity="1" d="M 67.460938 73.175781 C 67.460938 71.898438 66.636719 71.488281 66.011719 71.488281 C 65.261719 71.488281 64.496094 71.957031 64.496094 73.21875 C 64.496094 74.3125 65.117188 75.09375 66.070312 75.09375 C 66.792969 75.09375 67.460938 74.539062 67.460938 73.175781 "/>
<path fill-rule="nonzero" fill="rgb(0%, 0%, 0%)" fill-opacity="1" d="M 66.027344 107.628906 C 66.808594 107.628906 67.261719 107.105469 67.261719 106.382812 C 67.261719 105.617188 66.734375 105.132812 66.097656 105.132812 C 65.207031 105.132812 64.738281 105.644531 64.738281 106.382812 C 64.738281 106.976562 65.175781 107.628906 66.027344 107.628906 "/>
</svg>
