<?xml version="1.0" encoding="UTF-8"?>
<svg xmlns="http://www.w3.org/2000/svg" xmlns:xlink="http://www.w3.org/1999/xlink" width="172" height="152" viewBox="0 0 172 152">
<path fill-rule="nonzero" fill="rgb(0%, 0%, 0%)" fill-opacity="1" d="M 78.816406 133.039062 L 69.65625 133.039062 L 69.65625 136.027344 L 66.722656 135.515625 L 66.722656 130.675781 L 82.121094 130.675781 L 82.121094 132.90625 L 74.867188 144.800781 L 71.347656 144.800781 Z M 78.816406 133.039062 "/>
<path fill-rule="nonzero" fill="rgb(0%, 0%, 0%)" fill-opacity="1" d="M 99.589844 133.039062 L 90.425781 133.039062 L 90.425781 136.027344 L 87.496094 135.515625 L 87.496094 130.675781 L 102.894531 130.675781 L 102.894531 132.90625 L 95.640625 144.800781 L 92.117188 144.800781 Z M 99.589844 133.039062 "/>
<path fill-rule="nonzero" fill="rgb(0%, 0%, 0%)" fill-opacity="1" d="M 56.726562 107.628906 C 57.503906 107.628906 57.960938 107.105469 57.960938 106.382812 C 57.960938 105.617188 57.433594 105.136719 56.796875 105.136719 C 55.902344 105.136719 55.4375 105.644531 55.4375 106.382812 C 55.4375 106.980469 55.875 107.628906 56.726562 107.628906 "/>
<path fill-rule="nonzero" fill="rgb(0%, 0%, 0%)" fill-opacity="1" d="M 56.683594 109.136719 C 55.960938 109.136719 55.265625 109.605469 55.265625 110.699219 C 55.265625 111.664062 55.816406 112.300781 56.726562 112.300781 C 57.761719 112.300781 58.160156 111.40625 58.160156 110.710938 C 58.160156 110.003906 57.789062 109.136719 56.683594 109.136719 "/>
<path fill-rule="nonzero" fill="rgb(0%, 0%, 0%)" fill-opacity="1" d="M 112.929688 109.835938 C 112.929688 107.402344 112.972656 105.828125 112.972656 105.519531 L 112.945312 105.519531 L 110.414062 109.835938 Z M 112.929688 109.835938 "/>
<path fill-rule="nonzero" fill="rgb(0%, 0%, 0%)" fill-opacity="1" d="M 139.972656 97.769531 L 131.578125 97.769531 L 131.578125 96.417969 L 137.585938 96.417969 L 137.585938 83.5 L 131.578125 83.5 L 131.578125 81.113281 L 139.972656 81.113281 Z M 130.550781 95.019531 L 130.550781 88.070312 L 128.152344 88.070312 L 128.152344 86.675781 L 128.433594 86.675781 C 130.355469 86.675781 130.863281 85.6875 130.90625 84.933594 L 132.542969 84.933594 L 132.542969 95.019531 Z M 108.945312 95.019531 C 109.015625 93.839844 109.101562 92.601562 111.289062 91.011719 C 113.105469 89.695312 113.828125 89.183594 113.828125 88.050781 C 113.828125 87.382812 113.402344 86.617188 112.4375 86.617188 C 111.046875 86.617188 111.003906 87.765625 110.992188 88.503906 L 109.058594 88.503906 C 109.058594 85.222656 111.457031 84.9375 112.351562 84.9375 C 114.285156 84.9375 115.820312 86.074219 115.820312 88.121094 C 115.820312 89.851562 114.695312 90.730469 113.714844 91.398438 C 112.382812 92.332031 111.6875 92.789062 111.457031 93.253906 L 115.832031 93.253906 L 115.832031 95.019531 Z M 114.921875 103.542969 L 114.921875 109.835938 L 116.042969 109.835938 L 116.042969 111.386719 L 114.921875 111.386719 L 114.921875 113.625 L 112.929688 113.625 L 112.929688 111.386719 L 108.949219 111.386719 L 108.949219 109.667969 L 112.660156 103.542969 Z M 53.21875 110.824219 C 53.21875 110.316406 53.21875 108.980469 54.753906 108.269531 C 53.957031 107.871094 53.53125 107.230469 53.53125 106.296875 C 53.53125 104.578125 54.910156 103.542969 56.667969 103.542969 C 58.753906 103.542969 59.867188 104.78125 59.867188 106.167969 C 59.867188 107.035156 59.507812 107.773438 58.699219 108.199219 C 59.667969 108.679688 60.207031 109.320312 60.207031 110.625 C 60.207031 111.90625 59.382812 113.894531 56.710938 113.894531 C 54.113281 113.894531 53.21875 112.203125 53.21875 110.824219 M 53.203125 90.214844 C 53.203125 88.300781 53.457031 84.9375 56.953125 84.9375 C 57.367188 84.9375 58.515625 85.09375 59.011719 85.589844 C 59.566406 86.132812 59.765625 86.429688 59.949219 87.496094 L 57.976562 87.492188 C 57.917969 86.925781 57.550781 86.53125 56.8125 86.53125 C 55.519531 86.53125 55.222656 88.003906 55.152344 89.308594 L 55.179688 89.335938 C 55.449219 88.96875 55.949219 88.5 57.066406 88.5 C 59.152344 88.5 60.152344 90.105469 60.152344 91.609375 C 60.152344 93.8125 58.800781 95.289062 56.855469 95.289062 C 53.800781 95.289062 53.203125 92.730469 53.203125 90.214844 M 35.9375 95.019531 C 36.152344 90.992188 38.683594 87.78125 39.535156 86.871094 L 34.515625 86.871094 L 34.558594 85.109375 L 41.667969 85.109375 L 41.667969 86.644531 C 40.699219 87.695312 38.230469 90.675781 37.988281 95.019531 Z M 71.75 92.320312 L 73.742188 92.320312 C 73.824219 93.140625 74.265625 93.699219 75.144531 93.699219 C 76.09375 93.699219 76.648438 92.886719 76.648438 91.808594 C 76.648438 90.914062 76.222656 90.003906 75.175781 90.003906 C 74.90625 90.003906 74.222656 90.019531 73.839844 90.730469 L 72.0625 90.644531 L 72.757812 85.109375 L 78.296875 85.109375 L 78.296875 86.789062 L 74.195312 86.789062 L 73.839844 88.96875 C 74.207031 88.710938 74.660156 88.414062 75.640625 88.414062 C 76.992188 88.414062 78.699219 89.351562 78.699219 91.664062 C 78.699219 93.042969 78 95.289062 75.03125 95.289062 C 73.457031 95.289062 71.851562 94.351562 71.75 92.320312 M 90.355469 91.921875 L 92.300781 91.921875 L 92.289062 91.9375 C 92.289062 92.476562 92.429688 93.699219 93.761719 93.699219 C 94.558594 93.699219 95.25 93.15625 95.25 92.035156 C 95.25 90.664062 93.917969 90.601562 92.988281 90.601562 L 92.988281 89.183594 L 93.308594 89.183594 C 93.90625 89.183594 94.996094 89.125 94.996094 87.820312 C 94.996094 87.453125 94.824219 86.53125 93.734375 86.53125 C 92.371094 86.53125 92.371094 87.820312 92.371094 88.175781 L 90.523438 88.175781 C 90.523438 86.289062 91.589844 84.9375 93.863281 84.9375 C 95.210938 84.9375 96.988281 85.621094 96.988281 87.75 C 96.988281 88.773438 96.347656 89.410156 95.78125 89.664062 L 95.78125 89.695312 C 96.132812 89.792969 97.300781 90.320312 97.300781 92.035156 C 97.300781 93.9375 95.890625 95.289062 93.863281 95.289062 C 92.910156 95.289062 90.355469 95.074219 90.355469 91.921875 M 131.125 80.203125 L 130.667969 80.203125 L 130.667969 83.5 L 124.667969 83.5 L 124.667969 96.417969 L 130.667969 96.417969 L 130.667969 99.835938 L 112.976562 99.835938 L 112.976562 96.417969 L 118.980469 96.417969 L 118.980469 83.5 L 106.0625 83.5 L 106.0625 96.417969 L 112.066406 96.417969 L 112.066406 99.835938 L 94.371094 99.835938 L 94.371094 96.417969 L 100.378906 96.417969 L 100.378906 83.5 L 87.457031 83.5 L 87.457031 96.417969 L 93.460938 96.417969 L 93.460938 100.75 L 112.066406 100.75 L 112.066406 102.101562 L 106.0625 102.101562 L 106.0625 115.023438 L 112.066406 115.023438 L 112.066406 120.507812 L 57.164062 120.507812 L 57.164062 115.023438 L 63.167969 115.023438 L 63.167969 102.101562 L 57.164062 102.101562 L 57.164062 100.75 L 75.769531 100.75 L 75.769531 96.417969 L 81.773438 96.417969 L 81.773438 83.5 L 68.855469 83.5 L 68.855469 96.417969 L 74.859375 96.417969 L 74.859375 99.835938 L 57.164062 99.835938 L 57.164062 96.417969 L 63.167969 96.417969 L 63.167969 83.5 L 50.25 83.5 L 50.25 96.417969 L 56.253906 96.417969 L 56.253906 99.835938 L 38.5625 99.835938 L 38.5625 96.417969 L 44.566406 96.417969 L 44.566406 83.5 L 31.648438 83.5 L 31.648438 96.417969 L 37.652344 96.417969 L 37.652344 100.75 L 56.253906 100.75 L 56.253906 102.101562 L 50.25 102.101562 L 50.25 115.023438 L 56.253906 115.023438 L 56.253906 121.421875 L 112.976562 121.421875 L 112.976562 115.023438 L 118.980469 115.023438 L 118.980469 102.101562 L 112.976562 102.101562 L 112.976562 100.75 L 131.578125 100.75 L 131.578125 98.679688 L 140.882812 98.679688 L 140.882812 80.203125 Z M 131.125 80.203125 "/>
<path fill-rule="nonzero" fill="rgb(0%, 0%, 0%)" fill-opacity="1" d="M 58.160156 91.78125 C 58.160156 90.503906 57.335938 90.089844 56.714844 90.089844 C 55.960938 90.089844 55.195312 90.558594 55.195312 91.824219 C 55.195312 92.917969 55.816406 93.695312 56.769531 93.695312 C 57.492188 93.695312 58.160156 93.140625 58.160156 91.78125 "/>
</svg>
