<?xml version="1.0" encoding="UTF-8"?>
<svg xmlns="http://www.w3.org/2000/svg" xmlns:xlink="http://www.w3.org/1999/xlink" width="172" height="152" viewBox="0 0 172 152">
<path fill-rule="nonzero" fill="rgb(0%, 0%, 0%)" fill-opacity="1" d="M 68.144531 131.710938 L 80.128906 131.710938 L 79.886719 134.070312 L 70.210938 134.070312 L 69.890625 136.761719 C 72.011719 136.546875 73.867188 136.410156 75.503906 136.410156 C 80.074219 136.410156 82.390625 137.972656 82.390625 141.121094 C 82.390625 144.484375 79.941406 145.777344 74.753906 145.777344 C 71.769531 145.777344 69.539062 145.5625 68.0625 145.214844 L 67.363281 142.519531 C 69.890625 142.980469 72.308594 143.246094 74.671875 143.246094 C 77.949219 143.246094 79.402344 142.710938 79.402344 140.984375 C 79.402344 139.339844 77.925781 138.828125 74.859375 138.828125 C 72.953125 138.828125 70.453125 138.992188 67.363281 139.394531 L 68.144531 131.710938 "/>
<path fill-rule="nonzero" fill="rgb(0%, 0%, 0%)" fill-opacity="1" d="M 99.589844 134.074219 L 90.425781 134.074219 L 90.425781 137.0625 L 87.5 136.550781 L 87.5 131.710938 L 102.898438 131.710938 L 102.898438 133.9375 L 95.640625 145.835938 L 92.121094 145.835938 Z M 99.589844 134.074219 "/>
<path fill-rule="nonzero" fill="rgb(0%, 0%, 0%)" fill-opacity="1" d="M 66.464844 68.3125 L 66.433594 68.3125 L 63.90625 72.628906 L 66.421875 72.628906 C 66.421875 70.195312 66.464844 68.625 66.464844 68.3125 "/>
<path fill-rule="nonzero" fill="rgb(0%, 0%, 0%)" fill-opacity="1" d="M 47.382812 109.136719 C 46.660156 109.136719 45.964844 109.605469 45.964844 110.699219 C 45.964844 111.664062 46.515625 112.300781 47.425781 112.300781 C 48.460938 112.300781 48.855469 111.40625 48.855469 110.714844 C 48.855469 110.003906 48.488281 109.136719 47.382812 109.136719 "/>
<path fill-rule="nonzero" fill="rgb(0%, 0%, 0%)" fill-opacity="1" d="M 123.242188 113.625 L 121.25 113.625 L 121.25 106.675781 L 118.847656 106.675781 L 118.847656 105.28125 L 119.132812 105.28125 C 121.050781 105.28125 121.5625 104.289062 121.605469 103.542969 L 123.242188 103.542969 Z M 99.640625 113.621094 C 99.714844 112.441406 99.796875 111.207031 101.988281 109.617188 C 103.800781 108.300781 104.527344 107.789062 104.527344 106.652344 C 104.527344 105.984375 104.101562 105.222656 103.136719 105.222656 C 101.746094 105.222656 101.703125 106.367188 101.691406 107.105469 L 99.753906 107.105469 C 99.753906 103.828125 102.15625 103.542969 103.050781 103.542969 C 104.980469 103.542969 106.515625 104.679688 106.515625 106.726562 C 106.515625 108.453125 105.394531 109.335938 104.414062 110 C 103.078125 110.9375 102.382812 111.390625 102.15625 111.859375 L 106.53125 111.859375 L 106.53125 113.621094 Z M 81.050781 110.527344 L 83 110.527344 L 82.984375 110.542969 C 82.984375 111.082031 83.125 112.300781 84.460938 112.300781 C 85.257812 112.300781 85.949219 111.761719 85.949219 110.640625 C 85.949219 109.265625 84.617188 109.207031 83.6875 109.207031 L 83.6875 107.789062 L 84.007812 107.789062 C 84.601562 107.789062 85.695312 107.730469 85.695312 106.425781 C 85.695312 106.054688 85.523438 105.136719 84.433594 105.136719 C 83.070312 105.136719 83.070312 106.425781 83.070312 106.777344 L 81.222656 106.777344 C 81.222656 104.894531 82.289062 103.542969 84.558594 103.542969 C 85.90625 103.542969 87.6875 104.226562 87.6875 106.355469 C 87.6875 107.375 87.046875 108.015625 86.476562 108.269531 L 86.476562 108.296875 C 86.832031 108.398438 87.996094 108.925781 87.996094 110.640625 C 87.996094 112.542969 86.589844 113.894531 84.558594 113.894531 C 83.609375 113.894531 81.050781 113.679688 81.050781 110.527344 M 43.914062 110.828125 C 43.914062 110.3125 43.914062 108.980469 45.453125 108.269531 C 44.65625 107.871094 44.226562 107.234375 44.226562 106.300781 C 44.226562 104.582031 45.609375 103.542969 47.367188 103.542969 C 49.453125 103.542969 50.5625 104.777344 50.5625 106.171875 C 50.5625 107.035156 50.207031 107.773438 49.398438 108.199219 C 50.363281 108.683594 50.90625 109.320312 50.90625 110.628906 C 50.90625 111.902344 50.078125 113.894531 47.410156 113.894531 C 44.8125 113.894531 43.914062 112.199219 43.914062 110.828125 M 45.242188 95.019531 C 45.453125 90.988281 47.984375 87.78125 48.835938 86.875 L 43.816406 86.875 L 43.863281 85.109375 L 50.96875 85.109375 L 50.96875 86.644531 C 50 87.695312 47.53125 90.679688 47.289062 95.019531 Z M 43.902344 71.613281 C 43.902344 69.699219 44.15625 66.335938 47.652344 66.335938 C 48.0625 66.335938 49.210938 66.492188 49.710938 66.988281 C 50.265625 67.527344 50.464844 67.828125 50.648438 68.894531 L 48.671875 68.890625 C 48.613281 68.324219 48.246094 67.925781 47.507812 67.925781 C 46.21875 67.925781 45.917969 69.398438 45.847656 70.707031 L 45.875 70.734375 C 46.148438 70.367188 46.644531 69.894531 47.765625 69.894531 C 49.851562 69.894531 50.847656 71.503906 50.847656 73.007812 C 50.847656 75.207031 49.496094 76.6875 47.550781 76.6875 C 44.496094 76.6875 43.902344 74.128906 43.902344 71.613281 M 43.84375 55.113281 L 45.835938 55.113281 C 45.917969 55.9375 46.359375 56.488281 47.242188 56.488281 C 48.191406 56.488281 48.742188 55.679688 48.742188 54.601562 C 48.742188 53.707031 48.316406 52.800781 47.269531 52.800781 C 46.996094 52.800781 46.316406 52.8125 45.933594 53.523438 L 44.15625 53.4375 L 44.855469 47.902344 L 50.394531 47.902344 L 50.394531 49.578125 L 46.289062 49.578125 L 45.933594 51.761719 C 46.304688 51.503906 46.757812 51.203125 47.734375 51.203125 C 49.085938 51.203125 50.792969 52.144531 50.792969 54.460938 C 50.792969 55.835938 50.09375 58.082031 47.125 58.082031 C 45.550781 58.082031 43.941406 57.144531 43.84375 55.113281 M 62.441406 74.179688 L 62.441406 72.460938 L 66.152344 66.335938 L 68.414062 66.335938 L 68.414062 72.628906 L 69.535156 72.628906 L 69.535156 74.179688 L 68.414062 74.179688 L 68.414062 76.417969 L 66.421875 76.417969 L 66.421875 74.179688 Z M 66.46875 62.511719 L 74.859375 62.511719 L 74.859375 79.167969 L 66.46875 79.167969 L 66.46875 77.8125 L 72.46875 77.8125 L 72.46875 64.894531 L 66.46875 64.894531 Z M 115.363281 102.105469 L 115.363281 115.023438 L 121.367188 115.023438 L 121.367188 120.511719 L 103.675781 120.511719 L 103.675781 115.023438 L 109.679688 115.023438 L 109.679688 102.105469 L 96.757812 102.105469 L 96.757812 115.023438 L 102.765625 115.023438 L 102.765625 120.511719 L 85.074219 120.511719 L 85.074219 115.023438 L 91.074219 115.023438 L 91.074219 102.105469 L 78.15625 102.105469 L 78.15625 115.023438 L 84.160156 115.023438 L 84.160156 120.511719 L 47.863281 120.511719 L 47.863281 115.023438 L 53.867188 115.023438 L 53.867188 102.105469 L 47.863281 102.105469 L 47.863281 96.417969 L 53.867188 96.417969 L 53.867188 83.5 L 47.863281 83.5 L 47.863281 82.144531 L 66.46875 82.144531 L 66.46875 80.078125 L 75.769531 80.078125 L 75.769531 61.597656 L 65.558594 61.597656 L 65.558594 64.894531 L 59.554688 64.894531 L 59.554688 77.8125 L 65.558594 77.8125 L 65.558594 81.234375 L 47.863281 81.234375 L 47.863281 77.8125 L 53.867188 77.8125 L 53.867188 64.894531 L 47.863281 64.894531 L 47.863281 59.210938 L 53.867188 59.210938 L 53.867188 46.292969 L 40.949219 46.292969 L 40.949219 59.210938 L 46.953125 59.210938 L 46.953125 64.894531 L 40.949219 64.894531 L 40.949219 77.8125 L 46.953125 77.8125 L 46.953125 83.5 L 40.949219 83.5 L 40.949219 96.417969 L 46.953125 96.417969 L 46.953125 102.105469 L 40.949219 102.105469 L 40.949219 115.023438 L 46.953125 115.023438 L 46.953125 121.421875 L 122.28125 121.421875 L 122.28125 115.023438 L 128.285156 115.023438 L 128.285156 102.105469 Z M 115.363281 102.105469 "/>
<path fill-rule="nonzero" fill="rgb(0%, 0%, 0%)" fill-opacity="1" d="M 48.855469 73.179688 C 48.855469 71.898438 48.035156 71.488281 47.410156 71.488281 C 46.660156 71.488281 45.890625 71.957031 45.890625 73.21875 C 45.890625 74.3125 46.515625 75.09375 47.46875 75.09375 C 48.191406 75.09375 48.855469 74.539062 48.855469 73.179688 "/>
<path fill-rule="nonzero" fill="rgb(0%, 0%, 0%)" fill-opacity="1" d="M 47.421875 107.632812 C 48.203125 107.632812 48.660156 107.105469 48.660156 106.382812 C 48.660156 105.617188 48.132812 105.136719 47.496094 105.136719 C 46.601562 105.136719 46.132812 105.644531 46.132812 106.382812 C 46.132812 106.980469 46.574219 107.632812 47.421875 107.632812 "/>
</svg>
