<?xml version="1.0" encoding="UTF-8"?>
<svg xmlns="http://www.w3.org/2000/svg" xmlns:xlink="http://www.w3.org/1999/xlink" width="172" height="152" viewBox="0 0 172 152">
<path fill-rule="nonzero" fill="rgb(0%, 0%, 0%)" fill-opacity="1" d="M 77.796875 139.570312 C 78.875 139.570312 79.117188 139.839844 79.117188 140.828125 L 79.117188 141.84375 C 79.117188 142.835938 78.875 143.078125 77.796875 143.078125 L 70.691406 143.078125 C 69.613281 143.078125 69.371094 142.863281 69.371094 141.84375 L 69.371094 140.828125 C 69.371094 139.839844 69.613281 139.570312 70.691406 139.570312 Z M 77.488281 134.074219 C 78.5625 134.074219 78.800781 134.34375 78.800781 135.34375 L 78.800781 136.046875 C 78.800781 137.050781 78.5625 137.320312 77.488281 137.320312 L 71.023438 137.320312 C 69.953125 137.320312 69.683594 137.050781 69.683594 136.046875 L 69.683594 135.34375 C 69.683594 134.34375 69.953125 134.074219 71.023438 134.074219 Z M 78.5625 131.710938 L 69.925781 131.710938 C 67.558594 131.710938 66.753906 132.21875 66.753906 134.425781 L 66.753906 135.695312 C 66.753906 137.320312 67.480469 138.015625 69.414062 138.390625 C 67.410156 138.605469 66.441406 139.464844 66.441406 141.148438 L 66.441406 142.59375 C 66.441406 144.746094 67.136719 145.578125 69.800781 145.578125 L 78.6875 145.578125 C 81.347656 145.578125 82.074219 144.746094 82.074219 142.59375 L 82.074219 141.148438 C 82.074219 139.464844 81.105469 138.605469 79.117188 138.390625 C 81.035156 138.015625 81.730469 137.320312 81.730469 135.695312 L 81.730469 134.425781 C 81.730469 132.21875 80.925781 131.710938 78.5625 131.710938 "/>
<path fill-rule="nonzero" fill="rgb(0%, 0%, 0%)" fill-opacity="1" d="M 87.609375 142.863281 L 87.609375 141.734375 L 90.457031 141.144531 L 90.457031 143.078125 L 97.917969 143.078125 C 98.992188 143.078125 99.261719 142.835938 99.261719 141.839844 L 99.261719 140.820312 C 99.261719 139.824219 98.992188 139.554688 97.914062 139.570312 L 93.234375 139.570312 L 93.234375 137.320312 L 97.402344 137.320312 C 98.480469 137.320312 98.722656 137.050781 98.722656 136.046875 L 98.722656 135.34375 C 98.722656 134.34375 98.480469 134.074219 97.402344 134.074219 L 90.542969 134.074219 L 90.542969 135.804688 L 87.808594 135.292969 L 87.808594 134.425781 C 87.808594 132.21875 88.613281 131.710938 90.972656 131.710938 L 98.480469 131.710938 C 100.84375 131.710938 101.648438 132.21875 101.648438 134.425781 L 101.648438 135.695312 C 101.648438 137.347656 100.949219 138.015625 98.964844 138.320312 C 101.167969 138.535156 102.191406 139.394531 102.191406 141.144531 L 102.191406 142.59375 C 102.191406 144.746094 101.492188 145.578125 98.832031 145.578125 L 90.78125 145.578125 C 88.414062 145.578125 87.609375 145.066406 87.609375 142.863281 "/>
<path fill-rule="nonzero" fill="rgb(0%, 0%, 0%)" fill-opacity="1" d="M 47.425781 107.628906 C 48.203125 107.628906 48.660156 107.105469 48.660156 106.382812 C 48.660156 105.617188 48.132812 105.132812 47.496094 105.132812 C 46.601562 105.132812 46.136719 105.644531 46.136719 106.382812 C 46.136719 106.976562 46.574219 107.628906 47.425781 107.628906 "/>
<path fill-rule="nonzero" fill="rgb(0%, 0%, 0%)" fill-opacity="1" d="M 85.070312 86.914062 L 85.039062 86.914062 L 82.507812 91.234375 L 85.027344 91.234375 C 85.027344 88.796875 85.070312 87.226562 85.070312 86.914062 "/>
<path fill-rule="nonzero" fill="rgb(0%, 0%, 0%)" fill-opacity="1" d="M 47.382812 109.136719 C 46.660156 109.136719 45.964844 109.605469 45.964844 110.695312 C 45.964844 111.660156 46.515625 112.300781 47.425781 112.300781 C 48.460938 112.300781 48.855469 111.40625 48.855469 110.710938 C 48.855469 110 48.484375 109.136719 47.382812 109.136719 "/>
<path fill-rule="nonzero" fill="rgb(0%, 0%, 0%)" fill-opacity="1" d="M 67.460938 91.78125 C 67.460938 90.503906 66.636719 90.09375 66.015625 90.09375 C 65.261719 90.09375 64.496094 90.558594 64.496094 91.824219 C 64.496094 92.917969 65.121094 93.699219 66.070312 93.699219 C 66.792969 93.699219 67.460938 93.144531 67.460938 91.78125 "/>
<path fill-rule="nonzero" fill="rgb(0%, 0%, 0%)" fill-opacity="1" d="M 121.25 95.019531 L 121.25 88.070312 L 118.847656 88.070312 L 118.847656 86.675781 L 119.132812 86.675781 C 121.050781 86.675781 121.5625 85.683594 121.605469 84.9375 L 123.242188 84.9375 L 123.242188 95.019531 Z M 125.121094 106.722656 C 125.121094 108.453125 123.996094 109.335938 123.015625 110 C 121.683594 110.9375 120.988281 111.390625 120.761719 111.859375 L 125.132812 111.859375 L 125.132812 113.621094 L 118.246094 113.621094 C 118.316406 112.445312 118.402344 111.207031 120.589844 109.621094 C 122.40625 108.296875 123.128906 107.789062 123.128906 106.652344 C 123.128906 105.984375 122.703125 105.21875 121.738281 105.21875 C 120.347656 105.21875 120.308594 106.367188 120.292969 107.105469 L 118.359375 107.105469 C 118.359375 103.824219 120.761719 103.542969 121.652344 103.542969 C 123.585938 103.542969 125.121094 104.679688 125.121094 106.722656 M 122.277344 81.113281 L 130.671875 81.113281 L 130.671875 98.804688 L 122.277344 98.804688 L 122.277344 96.417969 L 128.28125 96.417969 L 128.28125 83.5 L 122.277344 83.5 Z M 81.050781 110.921875 L 83.042969 110.921875 C 83.128906 111.75 83.566406 112.300781 84.445312 112.300781 C 85.398438 112.300781 85.949219 111.492188 85.949219 110.414062 C 85.949219 109.519531 85.523438 108.609375 84.476562 108.609375 C 84.207031 108.609375 83.523438 108.625 83.140625 109.332031 L 81.363281 109.25 L 82.0625 103.710938 L 87.601562 103.710938 L 87.601562 105.390625 L 83.496094 105.390625 L 83.140625 107.570312 C 83.511719 107.316406 83.964844 107.015625 84.945312 107.015625 C 86.292969 107.015625 87.996094 107.953125 87.996094 110.269531 C 87.996094 111.648438 87.300781 113.894531 84.335938 113.894531 C 82.757812 113.894531 81.152344 112.957031 81.050781 110.921875 M 81.046875 92.785156 L 81.046875 91.0625 L 84.753906 84.9375 L 87.015625 84.9375 L 87.015625 91.234375 L 88.140625 91.234375 L 88.140625 92.785156 L 87.015625 92.785156 L 87.015625 95.019531 L 85.023438 95.019531 L 85.023438 92.785156 Z M 43.914062 110.828125 C 43.914062 110.3125 43.914062 108.980469 45.453125 108.269531 C 44.65625 107.871094 44.226562 107.234375 44.226562 106.296875 C 44.226562 104.582031 45.609375 103.542969 47.367188 103.542969 C 49.453125 103.542969 50.5625 104.777344 50.5625 106.167969 C 50.5625 107.035156 50.207031 107.773438 49.398438 108.199219 C 50.363281 108.679688 50.90625 109.320312 50.90625 110.625 C 50.90625 111.902344 50.082031 113.894531 47.410156 113.894531 C 44.808594 113.894531 43.914062 112.203125 43.914062 110.828125 M 45.238281 95.019531 C 45.453125 90.988281 47.984375 87.78125 48.835938 86.875 L 43.816406 86.875 L 43.859375 85.109375 L 50.96875 85.109375 L 50.96875 86.644531 C 50.003906 87.695312 47.53125 90.675781 47.289062 95.019531 Z M 62.503906 90.21875 C 62.503906 88.300781 62.761719 84.9375 66.253906 84.9375 C 66.664062 84.9375 67.816406 85.09375 68.3125 85.59375 C 68.867188 86.132812 69.066406 86.429688 69.253906 87.496094 L 67.277344 87.492188 C 67.21875 86.925781 66.851562 86.53125 66.113281 86.53125 C 64.820312 86.53125 64.523438 88.003906 64.453125 89.308594 L 64.480469 89.335938 C 64.75 88.96875 65.246094 88.5 66.371094 88.5 C 68.457031 88.5 69.453125 90.105469 69.453125 91.609375 C 69.453125 93.8125 68.101562 95.289062 66.152344 95.289062 C 63.101562 95.289062 62.503906 92.734375 62.503906 90.21875 M 99.65625 91.925781 L 101.605469 91.925781 L 101.589844 91.9375 C 101.589844 92.476562 101.730469 93.699219 103.0625 93.699219 C 103.859375 93.699219 104.554688 93.160156 104.554688 92.039062 C 104.554688 90.660156 103.222656 90.605469 102.289062 90.605469 L 102.289062 89.183594 L 102.609375 89.183594 C 103.207031 89.183594 104.296875 89.125 104.296875 87.820312 C 104.296875 87.453125 104.128906 86.53125 103.035156 86.53125 C 101.675781 86.53125 101.675781 87.820312 101.675781 88.175781 L 99.824219 88.175781 C 99.824219 86.289062 100.894531 84.9375 103.164062 84.9375 C 104.511719 84.9375 106.289062 85.621094 106.289062 87.75 C 106.289062 88.773438 105.648438 89.410156 105.078125 89.664062 L 105.078125 89.695312 C 105.4375 89.792969 106.601562 90.320312 106.601562 92.039062 C 106.601562 93.9375 105.191406 95.289062 103.164062 95.289062 C 102.214844 95.289062 99.65625 95.078125 99.65625 91.925781 M 131.582031 99.714844 L 131.582031 80.199219 L 121.367188 80.199219 L 121.367188 83.5 L 115.363281 83.5 L 115.363281 96.417969 L 121.367188 96.417969 L 121.367188 102.101562 L 115.363281 102.101562 L 115.363281 115.023438 L 121.367188 115.023438 L 121.367188 120.355469 L 85.070312 120.355469 L 85.070312 115.023438 L 91.074219 115.023438 L 91.074219 102.101562 L 85.070312 102.101562 L 85.070312 99.714844 L 103.675781 99.714844 L 103.675781 96.417969 L 109.679688 96.417969 L 109.679688 83.5 L 96.761719 83.5 L 96.761719 96.417969 L 102.761719 96.417969 L 102.761719 98.804688 L 85.070312 98.804688 L 85.070312 96.417969 L 91.074219 96.417969 L 91.074219 83.5 L 78.15625 83.5 L 78.15625 96.417969 L 84.160156 96.417969 L 84.160156 102.101562 L 78.15625 102.101562 L 78.15625 115.023438 L 84.160156 115.023438 L 84.160156 120.355469 L 47.863281 120.355469 L 47.863281 115.023438 L 53.867188 115.023438 L 53.867188 102.101562 L 47.863281 102.101562 L 47.863281 99.714844 L 66.46875 99.714844 L 66.46875 96.417969 L 72.472656 96.417969 L 72.472656 83.5 L 59.554688 83.5 L 59.554688 96.417969 L 65.554688 96.417969 L 65.554688 98.804688 L 47.863281 98.804688 L 47.863281 96.417969 L 53.867188 96.417969 L 53.867188 83.5 L 40.949219 83.5 L 40.949219 96.417969 L 46.953125 96.417969 L 46.953125 102.101562 L 40.949219 102.101562 L 40.949219 115.023438 L 46.953125 115.023438 L 46.953125 121.269531 L 122.277344 121.269531 L 122.277344 115.023438 L 128.28125 115.023438 L 128.28125 102.101562 L 122.277344 102.101562 L 122.277344 99.714844 Z M 131.582031 99.714844 "/>
</svg>
