<?xml version="1.0" encoding="UTF-8"?>
<svg xmlns="http://www.w3.org/2000/svg" xmlns:xlink="http://www.w3.org/1999/xlink" width="172" height="152" viewBox="0 0 172 152">
<path fill-rule="nonzero" fill="rgb(0%, 0%, 0%)" fill-opacity="1" d="M 70.800781 131.710938 L 77.9375 131.710938 C 80.304688 131.710938 81.109375 132.21875 81.109375 134.425781 L 81.109375 135.308594 C 81.109375 136.921875 80.628906 137.324219 79.285156 138.132812 L 71.140625 143.078125 L 79.203125 143.078125 L 79.203125 141.035156 L 81.761719 141.761719 L 81.761719 142.863281 C 81.761719 145.066406 80.953125 145.578125 78.609375 145.578125 L 66.9375 145.578125 L 66.9375 144.316406 C 66.9375 143.375 67.046875 142.808594 68.679688 141.789062 L 78.289062 135.875 L 78.289062 134.074219 L 70.371094 134.074219 L 70.371094 136.921875 L 67.636719 136.226562 L 67.636719 134.425781 C 67.636719 132.21875 68.4375 131.710938 70.800781 131.710938 "/>
<path fill-rule="nonzero" fill="rgb(0%, 0%, 0%)" fill-opacity="1" d="M 88.914062 131.710938 L 100.902344 131.710938 L 100.65625 134.074219 L 90.984375 134.074219 L 90.664062 136.761719 C 92.785156 136.542969 94.640625 136.410156 96.277344 136.410156 C 100.847656 136.410156 103.160156 137.96875 103.160156 141.121094 C 103.160156 144.488281 100.714844 145.777344 95.527344 145.777344 C 92.542969 145.777344 90.3125 145.566406 88.835938 145.214844 L 88.136719 142.523438 C 90.664062 142.980469 93.082031 143.25 95.445312 143.25 C 98.722656 143.25 100.175781 142.710938 100.175781 140.988281 C 100.175781 139.34375 98.695312 138.828125 95.632812 138.828125 C 93.726562 138.828125 91.226562 138.992188 88.136719 139.398438 L 88.914062 131.710938 "/>
<path fill-rule="nonzero" fill="rgb(0%, 0%, 0%)" fill-opacity="1" d="M 66.027344 107.628906 C 66.808594 107.628906 67.261719 107.105469 67.261719 106.382812 C 67.261719 105.617188 66.734375 105.136719 66.097656 105.136719 C 65.207031 105.136719 64.738281 105.648438 64.738281 106.382812 C 64.738281 106.980469 65.179688 107.628906 66.027344 107.628906 "/>
<path fill-rule="nonzero" fill="rgb(0%, 0%, 0%)" fill-opacity="1" d="M 67.460938 91.78125 C 67.460938 90.503906 66.636719 90.09375 66.011719 90.09375 C 65.261719 90.09375 64.496094 90.558594 64.496094 91.824219 C 64.496094 92.917969 65.121094 93.699219 66.070312 93.699219 C 66.792969 93.699219 67.460938 93.144531 67.460938 91.78125 "/>
<path fill-rule="nonzero" fill="rgb(0%, 0%, 0%)" fill-opacity="1" d="M 65.984375 109.136719 C 65.261719 109.136719 64.566406 109.605469 64.566406 110.699219 C 64.566406 111.664062 65.121094 112.300781 66.027344 112.300781 C 67.0625 112.300781 67.460938 111.40625 67.460938 110.710938 C 67.460938 110.003906 67.09375 109.136719 65.984375 109.136719 "/>
<path fill-rule="nonzero" fill="rgb(0%, 0%, 0%)" fill-opacity="1" d="M 123.242188 113.625 L 121.25 113.625 L 121.25 106.671875 L 118.847656 106.671875 L 118.847656 105.28125 L 119.132812 105.28125 C 121.050781 105.28125 121.5625 104.292969 121.605469 103.542969 L 123.242188 103.542969 Z M 99.640625 113.625 C 99.710938 112.441406 99.796875 111.210938 101.988281 109.617188 C 103.804688 108.300781 104.527344 107.789062 104.527344 106.65625 C 104.527344 105.988281 104.101562 105.21875 103.136719 105.21875 C 101.746094 105.21875 101.703125 106.371094 101.6875 107.109375 L 99.753906 107.109375 C 99.753906 103.828125 102.15625 103.542969 103.050781 103.542969 C 104.980469 103.542969 106.519531 104.679688 106.519531 106.726562 C 106.519531 108.457031 105.394531 109.335938 104.410156 110.003906 C 103.078125 110.9375 102.382812 111.394531 102.15625 111.859375 L 106.53125 111.859375 L 106.53125 113.625 Z M 62.519531 110.824219 C 62.519531 110.316406 62.519531 108.980469 64.054688 108.269531 C 63.257812 107.871094 62.832031 107.230469 62.832031 106.296875 C 62.832031 104.578125 64.210938 103.542969 65.96875 103.542969 C 68.058594 103.542969 69.167969 104.78125 69.167969 106.171875 C 69.167969 107.035156 68.8125 107.773438 68 108.199219 C 68.96875 108.683594 69.507812 109.320312 69.507812 110.628906 C 69.507812 111.90625 68.683594 113.894531 66.015625 113.894531 C 63.414062 113.894531 62.519531 112.203125 62.519531 110.824219 M 62.503906 90.21875 C 62.503906 88.304688 62.761719 84.9375 66.253906 84.9375 C 66.667969 84.9375 67.816406 85.09375 68.3125 85.59375 C 68.871094 86.132812 69.070312 86.433594 69.253906 87.496094 L 67.277344 87.492188 C 67.21875 86.929688 66.851562 86.53125 66.113281 86.53125 C 64.824219 86.53125 64.523438 88.003906 64.453125 89.308594 L 64.480469 89.339844 C 64.75 88.96875 65.246094 88.5 66.367188 88.5 C 68.457031 88.5 69.453125 90.105469 69.453125 91.609375 C 69.453125 93.8125 68.101562 95.292969 66.15625 95.292969 C 63.101562 95.292969 62.503906 92.730469 62.503906 90.21875 M 62.449219 73.71875 L 64.441406 73.71875 C 64.523438 74.542969 64.960938 75.097656 65.84375 75.097656 C 66.792969 75.097656 67.347656 74.285156 67.347656 73.203125 C 67.347656 72.3125 66.921875 71.402344 65.871094 71.402344 C 65.601562 71.402344 64.921875 71.417969 64.539062 72.128906 L 62.761719 72.042969 L 63.457031 66.507812 L 68.996094 66.507812 L 68.996094 68.183594 L 64.894531 68.183594 L 64.539062 70.363281 C 64.90625 70.109375 65.359375 69.8125 66.339844 69.8125 C 67.6875 69.8125 69.394531 70.75 69.394531 73.066406 C 69.394531 74.441406 68.699219 76.6875 65.730469 76.6875 C 64.15625 76.6875 62.546875 75.75 62.449219 73.71875 M 45.238281 95.023438 C 45.453125 90.992188 47.984375 87.78125 48.835938 86.871094 L 43.820312 86.871094 L 43.859375 85.109375 L 50.96875 85.109375 L 50.96875 86.648438 C 50.003906 87.695312 47.527344 90.675781 47.289062 95.023438 Z M 47.863281 81.121094 L 56.253906 81.121094 L 56.253906 97.769531 L 47.863281 97.769531 L 47.863281 96.421875 L 53.867188 96.421875 L 53.867188 83.5 L 47.863281 83.5 Z M 81.046875 92.785156 L 81.046875 91.0625 L 84.753906 84.9375 L 87.015625 84.9375 L 87.015625 91.234375 L 88.140625 91.234375 L 88.140625 92.785156 L 87.015625 92.785156 L 87.015625 95.023438 L 85.027344 95.023438 L 85.027344 92.785156 Z M 81.050781 73.320312 L 83 73.320312 L 82.984375 73.335938 C 82.984375 73.875 83.128906 75.097656 84.460938 75.097656 C 85.253906 75.097656 85.949219 74.554688 85.949219 73.433594 C 85.949219 72.058594 84.617188 72.003906 83.6875 72.003906 L 83.6875 70.578125 L 84.007812 70.578125 C 84.601562 70.578125 85.695312 70.523438 85.695312 69.21875 C 85.695312 68.851562 85.527344 67.925781 84.433594 67.925781 C 83.070312 67.925781 83.070312 69.21875 83.070312 69.574219 L 81.222656 69.574219 C 81.222656 67.6875 82.289062 66.335938 84.5625 66.335938 C 85.90625 66.335938 87.6875 67.019531 87.6875 69.148438 C 87.6875 70.167969 87.046875 70.804688 86.476562 71.0625 L 86.476562 71.09375 C 86.832031 71.191406 88 71.714844 88 73.433594 C 88 75.335938 86.589844 76.6875 84.5625 76.6875 C 83.609375 76.6875 81.050781 76.472656 81.050781 73.320312 M 115.363281 102.105469 L 115.363281 115.023438 L 121.367188 115.023438 L 121.367188 120.511719 L 103.675781 120.511719 L 103.675781 115.023438 L 109.679688 115.023438 L 109.679688 102.105469 L 96.761719 102.105469 L 96.761719 115.023438 L 102.765625 115.023438 L 102.765625 120.511719 L 66.46875 120.511719 L 66.46875 115.023438 L 72.472656 115.023438 L 72.472656 102.105469 L 66.46875 102.105469 L 66.46875 100.75 L 85.074219 100.75 L 85.074219 96.421875 L 91.078125 96.421875 L 91.078125 83.5 L 85.074219 83.5 L 85.074219 77.816406 L 91.078125 77.816406 L 91.078125 64.894531 L 78.15625 64.894531 L 78.15625 77.816406 L 84.160156 77.816406 L 84.160156 83.5 L 78.15625 83.5 L 78.15625 96.421875 L 84.160156 96.421875 L 84.160156 99.839844 L 66.46875 99.839844 L 66.46875 96.421875 L 72.472656 96.421875 L 72.472656 83.5 L 66.46875 83.5 L 66.46875 77.816406 L 72.472656 77.816406 L 72.472656 64.894531 L 59.550781 64.894531 L 59.550781 77.816406 L 65.558594 77.816406 L 65.558594 83.5 L 59.550781 83.5 L 59.550781 96.421875 L 65.558594 96.421875 L 65.558594 99.839844 L 47.863281 99.839844 L 47.863281 98.683594 L 57.164062 98.683594 L 57.164062 80.210938 L 46.953125 80.210938 L 46.953125 83.5 L 40.949219 83.5 L 40.949219 96.421875 L 46.953125 96.421875 L 46.953125 100.75 L 65.558594 100.75 L 65.558594 102.105469 L 59.550781 102.105469 L 59.550781 115.023438 L 65.558594 115.023438 L 65.558594 121.421875 L 122.28125 121.421875 L 122.28125 115.023438 L 128.28125 115.023438 L 128.28125 102.105469 Z M 115.363281 102.105469 "/>
<path fill-rule="nonzero" fill="rgb(0%, 0%, 0%)" fill-opacity="1" d="M 85.066406 86.917969 L 85.039062 86.917969 L 82.511719 91.234375 L 85.027344 91.234375 C 85.027344 88.800781 85.066406 87.226562 85.066406 86.917969 "/>
</svg>
