<?xml version="1.0" encoding="UTF-8"?>
<svg xmlns="http://www.w3.org/2000/svg" xmlns:xlink="http://www.w3.org/1999/xlink" width="172" height="152" viewBox="0 0 172 152">
<path fill-rule="nonzero" fill="rgb(0%, 0%, 0%)" fill-opacity="1" d="M 68.140625 131.710938 L 80.125 131.710938 L 79.882812 134.070312 L 70.210938 134.070312 L 69.886719 136.761719 C 72.007812 136.546875 73.863281 136.410156 75.503906 136.410156 C 80.070312 136.410156 82.386719 137.96875 82.386719 141.117188 C 82.386719 144.484375 79.9375 145.777344 74.75 145.777344 C 71.769531 145.777344 69.539062 145.5625 68.058594 145.214844 L 67.363281 142.519531 C 69.886719 142.980469 72.304688 143.246094 74.671875 143.246094 C 77.949219 143.246094 79.402344 142.707031 79.402344 140.984375 C 79.402344 139.339844 77.921875 138.828125 74.859375 138.828125 C 72.949219 138.828125 70.453125 138.992188 67.363281 139.394531 L 68.140625 131.710938 "/>
<path fill-rule="nonzero" fill="rgb(0%, 0%, 0%)" fill-opacity="1" d="M 88.914062 131.710938 L 100.898438 131.710938 L 100.65625 134.070312 L 90.980469 134.070312 L 90.660156 136.761719 C 92.78125 136.546875 94.636719 136.410156 96.277344 136.410156 C 100.84375 136.410156 103.160156 137.96875 103.160156 141.117188 C 103.160156 144.484375 100.710938 145.777344 95.523438 145.777344 C 92.542969 145.777344 90.308594 145.5625 88.832031 145.214844 L 88.132812 142.519531 C 90.660156 142.980469 93.078125 143.246094 95.441406 143.246094 C 98.722656 143.246094 100.171875 142.707031 100.171875 140.984375 C 100.171875 139.339844 98.695312 138.828125 95.632812 138.828125 C 93.722656 138.828125 91.222656 138.992188 88.132812 139.394531 L 88.914062 131.710938 "/>
<path fill-rule="nonzero" fill="rgb(0%, 0%, 0%)" fill-opacity="1" d="M 56.726562 107.628906 C 57.503906 107.628906 57.960938 107.105469 57.960938 106.382812 C 57.960938 105.617188 57.433594 105.132812 56.796875 105.132812 C 55.902344 105.132812 55.433594 105.644531 55.433594 106.382812 C 55.433594 106.980469 55.875 107.628906 56.726562 107.628906 "/>
<path fill-rule="nonzero" fill="rgb(0%, 0%, 0%)" fill-opacity="1" d="M 56.683594 109.136719 C 55.960938 109.136719 55.265625 109.605469 55.265625 110.699219 C 55.265625 111.660156 55.816406 112.300781 56.726562 112.300781 C 57.761719 112.300781 58.160156 111.40625 58.160156 110.710938 C 58.160156 110.003906 57.789062 109.136719 56.683594 109.136719 "/>
<path fill-rule="nonzero" fill="rgb(0%, 0%, 0%)" fill-opacity="1" d="M 58.15625 73.175781 C 58.15625 71.898438 57.335938 71.488281 56.710938 71.488281 C 55.960938 71.488281 55.191406 71.953125 55.191406 73.21875 C 55.191406 74.3125 55.816406 75.09375 56.765625 75.09375 C 57.492188 75.09375 58.15625 74.539062 58.15625 73.175781 "/>
<path fill-rule="nonzero" fill="rgb(0%, 0%, 0%)" fill-opacity="1" d="M 57.160156 31.105469 L 57.132812 31.105469 L 54.601562 35.421875 L 57.117188 35.421875 C 57.117188 32.988281 57.160156 31.417969 57.160156 31.105469 "/>
<path fill-rule="nonzero" fill="rgb(0%, 0%, 0%)" fill-opacity="1" d="M 121.367188 116.375 L 112.976562 116.375 L 112.976562 115.019531 L 118.980469 115.019531 L 118.980469 102.101562 L 112.976562 102.101562 L 112.976562 99.71875 L 121.367188 99.71875 Z M 111.949219 113.625 L 111.949219 106.671875 L 109.546875 106.671875 L 109.546875 105.277344 L 109.828125 105.277344 C 111.746094 105.277344 112.261719 104.289062 112.304688 103.539062 L 113.9375 103.539062 L 113.9375 113.625 Z M 90.339844 113.621094 C 90.410156 112.441406 90.496094 111.207031 92.683594 109.617188 C 94.5 108.296875 95.222656 107.785156 95.222656 106.652344 C 95.222656 105.984375 94.796875 105.21875 93.835938 105.21875 C 92.441406 105.21875 92.398438 106.367188 92.386719 107.105469 L 90.453125 107.105469 C 90.453125 103.824219 92.855469 103.542969 93.75 103.542969 C 95.679688 103.542969 97.214844 104.679688 97.214844 106.722656 C 97.214844 108.453125 96.089844 109.335938 95.109375 110 C 93.773438 110.9375 93.082031 111.390625 92.855469 111.859375 L 97.226562 111.859375 L 97.226562 113.621094 Z M 71.746094 110.527344 L 73.695312 110.527344 L 73.683594 110.542969 C 73.683594 111.078125 73.828125 112.300781 75.15625 112.300781 C 75.953125 112.300781 76.648438 111.761719 76.648438 110.640625 C 76.648438 109.265625 75.316406 109.207031 74.382812 109.207031 L 74.382812 107.785156 L 74.703125 107.785156 C 75.300781 107.785156 76.390625 107.730469 76.390625 106.425781 C 76.390625 106.054688 76.222656 105.132812 75.128906 105.132812 C 73.765625 105.132812 73.765625 106.425781 73.765625 106.777344 L 71.917969 106.777344 C 71.917969 104.894531 72.984375 103.542969 75.257812 103.542969 C 76.605469 103.542969 78.382812 104.222656 78.382812 106.351562 C 78.382812 107.375 77.742188 108.015625 77.175781 108.269531 L 77.175781 108.296875 C 77.53125 108.394531 78.695312 108.925781 78.695312 110.640625 C 78.695312 112.542969 77.289062 113.894531 75.257812 113.894531 C 74.304688 113.894531 71.746094 113.679688 71.746094 110.527344 M 53.214844 110.824219 C 53.214844 110.3125 53.214844 108.980469 54.753906 108.269531 C 53.957031 107.871094 53.527344 107.230469 53.527344 106.296875 C 53.527344 104.582031 54.910156 103.542969 56.667969 103.542969 C 58.757812 103.542969 59.863281 104.777344 59.863281 106.167969 C 59.863281 107.03125 59.507812 107.769531 58.699219 108.199219 C 59.667969 108.679688 60.207031 109.320312 60.207031 110.625 C 60.207031 111.902344 59.382812 113.894531 56.710938 113.894531 C 54.113281 113.894531 53.214844 112.199219 53.214844 110.824219 M 54.542969 95.019531 C 54.753906 90.988281 57.285156 87.78125 58.136719 86.871094 L 53.121094 86.871094 L 53.160156 85.109375 L 60.269531 85.109375 L 60.269531 86.644531 C 59.304688 87.695312 56.832031 90.675781 56.589844 95.019531 Z M 53.203125 71.613281 C 53.203125 69.699219 53.457031 66.335938 56.953125 66.335938 C 57.363281 66.335938 58.511719 66.492188 59.011719 66.988281 C 59.566406 67.527344 59.765625 67.828125 59.949219 68.890625 L 57.972656 68.890625 C 57.917969 68.320312 57.546875 67.925781 56.808594 67.925781 C 55.519531 67.925781 55.222656 69.398438 55.148438 70.703125 L 55.179688 70.734375 C 55.449219 70.363281 55.945312 69.894531 57.066406 69.894531 C 59.152344 69.894531 60.148438 71.5 60.148438 73.007812 C 60.148438 75.207031 58.796875 76.6875 56.851562 76.6875 C 53.800781 76.6875 53.203125 74.128906 53.203125 71.613281 M 53.144531 55.113281 L 55.136719 55.113281 C 55.222656 55.9375 55.660156 56.488281 56.542969 56.488281 C 57.492188 56.488281 58.042969 55.679688 58.042969 54.601562 C 58.042969 53.707031 57.617188 52.800781 56.566406 52.800781 C 56.300781 52.800781 55.621094 52.8125 55.234375 53.523438 L 53.457031 53.4375 L 54.15625 47.902344 L 59.691406 47.902344 L 59.691406 49.578125 L 55.589844 49.578125 L 55.234375 51.761719 C 55.605469 51.503906 56.058594 51.203125 57.039062 51.203125 C 58.386719 51.203125 60.09375 52.144531 60.09375 54.460938 C 60.09375 55.835938 59.394531 58.082031 56.425781 58.082031 C 54.851562 58.082031 53.246094 57.144531 53.144531 55.113281 M 53.140625 36.972656 L 53.140625 35.253906 L 56.847656 29.125 L 59.109375 29.125 L 59.109375 35.421875 L 60.234375 35.421875 L 60.234375 36.972656 L 59.109375 36.972656 L 59.109375 39.210938 L 57.121094 39.210938 L 57.121094 36.972656 Z M 112.066406 98.804688 L 112.066406 102.101562 L 106.058594 102.101562 L 106.058594 115.019531 L 112.066406 115.019531 L 112.066406 120.507812 L 94.375 120.507812 L 94.375 115.019531 L 100.378906 115.019531 L 100.378906 102.101562 L 87.460938 102.101562 L 87.460938 115.019531 L 93.460938 115.019531 L 93.460938 120.507812 L 75.769531 120.507812 L 75.769531 115.019531 L 81.773438 115.019531 L 81.773438 102.101562 L 68.855469 102.101562 L 68.855469 115.019531 L 74.855469 115.019531 L 74.855469 120.507812 L 57.167969 120.507812 L 57.167969 115.019531 L 63.167969 115.019531 L 63.167969 102.101562 L 57.167969 102.101562 L 57.167969 96.417969 L 63.167969 96.417969 L 63.167969 83.5 L 57.167969 83.5 L 57.167969 77.8125 L 63.167969 77.8125 L 63.167969 64.894531 L 57.167969 64.894531 L 57.167969 59.210938 L 63.167969 59.210938 L 63.167969 46.292969 L 57.167969 46.292969 L 57.167969 40.605469 L 63.167969 40.605469 L 63.167969 27.6875 L 50.25 27.6875 L 50.25 40.605469 L 56.253906 40.605469 L 56.253906 46.292969 L 50.25 46.292969 L 50.25 59.210938 L 56.253906 59.210938 L 56.253906 64.894531 L 50.25 64.894531 L 50.25 77.8125 L 56.253906 77.8125 L 56.253906 83.5 L 50.25 83.5 L 50.25 96.417969 L 56.253906 96.417969 L 56.253906 102.101562 L 50.25 102.101562 L 50.25 115.019531 L 56.253906 115.019531 L 56.253906 121.421875 L 112.976562 121.421875 L 112.976562 117.285156 L 122.277344 117.285156 L 122.277344 98.804688 Z M 112.066406 98.804688 "/>
</svg>
