<?xml version="1.0" encoding="UTF-8"?>
<svg xmlns="http://www.w3.org/2000/svg" xmlns:xlink="http://www.w3.org/1999/xlink" width="172" height="152" viewBox="0 0 172 152">
<path fill-rule="nonzero" fill="rgb(0%, 0%, 0%)" fill-opacity="1" d="M 89.28125 137.835938 C 86.890625 138.078125 84.824219 138.1875 83.160156 138.1875 C 80.820312 138.1875 80.070312 137.890625 80.070312 136.46875 L 80.070312 135.6875 C 80.070312 134.398438 80.632812 133.96875 82.621094 133.96875 L 86.460938 133.96875 C 89.117188 133.96875 89.359375 134.507812 89.359375 137.003906 C 89.359375 137.21875 89.332031 137.515625 89.28125 137.835938 M 89.117188 139.953125 C 88.074219 142.894531 85.199219 143.539062 80.042969 143.539062 L 79.15625 143.539062 L 81.0625 145.765625 C 81.386719 145.789062 81.734375 145.789062 82.058594 145.789062 C 88.554688 145.789062 92.289062 142.863281 92.289062 137.703125 L 92.289062 135.875 C 92.289062 132.570312 91.160156 131.605469 87.722656 131.605469 L 81.871094 131.605469 C 78.644531 131.605469 77.140625 132.652344 77.140625 134.992188 L 77.140625 136.84375 C 77.140625 139.65625 78.753906 140.40625 82.996094 140.40625 C 85.144531 140.40625 87.1875 140.246094 89.117188 139.953125 "/>
<path fill-rule="nonzero" fill="rgb(0%, 0%, 0%)" fill-opacity="1" d="M 113.941406 113.519531 L 111.949219 113.519531 L 111.949219 106.570312 L 109.546875 106.570312 L 109.546875 105.175781 L 109.832031 105.175781 C 111.75 105.175781 112.261719 104.1875 112.304688 103.4375 L 113.941406 103.4375 Z M 90.339844 113.519531 C 90.410156 112.339844 90.496094 111.105469 92.683594 109.515625 C 94.5 108.195312 95.222656 107.6875 95.222656 106.550781 C 95.222656 105.882812 94.800781 105.117188 93.835938 105.117188 C 92.445312 105.117188 92.402344 106.265625 92.386719 107.003906 L 90.453125 107.003906 C 90.453125 103.722656 92.855469 103.4375 93.75 103.4375 C 95.679688 103.4375 97.214844 104.574219 97.214844 106.621094 C 97.214844 108.351562 96.089844 109.230469 95.109375 109.898438 C 93.777344 110.835938 93.082031 111.289062 92.855469 111.757812 L 97.230469 111.757812 L 97.230469 113.519531 Z M 71.804688 108.71875 C 71.804688 106.804688 72.0625 103.4375 75.554688 103.4375 C 75.96875 103.4375 77.117188 103.59375 77.617188 104.09375 C 78.171875 104.632812 78.371094 104.929688 78.554688 105.996094 L 76.578125 105.992188 C 76.523438 105.429688 76.152344 105.03125 75.414062 105.03125 C 74.125 105.03125 73.824219 106.503906 73.753906 107.808594 L 73.785156 107.835938 C 74.050781 107.46875 74.546875 107 75.667969 107 C 77.757812 107 78.753906 108.605469 78.753906 110.109375 C 78.753906 112.3125 77.402344 113.789062 75.457031 113.789062 C 72.402344 113.789062 71.804688 111.230469 71.804688 108.71875 M 71.75 92.21875 L 73.742188 92.21875 C 73.824219 93.039062 74.265625 93.59375 75.144531 93.59375 C 76.097656 93.59375 76.648438 92.785156 76.648438 91.707031 C 76.648438 90.8125 76.222656 89.902344 75.171875 89.902344 C 74.90625 89.902344 74.222656 89.914062 73.839844 90.628906 L 72.0625 90.542969 L 72.757812 85.007812 L 78.296875 85.007812 L 78.296875 86.683594 L 74.195312 86.683594 L 73.839844 88.863281 C 74.210938 88.609375 74.664062 88.308594 75.640625 88.308594 C 76.988281 88.308594 78.695312 89.25 78.695312 91.5625 C 78.695312 92.941406 78 95.1875 75.03125 95.1875 C 73.457031 95.1875 71.847656 94.246094 71.75 92.21875 M 71.742188 74.074219 L 71.742188 72.355469 L 75.453125 66.230469 L 77.714844 66.230469 L 77.714844 72.527344 L 78.835938 72.527344 L 78.835938 74.074219 L 77.714844 74.074219 L 77.714844 76.3125 L 75.722656 76.3125 L 75.722656 74.074219 Z M 71.75 54.613281 L 73.699219 54.613281 L 73.683594 54.628906 C 73.683594 55.164062 73.824219 56.386719 75.160156 56.386719 C 75.953125 56.386719 76.648438 55.847656 76.648438 54.726562 C 76.648438 53.347656 75.316406 53.292969 74.382812 53.292969 L 74.382812 51.871094 L 74.707031 51.871094 C 75.300781 51.871094 76.394531 51.816406 76.394531 50.511719 C 76.394531 50.140625 76.222656 49.21875 75.128906 49.21875 C 73.769531 49.21875 73.769531 50.511719 73.769531 50.863281 L 71.917969 50.863281 C 71.917969 48.976562 72.988281 47.625 75.257812 47.625 C 76.605469 47.625 78.382812 48.308594 78.382812 50.4375 C 78.382812 51.460938 77.746094 52.097656 77.175781 52.355469 L 77.175781 52.382812 C 77.53125 52.484375 78.695312 53.007812 78.695312 54.726562 C 78.695312 56.628906 77.289062 57.976562 75.257812 57.976562 C 74.308594 57.976562 71.75 57.765625 71.75 54.613281 M 75.769531 43.808594 L 84.160156 43.808594 L 84.160156 61.496094 L 75.769531 61.496094 L 75.769531 59.109375 L 81.773438 59.109375 L 81.773438 46.1875 L 75.769531 46.1875 Z M 53.214844 110.722656 C 53.214844 110.210938 53.214844 108.875 54.753906 108.167969 C 53.957031 107.769531 53.53125 107.128906 53.53125 106.195312 C 53.53125 104.476562 54.910156 103.4375 56.667969 103.4375 C 58.753906 103.4375 59.867188 104.675781 59.867188 106.066406 C 59.867188 106.929688 59.511719 107.667969 58.699219 108.097656 C 59.667969 108.578125 60.207031 109.21875 60.207031 110.523438 C 60.207031 111.800781 59.382812 113.789062 56.710938 113.789062 C 54.113281 113.789062 53.214844 112.097656 53.214844 110.722656 M 54.539062 94.917969 C 54.753906 90.886719 57.285156 87.675781 58.140625 86.769531 L 53.121094 86.769531 L 53.164062 85.007812 L 60.269531 85.007812 L 60.269531 86.542969 C 59.304688 87.59375 56.832031 90.574219 56.589844 94.917969 Z M 106.0625 102 L 106.0625 114.917969 L 112.066406 114.917969 L 112.066406 120.40625 L 94.375 120.40625 L 94.375 114.917969 L 100.378906 114.917969 L 100.378906 102 L 87.457031 102 L 87.457031 114.917969 L 93.460938 114.917969 L 93.460938 120.40625 L 75.769531 120.40625 L 75.769531 114.917969 L 81.773438 114.917969 L 81.773438 102 L 75.769531 102 L 75.769531 96.316406 L 81.773438 96.316406 L 81.773438 83.394531 L 75.769531 83.394531 L 75.769531 77.710938 L 81.773438 77.710938 L 81.773438 64.792969 L 75.769531 64.792969 L 75.769531 62.40625 L 85.070312 62.40625 L 85.070312 42.894531 L 74.859375 42.894531 L 74.859375 46.1875 L 68.855469 46.1875 L 68.855469 59.109375 L 74.859375 59.109375 L 74.859375 64.792969 L 68.855469 64.792969 L 68.855469 77.710938 L 74.859375 77.710938 L 74.859375 83.394531 L 68.855469 83.394531 L 68.855469 96.316406 L 74.859375 96.316406 L 74.859375 102 L 68.855469 102 L 68.855469 114.917969 L 74.859375 114.917969 L 74.859375 120.40625 L 57.164062 120.40625 L 57.164062 114.917969 L 63.167969 114.917969 L 63.167969 102 L 57.164062 102 L 57.164062 96.316406 L 63.167969 96.316406 L 63.167969 83.394531 L 50.25 83.394531 L 50.25 96.316406 L 56.253906 96.316406 L 56.253906 102 L 50.25 102 L 50.25 114.917969 L 56.253906 114.917969 L 56.253906 121.316406 L 112.976562 121.316406 L 112.976562 114.917969 L 118.980469 114.917969 L 118.980469 102 Z M 106.0625 102 "/>
<path fill-rule="nonzero" fill="rgb(0%, 0%, 0%)" fill-opacity="1" d="M 56.683594 109.03125 C 55.960938 109.03125 55.265625 109.5 55.265625 110.59375 C 55.265625 111.558594 55.820312 112.199219 56.726562 112.199219 C 57.761719 112.199219 58.160156 111.304688 58.160156 110.609375 C 58.160156 109.898438 57.789062 109.03125 56.683594 109.03125 "/>
<path fill-rule="nonzero" fill="rgb(0%, 0%, 0%)" fill-opacity="1" d="M 75.765625 68.207031 L 75.738281 68.207031 L 73.207031 72.527344 L 75.722656 72.527344 C 75.722656 70.089844 75.765625 68.519531 75.765625 68.207031 "/>
<path fill-rule="nonzero" fill="rgb(0%, 0%, 0%)" fill-opacity="1" d="M 56.726562 107.527344 C 57.507812 107.527344 57.957031 107 57.957031 106.28125 C 57.957031 105.515625 57.4375 105.03125 56.796875 105.03125 C 55.90625 105.03125 55.4375 105.542969 55.4375 106.28125 C 55.4375 106.875 55.875 107.527344 56.726562 107.527344 "/>
<path fill-rule="nonzero" fill="rgb(0%, 0%, 0%)" fill-opacity="1" d="M 75.316406 108.589844 C 74.5625 108.589844 73.796875 109.058594 73.796875 110.324219 C 73.796875 111.417969 74.421875 112.199219 75.371094 112.199219 C 76.097656 112.199219 76.765625 111.644531 76.765625 110.28125 C 76.765625 109.003906 75.941406 108.589844 75.316406 108.589844 "/>
</svg>
