<?xml version="1.0" encoding="UTF-8"?>
<svg xmlns="http://www.w3.org/2000/svg" xmlns:xlink="http://www.w3.org/1999/xlink" width="172" height="152" viewBox="0 0 172 152">
<path fill-rule="nonzero" fill="rgb(0%, 0%, 0%)" fill-opacity="1" d="M 69.882812 139.324219 C 72.003906 139.109375 74.070312 139.003906 76.027344 139.003906 C 78.363281 139.003906 79.089844 139.296875 79.089844 140.664062 L 79.089844 141.414062 C 79.089844 142.648438 78.550781 143.078125 76.5625 143.078125 L 72.699219 143.078125 C 70.042969 143.078125 69.828125 142.542969 69.828125 140.128906 C 69.828125 139.914062 69.828125 139.644531 69.882812 139.324219 M 70.070312 137.234375 C 71.117188 134.296875 73.960938 133.644531 79.113281 133.644531 L 80.003906 133.644531 L 78.09375 131.421875 C 77.773438 131.394531 77.421875 131.367188 77.101562 131.367188 C 70.605469 131.367188 66.867188 134.320312 66.867188 139.484375 L 66.867188 141.308594 C 66.867188 144.609375 68 145.582031 71.4375 145.582031 L 77.289062 145.582031 C 80.511719 145.582031 82.046875 144.53125 82.046875 142.191406 L 82.046875 140.3125 C 82.046875 137.503906 80.433594 136.75 76.1875 136.75 C 74.042969 136.75 72.003906 136.9375 70.070312 137.234375 "/>
<path fill-rule="nonzero" fill="rgb(0%, 0%, 0%)" fill-opacity="1" d="M 90.085938 134.070312 L 100.003906 134.070312 L 100.003906 143.078125 L 90.085938 143.078125 Z M 87.183594 134.988281 L 87.183594 142.296875 C 87.183594 144.851562 87.910156 145.578125 90.355469 145.578125 L 99.730469 145.578125 C 102.179688 145.578125 102.902344 144.851562 102.902344 142.296875 L 102.902344 134.988281 C 102.902344 132.4375 102.179688 131.710938 99.730469 131.710938 L 90.355469 131.710938 C 87.910156 131.710938 87.183594 132.4375 87.183594 134.988281 "/>
<path fill-rule="nonzero" fill="rgb(0%, 0%, 0%)" fill-opacity="1" d="M 48.855469 73.179688 C 48.855469 71.898438 48.03125 71.488281 47.410156 71.488281 C 46.65625 71.488281 45.894531 71.957031 45.894531 73.21875 C 45.894531 74.3125 46.515625 75.09375 47.464844 75.09375 C 48.191406 75.09375 48.855469 74.539062 48.855469 73.179688 "/>
<path fill-rule="nonzero" fill="rgb(0%, 0%, 0%)" fill-opacity="1" d="M 47.425781 107.632812 C 48.203125 107.632812 48.660156 107.105469 48.660156 106.382812 C 48.660156 105.617188 48.132812 105.136719 47.496094 105.136719 C 46.601562 105.136719 46.132812 105.644531 46.132812 106.382812 C 46.132812 106.980469 46.574219 107.632812 47.425781 107.632812 "/>
<path fill-rule="nonzero" fill="rgb(0%, 0%, 0%)" fill-opacity="1" d="M 66.464844 68.3125 L 66.433594 68.3125 L 63.90625 72.628906 L 66.421875 72.628906 C 66.421875 70.195312 66.464844 68.625 66.464844 68.3125 "/>
<path fill-rule="nonzero" fill="rgb(0%, 0%, 0%)" fill-opacity="1" d="M 47.378906 109.136719 C 46.660156 109.136719 45.964844 109.605469 45.964844 110.699219 C 45.964844 111.664062 46.515625 112.300781 47.425781 112.300781 C 48.460938 112.300781 48.855469 111.40625 48.855469 110.714844 C 48.855469 110.003906 48.488281 109.136719 47.378906 109.136719 "/>
<path fill-rule="nonzero" fill="rgb(0%, 0%, 0%)" fill-opacity="1" d="M 123.242188 113.625 L 121.25 113.625 L 121.25 106.675781 L 118.847656 106.675781 L 118.847656 105.28125 L 119.132812 105.28125 C 121.050781 105.28125 121.5625 104.289062 121.605469 103.542969 L 123.242188 103.542969 Z M 99.640625 113.621094 C 99.714844 112.441406 99.796875 111.207031 101.988281 109.617188 C 103.800781 108.300781 104.527344 107.789062 104.527344 106.652344 C 104.527344 105.984375 104.101562 105.222656 103.136719 105.222656 C 101.746094 105.222656 101.703125 106.367188 101.691406 107.105469 L 99.753906 107.105469 C 99.753906 103.828125 102.15625 103.542969 103.050781 103.542969 C 104.980469 103.542969 106.515625 104.679688 106.515625 106.726562 C 106.515625 108.453125 105.394531 109.335938 104.414062 110 C 103.078125 110.9375 102.382812 111.390625 102.15625 111.859375 L 106.53125 111.859375 L 106.53125 113.621094 Z M 81.050781 110.527344 L 83 110.527344 L 82.984375 110.542969 C 82.984375 111.082031 83.125 112.300781 84.460938 112.300781 C 85.253906 112.300781 85.949219 111.761719 85.949219 110.640625 C 85.949219 109.265625 84.617188 109.207031 83.6875 109.207031 L 83.6875 107.789062 L 84.003906 107.789062 C 84.601562 107.789062 85.695312 107.730469 85.695312 106.425781 C 85.695312 106.054688 85.523438 105.136719 84.433594 105.136719 C 83.070312 105.136719 83.070312 106.425781 83.070312 106.777344 L 81.222656 106.777344 C 81.222656 104.894531 82.289062 103.542969 84.558594 103.542969 C 85.90625 103.542969 87.683594 104.226562 87.683594 106.355469 C 87.683594 107.375 87.042969 108.015625 86.476562 108.269531 L 86.476562 108.296875 C 86.832031 108.398438 87.996094 108.925781 87.996094 110.640625 C 87.996094 112.542969 86.589844 113.894531 84.558594 113.894531 C 83.609375 113.894531 81.050781 113.679688 81.050781 110.527344 M 43.914062 110.828125 C 43.914062 110.3125 43.914062 108.980469 45.453125 108.269531 C 44.65625 107.871094 44.226562 107.234375 44.226562 106.300781 C 44.226562 104.582031 45.609375 103.542969 47.367188 103.542969 C 49.453125 103.542969 50.5625 104.777344 50.5625 106.171875 C 50.5625 107.035156 50.207031 107.773438 49.398438 108.199219 C 50.363281 108.683594 50.90625 109.320312 50.90625 110.628906 C 50.90625 111.902344 50.082031 113.894531 47.410156 113.894531 C 44.808594 113.894531 43.914062 112.199219 43.914062 110.828125 M 45.242188 95.019531 C 45.453125 90.988281 47.984375 87.78125 48.835938 86.875 L 43.820312 86.875 L 43.859375 85.109375 L 50.96875 85.109375 L 50.96875 86.644531 C 50 87.695312 47.53125 90.679688 47.289062 95.019531 Z M 43.902344 71.613281 C 43.902344 69.699219 44.15625 66.335938 47.652344 66.335938 C 48.0625 66.335938 49.210938 66.492188 49.710938 66.988281 C 50.265625 67.527344 50.464844 67.828125 50.648438 68.894531 L 48.671875 68.890625 C 48.617188 68.324219 48.246094 67.925781 47.507812 67.925781 C 46.21875 67.925781 45.917969 69.398438 45.847656 70.707031 L 45.878906 70.734375 C 46.148438 70.367188 46.644531 69.894531 47.761719 69.894531 C 49.851562 69.894531 50.847656 71.503906 50.847656 73.007812 C 50.847656 75.207031 49.496094 76.6875 47.550781 76.6875 C 44.496094 76.6875 43.902344 74.128906 43.902344 71.613281 M 62.449219 92.320312 L 64.4375 92.320312 C 64.523438 93.144531 64.964844 93.699219 65.84375 93.699219 C 66.792969 93.699219 67.347656 92.890625 67.347656 91.8125 C 67.347656 90.914062 66.921875 90.007812 65.871094 90.007812 C 65.601562 90.007812 64.921875 90.019531 64.539062 90.730469 L 62.757812 90.644531 L 63.457031 85.109375 L 68.996094 85.109375 L 68.996094 86.789062 L 64.894531 86.789062 L 64.539062 88.96875 C 64.90625 88.714844 65.363281 88.414062 66.339844 88.414062 C 67.6875 88.414062 69.394531 89.351562 69.394531 91.667969 C 69.394531 93.046875 68.699219 95.289062 65.730469 95.289062 C 64.15625 95.289062 62.546875 94.351562 62.449219 92.320312 M 62.441406 74.179688 L 62.441406 72.460938 L 66.152344 66.335938 L 68.414062 66.335938 L 68.414062 72.628906 L 69.535156 72.628906 L 69.535156 74.179688 L 68.414062 74.179688 L 68.414062 76.417969 L 66.421875 76.417969 L 66.421875 74.179688 Z M 66.46875 62.511719 L 74.859375 62.511719 L 74.859375 80.199219 L 66.46875 80.199219 L 66.46875 77.8125 L 72.46875 77.8125 L 72.46875 64.894531 L 66.46875 64.894531 Z M 115.363281 102.105469 L 115.363281 115.023438 L 121.367188 115.023438 L 121.367188 120.511719 L 103.675781 120.511719 L 103.675781 115.023438 L 109.679688 115.023438 L 109.679688 102.105469 L 96.757812 102.105469 L 96.757812 115.023438 L 102.761719 115.023438 L 102.761719 120.511719 L 85.074219 120.511719 L 85.074219 115.023438 L 91.074219 115.023438 L 91.074219 102.105469 L 78.15625 102.105469 L 78.15625 115.023438 L 84.160156 115.023438 L 84.160156 120.511719 L 47.863281 120.511719 L 47.863281 115.023438 L 53.867188 115.023438 L 53.867188 102.105469 L 47.863281 102.105469 L 47.863281 99.71875 L 66.46875 99.71875 L 66.46875 96.417969 L 72.46875 96.417969 L 72.46875 83.5 L 66.46875 83.5 L 66.46875 81.113281 L 75.769531 81.113281 L 75.769531 61.597656 L 65.554688 61.597656 L 65.554688 64.894531 L 59.554688 64.894531 L 59.554688 77.8125 L 65.554688 77.8125 L 65.554688 83.5 L 59.554688 83.5 L 59.554688 96.417969 L 65.554688 96.417969 L 65.554688 98.804688 L 47.863281 98.804688 L 47.863281 96.417969 L 53.867188 96.417969 L 53.867188 83.5 L 47.863281 83.5 L 47.863281 77.8125 L 53.867188 77.8125 L 53.867188 64.894531 L 40.949219 64.894531 L 40.949219 77.8125 L 46.953125 77.8125 L 46.953125 83.5 L 40.949219 83.5 L 40.949219 96.417969 L 46.953125 96.417969 L 46.953125 102.105469 L 40.949219 102.105469 L 40.949219 115.023438 L 46.953125 115.023438 L 46.953125 121.421875 L 122.277344 121.421875 L 122.277344 115.023438 L 128.28125 115.023438 L 128.28125 102.105469 Z M 115.363281 102.105469 "/>
</svg>
