<?xml version="1.0" encoding="UTF-8"?>
<svg xmlns="http://www.w3.org/2000/svg" xmlns:xlink="http://www.w3.org/1999/xlink" width="172" height="152" viewBox="0 0 172 152">
<path fill-rule="nonzero" fill="rgb(0%, 0%, 0%)" fill-opacity="1" d="M 76.550781 140.199219 L 68.972656 140.199219 L 76.550781 133.984375 Z M 76.550781 145.75 L 79.480469 145.75 L 79.480469 142.503906 L 82.839844 142.503906 L 82.839844 140.199219 L 79.480469 140.199219 L 79.480469 131.539062 L 76.445312 131.539062 L 66.042969 140.199219 L 66.042969 142.503906 L 76.550781 142.503906 Z M 76.550781 145.75 "/>
<path fill-rule="nonzero" fill="rgb(0%, 0%, 0%)" fill-opacity="1" d="M 99.589844 134.074219 L 90.425781 134.074219 L 90.425781 137.0625 L 87.496094 136.550781 L 87.496094 131.710938 L 102.894531 131.710938 L 102.894531 133.9375 L 95.640625 145.835938 L 92.117188 145.835938 Z M 99.589844 134.074219 "/>
<path fill-rule="nonzero" fill="rgb(0%, 0%, 0%)" fill-opacity="1" d="M 47.421875 107.628906 C 48.203125 107.628906 48.65625 107.105469 48.65625 106.382812 C 48.65625 105.613281 48.132812 105.132812 47.496094 105.132812 C 46.601562 105.132812 46.132812 105.644531 46.132812 106.382812 C 46.132812 106.976562 46.574219 107.628906 47.421875 107.628906 "/>
<path fill-rule="nonzero" fill="rgb(0%, 0%, 0%)" fill-opacity="1" d="M 47.382812 109.136719 C 46.65625 109.136719 45.960938 109.605469 45.960938 110.699219 C 45.960938 111.660156 46.515625 112.300781 47.425781 112.300781 C 48.460938 112.300781 48.859375 111.40625 48.859375 110.710938 C 48.859375 110 48.488281 109.136719 47.382812 109.136719 "/>
<path fill-rule="nonzero" fill="rgb(0%, 0%, 0%)" fill-opacity="1" d="M 123.242188 113.625 L 121.25 113.625 L 121.25 106.671875 L 118.847656 106.671875 L 118.847656 105.28125 L 119.132812 105.28125 C 121.050781 105.28125 121.5625 104.289062 121.605469 103.539062 L 123.242188 103.539062 Z M 99.640625 113.625 C 99.710938 112.441406 99.796875 111.207031 101.984375 109.617188 C 103.800781 108.300781 104.527344 107.785156 104.527344 106.652344 C 104.527344 105.984375 104.097656 105.21875 103.136719 105.21875 C 101.746094 105.21875 101.703125 106.371094 101.6875 107.105469 L 99.753906 107.105469 C 99.753906 103.828125 102.15625 103.542969 103.050781 103.542969 C 104.980469 103.542969 106.515625 104.679688 106.515625 106.722656 C 106.515625 108.457031 105.394531 109.335938 104.414062 110.003906 C 103.078125 110.9375 102.382812 111.390625 102.15625 111.859375 L 106.53125 111.859375 L 106.53125 113.625 Z M 43.914062 110.824219 C 43.914062 110.316406 43.914062 108.980469 45.453125 108.269531 C 44.65625 107.871094 44.226562 107.230469 44.226562 106.296875 C 44.226562 104.578125 45.609375 103.542969 47.367188 103.542969 C 49.453125 103.542969 50.5625 104.777344 50.5625 106.171875 C 50.5625 107.035156 50.207031 107.773438 49.394531 108.199219 C 50.363281 108.683594 50.902344 109.320312 50.902344 110.628906 C 50.902344 111.902344 50.082031 113.894531 47.410156 113.894531 C 44.808594 113.894531 43.914062 112.203125 43.914062 110.824219 M 45.238281 95.019531 C 45.453125 90.988281 47.984375 87.78125 48.835938 86.871094 L 43.816406 86.871094 L 43.859375 85.109375 L 50.96875 85.109375 L 50.96875 86.644531 C 50.003906 87.695312 47.527344 90.679688 47.289062 95.019531 Z M 47.863281 81.113281 L 56.253906 81.113281 L 56.253906 97.769531 L 47.863281 97.769531 L 47.863281 96.417969 L 53.867188 96.417969 L 53.867188 83.5 L 47.863281 83.5 Z M 62.503906 90.21875 C 62.503906 88.300781 62.761719 84.9375 66.253906 84.9375 C 66.664062 84.9375 67.816406 85.09375 68.3125 85.59375 C 68.871094 86.132812 69.066406 86.433594 69.253906 87.492188 L 67.273438 87.492188 C 67.21875 86.929688 66.851562 86.53125 66.113281 86.53125 C 64.820312 86.53125 64.523438 88.003906 64.453125 89.308594 L 64.480469 89.335938 C 64.75 88.96875 65.25 88.5 66.367188 88.5 C 68.457031 88.5 69.453125 90.105469 69.453125 91.609375 C 69.453125 93.8125 68.101562 95.289062 66.15625 95.289062 C 63.101562 95.289062 62.503906 92.730469 62.503906 90.21875 M 62.445312 73.714844 L 64.4375 73.714844 C 64.523438 74.539062 64.964844 75.09375 65.84375 75.09375 C 66.792969 75.09375 67.347656 74.285156 67.347656 73.203125 C 67.347656 72.308594 66.921875 71.402344 65.871094 71.402344 C 65.601562 71.402344 64.921875 71.417969 64.539062 72.125 L 62.761719 72.039062 L 63.457031 66.503906 L 68.996094 66.503906 L 68.996094 68.183594 L 64.890625 68.183594 L 64.539062 70.363281 C 64.90625 70.109375 65.359375 69.808594 66.339844 69.808594 C 67.6875 69.808594 69.394531 70.746094 69.394531 73.0625 C 69.394531 74.4375 68.695312 76.6875 65.730469 76.6875 C 64.152344 76.6875 62.546875 75.75 62.445312 73.714844 M 62.441406 55.574219 L 62.441406 53.855469 L 66.148438 47.730469 L 68.410156 47.730469 L 68.410156 54.027344 L 69.535156 54.027344 L 69.535156 55.574219 L 68.410156 55.574219 L 68.410156 57.8125 L 66.421875 57.8125 L 66.421875 55.574219 Z M 81.050781 54.714844 L 83 54.714844 L 82.984375 54.730469 C 82.984375 55.269531 83.128906 56.488281 84.460938 56.488281 C 85.253906 56.488281 85.953125 55.949219 85.953125 54.832031 C 85.953125 53.453125 84.617188 53.394531 83.683594 53.394531 L 83.683594 51.976562 L 84.007812 51.976562 C 84.601562 51.976562 85.691406 51.917969 85.691406 50.613281 C 85.691406 50.242188 85.523438 49.324219 84.433594 49.324219 C 83.070312 49.324219 83.070312 50.613281 83.070312 50.96875 L 81.222656 50.96875 C 81.222656 49.082031 82.289062 47.730469 84.558594 47.730469 C 85.90625 47.730469 87.683594 48.414062 87.683594 50.542969 C 87.683594 51.5625 87.046875 52.203125 86.476562 52.460938 L 86.476562 52.484375 C 86.832031 52.585938 88 53.109375 88 54.832031 C 88 56.730469 86.589844 58.082031 84.558594 58.082031 C 83.609375 58.082031 81.050781 57.871094 81.050781 54.714844 M 115.363281 102.101562 L 115.363281 115.023438 L 121.367188 115.023438 L 121.367188 120.511719 L 103.675781 120.511719 L 103.675781 115.023438 L 109.679688 115.023438 L 109.679688 102.101562 L 96.761719 102.101562 L 96.761719 115.023438 L 102.761719 115.023438 L 102.761719 120.511719 L 47.863281 120.511719 L 47.863281 115.023438 L 53.867188 115.023438 L 53.867188 102.101562 L 47.863281 102.101562 L 47.863281 100.75 L 66.46875 100.75 L 66.46875 96.417969 L 72.472656 96.417969 L 72.472656 83.5 L 66.46875 83.5 L 66.46875 77.8125 L 72.472656 77.8125 L 72.472656 64.894531 L 66.46875 64.894531 L 66.46875 62.507812 L 85.070312 62.507812 L 85.070312 59.210938 L 91.074219 59.210938 L 91.074219 46.289062 L 78.15625 46.289062 L 78.15625 59.210938 L 84.160156 59.210938 L 84.160156 61.597656 L 66.46875 61.597656 L 66.46875 59.210938 L 72.472656 59.210938 L 72.472656 46.289062 L 59.550781 46.289062 L 59.550781 59.210938 L 65.554688 59.210938 L 65.554688 64.894531 L 59.550781 64.894531 L 59.550781 77.8125 L 65.554688 77.8125 L 65.554688 83.5 L 59.550781 83.5 L 59.550781 96.417969 L 65.554688 96.417969 L 65.554688 99.839844 L 47.863281 99.839844 L 47.863281 98.683594 L 57.167969 98.683594 L 57.167969 80.203125 L 46.953125 80.203125 L 46.953125 83.5 L 40.949219 83.5 L 40.949219 96.417969 L 46.953125 96.417969 L 46.953125 102.101562 L 40.949219 102.101562 L 40.949219 115.023438 L 46.953125 115.023438 L 46.953125 121.421875 L 122.277344 121.421875 L 122.277344 115.023438 L 128.28125 115.023438 L 128.28125 102.101562 Z M 115.363281 102.101562 "/>
<path fill-rule="nonzero" fill="rgb(0%, 0%, 0%)" fill-opacity="1" d="M 66.464844 49.707031 L 66.433594 49.707031 L 63.902344 54.027344 L 66.417969 54.027344 C 66.417969 51.589844 66.464844 50.019531 66.464844 49.707031 "/>
<path fill-rule="nonzero" fill="rgb(0%, 0%, 0%)" fill-opacity="1" d="M 67.460938 91.78125 C 67.460938 90.503906 66.636719 90.089844 66.011719 90.089844 C 65.261719 90.089844 64.496094 90.558594 64.496094 91.824219 C 64.496094 92.917969 65.117188 93.699219 66.070312 93.699219 C 66.792969 93.699219 67.460938 93.144531 67.460938 91.78125 "/>
</svg>
