<?xml version="1.0" encoding="UTF-8"?>
<svg xmlns="http://www.w3.org/2000/svg" xmlns:xlink="http://www.w3.org/1999/xlink" width="172" height="152" viewBox="0 0 172 152">
<path fill-rule="nonzero" fill="rgb(0%, 0%, 0%)" fill-opacity="1" d="M 68.144531 131.710938 L 80.128906 131.710938 L 79.886719 134.070312 L 70.210938 134.070312 L 69.890625 136.761719 C 72.011719 136.546875 73.867188 136.410156 75.503906 136.410156 C 80.074219 136.410156 82.386719 137.972656 82.386719 141.121094 C 82.386719 144.484375 79.941406 145.777344 74.753906 145.777344 C 71.769531 145.777344 69.539062 145.5625 68.0625 145.214844 L 67.363281 142.519531 C 69.890625 142.980469 72.308594 143.246094 74.671875 143.246094 C 77.949219 143.246094 79.402344 142.710938 79.402344 140.984375 C 79.402344 139.339844 77.925781 138.828125 74.859375 138.828125 C 72.953125 138.828125 70.453125 138.992188 67.363281 139.394531 L 68.144531 131.710938 "/>
<path fill-rule="nonzero" fill="rgb(0%, 0%, 0%)" fill-opacity="1" d="M 99.664062 137.941406 C 97.277344 138.179688 95.207031 138.289062 93.542969 138.289062 C 91.207031 138.289062 90.453125 137.996094 90.453125 136.574219 L 90.453125 135.792969 C 90.453125 134.503906 91.019531 134.074219 93.007812 134.074219 L 96.847656 134.074219 C 99.503906 134.074219 99.746094 134.609375 99.746094 137.109375 C 99.746094 137.324219 99.71875 137.617188 99.664062 137.941406 M 99.503906 140.054688 C 98.457031 142.996094 95.585938 143.644531 90.429688 143.644531 L 89.542969 143.644531 L 91.449219 145.867188 C 91.773438 145.894531 92.121094 145.894531 92.441406 145.894531 C 98.941406 145.894531 102.675781 142.96875 102.675781 137.804688 L 102.675781 135.980469 C 102.675781 132.675781 101.546875 131.710938 98.109375 131.710938 L 92.253906 131.710938 C 89.03125 131.710938 87.527344 132.757812 87.527344 135.09375 L 87.527344 136.949219 C 87.527344 139.761719 89.136719 140.511719 93.382812 140.511719 C 95.53125 140.511719 97.570312 140.351562 99.503906 140.054688 "/>
<path fill-rule="nonzero" fill="rgb(0%, 0%, 0%)" fill-opacity="1" d="M 56.683594 109.136719 C 55.960938 109.136719 55.265625 109.605469 55.265625 110.699219 C 55.265625 111.664062 55.816406 112.300781 56.726562 112.300781 C 57.761719 112.300781 58.160156 111.40625 58.160156 110.714844 C 58.160156 110.003906 57.789062 109.136719 56.683594 109.136719 "/>
<path fill-rule="nonzero" fill="rgb(0%, 0%, 0%)" fill-opacity="1" d="M 75.765625 68.3125 L 75.738281 68.3125 L 73.207031 72.628906 L 75.722656 72.628906 C 75.722656 70.195312 75.765625 68.625 75.765625 68.3125 "/>
<path fill-rule="nonzero" fill="rgb(0%, 0%, 0%)" fill-opacity="1" d="M 38.109375 71.488281 C 37.355469 71.488281 36.589844 71.957031 36.589844 73.21875 C 36.589844 74.3125 37.214844 75.09375 38.164062 75.09375 C 38.886719 75.09375 39.554688 74.542969 39.554688 73.179688 C 39.554688 71.898438 38.730469 71.488281 38.109375 71.488281 "/>
<path fill-rule="nonzero" fill="rgb(0%, 0%, 0%)" fill-opacity="1" d="M 56.726562 107.632812 C 57.503906 107.632812 57.960938 107.105469 57.960938 106.382812 C 57.960938 105.617188 57.433594 105.136719 56.796875 105.136719 C 55.902344 105.136719 55.4375 105.644531 55.4375 106.382812 C 55.4375 106.980469 55.875 107.632812 56.726562 107.632812 "/>
<path fill-rule="nonzero" fill="rgb(0%, 0%, 0%)" fill-opacity="1" d="M 132.542969 113.625 L 130.550781 113.625 L 130.550781 106.675781 L 128.152344 106.675781 L 128.152344 105.28125 L 128.433594 105.28125 C 130.351562 105.28125 130.867188 104.289062 130.90625 103.542969 L 132.542969 103.542969 Z M 108.945312 113.621094 C 109.015625 112.441406 109.101562 111.207031 111.289062 109.617188 C 113.105469 108.300781 113.828125 107.789062 113.828125 106.652344 C 113.828125 105.984375 113.402344 105.222656 112.4375 105.222656 C 111.046875 105.222656 111.007812 106.367188 110.992188 107.105469 L 109.058594 107.105469 C 109.058594 103.828125 111.460938 103.542969 112.351562 103.542969 C 114.285156 103.542969 115.820312 104.679688 115.820312 106.726562 C 115.820312 108.453125 114.695312 109.335938 113.714844 110 C 112.382812 110.9375 111.6875 111.390625 111.460938 111.859375 L 115.832031 111.859375 L 115.832031 113.621094 Z M 90.351562 110.527344 L 92.300781 110.527344 L 92.289062 110.542969 C 92.289062 111.082031 92.429688 112.300781 93.761719 112.300781 C 94.558594 112.300781 95.253906 111.761719 95.253906 110.640625 C 95.253906 109.265625 93.917969 109.207031 92.988281 109.207031 L 92.988281 107.789062 L 93.308594 107.789062 C 93.90625 107.789062 94.996094 107.730469 94.996094 106.425781 C 94.996094 106.054688 94.824219 105.136719 93.734375 105.136719 C 92.375 105.136719 92.375 106.425781 92.375 106.777344 L 90.523438 106.777344 C 90.523438 104.894531 91.589844 103.542969 93.863281 103.542969 C 95.210938 103.542969 96.988281 104.226562 96.988281 106.355469 C 96.988281 107.375 96.347656 108.015625 95.777344 108.269531 L 95.777344 108.296875 C 96.132812 108.398438 97.300781 108.925781 97.300781 110.640625 C 97.300781 112.542969 95.890625 113.894531 93.863281 113.894531 C 92.910156 113.894531 90.351562 113.679688 90.351562 110.527344 M 53.21875 110.828125 C 53.21875 110.3125 53.21875 108.980469 54.753906 108.269531 C 53.957031 107.871094 53.53125 107.234375 53.53125 106.300781 C 53.53125 104.582031 54.910156 103.542969 56.667969 103.542969 C 58.757812 103.542969 59.867188 104.777344 59.867188 106.171875 C 59.867188 107.035156 59.507812 107.773438 58.699219 108.199219 C 59.667969 108.683594 60.207031 109.320312 60.207031 110.628906 C 60.207031 111.902344 59.382812 113.894531 56.710938 113.894531 C 54.113281 113.894531 53.21875 112.199219 53.21875 110.828125 M 54.542969 95.019531 C 54.753906 90.988281 57.289062 87.78125 58.136719 86.875 L 53.121094 86.875 L 53.164062 85.109375 L 60.269531 85.109375 L 60.269531 86.644531 C 59.304688 87.695312 56.832031 90.679688 56.589844 95.019531 Z M 53.148438 73.71875 L 55.136719 73.71875 C 55.222656 74.539062 55.664062 75.09375 56.542969 75.09375 C 57.492188 75.09375 58.046875 74.285156 58.046875 73.207031 C 58.046875 72.3125 57.621094 71.402344 56.570312 71.402344 C 56.300781 71.402344 55.617188 71.417969 55.234375 72.128906 L 53.457031 72.039062 L 54.15625 66.507812 L 59.695312 66.507812 L 59.695312 68.183594 L 55.589844 68.183594 L 55.234375 70.363281 C 55.605469 70.109375 56.058594 69.808594 57.039062 69.808594 C 58.386719 69.808594 60.09375 70.75 60.09375 73.0625 C 60.09375 74.441406 59.394531 76.6875 56.429688 76.6875 C 54.851562 76.6875 53.246094 75.746094 53.148438 73.71875 M 34.597656 71.613281 C 34.597656 69.699219 34.855469 66.335938 38.351562 66.335938 C 38.761719 66.335938 39.910156 66.492188 40.410156 66.988281 C 40.964844 67.527344 41.164062 67.828125 41.347656 68.894531 L 39.371094 68.890625 C 39.316406 68.324219 38.945312 67.925781 38.207031 67.925781 C 36.917969 67.925781 36.617188 69.398438 36.546875 70.707031 L 36.578125 70.734375 C 36.84375 70.367188 37.34375 69.894531 38.460938 69.894531 C 40.550781 69.894531 41.546875 71.503906 41.546875 73.007812 C 41.546875 75.207031 40.195312 76.6875 38.25 76.6875 C 35.195312 76.6875 34.597656 74.128906 34.597656 71.613281 M 71.742188 74.179688 L 71.742188 72.460938 L 75.453125 66.335938 L 77.714844 66.335938 L 77.714844 72.628906 L 78.835938 72.628906 L 78.835938 74.179688 L 77.714844 74.179688 L 77.714844 76.417969 L 75.722656 76.417969 L 75.722656 74.179688 Z M 75.769531 62.511719 L 84.160156 62.511719 L 84.160156 79.167969 L 75.769531 79.167969 L 75.769531 77.8125 L 81.773438 77.8125 L 81.773438 64.894531 L 75.769531 64.894531 Z M 124.667969 102.105469 L 124.667969 115.023438 L 130.671875 115.023438 L 130.671875 120.511719 L 112.976562 120.511719 L 112.976562 115.023438 L 118.980469 115.023438 L 118.980469 102.105469 L 106.0625 102.105469 L 106.0625 115.023438 L 112.066406 115.023438 L 112.066406 120.511719 L 94.375 120.511719 L 94.375 115.023438 L 100.378906 115.023438 L 100.378906 102.105469 L 87.457031 102.105469 L 87.457031 115.023438 L 93.460938 115.023438 L 93.460938 120.511719 L 57.167969 120.511719 L 57.167969 115.023438 L 63.167969 115.023438 L 63.167969 102.105469 L 57.167969 102.105469 L 57.167969 96.417969 L 63.167969 96.417969 L 63.167969 83.5 L 57.167969 83.5 L 57.167969 82.144531 L 75.769531 82.144531 L 75.769531 80.078125 L 85.074219 80.078125 L 85.074219 61.597656 L 74.859375 61.597656 L 74.859375 64.894531 L 68.855469 64.894531 L 68.855469 77.8125 L 74.859375 77.8125 L 74.859375 81.234375 L 57.167969 81.234375 L 57.167969 77.8125 L 63.167969 77.8125 L 63.167969 64.894531 L 50.253906 64.894531 L 50.253906 77.8125 L 56.253906 77.8125 L 56.253906 81.234375 L 38.5625 81.234375 L 38.5625 77.8125 L 44.566406 77.8125 L 44.566406 64.894531 L 31.648438 64.894531 L 31.648438 77.8125 L 37.652344 77.8125 L 37.652344 82.144531 L 56.253906 82.144531 L 56.253906 83.5 L 50.253906 83.5 L 50.253906 96.417969 L 56.253906 96.417969 L 56.253906 102.105469 L 50.253906 102.105469 L 50.253906 115.023438 L 56.253906 115.023438 L 56.253906 121.421875 L 131.582031 121.421875 L 131.582031 115.023438 L 137.585938 115.023438 L 137.585938 102.105469 Z M 124.667969 102.105469 "/>
</svg>
