<?xml version="1.0" encoding="UTF-8"?>
<svg xmlns="http://www.w3.org/2000/svg" xmlns:xlink="http://www.w3.org/1999/xlink" width="172" height="152" viewBox="0 0 172 152">
<path fill-rule="nonzero" fill="rgb(0%, 0%, 0%)" fill-opacity="1" d="M 76.550781 140.199219 L 68.976562 140.199219 L 76.550781 133.984375 Z M 76.550781 145.75 L 79.480469 145.75 L 79.480469 142.503906 L 82.839844 142.503906 L 82.839844 140.199219 L 79.480469 140.199219 L 79.480469 131.539062 L 76.445312 131.539062 L 66.042969 140.199219 L 66.042969 142.503906 L 76.550781 142.503906 Z M 76.550781 145.75 "/>
<path fill-rule="nonzero" fill="rgb(0%, 0%, 0%)" fill-opacity="1" d="M 88.914062 131.710938 L 100.898438 131.710938 L 100.65625 134.074219 L 90.980469 134.074219 L 90.660156 136.757812 C 92.78125 136.546875 94.636719 136.410156 96.277344 136.410156 C 100.84375 136.410156 103.15625 137.96875 103.15625 141.121094 C 103.15625 144.488281 100.710938 145.777344 95.523438 145.777344 C 92.542969 145.777344 90.3125 145.5625 88.832031 145.214844 L 88.136719 142.519531 C 90.660156 142.980469 93.078125 143.25 95.441406 143.25 C 98.722656 143.25 100.171875 142.710938 100.171875 140.984375 C 100.171875 139.34375 98.695312 138.828125 95.632812 138.828125 C 93.722656 138.828125 91.226562 138.988281 88.136719 139.394531 L 88.914062 131.710938 "/>
<path fill-rule="nonzero" fill="rgb(0%, 0%, 0%)" fill-opacity="1" d="M 66.464844 49.707031 L 66.433594 49.707031 L 63.902344 54.027344 L 66.421875 54.027344 C 66.421875 51.589844 66.464844 50.019531 66.464844 49.707031 "/>
<path fill-rule="nonzero" fill="rgb(0%, 0%, 0%)" fill-opacity="1" d="M 47.421875 107.628906 C 48.203125 107.628906 48.65625 107.105469 48.65625 106.382812 C 48.65625 105.613281 48.132812 105.132812 47.496094 105.132812 C 46.601562 105.132812 46.132812 105.644531 46.132812 106.382812 C 46.132812 106.976562 46.570312 107.628906 47.421875 107.628906 "/>
<path fill-rule="nonzero" fill="rgb(0%, 0%, 0%)" fill-opacity="1" d="M 47.382812 109.136719 C 46.65625 109.136719 45.964844 109.605469 45.964844 110.699219 C 45.964844 111.660156 46.515625 112.300781 47.425781 112.300781 C 48.460938 112.300781 48.859375 111.40625 48.859375 110.710938 C 48.859375 110 48.488281 109.136719 47.382812 109.136719 "/>
<path fill-rule="nonzero" fill="rgb(0%, 0%, 0%)" fill-opacity="1" d="M 48.855469 73.175781 C 48.855469 71.898438 48.035156 71.488281 47.410156 71.488281 C 46.65625 71.488281 45.890625 71.957031 45.890625 73.21875 C 45.890625 74.3125 46.515625 75.09375 47.464844 75.09375 C 48.1875 75.09375 48.855469 74.539062 48.855469 73.175781 "/>
<path fill-rule="nonzero" fill="rgb(0%, 0%, 0%)" fill-opacity="1" d="M 123.242188 113.625 L 121.25 113.625 L 121.25 106.671875 L 118.847656 106.671875 L 118.847656 105.28125 L 119.132812 105.28125 C 121.050781 105.28125 121.5625 104.289062 121.605469 103.539062 L 123.242188 103.539062 Z M 99.640625 113.625 C 99.710938 112.441406 99.796875 111.207031 101.984375 109.617188 C 103.800781 108.300781 104.527344 107.785156 104.527344 106.652344 C 104.527344 105.984375 104.097656 105.21875 103.136719 105.21875 C 101.746094 105.21875 101.703125 106.371094 101.6875 107.105469 L 99.753906 107.105469 C 99.753906 103.828125 102.15625 103.542969 103.050781 103.542969 C 104.980469 103.542969 106.515625 104.679688 106.515625 106.722656 C 106.515625 108.457031 105.394531 109.335938 104.414062 110.003906 C 103.078125 110.9375 102.382812 111.390625 102.15625 111.859375 L 106.53125 111.859375 L 106.53125 113.625 Z M 43.914062 110.824219 C 43.914062 110.316406 43.914062 108.980469 45.453125 108.269531 C 44.65625 107.871094 44.226562 107.230469 44.226562 106.296875 C 44.226562 104.578125 45.609375 103.542969 47.367188 103.542969 C 49.453125 103.542969 50.5625 104.777344 50.5625 106.171875 C 50.5625 107.035156 50.207031 107.773438 49.394531 108.199219 C 50.363281 108.683594 50.90625 109.320312 50.90625 110.628906 C 50.90625 111.902344 50.082031 113.894531 47.410156 113.894531 C 44.808594 113.894531 43.914062 112.203125 43.914062 110.824219 M 45.238281 95.019531 C 45.453125 90.988281 47.984375 87.78125 48.835938 86.871094 L 43.816406 86.871094 L 43.859375 85.109375 L 50.96875 85.109375 L 50.96875 86.644531 C 50.003906 87.695312 47.53125 90.679688 47.289062 95.019531 Z M 43.898438 71.613281 C 43.898438 69.699219 44.15625 66.335938 47.648438 66.335938 C 48.0625 66.335938 49.214844 66.492188 49.710938 66.988281 C 50.265625 67.527344 50.464844 67.828125 50.648438 68.890625 L 48.671875 68.890625 C 48.617188 68.324219 48.246094 67.925781 47.511719 67.925781 C 46.21875 67.925781 45.921875 69.398438 45.847656 70.707031 L 45.878906 70.734375 C 46.148438 70.363281 46.644531 69.894531 47.761719 69.894531 C 49.851562 69.894531 50.847656 71.5 50.847656 73.007812 C 50.847656 75.207031 49.496094 76.6875 47.550781 76.6875 C 44.5 76.6875 43.898438 74.128906 43.898438 71.613281 M 47.863281 62.507812 L 56.253906 62.515625 L 56.253906 79.167969 L 47.863281 79.167969 L 47.863281 77.8125 L 53.867188 77.8125 L 53.867188 64.894531 L 47.863281 64.894531 Z M 62.449219 73.714844 L 64.4375 73.714844 C 64.523438 74.539062 64.964844 75.09375 65.84375 75.09375 C 66.792969 75.09375 67.347656 74.285156 67.347656 73.203125 C 67.347656 72.308594 66.921875 71.402344 65.871094 71.402344 C 65.601562 71.402344 64.921875 71.417969 64.539062 72.125 L 62.761719 72.039062 L 63.457031 66.503906 L 68.996094 66.503906 L 68.996094 68.183594 L 64.890625 68.183594 L 64.539062 70.363281 C 64.90625 70.109375 65.359375 69.808594 66.339844 69.808594 C 67.6875 69.808594 69.394531 70.746094 69.394531 73.0625 C 69.394531 74.4375 68.695312 76.6875 65.730469 76.6875 C 64.152344 76.6875 62.546875 75.75 62.449219 73.714844 M 62.441406 55.574219 L 62.441406 53.855469 L 66.148438 47.730469 L 68.414062 47.730469 L 68.414062 54.027344 L 69.535156 54.027344 L 69.535156 55.574219 L 68.414062 55.574219 L 68.414062 57.8125 L 66.421875 57.8125 L 66.421875 55.574219 Z M 81.050781 54.714844 L 83 54.714844 L 82.984375 54.730469 C 82.984375 55.269531 83.128906 56.488281 84.460938 56.488281 C 85.253906 56.488281 85.953125 55.949219 85.953125 54.832031 C 85.953125 53.453125 84.617188 53.394531 83.683594 53.394531 L 83.683594 51.976562 L 84.007812 51.976562 C 84.601562 51.976562 85.691406 51.917969 85.691406 50.613281 C 85.691406 50.242188 85.523438 49.324219 84.433594 49.324219 C 83.070312 49.324219 83.070312 50.613281 83.070312 50.96875 L 81.222656 50.96875 C 81.222656 49.082031 82.289062 47.730469 84.558594 47.730469 C 85.90625 47.730469 87.683594 48.414062 87.683594 50.542969 C 87.683594 51.5625 87.046875 52.203125 86.476562 52.460938 L 86.476562 52.484375 C 86.832031 52.585938 88 53.109375 88 54.832031 C 88 56.730469 86.589844 58.082031 84.558594 58.082031 C 83.609375 58.082031 81.050781 57.871094 81.050781 54.714844 M 115.363281 102.101562 L 115.363281 115.023438 L 121.367188 115.023438 L 121.367188 120.511719 L 103.675781 120.511719 L 103.675781 115.023438 L 109.679688 115.023438 L 109.679688 102.101562 L 96.761719 102.101562 L 96.761719 115.023438 L 102.761719 115.023438 L 102.761719 120.511719 L 47.863281 120.511719 L 47.863281 115.023438 L 53.867188 115.023438 L 53.867188 102.101562 L 47.863281 102.101562 L 47.863281 96.417969 L 53.867188 96.417969 L 53.867188 83.5 L 47.863281 83.5 L 47.863281 82.144531 L 66.46875 82.144531 L 66.46875 77.8125 L 72.46875 77.8125 L 72.46875 64.894531 L 66.46875 64.894531 L 66.46875 62.507812 L 85.070312 62.507812 L 85.070312 59.210938 L 91.074219 59.210938 L 91.074219 46.289062 L 78.15625 46.289062 L 78.15625 59.210938 L 84.160156 59.210938 L 84.160156 61.597656 L 66.46875 61.597656 L 66.46875 59.210938 L 72.46875 59.210938 L 72.46875 46.289062 L 59.554688 46.289062 L 59.554688 59.210938 L 65.554688 59.210938 L 65.554688 64.894531 L 59.554688 64.894531 L 59.554688 77.8125 L 65.554688 77.8125 L 65.554688 81.234375 L 47.863281 81.234375 L 47.863281 80.078125 L 57.167969 80.078125 L 57.167969 61.605469 L 56.710938 61.601562 L 47.410156 61.597656 L 46.953125 61.597656 L 46.953125 64.894531 L 40.949219 64.894531 L 40.949219 77.8125 L 46.953125 77.8125 L 46.953125 83.5 L 40.949219 83.5 L 40.949219 96.417969 L 46.953125 96.417969 L 46.953125 102.101562 L 40.949219 102.101562 L 40.949219 115.023438 L 46.953125 115.023438 L 46.953125 121.421875 L 122.277344 121.421875 L 122.277344 115.023438 L 128.28125 115.023438 L 128.28125 102.101562 Z M 115.363281 102.101562 "/>
</svg>
