<?xml version="1.0" encoding="UTF-8"?>
<svg xmlns="http://www.w3.org/2000/svg" xmlns:xlink="http://www.w3.org/1999/xlink" width="172" height="152" viewBox="0 0 172 152">
<path fill-rule="nonzero" fill="rgb(0%, 0%, 0%)" fill-opacity="1" d="M 76.550781 140.195312 L 68.976562 140.195312 L 76.550781 133.988281 Z M 76.550781 145.75 L 79.484375 145.75 L 79.484375 142.503906 L 82.839844 142.503906 L 82.839844 140.195312 L 79.484375 140.195312 L 79.484375 131.539062 L 76.449219 131.539062 L 66.046875 140.195312 L 66.046875 142.503906 L 76.550781 142.503906 Z M 76.550781 145.75 "/>
<path fill-rule="nonzero" fill="rgb(0%, 0%, 0%)" fill-opacity="1" d="M 99.664062 137.941406 C 97.273438 138.179688 95.207031 138.289062 93.542969 138.289062 C 91.207031 138.289062 90.457031 137.996094 90.457031 136.570312 L 90.457031 135.792969 C 90.457031 134.503906 91.019531 134.074219 93.007812 134.074219 L 96.847656 134.074219 C 99.503906 134.074219 99.746094 134.609375 99.746094 137.105469 C 99.746094 137.324219 99.722656 137.617188 99.664062 137.941406 M 99.503906 140.054688 C 98.457031 142.996094 95.585938 143.644531 90.429688 143.644531 L 89.542969 143.644531 L 91.449219 145.867188 C 91.773438 145.894531 92.121094 145.894531 92.441406 145.894531 C 98.941406 145.894531 102.675781 142.96875 102.675781 137.804688 L 102.675781 135.980469 C 102.675781 132.675781 101.546875 131.710938 98.109375 131.710938 L 92.253906 131.710938 C 89.03125 131.710938 87.527344 132.757812 87.527344 135.09375 L 87.527344 136.945312 C 87.527344 139.761719 89.140625 140.511719 93.382812 140.511719 C 95.53125 140.511719 97.570312 140.347656 99.503906 140.054688 "/>
<path fill-rule="nonzero" fill="rgb(0%, 0%, 0%)" fill-opacity="1" d="M 38.109375 71.484375 C 37.355469 71.484375 36.589844 71.957031 36.589844 73.21875 C 36.589844 74.3125 37.214844 75.09375 38.164062 75.09375 C 38.886719 75.09375 39.554688 74.542969 39.554688 73.175781 C 39.554688 71.898438 38.734375 71.484375 38.109375 71.484375 "/>
<path fill-rule="nonzero" fill="rgb(0%, 0%, 0%)" fill-opacity="1" d="M 56.726562 107.628906 C 57.507812 107.628906 57.960938 107.105469 57.960938 106.382812 C 57.960938 105.617188 57.433594 105.132812 56.796875 105.132812 C 55.902344 105.132812 55.4375 105.644531 55.4375 106.382812 C 55.4375 106.980469 55.875 107.628906 56.726562 107.628906 "/>
<path fill-rule="nonzero" fill="rgb(0%, 0%, 0%)" fill-opacity="1" d="M 75.765625 68.3125 L 75.738281 68.3125 L 73.207031 72.628906 L 75.722656 72.628906 C 75.722656 70.195312 75.765625 68.625 75.765625 68.3125 "/>
<path fill-rule="nonzero" fill="rgb(0%, 0%, 0%)" fill-opacity="1" d="M 56.683594 109.136719 C 55.960938 109.136719 55.265625 109.605469 55.265625 110.699219 C 55.265625 111.660156 55.820312 112.300781 56.726562 112.300781 C 57.761719 112.300781 58.160156 111.40625 58.160156 110.710938 C 58.160156 110.003906 57.789062 109.136719 56.683594 109.136719 "/>
<path fill-rule="nonzero" fill="rgb(0%, 0%, 0%)" fill-opacity="1" d="M 132.542969 113.625 L 130.550781 113.625 L 130.550781 106.671875 L 128.152344 106.671875 L 128.152344 105.277344 L 128.433594 105.277344 C 130.351562 105.277344 130.867188 104.289062 130.90625 103.539062 L 132.542969 103.539062 Z M 108.945312 113.621094 C 109.015625 112.441406 109.101562 111.207031 111.289062 109.617188 C 113.105469 108.296875 113.828125 107.785156 113.828125 106.652344 C 113.828125 105.984375 113.402344 105.21875 112.4375 105.21875 C 111.046875 105.21875 111.003906 106.367188 110.992188 107.105469 L 109.058594 107.105469 C 109.058594 103.824219 111.460938 103.542969 112.351562 103.542969 C 114.285156 103.542969 115.820312 104.679688 115.820312 106.722656 C 115.820312 108.453125 114.695312 109.335938 113.714844 110 C 112.382812 110.9375 111.6875 111.390625 111.460938 111.859375 L 115.835938 111.859375 L 115.835938 113.621094 Z M 53.21875 110.824219 C 53.21875 110.3125 53.21875 108.980469 54.753906 108.269531 C 53.957031 107.871094 53.53125 107.230469 53.53125 106.296875 C 53.53125 104.582031 54.910156 103.542969 56.671875 103.542969 C 58.757812 103.542969 59.867188 104.777344 59.867188 106.167969 C 59.867188 107.03125 59.511719 107.769531 58.699219 108.199219 C 59.667969 108.679688 60.207031 109.320312 60.207031 110.625 C 60.207031 111.902344 59.382812 113.894531 56.710938 113.894531 C 54.113281 113.894531 53.21875 112.199219 53.21875 110.824219 M 54.542969 95.019531 C 54.753906 90.988281 57.289062 87.78125 58.140625 86.871094 L 53.121094 86.871094 L 53.164062 85.109375 L 60.269531 85.109375 L 60.269531 86.644531 C 59.304688 87.695312 56.832031 90.675781 56.589844 95.019531 Z M 53.144531 73.71875 L 55.136719 73.71875 C 55.222656 74.539062 55.664062 75.09375 56.542969 75.09375 C 57.492188 75.09375 58.046875 74.285156 58.046875 73.207031 C 58.046875 72.3125 57.621094 71.402344 56.570312 71.402344 C 56.300781 71.402344 55.617188 71.414062 55.234375 72.125 L 53.457031 72.039062 L 54.15625 66.503906 L 59.695312 66.503906 L 59.695312 68.183594 L 55.589844 68.183594 L 55.234375 70.363281 C 55.605469 70.105469 56.058594 69.808594 57.039062 69.808594 C 58.386719 69.808594 60.09375 70.75 60.09375 73.0625 C 60.09375 74.441406 59.398438 76.6875 56.429688 76.6875 C 54.851562 76.6875 53.246094 75.746094 53.144531 73.71875 M 34.597656 71.613281 C 34.597656 69.699219 34.855469 66.335938 38.351562 66.335938 C 38.761719 66.335938 39.910156 66.492188 40.410156 66.988281 C 40.964844 67.527344 41.164062 67.828125 41.347656 68.890625 L 39.371094 68.890625 C 39.3125 68.320312 38.945312 67.925781 38.207031 67.925781 C 36.917969 67.925781 36.617188 69.398438 36.546875 70.703125 L 36.574219 70.734375 C 36.84375 70.363281 37.34375 69.894531 38.464844 69.894531 C 40.550781 69.894531 41.546875 71.5 41.546875 73.007812 C 41.546875 75.207031 40.195312 76.6875 38.25 76.6875 C 35.195312 76.6875 34.597656 74.128906 34.597656 71.613281 M 71.742188 74.179688 L 71.742188 72.460938 L 75.453125 66.335938 L 77.714844 66.335938 L 77.714844 72.628906 L 78.835938 72.628906 L 78.835938 74.179688 L 77.714844 74.179688 L 77.714844 76.414062 L 75.722656 76.414062 L 75.722656 74.179688 Z M 90.351562 73.320312 L 92.300781 73.320312 L 92.289062 73.335938 C 92.289062 73.871094 92.429688 75.09375 93.765625 75.09375 C 94.558594 75.09375 95.253906 74.554688 95.253906 73.433594 C 95.253906 72.058594 93.917969 72 92.988281 72 L 92.988281 70.578125 L 93.308594 70.578125 C 93.90625 70.578125 94.996094 70.523438 94.996094 69.21875 C 94.996094 68.847656 94.828125 67.925781 93.734375 67.925781 C 92.375 67.925781 92.375 69.21875 92.375 69.570312 L 90.523438 69.570312 C 90.523438 67.683594 91.589844 66.335938 93.863281 66.335938 C 95.210938 66.335938 96.988281 67.015625 96.988281 69.144531 C 96.988281 70.167969 96.347656 70.804688 95.78125 71.0625 L 95.78125 71.089844 C 96.132812 71.1875 97.300781 71.714844 97.300781 73.433594 C 97.300781 75.335938 95.894531 76.6875 93.863281 76.6875 C 92.910156 76.6875 90.351562 76.472656 90.351562 73.320312 M 94.375 62.507812 L 102.765625 62.507812 L 102.765625 79.167969 L 94.375 79.167969 L 94.375 77.8125 L 100.378906 77.8125 L 100.378906 64.894531 L 94.375 64.894531 Z M 124.667969 102.105469 L 124.667969 115.019531 L 130.671875 115.019531 L 130.671875 120.507812 L 112.976562 120.507812 L 112.976562 115.019531 L 118.980469 115.019531 L 118.980469 102.105469 L 106.0625 102.105469 L 106.0625 115.019531 L 112.066406 115.019531 L 112.066406 120.507812 L 57.167969 120.507812 L 57.167969 115.019531 L 63.167969 115.019531 L 63.167969 102.105469 L 57.167969 102.105469 L 57.167969 96.417969 L 63.167969 96.417969 L 63.167969 83.5 L 57.167969 83.5 L 57.167969 82.144531 L 94.375 82.144531 L 94.375 80.078125 L 103.675781 80.078125 L 103.675781 61.597656 L 93.464844 61.597656 L 93.464844 64.894531 L 87.457031 64.894531 L 87.457031 77.8125 L 93.464844 77.8125 L 93.464844 81.234375 L 75.769531 81.234375 L 75.769531 77.8125 L 81.773438 77.8125 L 81.773438 64.894531 L 68.855469 64.894531 L 68.855469 77.8125 L 74.859375 77.8125 L 74.859375 81.234375 L 57.167969 81.234375 L 57.167969 77.8125 L 63.167969 77.8125 L 63.167969 64.894531 L 50.25 64.894531 L 50.25 77.8125 L 56.253906 77.8125 L 56.253906 81.234375 L 38.5625 81.234375 L 38.5625 77.8125 L 44.566406 77.8125 L 44.566406 64.894531 L 31.648438 64.894531 L 31.648438 77.8125 L 37.652344 77.8125 L 37.652344 82.144531 L 56.253906 82.144531 L 56.253906 83.5 L 50.25 83.5 L 50.25 96.417969 L 56.253906 96.417969 L 56.253906 102.105469 L 50.25 102.105469 L 50.25 115.019531 L 56.253906 115.019531 L 56.253906 121.421875 L 131.582031 121.421875 L 131.582031 115.019531 L 137.585938 115.019531 L 137.585938 102.105469 Z M 124.667969 102.105469 "/>
</svg>
