<?xml version="1.0" encoding="UTF-8"?>
<svg xmlns="http://www.w3.org/2000/svg" xmlns:xlink="http://www.w3.org/1999/xlink" width="172" height="152" viewBox="0 0 172 152">
<path fill-rule="nonzero" fill="rgb(0%, 0%, 0%)" fill-opacity="1" d="M 80.269531 139.324219 C 82.386719 139.109375 84.457031 139.003906 86.414062 139.003906 C 88.75 139.003906 89.472656 139.296875 89.472656 140.664062 L 89.472656 141.414062 C 89.472656 142.648438 88.9375 143.078125 86.953125 143.078125 L 83.085938 143.078125 C 80.429688 143.078125 80.214844 142.542969 80.214844 140.128906 C 80.214844 139.914062 80.214844 139.644531 80.269531 139.324219 M 80.457031 137.234375 C 81.503906 134.296875 84.347656 133.648438 89.5 133.648438 L 90.386719 133.648438 L 88.480469 131.421875 C 88.160156 131.394531 87.8125 131.367188 87.488281 131.367188 C 80.992188 131.367188 77.253906 134.320312 77.253906 139.484375 L 77.253906 141.308594 C 77.253906 144.609375 78.382812 145.578125 81.824219 145.578125 L 87.675781 145.578125 C 90.898438 145.578125 92.429688 144.53125 92.429688 142.191406 L 92.429688 140.316406 C 92.429688 137.5 90.820312 136.75 86.578125 136.75 C 84.429688 136.75 82.386719 136.9375 80.457031 137.234375 "/>
<path fill-rule="nonzero" fill="rgb(0%, 0%, 0%)" fill-opacity="1" d="M 112.972656 105.519531 L 112.945312 105.519531 L 110.414062 109.839844 L 112.929688 109.839844 C 112.929688 107.402344 112.972656 105.832031 112.972656 105.519531 "/>
<path fill-rule="nonzero" fill="rgb(0%, 0%, 0%)" fill-opacity="1" d="M 130.550781 95.023438 L 130.550781 88.070312 L 128.152344 88.070312 L 128.152344 86.675781 L 128.4375 86.675781 C 130.355469 86.675781 130.863281 85.6875 130.90625 84.9375 L 132.542969 84.9375 L 132.542969 95.023438 Z M 134.425781 106.722656 C 134.425781 108.457031 133.300781 109.335938 132.320312 110.003906 C 130.988281 110.9375 130.289062 111.394531 130.0625 111.859375 L 134.4375 111.859375 L 134.4375 113.625 L 127.546875 113.625 C 127.617188 112.441406 127.703125 111.207031 129.894531 109.617188 C 131.710938 108.300781 132.433594 107.789062 132.433594 106.652344 C 132.433594 105.988281 132.007812 105.21875 131.042969 105.21875 C 129.652344 105.21875 129.609375 106.371094 129.59375 107.105469 L 127.660156 107.105469 C 127.660156 103.828125 130.0625 103.542969 130.957031 103.542969 C 132.886719 103.542969 134.425781 104.679688 134.425781 106.722656 M 131.582031 81.121094 L 139.972656 81.121094 L 139.972656 98.804688 L 131.582031 98.804688 L 131.582031 96.421875 L 137.585938 96.421875 L 137.585938 83.5 L 131.582031 83.5 Z M 108.953125 111.386719 L 108.953125 109.667969 L 112.660156 103.542969 L 114.921875 103.542969 L 114.921875 109.839844 L 116.046875 109.839844 L 116.046875 111.386719 L 114.921875 111.386719 L 114.921875 113.625 L 112.933594 113.625 L 112.933594 111.386719 Z M 108.957031 91.925781 L 110.90625 91.925781 L 110.894531 91.9375 C 110.894531 92.480469 111.035156 93.699219 112.367188 93.699219 C 113.160156 93.699219 113.855469 93.160156 113.855469 92.035156 C 113.855469 90.660156 112.523438 90.605469 111.59375 90.605469 L 111.59375 89.183594 L 111.914062 89.183594 C 112.511719 89.183594 113.601562 89.128906 113.601562 87.824219 C 113.601562 87.453125 113.429688 86.53125 112.339844 86.53125 C 110.976562 86.53125 110.976562 87.824219 110.976562 88.175781 L 109.128906 88.175781 C 109.128906 86.289062 110.195312 84.9375 112.46875 84.9375 C 113.816406 84.9375 115.59375 85.621094 115.59375 87.75 C 115.59375 88.773438 114.953125 89.410156 114.382812 89.667969 L 114.382812 89.695312 C 114.738281 89.796875 115.90625 90.320312 115.90625 92.035156 C 115.90625 93.941406 114.496094 95.289062 112.46875 95.289062 C 111.519531 95.289062 108.957031 95.078125 108.957031 91.925781 M 90.355469 110.925781 L 92.347656 110.925781 C 92.429688 111.75 92.867188 112.304688 93.75 112.304688 C 94.699219 112.304688 95.253906 111.492188 95.253906 110.414062 C 95.253906 109.519531 94.828125 108.609375 93.78125 108.609375 C 93.511719 108.609375 92.828125 108.625 92.445312 109.335938 L 90.667969 109.25 L 91.363281 103.714844 L 96.90625 103.714844 L 96.90625 105.390625 L 92.800781 105.390625 L 92.445312 107.570312 C 92.8125 107.316406 93.265625 107.019531 94.246094 107.019531 C 95.59375 107.019531 97.300781 107.957031 97.300781 110.273438 C 97.300781 111.648438 96.605469 113.894531 93.636719 113.894531 C 92.0625 113.894531 90.453125 112.953125 90.355469 110.925781 M 71.808594 108.820312 C 71.808594 106.90625 72.0625 103.542969 75.558594 103.542969 C 75.96875 103.542969 77.121094 103.699219 77.617188 104.195312 C 78.171875 104.738281 78.371094 105.035156 78.558594 106.101562 L 76.578125 106.097656 C 76.523438 105.53125 76.152344 105.132812 75.414062 105.132812 C 74.125 105.132812 73.828125 106.605469 73.757812 107.914062 L 73.785156 107.941406 C 74.054688 107.574219 74.550781 107.101562 75.671875 107.101562 C 77.761719 107.101562 78.753906 108.710938 78.753906 110.214844 C 78.753906 112.414062 77.40625 113.894531 75.457031 113.894531 C 72.40625 113.894531 71.808594 111.335938 71.808594 108.820312 M 54.539062 113.625 C 54.757812 109.59375 57.285156 106.386719 58.140625 105.476562 L 53.121094 105.476562 L 53.164062 103.714844 L 60.273438 103.714844 L 60.273438 105.25 C 59.304688 106.300781 56.832031 109.28125 56.589844 113.625 Z M 34.613281 110.824219 C 34.613281 110.316406 34.613281 108.980469 36.152344 108.269531 C 35.355469 107.871094 34.925781 107.234375 34.925781 106.296875 C 34.925781 104.582031 36.308594 103.542969 38.066406 103.542969 C 40.152344 103.542969 41.261719 104.78125 41.261719 106.171875 C 41.261719 107.035156 40.90625 107.773438 40.097656 108.199219 C 41.0625 108.683594 41.605469 109.320312 41.605469 110.628906 C 41.605469 111.90625 40.78125 113.894531 38.109375 113.894531 C 35.511719 113.894531 34.613281 112.203125 34.613281 110.824219 M 140.886719 99.71875 L 140.886719 80.210938 L 130.671875 80.210938 L 130.671875 83.5 L 124.667969 83.5 L 124.667969 96.421875 L 130.671875 96.421875 L 130.671875 102.105469 L 124.667969 102.105469 L 124.667969 115.023438 L 130.671875 115.023438 L 130.671875 120.511719 L 112.980469 120.511719 L 112.980469 115.023438 L 118.984375 115.023438 L 118.984375 102.105469 L 112.980469 102.105469 L 112.980469 96.421875 L 118.984375 96.421875 L 118.984375 83.5 L 106.0625 83.5 L 106.0625 96.421875 L 112.070312 96.421875 L 112.070312 102.105469 L 106.0625 102.105469 L 106.0625 115.023438 L 112.070312 115.023438 L 112.070312 120.511719 L 94.375 120.511719 L 94.375 115.023438 L 100.378906 115.023438 L 100.378906 102.105469 L 87.457031 102.105469 L 87.457031 115.023438 L 93.464844 115.023438 L 93.464844 120.511719 L 75.769531 120.511719 L 75.769531 115.023438 L 81.773438 115.023438 L 81.773438 102.105469 L 68.855469 102.105469 L 68.855469 115.023438 L 74.859375 115.023438 L 74.859375 120.511719 L 57.167969 120.511719 L 57.167969 115.023438 L 63.171875 115.023438 L 63.171875 102.105469 L 50.25 102.105469 L 50.25 115.023438 L 56.253906 115.023438 L 56.253906 120.511719 L 38.566406 120.511719 L 38.566406 115.023438 L 44.566406 115.023438 L 44.566406 102.105469 L 31.648438 102.105469 L 31.648438 115.023438 L 37.652344 115.023438 L 37.652344 121.421875 L 131.582031 121.421875 L 131.582031 115.023438 L 137.585938 115.023438 L 137.585938 102.105469 L 131.582031 102.105469 L 131.582031 99.71875 Z M 140.886719 99.71875 "/>
<path fill-rule="nonzero" fill="rgb(0%, 0%, 0%)" fill-opacity="1" d="M 75.316406 108.695312 C 74.5625 108.695312 73.796875 109.164062 73.796875 110.429688 C 73.796875 111.519531 74.421875 112.304688 75.375 112.304688 C 76.097656 112.304688 76.765625 111.75 76.765625 110.386719 C 76.765625 109.109375 75.941406 108.695312 75.316406 108.695312 "/>
<path fill-rule="nonzero" fill="rgb(0%, 0%, 0%)" fill-opacity="1" d="M 38.082031 109.136719 C 37.355469 109.136719 36.664062 109.605469 36.664062 110.699219 C 36.664062 111.664062 37.214844 112.300781 38.125 112.300781 C 39.15625 112.300781 39.554688 111.40625 39.554688 110.710938 C 39.554688 110.003906 39.1875 109.136719 38.082031 109.136719 "/>
<path fill-rule="nonzero" fill="rgb(0%, 0%, 0%)" fill-opacity="1" d="M 38.121094 107.628906 C 38.902344 107.628906 39.355469 107.105469 39.355469 106.382812 C 39.355469 105.617188 38.832031 105.132812 38.195312 105.132812 C 37.300781 105.132812 36.835938 105.648438 36.835938 106.382812 C 36.835938 106.980469 37.273438 107.628906 38.121094 107.628906 "/>
</svg>
