<?xml version="1.0" encoding="UTF-8"?>
<svg xmlns="http://www.w3.org/2000/svg" xmlns:xlink="http://www.w3.org/1999/xlink" width="172" height="152" viewBox="0 0 172 152">
<path fill-rule="nonzero" fill="rgb(0%, 0%, 0%)" fill-opacity="1" d="M 77.796875 139.570312 C 78.875 139.570312 79.117188 139.839844 79.117188 140.828125 L 79.117188 141.84375 C 79.117188 142.835938 78.875 143.078125 77.796875 143.078125 L 70.6875 143.078125 C 69.609375 143.078125 69.367188 142.863281 69.367188 141.84375 L 69.367188 140.828125 C 69.367188 139.839844 69.609375 139.570312 70.6875 139.570312 Z M 77.484375 134.074219 C 78.5625 134.074219 78.804688 134.34375 78.804688 135.34375 L 78.804688 136.046875 C 78.804688 137.050781 78.5625 137.320312 77.484375 137.320312 L 71.023438 137.320312 C 69.949219 137.320312 69.683594 137.050781 69.683594 136.046875 L 69.683594 135.34375 C 69.683594 134.34375 69.949219 134.074219 71.023438 134.074219 Z M 78.5625 131.710938 L 69.925781 131.710938 C 67.558594 131.710938 66.75 132.21875 66.75 134.425781 L 66.75 135.695312 C 66.75 137.320312 67.476562 138.015625 69.410156 138.390625 C 67.40625 138.605469 66.4375 139.464844 66.4375 141.148438 L 66.4375 142.59375 C 66.4375 144.746094 67.140625 145.578125 69.800781 145.578125 L 78.683594 145.578125 C 81.347656 145.578125 82.074219 144.746094 82.074219 142.59375 L 82.074219 141.148438 C 82.074219 139.464844 81.105469 138.605469 79.117188 138.390625 C 81.03125 138.015625 81.730469 137.320312 81.730469 135.695312 L 81.730469 134.425781 C 81.730469 132.21875 80.925781 131.710938 78.5625 131.710938 "/>
<path fill-rule="nonzero" fill="rgb(0%, 0%, 0%)" fill-opacity="1" d="M 99.589844 134.074219 L 90.425781 134.074219 L 90.425781 137.0625 L 87.496094 136.550781 L 87.496094 131.710938 L 102.894531 131.710938 L 102.894531 133.9375 L 95.640625 145.835938 L 92.117188 145.835938 Z M 99.589844 134.074219 "/>
<path fill-rule="nonzero" fill="rgb(0%, 0%, 0%)" fill-opacity="1" d="M 75.316406 108.695312 C 74.5625 108.695312 73.796875 109.164062 73.796875 110.425781 C 73.796875 111.519531 74.417969 112.300781 75.371094 112.300781 C 76.09375 112.300781 76.761719 111.75 76.761719 110.382812 C 76.761719 109.105469 75.9375 108.695312 75.316406 108.695312 "/>
<path fill-rule="nonzero" fill="rgb(0%, 0%, 0%)" fill-opacity="1" d="M 130.550781 76.417969 L 130.550781 69.464844 L 128.148438 69.464844 L 128.148438 68.070312 L 128.433594 68.070312 C 130.351562 68.070312 130.863281 67.082031 130.90625 66.332031 L 132.542969 66.332031 L 132.542969 76.417969 Z M 134.421875 88.117188 C 134.421875 89.851562 133.296875 90.730469 132.316406 91.398438 C 130.984375 92.335938 130.289062 92.789062 130.0625 93.253906 L 134.4375 93.253906 L 134.4375 95.019531 L 127.546875 95.019531 C 127.617188 93.839844 127.703125 92.605469 129.894531 91.011719 C 131.707031 89.695312 132.433594 89.183594 132.433594 88.050781 C 132.433594 87.382812 132.003906 86.613281 131.039062 86.613281 C 129.652344 86.613281 129.609375 87.765625 129.59375 88.503906 L 127.660156 88.503906 C 127.660156 85.222656 130.0625 84.9375 130.953125 84.9375 C 132.886719 84.9375 134.421875 86.074219 134.421875 88.117188 M 134.195312 106.355469 C 134.195312 107.375 133.554688 108.011719 132.984375 108.269531 L 132.984375 108.296875 C 133.34375 108.398438 134.507812 108.925781 134.507812 110.640625 C 134.507812 112.542969 133.097656 113.894531 131.070312 113.894531 C 130.117188 113.894531 127.5625 113.679688 127.5625 110.527344 L 129.507812 110.527344 L 129.492188 110.539062 C 129.492188 111.082031 129.636719 112.300781 130.96875 112.300781 C 131.765625 112.300781 132.457031 111.761719 132.457031 110.640625 C 132.457031 109.265625 131.125 109.207031 130.195312 109.207031 L 130.195312 107.785156 L 130.515625 107.785156 C 131.113281 107.785156 132.203125 107.730469 132.203125 106.425781 C 132.203125 106.054688 132.03125 105.132812 130.941406 105.132812 C 129.578125 105.132812 129.578125 106.425781 129.578125 106.777344 L 127.730469 106.777344 C 127.730469 104.890625 128.796875 103.542969 131.070312 103.542969 C 132.417969 103.542969 134.195312 104.226562 134.195312 106.355469 M 130.667969 120.257812 L 112.976562 120.257812 L 112.976562 115.023438 L 118.980469 115.023438 L 118.980469 102.101562 L 112.976562 102.101562 L 112.976562 99.714844 L 130.667969 99.714844 L 130.667969 102.101562 L 124.664062 102.101562 L 124.664062 115.023438 L 130.667969 115.023438 Z M 108.949219 111.386719 L 108.949219 109.664062 L 112.660156 103.542969 L 114.921875 103.542969 L 114.921875 109.839844 L 116.042969 109.839844 L 116.042969 111.386719 L 114.921875 111.386719 L 114.921875 113.625 L 112.929688 113.625 L 112.929688 111.386719 Z M 112.066406 120.257812 L 94.371094 120.257812 L 94.371094 115.023438 L 100.375 115.023438 L 100.375 102.101562 L 94.371094 102.101562 L 94.371094 99.714844 L 112.066406 99.714844 L 112.066406 102.101562 L 106.0625 102.101562 L 106.0625 115.023438 L 112.066406 115.023438 Z M 90.355469 110.925781 L 92.34375 110.925781 C 92.429688 111.746094 92.867188 112.300781 93.746094 112.300781 C 94.699219 112.300781 95.25 111.492188 95.25 110.414062 C 95.25 109.519531 94.828125 108.609375 93.777344 108.609375 C 93.507812 108.609375 92.824219 108.625 92.441406 109.332031 L 90.664062 109.25 L 91.363281 103.710938 L 96.902344 103.710938 L 96.902344 105.390625 L 92.796875 105.390625 L 92.441406 107.570312 C 92.8125 107.3125 93.265625 107.019531 94.242188 107.019531 C 95.59375 107.019531 97.300781 107.953125 97.300781 110.269531 C 97.300781 111.648438 96.601562 113.894531 93.636719 113.894531 C 92.058594 113.894531 90.453125 112.953125 90.355469 110.925781 M 93.460938 120.257812 L 75.769531 120.257812 L 75.769531 115.023438 L 81.773438 115.023438 L 81.773438 102.101562 L 75.769531 102.101562 L 75.769531 99.714844 L 93.460938 99.714844 L 93.460938 102.101562 L 87.457031 102.101562 L 87.457031 115.023438 L 93.460938 115.023438 Z M 71.804688 108.820312 C 71.804688 106.90625 72.0625 103.542969 75.554688 103.542969 C 75.96875 103.542969 77.117188 103.699219 77.617188 104.195312 C 78.167969 104.734375 78.367188 105.035156 78.554688 106.097656 L 76.578125 106.097656 C 76.519531 105.53125 76.152344 105.132812 75.414062 105.132812 C 74.121094 105.132812 73.824219 106.605469 73.753906 107.910156 L 73.78125 107.941406 C 74.050781 107.570312 74.550781 107.105469 75.667969 107.105469 C 77.757812 107.105469 78.753906 108.710938 78.753906 110.214844 C 78.753906 112.414062 77.402344 113.894531 75.457031 113.894531 C 72.402344 113.894531 71.804688 111.335938 71.804688 108.820312 M 74.859375 120.257812 L 57.167969 120.257812 L 57.167969 115.023438 L 63.167969 115.023438 L 63.167969 102.101562 L 57.167969 102.101562 L 57.167969 99.714844 L 74.859375 99.714844 L 74.859375 102.101562 L 68.855469 102.101562 L 68.855469 115.023438 L 74.859375 115.023438 Z M 54.539062 113.625 C 54.753906 109.59375 57.285156 106.386719 58.140625 105.476562 L 53.117188 105.476562 L 53.160156 103.710938 L 60.269531 103.710938 L 60.269531 105.25 C 59.304688 106.300781 56.832031 109.28125 56.589844 113.625 Z M 56.253906 120.257812 L 38.5625 120.257812 L 38.5625 115.023438 L 44.566406 115.023438 L 44.566406 102.101562 L 38.5625 102.101562 L 38.5625 99.714844 L 56.253906 99.714844 L 56.253906 102.101562 L 50.25 102.101562 L 50.25 115.023438 L 56.253906 115.023438 Z M 34.613281 110.824219 C 34.613281 110.3125 34.613281 108.980469 36.148438 108.269531 C 35.351562 107.871094 34.925781 107.230469 34.925781 106.296875 C 34.925781 104.578125 36.304688 103.542969 38.066406 103.542969 C 40.152344 103.542969 41.261719 104.777344 41.261719 106.171875 C 41.261719 107.035156 40.90625 107.773438 40.097656 108.199219 C 41.0625 108.683594 41.605469 109.320312 41.605469 110.628906 C 41.605469 111.902344 40.777344 113.894531 38.105469 113.894531 C 35.507812 113.894531 34.613281 112.203125 34.613281 110.824219 M 131.578125 62.507812 L 139.96875 62.507812 L 139.96875 80.199219 L 131.578125 80.199219 L 131.578125 77.8125 L 137.585938 77.8125 L 137.585938 64.894531 L 131.578125 64.894531 Z M 140.882812 81.109375 L 140.882812 61.597656 L 130.667969 61.597656 L 130.667969 64.894531 L 124.664062 64.894531 L 124.664062 77.8125 L 130.667969 77.8125 L 130.667969 83.496094 L 124.664062 83.496094 L 124.664062 96.417969 L 130.667969 96.417969 L 130.667969 98.804688 L 37.648438 98.804688 L 37.648438 102.101562 L 31.644531 102.101562 L 31.644531 115.023438 L 37.648438 115.023438 L 37.648438 121.171875 L 131.578125 121.171875 L 131.578125 115.023438 L 137.582031 115.023438 L 137.582031 102.101562 L 131.578125 102.101562 L 131.578125 96.417969 L 137.585938 96.417969 L 137.585938 83.496094 L 131.578125 83.496094 L 131.578125 81.109375 Z M 140.882812 81.109375 "/>
<path fill-rule="nonzero" fill="rgb(0%, 0%, 0%)" fill-opacity="1" d="M 112.972656 105.519531 L 112.945312 105.519531 L 110.414062 109.835938 L 112.929688 109.835938 C 112.929688 107.402344 112.972656 105.832031 112.972656 105.519531 "/>
<path fill-rule="nonzero" fill="rgb(0%, 0%, 0%)" fill-opacity="1" d="M 38.078125 109.136719 C 37.355469 109.136719 36.660156 109.605469 36.660156 110.695312 C 36.660156 111.660156 37.214844 112.300781 38.121094 112.300781 C 39.15625 112.300781 39.554688 111.40625 39.554688 110.710938 C 39.554688 110 39.183594 109.136719 38.078125 109.136719 "/>
<path fill-rule="nonzero" fill="rgb(0%, 0%, 0%)" fill-opacity="1" d="M 38.121094 107.628906 C 38.902344 107.628906 39.355469 107.105469 39.355469 106.382812 C 39.355469 105.617188 38.832031 105.132812 38.191406 105.132812 C 37.300781 105.132812 36.832031 105.644531 36.832031 106.382812 C 36.832031 106.976562 37.269531 107.628906 38.121094 107.628906 "/>
</svg>
