<?xml version="1.0" encoding="UTF-8"?>
<svg xmlns="http://www.w3.org/2000/svg" xmlns:xlink="http://www.w3.org/1999/xlink" width="172" height="152" viewBox="0 0 172 152">
<path fill-rule="nonzero" fill="rgb(0%, 0%, 0%)" fill-opacity="1" d="M 78.816406 134.074219 L 69.652344 134.074219 L 69.652344 137.0625 L 66.722656 136.550781 L 66.722656 131.710938 L 82.121094 131.710938 L 82.121094 133.9375 L 74.867188 145.835938 L 71.347656 145.835938 Z M 78.816406 134.074219 "/>
<path fill-rule="nonzero" fill="rgb(0%, 0%, 0%)" fill-opacity="1" d="M 91.570312 131.710938 L 98.710938 131.710938 C 101.070312 131.710938 101.878906 132.21875 101.878906 134.425781 L 101.878906 135.308594 C 101.878906 136.921875 101.394531 137.324219 100.050781 138.132812 L 91.910156 143.078125 L 99.972656 143.078125 L 99.972656 141.035156 L 102.53125 141.761719 L 102.53125 142.863281 C 102.53125 145.066406 101.722656 145.578125 99.382812 145.578125 L 87.707031 145.578125 L 87.707031 144.316406 C 87.707031 143.371094 87.8125 142.808594 89.449219 141.785156 L 99.058594 135.875 L 99.058594 134.074219 L 91.140625 134.074219 L 91.140625 136.921875 L 88.40625 136.222656 L 88.40625 134.425781 C 88.40625 132.21875 89.210938 131.710938 91.570312 131.710938 "/>
<path fill-rule="nonzero" fill="rgb(0%, 0%, 0%)" fill-opacity="1" d="M 76.761719 91.78125 C 76.761719 90.503906 75.9375 90.09375 75.316406 90.09375 C 74.5625 90.09375 73.796875 90.558594 73.796875 91.824219 C 73.796875 92.917969 74.417969 93.699219 75.371094 93.699219 C 76.09375 93.699219 76.761719 93.144531 76.761719 91.78125 "/>
<path fill-rule="nonzero" fill="rgb(0%, 0%, 0%)" fill-opacity="1" d="M 56.726562 107.628906 C 57.503906 107.628906 57.957031 107.105469 57.957031 106.382812 C 57.957031 105.617188 57.433594 105.132812 56.796875 105.132812 C 55.902344 105.132812 55.433594 105.644531 55.433594 106.382812 C 55.433594 106.976562 55.875 107.628906 56.726562 107.628906 "/>
<path fill-rule="nonzero" fill="rgb(0%, 0%, 0%)" fill-opacity="1" d="M 56.683594 109.136719 C 55.960938 109.136719 55.261719 109.605469 55.261719 110.699219 C 55.261719 111.660156 55.816406 112.300781 56.726562 112.300781 C 57.761719 112.300781 58.160156 111.40625 58.160156 110.710938 C 58.160156 110 57.789062 109.136719 56.683594 109.136719 "/>
<path fill-rule="nonzero" fill="rgb(0%, 0%, 0%)" fill-opacity="1" d="M 94.328125 109.839844 C 94.328125 107.402344 94.371094 105.832031 94.371094 105.519531 L 94.339844 105.519531 L 91.808594 109.839844 Z M 94.328125 109.839844 "/>
<path fill-rule="nonzero" fill="rgb(0%, 0%, 0%)" fill-opacity="1" d="M 121.367188 79.167969 L 112.976562 79.167969 L 112.976562 77.816406 L 118.980469 77.816406 L 118.980469 64.894531 L 112.976562 64.894531 L 112.976562 62.507812 L 121.367188 62.507812 Z M 111.945312 76.417969 L 111.945312 69.464844 L 109.546875 69.464844 L 109.546875 68.070312 L 109.828125 68.070312 C 111.75 68.070312 112.261719 67.082031 112.304688 66.335938 L 113.9375 66.335938 L 113.9375 76.417969 Z M 115.816406 88.117188 C 115.816406 89.851562 114.695312 90.730469 113.714844 91.398438 C 112.382812 92.335938 111.683594 92.789062 111.460938 93.253906 L 115.832031 93.253906 L 115.832031 95.019531 L 108.941406 95.019531 C 109.011719 93.839844 109.097656 92.601562 111.289062 91.015625 C 113.101562 89.695312 113.828125 89.183594 113.828125 88.050781 C 113.828125 87.382812 113.402344 86.613281 112.4375 86.613281 C 111.046875 86.613281 111.003906 87.765625 110.988281 88.503906 L 109.054688 88.503906 C 109.054688 85.222656 111.460938 84.9375 112.351562 84.9375 C 114.28125 84.9375 115.816406 86.074219 115.816406 88.117188 M 93.859375 95.289062 C 92.910156 95.289062 90.351562 95.074219 90.351562 91.925781 L 92.300781 91.925781 L 92.285156 91.9375 C 92.285156 92.476562 92.429688 93.699219 93.761719 93.699219 C 94.558594 93.699219 95.253906 93.15625 95.253906 92.035156 C 95.253906 90.660156 93.921875 90.605469 92.988281 90.605469 L 92.988281 89.183594 L 93.308594 89.183594 C 93.902344 89.183594 94.996094 89.125 94.996094 87.820312 C 94.996094 87.453125 94.824219 86.53125 93.734375 86.53125 C 92.371094 86.53125 92.371094 87.820312 92.371094 88.175781 L 90.523438 88.175781 C 90.523438 86.289062 91.589844 84.9375 93.859375 84.9375 C 95.210938 84.9375 96.984375 85.621094 96.984375 87.75 C 96.984375 88.769531 96.347656 89.410156 95.777344 89.664062 L 95.777344 89.695312 C 96.132812 89.792969 97.300781 90.320312 97.300781 92.035156 C 97.300781 93.9375 95.890625 95.289062 93.859375 95.289062 M 96.316406 103.539062 L 96.316406 109.839844 L 97.4375 109.839844 L 97.4375 111.386719 L 96.316406 111.386719 L 96.316406 113.625 L 94.328125 113.625 L 94.328125 111.386719 L 90.347656 111.386719 L 90.347656 109.667969 L 94.054688 103.539062 Z M 53.214844 110.824219 C 53.214844 110.316406 53.214844 108.980469 54.753906 108.269531 C 53.957031 107.871094 53.527344 107.230469 53.527344 106.296875 C 53.527344 104.578125 54.910156 103.539062 56.667969 103.539062 C 58.753906 103.539062 59.863281 104.777344 59.863281 106.171875 C 59.863281 107.035156 59.507812 107.773438 58.699219 108.199219 C 59.667969 108.683594 60.207031 109.320312 60.207031 110.628906 C 60.207031 111.902344 59.382812 113.894531 56.710938 113.894531 C 54.113281 113.894531 53.214844 112.203125 53.214844 110.824219 M 54.539062 95.023438 C 54.753906 90.988281 57.285156 87.78125 58.136719 86.871094 L 53.121094 86.871094 L 53.160156 85.109375 L 60.269531 85.109375 L 60.269531 86.644531 C 59.304688 87.695312 56.832031 90.679688 56.589844 95.023438 Z M 71.804688 90.21875 C 71.804688 88.304688 72.058594 84.9375 75.554688 84.9375 C 75.96875 84.9375 77.117188 85.09375 77.617188 85.59375 C 78.171875 86.132812 78.371094 86.433594 78.554688 87.492188 L 76.578125 87.492188 C 76.519531 86.929688 76.152344 86.53125 75.414062 86.53125 C 74.125 86.53125 73.824219 88.003906 73.753906 89.308594 L 73.78125 89.335938 C 74.050781 88.96875 74.546875 88.5 75.667969 88.5 C 77.757812 88.5 78.753906 90.105469 78.753906 91.609375 C 78.753906 93.8125 77.398438 95.289062 75.457031 95.289062 C 72.402344 95.289062 71.804688 92.730469 71.804688 90.21875 M 71.746094 73.71875 L 73.738281 73.71875 C 73.824219 74.539062 74.265625 75.09375 75.144531 75.09375 C 76.097656 75.09375 76.648438 74.285156 76.648438 73.203125 C 76.648438 72.3125 76.222656 71.402344 75.171875 71.402344 C 74.902344 71.402344 74.222656 71.417969 73.839844 72.128906 L 72.058594 72.042969 L 72.757812 66.507812 L 78.296875 66.507812 L 78.296875 68.183594 L 74.195312 68.183594 L 73.839844 70.363281 C 74.207031 70.105469 74.660156 69.8125 75.640625 69.8125 C 76.988281 69.8125 78.695312 70.746094 78.695312 73.0625 C 78.695312 74.441406 78 76.6875 75.03125 76.6875 C 73.457031 76.6875 71.847656 75.746094 71.746094 73.71875 M 112.066406 61.597656 L 112.066406 64.894531 L 106.058594 64.894531 L 106.058594 77.816406 L 112.066406 77.816406 L 112.066406 83.5 L 106.058594 83.5 L 106.058594 96.417969 L 112.066406 96.417969 L 112.066406 99.839844 L 94.375 99.839844 L 94.375 96.417969 L 100.378906 96.417969 L 100.378906 83.5 L 87.460938 83.5 L 87.460938 96.417969 L 93.460938 96.417969 L 93.460938 102.101562 L 87.460938 102.101562 L 87.460938 115.023438 L 93.460938 115.023438 L 93.460938 120.519531 L 57.164062 120.519531 L 57.164062 115.023438 L 63.167969 115.023438 L 63.167969 102.101562 L 57.164062 102.101562 L 57.164062 100.75 L 75.769531 100.75 L 75.769531 96.417969 L 81.773438 96.417969 L 81.773438 83.5 L 75.769531 83.5 L 75.769531 77.816406 L 81.773438 77.816406 L 81.773438 64.894531 L 68.855469 64.894531 L 68.855469 77.816406 L 74.855469 77.816406 L 74.855469 83.5 L 68.855469 83.5 L 68.855469 96.417969 L 74.855469 96.417969 L 74.855469 99.839844 L 57.164062 99.839844 L 57.164062 96.417969 L 63.167969 96.417969 L 63.167969 83.5 L 50.25 83.5 L 50.25 96.417969 L 56.253906 96.417969 L 56.253906 102.101562 L 50.25 102.101562 L 50.25 115.023438 L 56.253906 115.023438 L 56.253906 121.433594 L 94.375 121.433594 L 94.375 115.023438 L 100.378906 115.023438 L 100.378906 102.101562 L 94.375 102.101562 L 94.375 100.75 L 112.976562 100.75 L 112.976562 96.417969 L 118.980469 96.417969 L 118.980469 83.5 L 112.976562 83.5 L 112.976562 80.078125 L 122.277344 80.078125 L 122.277344 61.597656 Z M 112.066406 61.597656 "/>
</svg>
