<?xml version="1.0" encoding="UTF-8"?>
<svg xmlns="http://www.w3.org/2000/svg" xmlns:xlink="http://www.w3.org/1999/xlink" width="172" height="152" viewBox="0 0 172 152">
<path fill-rule="nonzero" fill="rgb(0%, 0%, 0%)" fill-opacity="1" d="M 69.882812 139.324219 C 72.003906 139.109375 74.070312 139 76.03125 139 C 78.363281 139 79.089844 139.296875 79.089844 140.664062 L 79.089844 141.414062 C 79.089844 142.648438 78.550781 143.078125 76.566406 143.078125 L 72.699219 143.078125 C 70.042969 143.078125 69.828125 142.542969 69.828125 140.128906 C 69.828125 139.914062 69.828125 139.644531 69.882812 139.324219 M 70.070312 137.230469 C 71.117188 134.292969 73.960938 133.648438 79.117188 133.648438 L 80.003906 133.648438 L 78.09375 131.421875 C 77.773438 131.394531 77.425781 131.367188 77.101562 131.367188 C 70.609375 131.367188 66.867188 134.320312 66.867188 139.484375 L 66.867188 141.308594 C 66.867188 144.609375 68 145.578125 71.441406 145.578125 L 77.289062 145.578125 C 80.511719 145.578125 82.046875 144.53125 82.046875 142.191406 L 82.046875 140.316406 C 82.046875 137.5 80.433594 136.753906 76.191406 136.753906 C 74.042969 136.753906 72.003906 136.9375 70.070312 137.230469 "/>
<path fill-rule="nonzero" fill="rgb(0%, 0%, 0%)" fill-opacity="1" d="M 90.65625 139.324219 C 92.773438 139.109375 94.839844 139 96.800781 139 C 99.136719 139 99.859375 139.296875 99.859375 140.664062 L 99.859375 141.414062 C 99.859375 142.648438 99.324219 143.078125 97.339844 143.078125 L 93.472656 143.078125 C 90.816406 143.078125 90.601562 142.542969 90.601562 140.128906 C 90.601562 139.914062 90.601562 139.644531 90.65625 139.324219 M 90.84375 137.230469 C 91.890625 134.292969 94.734375 133.648438 99.886719 133.648438 L 100.773438 133.648438 L 98.867188 131.421875 C 98.546875 131.394531 98.195312 131.367188 97.875 131.367188 C 91.378906 131.367188 87.640625 134.320312 87.640625 139.484375 L 87.640625 141.308594 C 87.640625 144.609375 88.769531 145.578125 92.210938 145.578125 L 98.0625 145.578125 C 101.285156 145.578125 102.816406 144.53125 102.816406 142.191406 L 102.816406 140.316406 C 102.816406 137.5 101.203125 136.753906 96.960938 136.753906 C 94.8125 136.753906 92.773438 136.9375 90.84375 137.230469 "/>
<path fill-rule="nonzero" fill="rgb(0%, 0%, 0%)" fill-opacity="1" d="M 103.628906 35.421875 C 103.628906 32.984375 103.671875 31.414062 103.671875 31.105469 L 103.640625 31.105469 L 101.113281 35.421875 Z M 103.628906 35.421875 "/>
<path fill-rule="nonzero" fill="rgb(0%, 0%, 0%)" fill-opacity="1" d="M 103.164062 20.875 C 102.210938 20.875 99.65625 20.664062 99.65625 17.507812 L 101.605469 17.507812 L 101.589844 17.523438 C 101.589844 18.0625 101.730469 19.28125 103.0625 19.28125 C 103.859375 19.28125 104.554688 18.742188 104.554688 17.621094 C 104.554688 16.246094 103.21875 16.1875 102.289062 16.1875 L 102.289062 14.765625 L 102.609375 14.765625 C 103.207031 14.765625 104.296875 14.710938 104.296875 13.40625 C 104.296875 13.035156 104.125 12.117188 103.035156 12.117188 C 101.675781 12.117188 101.675781 13.40625 101.675781 13.761719 L 99.824219 13.761719 C 99.824219 11.875 100.894531 10.523438 103.164062 10.523438 C 104.511719 10.523438 106.289062 11.207031 106.289062 13.335938 C 106.289062 14.355469 105.648438 14.996094 105.082031 15.253906 L 105.082031 15.277344 C 105.4375 15.378906 106.601562 15.902344 106.601562 17.621094 C 106.601562 19.523438 105.195312 20.875 103.164062 20.875 M 105.617188 29.128906 L 105.617188 35.421875 L 106.742188 35.421875 L 106.742188 36.972656 L 105.617188 36.972656 L 105.617188 39.210938 L 103.628906 39.210938 L 103.628906 36.972656 L 99.648438 36.972656 L 99.648438 35.253906 L 103.359375 29.128906 Z M 106.203125 47.902344 L 106.203125 49.578125 L 102.097656 49.578125 L 101.746094 51.761719 C 102.113281 51.503906 102.570312 51.207031 103.546875 51.207031 C 104.894531 51.207031 106.601562 52.144531 106.601562 54.460938 C 106.601562 55.835938 105.90625 58.082031 102.9375 58.082031 C 101.363281 58.082031 99.753906 57.144531 99.65625 55.113281 L 101.644531 55.113281 C 101.730469 55.9375 102.171875 56.488281 103.050781 56.488281 C 104 56.488281 104.554688 55.683594 104.554688 54.601562 C 104.554688 53.707031 104.128906 52.796875 103.078125 52.796875 C 102.808594 52.796875 102.125 52.8125 101.746094 53.519531 L 99.964844 53.4375 L 100.664062 47.902344 Z M 105.523438 66.988281 C 106.074219 67.53125 106.273438 67.828125 106.460938 68.890625 L 104.484375 68.890625 C 104.425781 68.324219 104.058594 67.929688 103.320312 67.929688 C 102.027344 67.929688 101.730469 69.398438 101.660156 70.707031 L 101.691406 70.734375 C 101.957031 70.363281 102.457031 69.894531 103.574219 69.894531 C 105.664062 69.894531 106.660156 71.503906 106.660156 73.007812 C 106.660156 75.207031 105.308594 76.6875 103.363281 76.6875 C 100.308594 76.6875 99.710938 74.128906 99.710938 71.613281 C 99.710938 69.699219 99.964844 66.335938 103.460938 66.335938 C 103.875 66.335938 105.023438 66.492188 105.523438 66.988281 M 106.78125 85.109375 L 106.78125 86.644531 C 105.8125 87.695312 103.339844 90.679688 103.097656 95.019531 L 101.050781 95.019531 C 101.261719 90.988281 103.792969 87.78125 104.648438 86.871094 L 99.628906 86.871094 L 99.671875 85.109375 Z M 106.375 106.171875 C 106.375 107.035156 106.019531 107.773438 105.207031 108.199219 C 106.175781 108.683594 106.714844 109.320312 106.714844 110.628906 C 106.714844 111.902344 105.890625 113.894531 103.21875 113.894531 C 100.621094 113.894531 99.726562 112.203125 99.726562 110.824219 C 99.726562 110.316406 99.726562 108.980469 101.261719 108.269531 C 100.464844 107.871094 100.039062 107.230469 100.039062 106.296875 C 100.039062 104.578125 101.417969 103.539062 103.179688 103.539062 C 105.265625 103.539062 106.375 104.777344 106.375 106.171875 M 62.433594 39.210938 C 62.503906 38.027344 62.589844 36.789062 64.78125 35.203125 C 66.59375 33.882812 67.316406 33.371094 67.316406 32.238281 C 67.316406 31.570312 66.894531 30.808594 65.925781 30.808594 C 64.539062 30.808594 64.496094 31.953125 64.480469 32.691406 L 62.546875 32.691406 C 62.546875 29.410156 64.949219 29.128906 65.84375 29.128906 C 67.773438 29.128906 69.308594 30.265625 69.308594 32.308594 C 69.308594 34.039062 68.1875 34.917969 67.203125 35.585938 C 65.871094 36.523438 65.175781 36.976562 64.949219 37.445312 L 69.324219 37.445312 L 69.324219 39.210938 Z M 65.4375 20.605469 L 65.4375 13.652344 L 63.039062 13.652344 L 63.039062 12.261719 L 63.320312 12.261719 C 65.238281 12.261719 65.75 11.273438 65.792969 10.523438 L 67.429688 10.523438 L 67.429688 20.605469 Z M 109.679688 22.003906 L 109.679688 9.085938 L 103.679688 9.085938 L 103.679688 5.632812 L 84.164062 5.632812 L 84.164062 43.296875 L 66.601562 43.296875 L 66.601562 40.605469 L 72.472656 40.605469 L 72.472656 27.6875 L 66.601562 27.6875 L 66.601562 22.003906 L 72.472656 22.003906 L 72.472656 9.085938 L 59.550781 9.085938 L 59.550781 22.003906 L 65.691406 22.003906 L 65.691406 27.6875 L 59.550781 27.6875 L 59.550781 40.605469 L 65.691406 40.605469 L 65.691406 44.210938 L 85.078125 44.210938 L 85.078125 6.546875 L 102.769531 6.546875 L 102.769531 9.085938 L 96.757812 9.085938 L 96.757812 22.003906 L 102.769531 22.003906 L 102.769531 27.6875 L 96.757812 27.6875 L 96.757812 40.605469 L 102.769531 40.605469 L 102.769531 46.289062 L 96.757812 46.289062 L 96.757812 59.210938 L 102.769531 59.210938 L 102.769531 64.894531 L 96.757812 64.894531 L 96.757812 77.816406 L 102.769531 77.816406 L 102.769531 83.5 L 96.757812 83.5 L 96.757812 96.417969 L 102.769531 96.417969 L 102.769531 102.101562 L 96.757812 102.101562 L 96.757812 115.023438 L 102.769531 115.023438 L 102.769531 120.8125 L 103.679688 120.8125 L 103.679688 115.023438 L 109.679688 115.023438 L 109.679688 102.101562 L 103.679688 102.101562 L 103.679688 96.417969 L 109.679688 96.417969 L 109.679688 83.5 L 103.679688 83.5 L 103.679688 77.816406 L 109.679688 77.816406 L 109.679688 64.894531 L 103.679688 64.894531 L 103.679688 59.210938 L 109.679688 59.210938 L 109.679688 46.289062 L 103.679688 46.289062 L 103.679688 40.605469 L 109.679688 40.605469 L 109.679688 27.6875 L 103.679688 27.6875 L 103.679688 22.003906 Z M 109.679688 22.003906 "/>
<path fill-rule="nonzero" fill="rgb(0%, 0%, 0%)" fill-opacity="1" d="M 103.277344 75.09375 C 104 75.09375 104.667969 74.539062 104.667969 73.175781 C 104.667969 71.898438 103.84375 71.488281 103.21875 71.488281 C 102.46875 71.488281 101.703125 71.957031 101.703125 73.21875 C 101.703125 74.3125 102.328125 75.09375 103.277344 75.09375 "/>
<path fill-rule="nonzero" fill="rgb(0%, 0%, 0%)" fill-opacity="1" d="M 101.945312 106.382812 C 101.945312 106.976562 102.382812 107.628906 103.234375 107.628906 C 104.015625 107.628906 104.46875 107.105469 104.46875 106.382812 C 104.46875 105.617188 103.941406 105.132812 103.304688 105.132812 C 102.414062 105.132812 101.945312 105.644531 101.945312 106.382812 "/>
<path fill-rule="nonzero" fill="rgb(0%, 0%, 0%)" fill-opacity="1" d="M 103.191406 109.136719 C 102.46875 109.136719 101.777344 109.605469 101.777344 110.699219 C 101.777344 111.660156 102.328125 112.300781 103.234375 112.300781 C 104.269531 112.300781 104.667969 111.40625 104.667969 110.710938 C 104.667969 110 104.296875 109.136719 103.191406 109.136719 "/>
</svg>
