<?xml version="1.0" encoding="UTF-8"?>
<svg xmlns="http://www.w3.org/2000/svg" xmlns:xlink="http://www.w3.org/1999/xlink" width="172" height="152" viewBox="0 0 172 152">
<path fill-rule="nonzero" fill="rgb(0%, 0%, 0%)" fill-opacity="1" d="M 66.839844 142.863281 L 66.839844 141.734375 L 69.6875 141.144531 L 69.6875 143.078125 L 77.148438 143.078125 C 78.222656 143.078125 78.492188 142.835938 78.492188 141.839844 L 78.492188 140.816406 C 78.492188 139.824219 78.222656 139.558594 77.144531 139.570312 L 72.460938 139.570312 L 72.460938 137.320312 L 76.632812 137.320312 C 77.707031 137.320312 77.949219 137.046875 77.949219 136.046875 L 77.949219 135.34375 C 77.949219 134.34375 77.707031 134.074219 76.632812 134.074219 L 69.773438 134.074219 L 69.773438 135.804688 L 67.039062 135.289062 L 67.039062 134.421875 C 67.039062 132.21875 67.84375 131.707031 70.203125 131.707031 L 77.707031 131.707031 C 80.074219 131.707031 80.878906 132.21875 80.878906 134.421875 L 80.878906 135.695312 C 80.878906 137.347656 80.179688 138.015625 78.195312 138.320312 C 80.398438 138.535156 81.421875 139.394531 81.421875 141.144531 L 81.421875 142.59375 C 81.421875 144.742188 80.722656 145.578125 78.0625 145.578125 L 70.007812 145.578125 C 67.644531 145.578125 66.839844 145.066406 66.839844 142.863281 "/>
<path fill-rule="nonzero" fill="rgb(0%, 0%, 0%)" fill-opacity="1" d="M 97.328125 140.195312 L 89.746094 140.195312 L 97.328125 133.984375 Z M 97.328125 145.75 L 100.257812 145.75 L 100.257812 142.503906 L 103.613281 142.503906 L 103.613281 140.195312 L 100.257812 140.195312 L 100.257812 131.539062 L 97.21875 131.539062 L 86.820312 140.195312 L 86.820312 142.503906 L 97.328125 142.503906 Z M 97.328125 145.75 "/>
<path fill-rule="nonzero" fill="rgb(0%, 0%, 0%)" fill-opacity="1" d="M 132.542969 95.019531 L 130.554688 95.019531 L 130.554688 88.066406 L 128.152344 88.066406 L 128.152344 86.675781 L 128.433594 86.675781 C 130.355469 86.675781 130.867188 85.683594 130.910156 84.9375 L 132.542969 84.9375 Z M 108.945312 95.019531 C 109.015625 93.839844 109.101562 92.601562 111.292969 91.015625 C 113.105469 89.695312 113.828125 89.183594 113.828125 88.050781 C 113.828125 87.382812 113.40625 86.613281 112.441406 86.613281 C 111.046875 86.613281 111.007812 87.765625 110.992188 88.503906 L 109.058594 88.503906 C 109.058594 85.222656 111.460938 84.9375 112.355469 84.9375 C 114.285156 84.9375 115.820312 86.074219 115.820312 88.117188 C 115.820312 89.851562 114.695312 90.730469 113.714844 91.394531 C 112.382812 92.332031 111.6875 92.789062 111.460938 93.253906 L 115.835938 93.253906 L 115.835938 95.019531 Z M 115.59375 106.351562 C 115.59375 107.375 114.953125 108.015625 114.386719 108.269531 L 114.386719 108.296875 C 114.742188 108.394531 115.90625 108.921875 115.90625 110.640625 C 115.90625 112.542969 114.5 113.894531 112.46875 113.894531 C 111.515625 113.894531 108.957031 113.679688 108.957031 110.527344 L 110.90625 110.527344 L 110.890625 110.539062 C 110.890625 111.078125 111.035156 112.300781 112.367188 112.300781 C 113.164062 112.300781 113.859375 111.761719 113.859375 110.640625 C 113.859375 109.265625 112.523438 109.207031 111.59375 109.207031 L 111.59375 107.785156 L 111.914062 107.785156 C 112.507812 107.785156 113.601562 107.726562 113.601562 106.425781 C 113.601562 106.054688 113.429688 105.132812 112.339844 105.132812 C 110.976562 105.132812 110.976562 106.425781 110.976562 106.777344 L 109.128906 106.777344 C 109.128906 104.890625 110.195312 103.542969 112.46875 103.542969 C 113.8125 103.542969 115.59375 104.222656 115.59375 106.351562 M 90.355469 110.921875 L 92.347656 110.921875 C 92.429688 111.746094 92.871094 112.300781 93.75 112.300781 C 94.703125 112.300781 95.253906 111.488281 95.253906 110.414062 C 95.253906 109.519531 94.828125 108.609375 93.777344 108.609375 C 93.507812 108.609375 92.828125 108.621094 92.445312 109.332031 L 90.667969 109.246094 L 91.367188 103.710938 L 96.902344 103.710938 L 96.902344 105.390625 L 92.800781 105.390625 L 92.445312 107.570312 C 92.8125 107.3125 93.269531 107.015625 94.246094 107.015625 C 95.59375 107.015625 97.304688 107.953125 97.304688 110.269531 C 97.304688 111.648438 96.605469 113.894531 93.636719 113.894531 C 92.0625 113.894531 90.453125 112.953125 90.355469 110.921875 M 90.347656 92.78125 L 90.347656 91.0625 L 94.058594 84.9375 L 96.320312 84.9375 L 96.320312 91.230469 L 97.445312 91.230469 L 97.445312 92.78125 L 96.320312 92.78125 L 96.320312 95.019531 L 94.328125 95.019531 L 94.328125 92.78125 Z M 94.375 81.113281 L 102.863281 81.117188 L 102.863281 98.804688 L 94.375 98.804688 L 94.375 96.417969 L 100.378906 96.417969 L 100.378906 83.496094 L 94.375 83.496094 Z M 71.808594 108.820312 C 71.808594 106.90625 72.0625 103.542969 75.558594 103.542969 C 75.96875 103.542969 77.121094 103.699219 77.617188 104.195312 C 78.171875 104.734375 78.371094 105.03125 78.554688 106.097656 L 76.582031 106.097656 C 76.523438 105.527344 76.152344 105.132812 75.417969 105.132812 C 74.125 105.132812 73.828125 106.605469 73.757812 107.914062 L 73.785156 107.941406 C 74.054688 107.570312 74.550781 107.101562 75.671875 107.101562 C 77.757812 107.101562 78.753906 108.707031 78.753906 110.210938 C 78.753906 112.414062 77.40625 113.894531 75.460938 113.894531 C 72.40625 113.894531 71.808594 111.332031 71.808594 108.820312 M 54.542969 113.621094 C 54.757812 109.59375 57.285156 106.382812 58.140625 105.476562 L 53.121094 105.476562 L 53.164062 103.710938 L 60.269531 103.710938 L 60.269531 105.246094 C 59.304688 106.296875 56.832031 109.28125 56.589844 113.621094 Z M 34.617188 110.824219 C 34.617188 110.3125 34.617188 108.976562 36.152344 108.269531 C 35.351562 107.871094 34.925781 107.230469 34.925781 106.296875 C 34.925781 104.578125 36.308594 103.542969 38.066406 103.542969 C 40.152344 103.542969 41.261719 104.777344 41.261719 106.167969 C 41.261719 107.03125 40.90625 107.769531 40.097656 108.199219 C 41.0625 108.679688 41.605469 109.320312 41.605469 110.625 C 41.605469 111.902344 40.78125 113.894531 38.109375 113.894531 C 35.511719 113.894531 34.617188 112.199219 34.617188 110.824219 M 124.667969 83.496094 L 124.667969 96.417969 L 130.769531 96.417969 L 130.769531 98.804688 L 112.980469 98.804688 L 112.980469 96.417969 L 118.980469 96.417969 L 118.980469 83.496094 L 106.0625 83.496094 L 106.0625 96.417969 L 112.066406 96.417969 L 112.066406 102.101562 L 106.0625 102.101562 L 106.0625 115.019531 L 112.066406 115.019531 L 112.066406 120.507812 L 94.375 120.507812 L 94.375 115.019531 L 100.378906 115.019531 L 100.378906 102.101562 L 94.375 102.101562 L 94.375 99.714844 L 103.773438 99.714844 L 103.773438 80.207031 L 103.320312 80.207031 L 93.917969 80.199219 L 93.464844 80.199219 L 93.464844 83.496094 L 87.460938 83.496094 L 87.460938 96.417969 L 93.464844 96.417969 L 93.464844 102.101562 L 87.460938 102.101562 L 87.460938 115.019531 L 93.464844 115.019531 L 93.464844 120.507812 L 75.769531 120.507812 L 75.769531 115.019531 L 81.777344 115.019531 L 81.777344 102.101562 L 68.855469 102.101562 L 68.855469 115.019531 L 74.859375 115.019531 L 74.859375 120.507812 L 57.167969 120.507812 L 57.167969 115.019531 L 63.171875 115.019531 L 63.171875 102.101562 L 50.25 102.101562 L 50.25 115.019531 L 56.257812 115.019531 L 56.257812 120.507812 L 38.5625 120.507812 L 38.5625 115.019531 L 44.566406 115.019531 L 44.566406 102.101562 L 31.648438 102.101562 L 31.648438 115.019531 L 37.652344 115.019531 L 37.652344 121.421875 L 112.980469 121.421875 L 112.980469 115.019531 L 118.980469 115.019531 L 118.980469 102.101562 L 112.980469 102.101562 L 112.980469 99.714844 L 131.679688 99.714844 L 131.679688 96.417969 L 137.585938 96.417969 L 137.585938 83.496094 Z M 124.667969 83.496094 "/>
<path fill-rule="nonzero" fill="rgb(0%, 0%, 0%)" fill-opacity="1" d="M 94.371094 86.914062 L 94.34375 86.914062 L 91.8125 91.234375 L 94.328125 91.234375 C 94.328125 88.796875 94.371094 87.226562 94.371094 86.914062 "/>
<path fill-rule="nonzero" fill="rgb(0%, 0%, 0%)" fill-opacity="1" d="M 38.125 107.628906 C 38.902344 107.628906 39.355469 107.105469 39.355469 106.378906 C 39.355469 105.617188 38.832031 105.132812 38.195312 105.132812 C 37.300781 105.132812 36.832031 105.644531 36.832031 106.378906 C 36.832031 106.976562 37.273438 107.628906 38.125 107.628906 "/>
<path fill-rule="nonzero" fill="rgb(0%, 0%, 0%)" fill-opacity="1" d="M 38.082031 109.136719 C 37.355469 109.136719 36.664062 109.605469 36.664062 110.695312 C 36.664062 111.660156 37.214844 112.300781 38.125 112.300781 C 39.160156 112.300781 39.554688 111.40625 39.554688 110.710938 C 39.554688 110 39.1875 109.136719 38.082031 109.136719 "/>
<path fill-rule="nonzero" fill="rgb(0%, 0%, 0%)" fill-opacity="1" d="M 75.316406 108.695312 C 74.566406 108.695312 73.796875 109.160156 73.796875 110.425781 C 73.796875 111.519531 74.425781 112.300781 75.375 112.300781 C 76.097656 112.300781 76.765625 111.746094 76.765625 110.382812 C 76.765625 109.105469 75.941406 108.695312 75.316406 108.695312 "/>
</svg>
