<?xml version="1.0" encoding="UTF-8"?>
<svg xmlns="http://www.w3.org/2000/svg" xmlns:xlink="http://www.w3.org/1999/xlink" width="172" height="152" viewBox="0 0 172 152">
<path fill-rule="nonzero" fill="rgb(0%, 0%, 0%)" fill-opacity="1" d="M 76.554688 140.199219 L 68.972656 140.199219 L 76.554688 133.984375 Z M 76.554688 145.75 L 79.480469 145.75 L 79.480469 142.503906 L 82.839844 142.503906 L 82.839844 140.199219 L 79.480469 140.199219 L 79.480469 131.539062 L 76.445312 131.539062 L 66.046875 140.199219 L 66.046875 142.503906 L 76.554688 142.503906 Z M 76.554688 145.75 "/>
<path fill-rule="nonzero" fill="rgb(0%, 0%, 0%)" fill-opacity="1" d="M 97.324219 140.199219 L 89.746094 140.199219 L 97.324219 133.984375 Z M 97.324219 145.75 L 100.253906 145.75 L 100.253906 142.503906 L 103.613281 142.503906 L 103.613281 140.199219 L 100.253906 140.199219 L 100.253906 131.539062 L 97.21875 131.539062 L 86.816406 140.199219 L 86.816406 142.503906 L 97.324219 142.503906 Z M 97.324219 145.75 "/>
<path fill-rule="nonzero" fill="rgb(0%, 0%, 0%)" fill-opacity="1" d="M 123.242188 113.625 L 121.25 113.625 L 121.25 106.671875 L 118.847656 106.671875 L 118.847656 105.28125 L 119.132812 105.28125 C 121.050781 105.28125 121.5625 104.289062 121.605469 103.539062 L 123.242188 103.539062 Z M 99.640625 113.625 C 99.714844 112.441406 99.796875 111.207031 101.988281 109.617188 C 103.800781 108.300781 104.527344 107.785156 104.527344 106.652344 C 104.527344 105.984375 104.101562 105.21875 103.136719 105.21875 C 101.746094 105.21875 101.703125 106.371094 101.691406 107.105469 L 99.753906 107.105469 C 99.753906 103.828125 102.15625 103.542969 103.050781 103.542969 C 104.980469 103.542969 106.515625 104.679688 106.515625 106.722656 C 106.515625 108.457031 105.394531 109.335938 104.414062 110.003906 C 103.078125 110.9375 102.382812 111.390625 102.15625 111.859375 L 106.53125 111.859375 L 106.53125 113.625 Z M 62.519531 110.824219 C 62.519531 110.316406 62.519531 108.980469 64.054688 108.269531 C 63.257812 107.871094 62.832031 107.230469 62.832031 106.296875 C 62.832031 104.578125 64.210938 103.542969 65.96875 103.542969 C 68.058594 103.542969 69.167969 104.777344 69.167969 106.171875 C 69.167969 107.035156 68.8125 107.773438 68 108.199219 C 68.96875 108.683594 69.507812 109.320312 69.507812 110.628906 C 69.507812 111.902344 68.683594 113.894531 66.015625 113.894531 C 63.414062 113.894531 62.519531 112.203125 62.519531 110.824219 M 63.84375 95.019531 C 64.054688 90.988281 66.589844 87.78125 67.441406 86.871094 L 62.421875 86.871094 L 62.464844 85.109375 L 69.574219 85.109375 L 69.574219 86.644531 C 68.605469 87.695312 66.132812 90.679688 65.890625 95.019531 Z M 62.441406 74.179688 L 62.441406 72.460938 L 66.152344 66.335938 L 68.414062 66.335938 L 68.414062 72.628906 L 69.535156 72.628906 L 69.535156 74.179688 L 68.414062 74.179688 L 68.414062 76.417969 L 66.421875 76.417969 L 66.421875 74.179688 Z M 43.902344 71.613281 C 43.902344 69.699219 44.15625 66.335938 47.652344 66.335938 C 48.0625 66.335938 49.210938 66.492188 49.710938 66.988281 C 50.265625 67.527344 50.464844 67.828125 50.648438 68.890625 L 48.671875 68.890625 C 48.617188 68.324219 48.246094 67.925781 47.507812 67.925781 C 46.21875 67.925781 45.917969 69.398438 45.847656 70.707031 L 45.875 70.734375 C 46.148438 70.363281 46.644531 69.894531 47.761719 69.894531 C 49.851562 69.894531 50.847656 71.5 50.847656 73.007812 C 50.847656 75.207031 49.496094 76.6875 47.550781 76.6875 C 44.496094 76.6875 43.902344 74.128906 43.902344 71.613281 M 43.84375 55.113281 L 45.835938 55.113281 C 45.917969 55.9375 46.359375 56.488281 47.238281 56.488281 C 48.191406 56.488281 48.742188 55.679688 48.742188 54.601562 C 48.742188 53.707031 48.316406 52.796875 47.269531 52.796875 C 46.996094 52.796875 46.316406 52.8125 45.933594 53.523438 L 44.15625 53.4375 L 44.855469 47.902344 L 50.390625 47.902344 L 50.390625 49.578125 L 46.289062 49.578125 L 45.933594 51.761719 C 46.304688 51.503906 46.757812 51.207031 47.734375 51.207031 C 49.085938 51.207031 50.792969 52.144531 50.792969 54.457031 C 50.792969 55.835938 50.09375 58.082031 47.125 58.082031 C 45.550781 58.082031 43.941406 57.144531 43.84375 55.113281 M 81.050781 73.320312 L 83 73.320312 L 82.984375 73.335938 C 82.984375 73.871094 83.125 75.09375 84.460938 75.09375 C 85.253906 75.09375 85.949219 74.554688 85.949219 73.433594 C 85.949219 72.058594 84.617188 72 83.6875 72 L 83.6875 70.578125 L 84.003906 70.578125 C 84.601562 70.578125 85.695312 70.519531 85.695312 69.21875 C 85.695312 68.851562 85.523438 67.925781 84.433594 67.925781 C 83.070312 67.925781 83.070312 69.21875 83.070312 69.570312 L 81.222656 69.570312 C 81.222656 67.683594 82.289062 66.335938 84.558594 66.335938 C 85.90625 66.335938 87.683594 67.019531 87.683594 69.148438 C 87.683594 70.167969 87.042969 70.804688 86.476562 71.0625 L 86.476562 71.089844 C 86.832031 71.191406 87.996094 71.714844 87.996094 73.433594 C 87.996094 75.335938 86.589844 76.6875 84.558594 76.6875 C 83.609375 76.6875 81.050781 76.472656 81.050781 73.320312 M 85.074219 62.507812 L 93.460938 62.515625 L 93.460938 79.167969 L 85.074219 79.167969 L 85.074219 77.8125 L 91.074219 77.8125 L 91.074219 64.894531 L 85.074219 64.894531 Z M 115.363281 102.101562 L 115.363281 115.023438 L 121.367188 115.023438 L 121.367188 120.511719 L 103.675781 120.511719 L 103.675781 115.023438 L 109.679688 115.023438 L 109.679688 102.101562 L 96.757812 102.101562 L 96.757812 115.023438 L 102.761719 115.023438 L 102.761719 120.511719 L 66.46875 120.511719 L 66.46875 115.023438 L 72.46875 115.023438 L 72.46875 102.101562 L 66.46875 102.101562 L 66.46875 96.417969 L 72.46875 96.417969 L 72.46875 83.5 L 66.46875 83.5 L 66.46875 82.144531 L 85.074219 82.144531 L 85.074219 80.078125 L 94.375 80.078125 L 94.375 61.605469 L 93.917969 61.601562 L 84.617188 61.597656 L 84.160156 61.597656 L 84.160156 64.894531 L 78.15625 64.894531 L 78.15625 77.8125 L 84.160156 77.8125 L 84.160156 81.234375 L 66.46875 81.234375 L 66.46875 77.8125 L 72.46875 77.8125 L 72.46875 64.894531 L 59.554688 64.894531 L 59.554688 77.8125 L 65.554688 77.8125 L 65.554688 81.234375 L 47.863281 81.234375 L 47.863281 77.8125 L 53.867188 77.8125 L 53.867188 64.894531 L 47.863281 64.894531 L 47.863281 59.210938 L 53.867188 59.210938 L 53.867188 46.289062 L 40.949219 46.289062 L 40.949219 59.210938 L 46.953125 59.210938 L 46.953125 64.894531 L 40.949219 64.894531 L 40.949219 77.8125 L 46.953125 77.8125 L 46.953125 82.144531 L 65.554688 82.144531 L 65.554688 83.5 L 59.554688 83.5 L 59.554688 96.417969 L 65.554688 96.417969 L 65.554688 102.101562 L 59.554688 102.101562 L 59.554688 115.023438 L 65.554688 115.023438 L 65.554688 121.421875 L 122.277344 121.421875 L 122.277344 115.023438 L 128.28125 115.023438 L 128.28125 102.101562 Z M 115.363281 102.101562 "/>
<path fill-rule="nonzero" fill="rgb(0%, 0%, 0%)" fill-opacity="1" d="M 66.464844 68.3125 L 66.433594 68.3125 L 63.90625 72.628906 L 66.421875 72.628906 C 66.421875 70.195312 66.464844 68.621094 66.464844 68.3125 "/>
<path fill-rule="nonzero" fill="rgb(0%, 0%, 0%)" fill-opacity="1" d="M 47.410156 71.488281 C 46.65625 71.488281 45.890625 71.957031 45.890625 73.21875 C 45.890625 74.3125 46.515625 75.09375 47.464844 75.09375 C 48.191406 75.09375 48.855469 74.539062 48.855469 73.179688 C 48.855469 71.898438 48.035156 71.488281 47.410156 71.488281 "/>
<path fill-rule="nonzero" fill="rgb(0%, 0%, 0%)" fill-opacity="1" d="M 66.027344 107.628906 C 66.808594 107.628906 67.261719 107.105469 67.261719 106.382812 C 67.261719 105.613281 66.734375 105.132812 66.101562 105.132812 C 65.207031 105.132812 64.738281 105.644531 64.738281 106.382812 C 64.738281 106.976562 65.175781 107.628906 66.027344 107.628906 "/>
<path fill-rule="nonzero" fill="rgb(0%, 0%, 0%)" fill-opacity="1" d="M 65.984375 109.136719 C 65.261719 109.136719 64.566406 109.605469 64.566406 110.699219 C 64.566406 111.660156 65.117188 112.300781 66.027344 112.300781 C 67.0625 112.300781 67.460938 111.40625 67.460938 110.710938 C 67.460938 110 67.089844 109.136719 65.984375 109.136719 "/>
</svg>
