<?xml version="1.0" encoding="UTF-8"?>
<svg xmlns="http://www.w3.org/2000/svg" xmlns:xlink="http://www.w3.org/1999/xlink" width="172" height="152" viewBox="0 0 172 152">
<path fill-rule="nonzero" fill="rgb(0%, 0%, 0%)" fill-opacity="1" d="M 70.800781 131.710938 L 77.9375 131.710938 C 80.300781 131.710938 81.109375 132.21875 81.109375 134.425781 L 81.109375 135.308594 C 81.109375 136.921875 80.625 137.324219 79.28125 138.132812 L 71.140625 143.078125 L 79.203125 143.078125 L 79.203125 141.035156 L 81.761719 141.761719 L 81.761719 142.863281 C 81.761719 145.066406 80.953125 145.578125 78.609375 145.578125 L 66.933594 145.578125 L 66.933594 144.316406 C 66.933594 143.375 67.042969 142.808594 68.679688 141.789062 L 78.289062 135.875 L 78.289062 134.074219 L 70.371094 134.074219 L 70.371094 136.921875 L 67.636719 136.226562 L 67.636719 134.425781 C 67.636719 132.21875 68.4375 131.710938 70.800781 131.710938 "/>
<path fill-rule="nonzero" fill="rgb(0%, 0%, 0%)" fill-opacity="1" d="M 99.589844 134.074219 L 90.425781 134.074219 L 90.425781 137.0625 L 87.496094 136.550781 L 87.496094 131.710938 L 102.894531 131.710938 L 102.894531 133.941406 L 95.640625 145.835938 L 92.121094 145.835938 Z M 99.589844 134.074219 "/>
<path fill-rule="nonzero" fill="rgb(0%, 0%, 0%)" fill-opacity="1" d="M 47.382812 109.136719 C 46.660156 109.136719 45.964844 109.605469 45.964844 110.699219 C 45.964844 111.664062 46.515625 112.300781 47.425781 112.300781 C 48.460938 112.300781 48.859375 111.40625 48.859375 110.710938 C 48.859375 110.003906 48.488281 109.136719 47.382812 109.136719 "/>
<path fill-rule="nonzero" fill="rgb(0%, 0%, 0%)" fill-opacity="1" d="M 85.066406 105.519531 L 85.039062 105.519531 L 82.507812 109.839844 L 85.027344 109.839844 C 85.027344 107.402344 85.066406 105.832031 85.066406 105.519531 "/>
<path fill-rule="nonzero" fill="rgb(0%, 0%, 0%)" fill-opacity="1" d="M 123.242188 113.625 L 121.25 113.625 L 121.25 106.671875 L 118.847656 106.671875 L 118.847656 105.28125 L 119.132812 105.28125 C 121.050781 105.28125 121.5625 104.292969 121.605469 103.542969 L 123.242188 103.542969 Z M 99.640625 113.625 C 99.710938 112.441406 99.796875 111.210938 101.988281 109.617188 C 103.804688 108.300781 104.527344 107.789062 104.527344 106.65625 C 104.527344 105.988281 104.101562 105.21875 103.136719 105.21875 C 101.746094 105.21875 101.703125 106.371094 101.6875 107.109375 L 99.753906 107.109375 C 99.753906 103.828125 102.15625 103.542969 103.050781 103.542969 C 104.980469 103.542969 106.519531 104.679688 106.519531 106.726562 C 106.519531 108.457031 105.394531 109.335938 104.410156 110.003906 C 103.078125 110.9375 102.382812 111.394531 102.15625 111.859375 L 106.53125 111.859375 L 106.53125 113.625 Z M 81.046875 111.386719 L 81.046875 109.667969 L 84.753906 103.542969 L 87.015625 103.542969 L 87.015625 109.839844 L 88.140625 109.839844 L 88.140625 111.386719 L 87.015625 111.386719 L 87.015625 113.625 L 85.027344 113.625 L 85.027344 111.386719 Z M 84.160156 120.511719 L 66.46875 120.511719 L 66.46875 115.023438 L 72.472656 115.023438 L 72.472656 102.105469 L 66.46875 102.105469 L 66.46875 100.75 L 84.207031 100.75 L 84.203125 102.105469 L 78.15625 102.105469 L 78.15625 115.023438 L 84.175781 115.023438 Z M 62.445312 110.925781 L 64.4375 110.925781 C 64.523438 111.75 64.960938 112.304688 65.84375 112.304688 C 66.792969 112.304688 67.347656 111.492188 67.347656 110.414062 C 67.347656 109.519531 66.921875 108.609375 65.871094 108.609375 C 65.601562 108.609375 64.921875 108.625 64.539062 109.335938 L 62.761719 109.25 L 63.457031 103.714844 L 68.996094 103.714844 L 68.996094 105.390625 L 64.890625 105.390625 L 64.539062 107.570312 C 64.90625 107.316406 65.359375 107.019531 66.339844 107.019531 C 67.6875 107.019531 69.394531 107.957031 69.394531 110.273438 C 69.394531 111.648438 68.699219 113.894531 65.730469 113.894531 C 64.152344 113.894531 62.546875 112.957031 62.445312 110.925781 M 81.050781 91.925781 L 83 91.925781 L 82.984375 91.9375 C 82.984375 92.480469 83.128906 93.699219 84.460938 93.699219 C 85.253906 93.699219 85.953125 93.160156 85.953125 92.039062 C 85.953125 90.664062 84.617188 90.605469 83.6875 90.605469 L 83.6875 89.183594 L 84.007812 89.183594 C 84.601562 89.183594 85.695312 89.125 85.695312 87.824219 C 85.695312 87.453125 85.523438 86.53125 84.433594 86.53125 C 83.070312 86.53125 83.070312 87.824219 83.070312 88.175781 L 81.222656 88.175781 C 81.222656 86.289062 82.289062 84.9375 84.5625 84.9375 C 85.90625 84.9375 87.6875 85.621094 87.6875 87.75 C 87.6875 88.773438 87.046875 89.410156 86.476562 89.667969 L 86.476562 89.695312 C 86.832031 89.796875 88 90.320312 88 92.039062 C 88 93.941406 86.589844 95.292969 84.5625 95.292969 C 83.609375 95.292969 81.050781 95.078125 81.050781 91.925781 M 85.167969 81.113281 L 93.5625 81.121094 L 93.5625 97.769531 L 85.128906 97.769531 L 85.132812 96.421875 L 91.074219 96.421875 L 91.074219 83.5 L 85.164062 83.5 Z M 43.914062 110.824219 C 43.914062 110.316406 43.914062 108.980469 45.449219 108.269531 C 44.652344 107.871094 44.230469 107.230469 44.230469 106.296875 C 44.230469 104.578125 45.609375 103.542969 47.367188 103.542969 C 49.453125 103.542969 50.566406 104.78125 50.566406 106.171875 C 50.566406 107.035156 50.207031 107.773438 49.398438 108.199219 C 50.367188 108.683594 50.90625 109.320312 50.90625 110.628906 C 50.90625 111.90625 50.078125 113.894531 47.410156 113.894531 C 44.8125 113.894531 43.914062 112.203125 43.914062 110.824219 M 45.238281 95.023438 C 45.453125 90.992188 47.984375 87.78125 48.835938 86.871094 L 43.820312 86.871094 L 43.859375 85.109375 L 50.96875 85.109375 L 50.96875 86.648438 C 50.003906 87.695312 47.527344 90.675781 47.289062 95.023438 Z M 43.902344 71.617188 C 43.902344 69.699219 44.15625 66.335938 47.652344 66.335938 C 48.0625 66.335938 49.210938 66.492188 49.710938 66.988281 C 50.265625 67.53125 50.464844 67.828125 50.648438 68.890625 L 48.671875 68.890625 C 48.617188 68.324219 48.246094 67.925781 47.507812 67.925781 C 46.21875 67.925781 45.921875 69.398438 45.851562 70.707031 L 45.875 70.734375 C 46.148438 70.363281 46.644531 69.898438 47.765625 69.898438 C 49.855469 69.898438 50.847656 71.503906 50.847656 73.007812 C 50.847656 75.210938 49.496094 76.6875 47.550781 76.6875 C 44.5 76.6875 43.902344 74.128906 43.902344 71.617188 M 115.363281 102.105469 L 115.363281 115.023438 L 121.367188 115.023438 L 121.367188 120.511719 L 103.675781 120.511719 L 103.675781 115.023438 L 109.679688 115.023438 L 109.679688 102.105469 L 96.761719 102.105469 L 96.761719 115.023438 L 102.765625 115.023438 L 102.765625 120.511719 L 85.074219 120.511719 L 85.085938 115.023438 L 91.074219 115.023438 L 91.074219 102.105469 L 85.117188 102.105469 L 85.125 98.683594 L 94.472656 98.683594 L 94.472656 80.210938 L 94.015625 80.210938 L 84.714844 80.203125 L 84.257812 80.203125 L 84.25 83.5 L 78.15625 83.5 L 78.15625 96.421875 L 84.21875 96.421875 L 84.210938 99.839844 L 65.558594 99.839844 L 65.558594 102.105469 L 59.550781 102.105469 L 59.550781 115.023438 L 65.558594 115.023438 L 65.558594 120.511719 L 47.863281 120.511719 L 47.863281 115.023438 L 53.867188 115.023438 L 53.867188 102.105469 L 47.863281 102.105469 L 47.863281 96.421875 L 53.867188 96.421875 L 53.867188 83.5 L 47.863281 83.5 L 47.863281 77.816406 L 53.867188 77.816406 L 53.867188 64.894531 L 40.949219 64.894531 L 40.949219 77.816406 L 46.953125 77.816406 L 46.953125 83.5 L 40.949219 83.5 L 40.949219 96.421875 L 46.953125 96.421875 L 46.953125 102.105469 L 40.949219 102.105469 L 40.949219 115.023438 L 46.953125 115.023438 L 46.953125 121.421875 L 122.28125 121.421875 L 122.28125 115.023438 L 128.28125 115.023438 L 128.28125 102.105469 Z M 115.363281 102.105469 "/>
<path fill-rule="nonzero" fill="rgb(0%, 0%, 0%)" fill-opacity="1" d="M 47.421875 107.628906 C 48.203125 107.628906 48.65625 107.105469 48.65625 106.382812 C 48.65625 105.617188 48.132812 105.136719 47.496094 105.136719 C 46.601562 105.136719 46.132812 105.648438 46.132812 106.382812 C 46.132812 106.980469 46.574219 107.628906 47.421875 107.628906 "/>
<path fill-rule="nonzero" fill="rgb(0%, 0%, 0%)" fill-opacity="1" d="M 48.859375 73.175781 C 48.859375 71.898438 48.035156 71.488281 47.410156 71.488281 C 46.65625 71.488281 45.890625 71.957031 45.890625 73.21875 C 45.890625 74.3125 46.515625 75.09375 47.46875 75.09375 C 48.191406 75.09375 48.859375 74.542969 48.859375 73.175781 "/>
</svg>
