<?xml version="1.0" encoding="UTF-8"?>
<svg xmlns="http://www.w3.org/2000/svg" xmlns:xlink="http://www.w3.org/1999/xlink" width="172" height="152" viewBox="0 0 172 152">
<path fill-rule="nonzero" fill="rgb(0%, 0%, 0%)" fill-opacity="1" d="M 76.550781 140.195312 L 68.972656 140.195312 L 76.550781 133.984375 Z M 76.550781 145.75 L 79.480469 145.75 L 79.480469 142.503906 L 82.839844 142.503906 L 82.839844 140.195312 L 79.480469 140.195312 L 79.480469 131.539062 L 76.445312 131.539062 L 66.042969 140.195312 L 66.042969 142.503906 L 76.550781 142.503906 Z M 76.550781 145.75 "/>
<path fill-rule="nonzero" fill="rgb(0%, 0%, 0%)" fill-opacity="1" d="M 90.085938 134.074219 L 100 134.074219 L 100 143.078125 L 90.085938 143.078125 Z M 87.183594 134.984375 L 87.183594 142.296875 C 87.183594 144.851562 87.90625 145.578125 90.351562 145.578125 L 99.730469 145.578125 C 102.175781 145.578125 102.902344 144.851562 102.902344 142.296875 L 102.902344 134.984375 C 102.902344 132.433594 102.175781 131.707031 99.730469 131.707031 L 90.351562 131.707031 C 87.90625 131.707031 87.183594 132.433594 87.183594 134.984375 "/>
<path fill-rule="nonzero" fill="rgb(0%, 0%, 0%)" fill-opacity="1" d="M 56.726562 107.628906 C 57.503906 107.628906 57.957031 107.105469 57.957031 106.378906 C 57.957031 105.617188 57.433594 105.132812 56.796875 105.132812 C 55.902344 105.132812 55.4375 105.644531 55.4375 106.378906 C 55.4375 106.976562 55.875 107.628906 56.726562 107.628906 "/>
<path fill-rule="nonzero" fill="rgb(0%, 0%, 0%)" fill-opacity="1" d="M 57.160156 31.101562 L 57.132812 31.101562 L 54.601562 35.421875 L 57.117188 35.421875 C 57.117188 32.984375 57.160156 31.414062 57.160156 31.101562 "/>
<path fill-rule="nonzero" fill="rgb(0%, 0%, 0%)" fill-opacity="1" d="M 58.15625 73.175781 C 58.15625 71.898438 57.335938 71.488281 56.710938 71.488281 C 55.960938 71.488281 55.191406 71.957031 55.191406 73.21875 C 55.191406 74.3125 55.816406 75.09375 56.769531 75.09375 C 57.492188 75.09375 58.15625 74.539062 58.15625 73.175781 "/>
<path fill-rule="nonzero" fill="rgb(0%, 0%, 0%)" fill-opacity="1" d="M 56.683594 109.136719 C 55.957031 109.136719 55.265625 109.605469 55.265625 110.695312 C 55.265625 111.660156 55.820312 112.300781 56.726562 112.300781 C 57.761719 112.300781 58.15625 111.40625 58.15625 110.710938 C 58.15625 110 57.789062 109.136719 56.683594 109.136719 "/>
<path fill-rule="nonzero" fill="rgb(0%, 0%, 0%)" fill-opacity="1" d="M 113.9375 113.625 L 111.949219 113.625 L 111.949219 106.671875 L 109.546875 106.671875 L 109.546875 105.28125 L 109.828125 105.28125 C 111.75 105.28125 112.261719 104.289062 112.300781 103.539062 L 113.9375 103.539062 Z M 90.335938 113.621094 C 90.410156 112.441406 90.496094 111.207031 92.683594 109.617188 C 94.5 108.296875 95.222656 107.789062 95.222656 106.652344 C 95.222656 105.984375 94.796875 105.21875 93.832031 105.21875 C 92.445312 105.21875 92.402344 106.367188 92.386719 107.105469 L 90.453125 107.105469 C 90.453125 103.828125 92.851562 103.542969 93.75 103.542969 C 95.675781 103.542969 97.214844 104.679688 97.214844 106.722656 C 97.214844 108.453125 96.089844 109.332031 95.109375 110 C 93.777344 110.933594 93.082031 111.390625 92.851562 111.859375 L 97.230469 111.859375 L 97.230469 113.621094 Z M 53.214844 110.824219 C 53.214844 110.3125 53.214844 108.976562 54.75 108.269531 C 53.957031 107.871094 53.527344 107.230469 53.527344 106.296875 C 53.527344 104.578125 54.910156 103.542969 56.667969 103.542969 C 58.753906 103.542969 59.863281 104.777344 59.863281 106.167969 C 59.863281 107.035156 59.507812 107.773438 58.699219 108.199219 C 59.664062 108.679688 60.207031 109.320312 60.207031 110.625 C 60.207031 111.902344 59.378906 113.894531 56.710938 113.894531 C 54.113281 113.894531 53.214844 112.203125 53.214844 110.824219 M 54.539062 95.019531 C 54.753906 90.988281 57.285156 87.78125 58.136719 86.871094 L 53.121094 86.871094 L 53.164062 85.109375 L 60.269531 85.109375 L 60.269531 86.644531 C 59.300781 87.695312 56.832031 90.675781 56.585938 95.019531 Z M 53.199219 71.613281 C 53.199219 69.699219 53.457031 66.332031 56.953125 66.332031 C 57.363281 66.332031 58.515625 66.488281 59.011719 66.988281 C 59.566406 67.527344 59.765625 67.828125 59.949219 68.890625 L 57.972656 68.890625 C 57.917969 68.324219 57.546875 67.925781 56.808594 67.925781 C 55.519531 67.925781 55.21875 69.398438 55.148438 70.703125 L 55.179688 70.730469 C 55.449219 70.363281 55.945312 69.894531 57.066406 69.894531 C 59.15625 69.894531 60.152344 71.5 60.152344 73.003906 C 60.152344 75.207031 58.796875 76.683594 56.851562 76.683594 C 53.796875 76.683594 53.199219 74.125 53.199219 71.613281 M 53.144531 55.113281 L 55.136719 55.113281 C 55.21875 55.933594 55.664062 56.488281 56.539062 56.488281 C 57.492188 56.488281 58.042969 55.679688 58.042969 54.601562 C 58.042969 53.707031 57.617188 52.796875 56.570312 52.796875 C 56.300781 52.796875 55.617188 52.8125 55.234375 53.523438 L 53.457031 53.4375 L 54.15625 47.902344 L 59.695312 47.902344 L 59.695312 49.578125 L 55.589844 49.578125 L 55.234375 51.757812 C 55.601562 51.503906 56.058594 51.207031 57.035156 51.207031 C 58.386719 51.207031 60.089844 52.140625 60.089844 54.457031 C 60.089844 55.835938 59.394531 58.082031 56.425781 58.082031 C 54.851562 58.082031 53.246094 57.144531 53.144531 55.113281 M 53.136719 36.972656 L 53.136719 35.25 L 56.847656 29.125 L 59.109375 29.125 L 59.109375 35.421875 L 60.234375 35.421875 L 60.234375 36.972656 L 59.109375 36.972656 L 59.109375 39.207031 L 57.117188 39.207031 L 57.117188 36.972656 Z M 71.75 73.320312 L 73.699219 73.320312 L 73.683594 73.332031 C 73.683594 73.875 73.824219 75.09375 75.160156 75.09375 C 75.953125 75.09375 76.648438 74.554688 76.648438 73.433594 C 76.648438 72.054688 75.316406 72 74.382812 72 L 74.382812 70.578125 L 74.703125 70.578125 C 75.300781 70.578125 76.390625 70.519531 76.390625 69.214844 C 76.390625 68.847656 76.222656 67.925781 75.128906 67.925781 C 73.769531 67.925781 73.769531 69.214844 73.769531 69.570312 L 71.917969 69.570312 C 71.917969 67.683594 72.988281 66.332031 75.257812 66.332031 C 76.605469 66.332031 78.382812 67.015625 78.382812 69.144531 C 78.382812 70.164062 77.742188 70.804688 77.171875 71.058594 L 77.171875 71.089844 C 77.53125 71.1875 78.695312 71.714844 78.695312 73.433594 C 78.695312 75.332031 77.289062 76.683594 75.257812 76.683594 C 74.308594 76.683594 71.75 76.472656 71.75 73.320312 M 75.769531 62.515625 L 84.160156 62.515625 L 84.160156 79.164062 L 75.769531 79.164062 L 75.769531 77.8125 L 81.773438 77.8125 L 81.773438 64.894531 L 75.769531 64.894531 Z M 106.0625 102.101562 L 106.0625 115.023438 L 112.066406 115.023438 L 112.066406 120.507812 L 94.371094 120.507812 L 94.371094 115.023438 L 100.378906 115.023438 L 100.378906 102.101562 L 87.457031 102.101562 L 87.457031 115.023438 L 93.460938 115.023438 L 93.460938 120.507812 L 57.167969 120.507812 L 57.167969 115.023438 L 63.167969 115.023438 L 63.167969 102.101562 L 57.167969 102.101562 L 57.167969 96.417969 L 63.167969 96.417969 L 63.167969 83.496094 L 57.167969 83.496094 L 57.167969 82.144531 L 75.769531 82.144531 L 75.769531 80.078125 L 85.070312 80.078125 L 85.070312 61.601562 L 74.855469 61.601562 L 74.855469 64.894531 L 68.851562 64.894531 L 68.851562 77.8125 L 74.855469 77.8125 L 74.855469 81.234375 L 57.167969 81.234375 L 57.167969 77.8125 L 63.167969 77.8125 L 63.167969 64.894531 L 57.167969 64.894531 L 57.167969 59.210938 L 63.167969 59.210938 L 63.167969 46.289062 L 57.167969 46.289062 L 57.167969 40.605469 L 63.167969 40.605469 L 63.167969 27.683594 L 50.25 27.683594 L 50.25 40.605469 L 56.253906 40.605469 L 56.253906 46.289062 L 50.25 46.289062 L 50.25 59.210938 L 56.253906 59.210938 L 56.253906 64.894531 L 50.25 64.894531 L 50.25 77.8125 L 56.253906 77.8125 L 56.253906 83.496094 L 50.25 83.496094 L 50.25 96.417969 L 56.253906 96.417969 L 56.253906 102.101562 L 50.25 102.101562 L 50.25 115.023438 L 56.253906 115.023438 L 56.253906 121.421875 L 112.976562 121.421875 L 112.976562 115.023438 L 118.980469 115.023438 L 118.980469 102.101562 Z M 106.0625 102.101562 "/>
</svg>
