<?xml version="1.0" encoding="UTF-8"?>
<svg xmlns="http://www.w3.org/2000/svg" xmlns:xlink="http://www.w3.org/1999/xlink" width="172" height="152" viewBox="0 0 172 152">
<path fill-rule="nonzero" fill="rgb(0%, 0%, 0%)" fill-opacity="1" d="M 78.816406 134.074219 L 69.652344 134.074219 L 69.652344 137.0625 L 66.722656 136.550781 L 66.722656 131.710938 L 82.121094 131.710938 L 82.121094 133.9375 L 74.867188 145.835938 L 71.347656 145.835938 Z M 78.816406 134.074219 "/>
<path fill-rule="nonzero" fill="rgb(0%, 0%, 0%)" fill-opacity="1" d="M 94.160156 134.339844 L 91.207031 134.339844 L 91.207031 132.484375 L 97.089844 131.597656 L 97.089844 145.582031 L 94.160156 145.582031 Z M 94.160156 134.339844 "/>
<path fill-rule="nonzero" fill="rgb(0%, 0%, 0%)" fill-opacity="1" d="M 56.683594 109.136719 C 55.960938 109.136719 55.265625 109.605469 55.265625 110.699219 C 55.265625 111.660156 55.816406 112.300781 56.726562 112.300781 C 57.761719 112.300781 58.160156 111.40625 58.160156 110.710938 C 58.160156 110 57.789062 109.136719 56.683594 109.136719 "/>
<path fill-rule="nonzero" fill="rgb(0%, 0%, 0%)" fill-opacity="1" d="M 58.15625 73.175781 C 58.15625 71.898438 57.335938 71.488281 56.710938 71.488281 C 55.960938 71.488281 55.191406 71.957031 55.191406 73.21875 C 55.191406 74.3125 55.816406 75.09375 56.765625 75.09375 C 57.492188 75.09375 58.15625 74.539062 58.15625 73.175781 "/>
<path fill-rule="nonzero" fill="rgb(0%, 0%, 0%)" fill-opacity="1" d="M 94.328125 109.839844 C 94.328125 107.402344 94.371094 105.832031 94.371094 105.519531 L 94.339844 105.519531 L 91.808594 109.839844 Z M 94.328125 109.839844 "/>
<path fill-rule="nonzero" fill="rgb(0%, 0%, 0%)" fill-opacity="1" d="M 56.726562 107.628906 C 57.503906 107.628906 57.960938 107.105469 57.960938 106.382812 C 57.960938 105.617188 57.433594 105.132812 56.796875 105.132812 C 55.902344 105.132812 55.433594 105.644531 55.433594 106.382812 C 55.433594 106.976562 55.875 107.628906 56.726562 107.628906 "/>
<path fill-rule="nonzero" fill="rgb(0%, 0%, 0%)" fill-opacity="1" d="M 121.367188 97.769531 L 112.976562 97.769531 L 112.976562 96.417969 L 118.980469 96.417969 L 118.980469 83.5 L 112.976562 83.5 L 112.976562 81.113281 L 121.367188 81.113281 Z M 111.949219 95.023438 L 111.949219 88.070312 L 109.546875 88.070312 L 109.546875 86.675781 L 109.828125 86.675781 C 111.746094 86.675781 112.261719 85.6875 112.304688 84.9375 L 113.9375 84.9375 L 113.9375 95.023438 Z M 93.859375 95.289062 C 92.910156 95.289062 90.351562 95.078125 90.351562 91.925781 L 92.300781 91.925781 L 92.285156 91.941406 C 92.285156 92.476562 92.429688 93.699219 93.761719 93.699219 C 94.554688 93.699219 95.253906 93.160156 95.253906 92.039062 C 95.253906 90.660156 93.917969 90.605469 92.988281 90.605469 L 92.988281 89.183594 L 93.308594 89.183594 C 93.902344 89.183594 94.996094 89.125 94.996094 87.820312 C 94.996094 87.453125 94.824219 86.53125 93.734375 86.53125 C 92.371094 86.53125 92.371094 87.820312 92.371094 88.175781 L 90.523438 88.175781 C 90.523438 86.289062 91.589844 84.9375 93.859375 84.9375 C 95.207031 84.9375 96.984375 85.621094 96.984375 87.75 C 96.984375 88.769531 96.347656 89.410156 95.777344 89.667969 L 95.777344 89.695312 C 96.136719 89.792969 97.300781 90.320312 97.300781 92.039062 C 97.300781 93.9375 95.890625 95.289062 93.859375 95.289062 M 96.316406 103.542969 L 96.316406 109.835938 L 97.4375 109.835938 L 97.4375 111.386719 L 96.316406 111.386719 L 96.316406 113.625 L 94.328125 113.625 L 94.328125 111.386719 L 90.347656 111.386719 L 90.347656 109.667969 L 94.054688 103.542969 Z M 90.339844 76.417969 C 90.410156 75.238281 90.496094 74 92.683594 72.410156 C 94.5 71.089844 95.222656 70.582031 95.222656 69.445312 C 95.222656 68.777344 94.796875 68.011719 93.835938 68.011719 C 92.441406 68.011719 92.398438 69.160156 92.386719 69.902344 L 90.453125 69.902344 C 90.453125 66.621094 92.855469 66.332031 93.75 66.332031 C 95.679688 66.332031 97.214844 67.472656 97.214844 69.515625 C 97.214844 71.246094 96.089844 72.128906 95.109375 72.792969 C 93.773438 73.730469 93.082031 74.183594 92.855469 74.652344 L 97.226562 74.652344 L 97.226562 76.417969 Z M 53.214844 110.828125 C 53.214844 110.316406 53.214844 108.980469 54.753906 108.269531 C 53.957031 107.871094 53.527344 107.234375 53.527344 106.296875 C 53.527344 104.582031 54.910156 103.542969 56.667969 103.542969 C 58.757812 103.542969 59.863281 104.777344 59.863281 106.167969 C 59.863281 107.035156 59.507812 107.773438 58.699219 108.199219 C 59.667969 108.679688 60.207031 109.324219 60.207031 110.625 C 60.207031 111.902344 59.382812 113.894531 56.710938 113.894531 C 54.113281 113.894531 53.214844 112.203125 53.214844 110.828125 M 54.542969 95.023438 C 54.753906 90.988281 57.285156 87.78125 58.136719 86.875 L 53.121094 86.875 L 53.160156 85.109375 L 60.269531 85.109375 L 60.269531 86.644531 C 59.304688 87.695312 56.832031 90.675781 56.589844 95.023438 Z M 53.203125 71.617188 C 53.203125 69.699219 53.457031 66.332031 56.953125 66.332031 C 57.363281 66.332031 58.511719 66.492188 59.011719 66.988281 C 59.566406 67.53125 59.765625 67.828125 59.949219 68.890625 L 57.972656 68.890625 C 57.917969 68.324219 57.546875 67.925781 56.808594 67.925781 C 55.519531 67.925781 55.222656 69.398438 55.148438 70.707031 L 55.179688 70.734375 C 55.449219 70.367188 55.945312 69.894531 57.066406 69.894531 C 59.152344 69.894531 60.148438 71.5 60.148438 73.007812 C 60.148438 75.207031 58.796875 76.6875 56.851562 76.6875 C 53.800781 76.6875 53.203125 74.128906 53.203125 71.617188 M 71.746094 92.320312 L 73.738281 92.320312 C 73.828125 93.144531 74.265625 93.699219 75.144531 93.699219 C 76.097656 93.699219 76.648438 92.886719 76.648438 91.808594 C 76.648438 90.914062 76.222656 90.007812 75.171875 90.007812 C 74.902344 90.007812 74.222656 90.019531 73.839844 90.730469 L 72.058594 90.644531 L 72.757812 85.109375 L 78.296875 85.109375 L 78.296875 86.789062 L 74.195312 86.789062 L 73.839844 88.96875 C 74.210938 88.710938 74.664062 88.414062 75.640625 88.414062 C 76.988281 88.414062 78.695312 89.351562 78.695312 91.667969 C 78.695312 93.046875 78 95.289062 75.03125 95.289062 C 73.457031 95.289062 71.847656 94.351562 71.746094 92.320312 M 112.066406 80.203125 L 112.066406 83.5 L 106.058594 83.5 L 106.058594 96.417969 L 112.066406 96.417969 L 112.066406 99.835938 L 94.375 99.835938 L 94.375 96.417969 L 100.378906 96.417969 L 100.378906 83.5 L 94.375 83.5 L 94.375 77.816406 L 100.378906 77.816406 L 100.378906 64.894531 L 87.460938 64.894531 L 87.460938 77.816406 L 93.460938 77.816406 L 93.460938 83.5 L 87.460938 83.5 L 87.460938 96.417969 L 93.460938 96.417969 L 93.460938 102.101562 L 87.460938 102.101562 L 87.460938 115.023438 L 93.460938 115.023438 L 93.460938 120.519531 L 57.167969 120.519531 L 57.167969 115.023438 L 63.167969 115.023438 L 63.167969 102.101562 L 57.167969 102.101562 L 57.167969 100.75 L 75.769531 100.75 L 75.769531 96.417969 L 81.773438 96.417969 L 81.773438 83.5 L 68.855469 83.5 L 68.855469 96.417969 L 74.855469 96.417969 L 74.855469 99.835938 L 57.167969 99.835938 L 57.167969 96.417969 L 63.167969 96.417969 L 63.167969 83.5 L 57.167969 83.5 L 57.167969 77.816406 L 63.167969 77.816406 L 63.167969 64.894531 L 50.25 64.894531 L 50.25 77.816406 L 56.253906 77.816406 L 56.253906 83.5 L 50.25 83.5 L 50.25 96.417969 L 56.253906 96.417969 L 56.253906 102.101562 L 50.25 102.101562 L 50.25 115.023438 L 56.253906 115.023438 L 56.253906 121.433594 L 94.375 121.433594 L 94.375 115.023438 L 100.378906 115.023438 L 100.378906 102.101562 L 94.375 102.101562 L 94.375 100.75 L 112.976562 100.75 L 112.976562 98.683594 L 122.277344 98.683594 L 122.277344 80.203125 Z M 112.066406 80.203125 "/>
</svg>
