<?xml version="1.0" encoding="UTF-8"?>
<svg xmlns="http://www.w3.org/2000/svg" xmlns:xlink="http://www.w3.org/1999/xlink" width="172" height="152" viewBox="0 0 172 152">
<path fill-rule="nonzero" fill="rgb(0%, 0%, 0%)" fill-opacity="1" d="M 73.390625 134.339844 L 70.4375 134.339844 L 70.4375 132.484375 L 76.320312 131.597656 L 76.320312 145.582031 L 73.390625 145.582031 Z M 73.390625 134.339844 "/>
<path fill-rule="nonzero" fill="rgb(0%, 0%, 0%)" fill-opacity="1" d="M 98.570312 139.570312 C 99.648438 139.570312 99.890625 139.839844 99.890625 140.828125 L 99.890625 141.847656 C 99.890625 142.835938 99.648438 143.078125 98.570312 143.078125 L 91.460938 143.078125 C 90.386719 143.078125 90.144531 142.863281 90.144531 141.847656 L 90.144531 140.828125 C 90.144531 139.839844 90.386719 139.570312 91.460938 139.570312 Z M 98.261719 134.074219 C 99.335938 134.074219 99.574219 134.34375 99.574219 135.347656 L 99.574219 136.050781 C 99.574219 137.050781 99.335938 137.320312 98.261719 137.320312 L 91.796875 137.320312 C 90.726562 137.320312 90.457031 137.050781 90.457031 136.050781 L 90.457031 135.347656 C 90.457031 134.34375 90.726562 134.074219 91.796875 134.074219 Z M 99.335938 131.707031 L 90.699219 131.707031 C 88.332031 131.707031 87.527344 132.21875 87.527344 134.425781 L 87.527344 135.699219 C 87.527344 137.320312 88.253906 138.019531 90.1875 138.394531 C 88.183594 138.609375 87.214844 139.464844 87.214844 141.152344 L 87.214844 142.597656 C 87.214844 144.746094 87.914062 145.578125 90.574219 145.578125 L 99.460938 145.578125 C 102.121094 145.578125 102.847656 144.746094 102.847656 142.597656 L 102.847656 141.152344 C 102.847656 139.464844 101.878906 138.609375 99.890625 138.394531 C 101.808594 138.019531 102.503906 137.320312 102.503906 135.699219 L 102.503906 134.425781 C 102.503906 132.21875 101.699219 131.707031 99.335938 131.707031 "/>
<path fill-rule="nonzero" fill="rgb(0%, 0%, 0%)" fill-opacity="1" d="M 85.070312 86.914062 L 85.039062 86.914062 L 82.511719 91.234375 L 85.027344 91.234375 C 85.027344 88.800781 85.070312 87.226562 85.070312 86.914062 "/>
<path fill-rule="nonzero" fill="rgb(0%, 0%, 0%)" fill-opacity="1" d="M 47.425781 107.628906 C 48.203125 107.628906 48.65625 107.105469 48.65625 106.382812 C 48.65625 105.617188 48.132812 105.132812 47.496094 105.132812 C 46.605469 105.132812 46.136719 105.644531 46.136719 106.382812 C 46.136719 106.976562 46.574219 107.628906 47.425781 107.628906 "/>
<path fill-rule="nonzero" fill="rgb(0%, 0%, 0%)" fill-opacity="1" d="M 67.460938 91.78125 C 67.460938 90.503906 66.640625 90.09375 66.011719 90.09375 C 65.261719 90.09375 64.496094 90.558594 64.496094 91.824219 C 64.496094 92.917969 65.121094 93.699219 66.074219 93.699219 C 66.792969 93.699219 67.460938 93.144531 67.460938 91.78125 "/>
<path fill-rule="nonzero" fill="rgb(0%, 0%, 0%)" fill-opacity="1" d="M 47.382812 109.136719 C 46.660156 109.136719 45.964844 109.605469 45.964844 110.699219 C 45.964844 111.664062 46.519531 112.300781 47.425781 112.300781 C 48.460938 112.300781 48.859375 111.40625 48.859375 110.710938 C 48.859375 110 48.488281 109.136719 47.382812 109.136719 "/>
<path fill-rule="nonzero" fill="rgb(0%, 0%, 0%)" fill-opacity="1" d="M 123.242188 113.625 L 121.25 113.625 L 121.25 106.671875 L 118.851562 106.671875 L 118.851562 105.28125 L 119.132812 105.28125 C 121.050781 105.28125 121.566406 104.289062 121.605469 103.539062 L 123.242188 103.539062 Z M 99.640625 113.625 C 99.714844 112.441406 99.796875 111.207031 101.988281 109.617188 C 103.804688 108.300781 104.527344 107.789062 104.527344 106.652344 C 104.527344 105.984375 104.101562 105.21875 103.136719 105.21875 C 101.746094 105.21875 101.703125 106.371094 101.691406 107.105469 L 99.753906 107.105469 C 99.753906 103.828125 102.15625 103.542969 103.050781 103.542969 C 104.980469 103.542969 106.519531 104.679688 106.519531 106.722656 C 106.519531 108.457031 105.394531 109.335938 104.414062 110.003906 C 103.082031 110.9375 102.386719 111.394531 102.15625 111.859375 L 106.535156 111.859375 L 106.535156 113.625 Z M 81.050781 110.925781 L 83.042969 110.925781 C 83.128906 111.75 83.566406 112.304688 84.449219 112.304688 C 85.398438 112.304688 85.949219 111.492188 85.949219 110.414062 C 85.949219 109.519531 85.527344 108.609375 84.476562 108.609375 C 84.207031 108.609375 83.527344 108.625 83.144531 109.335938 L 81.367188 109.25 L 82.0625 103.714844 L 87.601562 103.714844 L 87.601562 105.390625 L 83.496094 105.390625 L 83.144531 107.570312 C 83.511719 107.316406 83.964844 107.019531 84.945312 107.019531 C 86.292969 107.019531 88 107.957031 88 110.269531 C 88 111.648438 87.304688 113.894531 84.332031 113.894531 C 82.757812 113.894531 81.152344 112.953125 81.050781 110.925781 M 81.046875 92.78125 L 81.046875 91.0625 L 84.757812 84.9375 L 87.019531 84.9375 L 87.019531 91.234375 L 88.140625 91.234375 L 88.140625 92.78125 L 87.019531 92.78125 L 87.019531 95.023438 L 85.027344 95.023438 L 85.027344 92.78125 Z M 81.050781 73.320312 L 83 73.320312 L 82.988281 73.335938 C 82.988281 73.875 83.128906 75.09375 84.460938 75.09375 C 85.257812 75.09375 85.949219 74.554688 85.949219 73.433594 C 85.949219 72.058594 84.617188 72 83.6875 72 L 83.6875 70.578125 L 84.007812 70.578125 C 84.605469 70.578125 85.695312 70.523438 85.695312 69.21875 C 85.695312 68.851562 85.523438 67.925781 84.433594 67.925781 C 83.074219 67.925781 83.074219 69.21875 83.074219 69.570312 L 81.222656 69.570312 C 81.222656 67.683594 82.289062 66.335938 84.5625 66.335938 C 85.910156 66.335938 87.6875 67.019531 87.6875 69.148438 C 87.6875 70.167969 87.046875 70.804688 86.476562 71.0625 L 86.476562 71.089844 C 86.832031 71.191406 88 71.714844 88 73.433594 C 88 75.335938 86.589844 76.6875 84.5625 76.6875 C 83.609375 76.6875 81.050781 76.472656 81.050781 73.320312 M 85.074219 62.515625 L 93.464844 62.515625 L 93.464844 80.203125 L 85.074219 80.203125 L 85.074219 77.816406 L 91.078125 77.816406 L 91.078125 64.894531 L 85.074219 64.894531 Z M 43.917969 110.824219 C 43.917969 110.316406 43.917969 108.980469 45.453125 108.269531 C 44.65625 107.871094 44.230469 107.230469 44.230469 106.296875 C 44.230469 104.578125 45.609375 103.542969 47.371094 103.542969 C 49.453125 103.542969 50.5625 104.777344 50.5625 106.171875 C 50.5625 107.035156 50.210938 107.773438 49.398438 108.199219 C 50.367188 108.683594 50.90625 109.320312 50.90625 110.628906 C 50.90625 111.902344 50.082031 113.894531 47.410156 113.894531 C 44.8125 113.894531 43.917969 112.203125 43.917969 110.824219 M 45.242188 95.023438 C 45.453125 90.988281 47.984375 87.78125 48.835938 86.871094 L 43.820312 86.871094 L 43.863281 85.109375 L 50.96875 85.109375 L 50.96875 86.644531 C 50.003906 87.695312 47.53125 90.675781 47.289062 95.023438 Z M 62.507812 90.21875 C 62.507812 88.304688 62.761719 84.9375 66.257812 84.9375 C 66.667969 84.9375 67.816406 85.09375 68.316406 85.59375 C 68.871094 86.132812 69.070312 86.429688 69.253906 87.496094 L 67.277344 87.496094 C 67.21875 86.925781 66.851562 86.53125 66.113281 86.53125 C 64.824219 86.53125 64.523438 88.003906 64.453125 89.308594 L 64.484375 89.335938 C 64.753906 88.96875 65.246094 88.5 66.371094 88.5 C 68.457031 88.5 69.453125 90.105469 69.453125 91.609375 C 69.453125 93.8125 68.101562 95.289062 66.15625 95.289062 C 63.101562 95.289062 62.507812 92.730469 62.507812 90.21875 M 115.363281 102.101562 L 115.363281 115.023438 L 121.367188 115.023438 L 121.367188 120.511719 L 103.675781 120.511719 L 103.675781 115.023438 L 109.679688 115.023438 L 109.679688 102.101562 L 96.761719 102.101562 L 96.761719 115.023438 L 102.765625 115.023438 L 102.765625 120.511719 L 85.074219 120.511719 L 85.074219 115.023438 L 91.078125 115.023438 L 91.078125 102.101562 L 85.074219 102.101562 L 85.074219 96.417969 L 91.078125 96.417969 L 91.078125 83.496094 L 85.074219 83.496094 L 85.074219 81.113281 L 94.375 81.113281 L 94.375 61.605469 L 84.160156 61.605469 L 84.160156 64.894531 L 78.15625 64.894531 L 78.15625 77.816406 L 84.160156 77.816406 L 84.160156 83.496094 L 78.15625 83.496094 L 78.15625 96.417969 L 84.160156 96.417969 L 84.160156 102.101562 L 78.15625 102.101562 L 78.15625 115.023438 L 84.160156 115.023438 L 84.160156 120.511719 L 47.867188 120.511719 L 47.867188 115.023438 L 53.867188 115.023438 L 53.867188 102.101562 L 47.867188 102.101562 L 47.867188 99.714844 L 66.46875 99.714844 L 66.46875 96.417969 L 72.472656 96.417969 L 72.472656 83.496094 L 59.554688 83.496094 L 59.554688 96.417969 L 65.558594 96.417969 L 65.558594 98.804688 L 47.867188 98.804688 L 47.867188 96.417969 L 53.867188 96.417969 L 53.867188 83.496094 L 40.949219 83.496094 L 40.949219 96.417969 L 46.953125 96.417969 L 46.953125 102.101562 L 40.949219 102.101562 L 40.949219 115.023438 L 46.953125 115.023438 L 46.953125 121.421875 L 122.28125 121.421875 L 122.28125 115.023438 L 128.285156 115.023438 L 128.285156 102.101562 Z M 115.363281 102.101562 "/>
</svg>
