<?xml version="1.0" encoding="UTF-8"?>
<svg xmlns="http://www.w3.org/2000/svg" xmlns:xlink="http://www.w3.org/1999/xlink" width="172" height="152" viewBox="0 0 172 152">
<path fill-rule="nonzero" fill="rgb(0%, 0%, 0%)" fill-opacity="1" d="M 66.835938 142.863281 L 66.835938 141.734375 L 69.6875 141.144531 L 69.6875 143.078125 L 77.148438 143.078125 C 78.222656 143.078125 78.488281 142.835938 78.488281 141.839844 L 78.488281 140.816406 C 78.488281 139.824219 78.222656 139.558594 77.140625 139.570312 L 72.460938 139.570312 L 72.460938 137.320312 L 76.628906 137.320312 C 77.707031 137.320312 77.949219 137.046875 77.949219 136.046875 L 77.949219 135.34375 C 77.949219 134.34375 77.707031 134.074219 76.628906 134.074219 L 69.769531 134.074219 L 69.769531 135.804688 L 67.035156 135.289062 L 67.035156 134.421875 C 67.035156 132.21875 67.84375 131.707031 70.203125 131.707031 L 77.707031 131.707031 C 80.070312 131.707031 80.878906 132.21875 80.878906 134.421875 L 80.878906 135.695312 C 80.878906 137.347656 80.179688 138.015625 78.195312 138.320312 C 80.398438 138.535156 81.417969 139.394531 81.417969 141.144531 L 81.417969 142.59375 C 81.417969 144.742188 80.722656 145.578125 78.058594 145.578125 L 70.007812 145.578125 C 67.644531 145.578125 66.835938 145.066406 66.835938 142.863281 "/>
<path fill-rule="nonzero" fill="rgb(0%, 0%, 0%)" fill-opacity="1" d="M 88.914062 131.707031 L 100.898438 131.707031 L 100.65625 134.074219 L 90.984375 134.074219 L 90.660156 136.757812 C 92.785156 136.546875 94.640625 136.410156 96.277344 136.410156 C 100.847656 136.410156 103.160156 137.96875 103.160156 141.117188 C 103.160156 144.484375 100.710938 145.777344 95.523438 145.777344 C 92.542969 145.777344 90.3125 145.5625 88.835938 145.210938 L 88.136719 142.519531 C 90.660156 142.976562 93.082031 143.246094 95.445312 143.246094 C 98.722656 143.246094 100.171875 142.707031 100.171875 140.984375 C 100.171875 139.339844 98.695312 138.828125 95.632812 138.828125 C 93.726562 138.828125 91.226562 138.988281 88.136719 139.394531 L 88.914062 131.707031 "/>
<path fill-rule="nonzero" fill="rgb(0%, 0%, 0%)" fill-opacity="1" d="M 103.671875 86.914062 L 103.644531 86.914062 L 101.113281 91.234375 L 103.628906 91.234375 C 103.628906 88.796875 103.671875 87.226562 103.671875 86.914062 "/>
<path fill-rule="nonzero" fill="rgb(0%, 0%, 0%)" fill-opacity="1" d="M 84.617188 108.695312 C 83.867188 108.695312 83.097656 109.160156 83.097656 110.425781 C 83.097656 111.519531 83.722656 112.300781 84.675781 112.300781 C 85.398438 112.300781 86.066406 111.746094 86.066406 110.382812 C 86.066406 109.105469 85.242188 108.695312 84.617188 108.695312 "/>
<path fill-rule="nonzero" fill="rgb(0%, 0%, 0%)" fill-opacity="1" d="M 47.382812 109.136719 C 46.660156 109.136719 45.964844 109.605469 45.964844 110.695312 C 45.964844 111.660156 46.515625 112.300781 47.425781 112.300781 C 48.460938 112.300781 48.859375 111.40625 48.859375 110.710938 C 48.859375 110 48.488281 109.136719 47.382812 109.136719 "/>
<path fill-rule="nonzero" fill="rgb(0%, 0%, 0%)" fill-opacity="1" d="M 47.421875 107.628906 C 48.203125 107.628906 48.65625 107.105469 48.65625 106.378906 C 48.65625 105.617188 48.132812 105.132812 47.496094 105.132812 C 46.601562 105.132812 46.132812 105.644531 46.132812 106.378906 C 46.132812 106.976562 46.574219 107.628906 47.421875 107.628906 "/>
<path fill-rule="nonzero" fill="rgb(0%, 0%, 0%)" fill-opacity="1" d="M 121.25 76.417969 L 121.25 69.464844 L 118.847656 69.464844 L 118.847656 68.070312 L 119.132812 68.070312 C 121.050781 68.070312 121.5625 67.082031 121.605469 66.332031 L 123.242188 66.332031 L 123.242188 76.417969 Z M 125.121094 88.117188 C 125.121094 89.851562 123.996094 90.730469 123.015625 91.398438 C 121.683594 92.332031 120.988281 92.789062 120.761719 93.253906 L 125.136719 93.253906 L 125.136719 95.019531 L 118.246094 95.019531 C 118.316406 93.835938 118.402344 92.601562 120.59375 91.011719 C 122.40625 89.695312 123.128906 89.183594 123.128906 88.050781 C 123.128906 87.382812 122.703125 86.613281 121.738281 86.613281 C 120.351562 86.613281 120.308594 87.765625 120.292969 88.503906 L 118.359375 88.503906 C 118.359375 85.222656 120.761719 84.9375 121.65625 84.9375 C 123.585938 84.9375 125.121094 86.074219 125.121094 88.117188 M 124.894531 106.351562 C 124.894531 107.375 124.253906 108.011719 123.683594 108.269531 L 123.683594 108.296875 C 124.039062 108.398438 125.207031 108.921875 125.207031 110.640625 C 125.207031 112.542969 123.800781 113.894531 121.769531 113.894531 C 120.816406 113.894531 118.257812 113.679688 118.257812 110.527344 L 120.207031 110.527344 L 120.191406 110.539062 C 120.191406 111.082031 120.335938 112.300781 121.667969 112.300781 C 122.464844 112.300781 123.160156 111.761719 123.160156 110.640625 C 123.160156 109.265625 121.824219 109.207031 120.894531 109.207031 L 120.894531 107.785156 L 121.214844 107.785156 C 121.808594 107.785156 122.902344 107.726562 122.902344 106.421875 C 122.902344 106.054688 122.730469 105.132812 121.640625 105.132812 C 120.277344 105.132812 120.277344 106.421875 120.277344 106.777344 L 118.429688 106.777344 C 118.429688 104.890625 119.496094 103.542969 121.769531 103.542969 C 123.113281 103.542969 124.894531 104.222656 124.894531 106.351562 M 122.28125 62.507812 L 130.769531 62.511719 L 130.769531 80.199219 L 122.28125 80.199219 L 122.28125 77.8125 L 128.28125 77.8125 L 128.28125 64.894531 L 122.28125 64.894531 Z M 99.65625 110.921875 L 101.644531 110.921875 C 101.730469 111.746094 102.171875 112.300781 103.050781 112.300781 C 104.003906 112.300781 104.554688 111.492188 104.554688 110.414062 C 104.554688 109.515625 104.128906 108.609375 103.078125 108.609375 C 102.808594 108.609375 102.128906 108.621094 101.746094 109.332031 L 99.96875 109.25 L 100.664062 103.710938 L 106.203125 103.710938 L 106.203125 105.390625 L 102.101562 105.390625 L 101.746094 107.570312 C 102.113281 107.3125 102.570312 107.015625 103.546875 107.015625 C 104.894531 107.015625 106.605469 107.953125 106.605469 110.269531 C 106.605469 111.648438 105.90625 113.894531 102.9375 113.894531 C 101.363281 113.894531 99.753906 112.953125 99.65625 110.921875 M 99.648438 92.78125 L 99.648438 91.0625 L 103.359375 84.9375 L 105.621094 84.9375 L 105.621094 91.234375 L 106.742188 91.234375 L 106.742188 92.78125 L 105.621094 92.78125 L 105.621094 95.019531 L 103.628906 95.019531 L 103.628906 92.78125 Z M 81.109375 108.820312 C 81.109375 106.90625 81.363281 103.542969 84.859375 103.542969 C 85.269531 103.542969 86.421875 103.699219 86.917969 104.195312 C 87.472656 104.734375 87.671875 105.035156 87.855469 106.097656 L 85.878906 106.09375 C 85.824219 105.527344 85.453125 105.132812 84.714844 105.132812 C 83.425781 105.132812 83.128906 106.605469 83.058594 107.914062 L 83.085938 107.941406 C 83.355469 107.570312 83.851562 107.101562 84.972656 107.101562 C 87.058594 107.101562 88.054688 108.707031 88.054688 110.210938 C 88.054688 112.414062 86.703125 113.894531 84.761719 113.894531 C 81.707031 113.894531 81.109375 111.332031 81.109375 108.820312 M 63.84375 113.625 C 64.058594 109.59375 66.585938 106.382812 67.441406 105.476562 L 62.421875 105.476562 L 62.464844 103.710938 L 69.570312 103.710938 L 69.570312 105.25 C 68.605469 106.296875 66.132812 109.28125 65.890625 113.625 Z M 43.914062 110.824219 C 43.914062 110.3125 43.914062 108.976562 45.449219 108.269531 C 44.652344 107.871094 44.230469 107.230469 44.230469 106.296875 C 44.230469 104.578125 45.605469 103.542969 47.367188 103.542969 C 49.453125 103.542969 50.5625 104.777344 50.5625 106.167969 C 50.5625 107.035156 50.210938 107.773438 49.398438 108.199219 C 50.367188 108.679688 50.90625 109.320312 50.90625 110.625 C 50.90625 111.902344 50.078125 113.894531 47.410156 113.894531 C 44.8125 113.894531 43.914062 112.203125 43.914062 110.824219 M 131.679688 81.109375 L 131.679688 61.601562 L 131.222656 61.601562 L 121.824219 61.597656 L 121.367188 61.59375 L 121.367188 64.894531 L 115.363281 64.894531 L 115.363281 77.8125 L 121.367188 77.8125 L 121.367188 83.496094 L 115.363281 83.496094 L 115.363281 96.417969 L 121.367188 96.417969 L 121.367188 102.101562 L 115.363281 102.101562 L 115.363281 115.023438 L 121.367188 115.023438 L 121.367188 120.507812 L 103.675781 120.507812 L 103.675781 115.023438 L 109.679688 115.023438 L 109.679688 102.101562 L 103.675781 102.101562 L 103.675781 96.417969 L 109.679688 96.417969 L 109.679688 83.496094 L 96.761719 83.496094 L 96.761719 96.417969 L 102.765625 96.417969 L 102.765625 102.101562 L 96.761719 102.101562 L 96.761719 115.023438 L 102.765625 115.023438 L 102.765625 120.507812 L 85.070312 120.507812 L 85.070312 115.023438 L 91.074219 115.023438 L 91.074219 102.101562 L 78.15625 102.101562 L 78.15625 115.023438 L 84.160156 115.023438 L 84.160156 120.507812 L 66.46875 120.507812 L 66.46875 115.023438 L 72.472656 115.023438 L 72.472656 102.101562 L 59.550781 102.101562 L 59.550781 115.023438 L 65.558594 115.023438 L 65.558594 120.507812 L 47.863281 120.507812 L 47.863281 115.023438 L 53.867188 115.023438 L 53.867188 102.101562 L 40.949219 102.101562 L 40.949219 115.023438 L 46.953125 115.023438 L 46.953125 121.421875 L 122.28125 121.421875 L 122.28125 115.023438 L 128.28125 115.023438 L 128.28125 102.101562 L 122.28125 102.101562 L 122.28125 96.417969 L 128.28125 96.417969 L 128.28125 83.496094 L 122.28125 83.496094 L 122.28125 81.109375 Z M 131.679688 81.109375 "/>
</svg>
