<?xml version="1.0" encoding="UTF-8"?>
<svg xmlns="http://www.w3.org/2000/svg" xmlns:xlink="http://www.w3.org/1999/xlink" width="172" height="152" viewBox="0 0 172 152">
<path fill-rule="nonzero" fill="rgb(0%, 0%, 0%)" fill-opacity="1" d="M 81.1875 131.710938 L 88.324219 131.710938 C 90.6875 131.710938 91.496094 132.21875 91.496094 134.425781 L 91.496094 135.3125 C 91.496094 136.921875 91.011719 137.324219 89.671875 138.132812 L 81.527344 143.078125 L 89.589844 143.078125 L 89.589844 141.035156 L 92.148438 141.761719 L 92.148438 142.863281 C 92.148438 145.066406 91.339844 145.578125 88.996094 145.578125 L 77.324219 145.578125 L 77.324219 144.316406 C 77.324219 143.371094 77.429688 142.808594 79.066406 141.785156 L 88.675781 135.875 L 88.675781 134.074219 L 80.757812 134.074219 L 80.757812 136.921875 L 78.023438 136.226562 L 78.023438 134.425781 C 78.023438 132.21875 78.824219 131.710938 81.1875 131.710938 "/>
<path fill-rule="nonzero" fill="rgb(0%, 0%, 0%)" fill-opacity="1" d="M 84.628906 108.695312 C 83.878906 108.695312 83.113281 109.164062 83.113281 110.429688 C 83.113281 111.519531 83.734375 112.304688 84.683594 112.304688 C 85.410156 112.304688 86.078125 111.75 86.078125 110.386719 C 86.078125 109.109375 85.253906 108.695312 84.628906 108.695312 "/>
<path fill-rule="nonzero" fill="rgb(0%, 0%, 0%)" fill-opacity="1" d="M 122.246094 109.839844 C 122.246094 107.402344 122.289062 105.832031 122.289062 105.519531 L 122.257812 105.519531 L 119.730469 109.839844 Z M 122.246094 109.839844 "/>
<path fill-rule="nonzero" fill="rgb(0%, 0%, 0%)" fill-opacity="1" d="M 47.4375 107.628906 C 48.214844 107.628906 48.667969 107.105469 48.667969 106.382812 C 48.667969 105.617188 48.144531 105.132812 47.507812 105.132812 C 46.613281 105.132812 46.144531 105.648438 46.144531 106.382812 C 46.144531 106.980469 46.585938 107.628906 47.4375 107.628906 "/>
<path fill-rule="nonzero" fill="rgb(0%, 0%, 0%)" fill-opacity="1" d="M 121.261719 57.8125 L 121.261719 50.863281 L 118.859375 50.863281 L 118.859375 49.46875 L 119.144531 49.46875 C 121.0625 49.46875 121.574219 48.480469 121.617188 47.730469 L 123.253906 47.730469 L 123.253906 57.8125 Z M 125.132812 69.515625 C 125.132812 71.246094 124.007812 72.128906 123.027344 72.796875 C 121.695312 73.730469 121 74.183594 120.773438 74.652344 L 125.148438 74.652344 L 125.148438 76.414062 L 118.257812 76.414062 C 118.328125 75.234375 118.414062 74 120.601562 72.410156 C 122.417969 71.09375 123.140625 70.582031 123.140625 69.445312 C 123.140625 68.777344 122.714844 68.011719 121.75 68.011719 C 120.359375 68.011719 120.320312 69.160156 120.304688 69.898438 L 118.371094 69.898438 C 118.371094 66.621094 120.773438 66.335938 121.667969 66.335938 C 123.597656 66.335938 125.132812 67.472656 125.132812 69.515625 M 124.90625 87.75 C 124.90625 88.773438 124.265625 89.410156 123.695312 89.667969 L 123.695312 89.695312 C 124.050781 89.796875 125.21875 90.320312 125.21875 92.035156 C 125.21875 93.941406 123.8125 95.289062 121.78125 95.289062 C 120.828125 95.289062 118.269531 95.078125 118.269531 91.925781 L 120.21875 91.925781 L 120.203125 91.9375 C 120.203125 92.480469 120.347656 93.699219 121.679688 93.699219 C 122.476562 93.699219 123.171875 93.160156 123.171875 92.035156 C 123.171875 90.660156 121.835938 90.605469 120.90625 90.605469 L 120.90625 89.183594 L 121.226562 89.183594 C 121.820312 89.183594 122.914062 89.128906 122.914062 87.824219 C 122.914062 87.453125 122.742188 86.53125 121.652344 86.53125 C 120.289062 86.53125 120.289062 87.824219 120.289062 88.175781 L 118.441406 88.175781 C 118.441406 86.289062 119.507812 84.9375 121.78125 84.9375 C 123.125 84.9375 124.90625 85.621094 124.90625 87.75 M 124.234375 103.542969 L 124.234375 109.839844 L 125.359375 109.839844 L 125.359375 111.386719 L 124.234375 111.386719 L 124.234375 113.625 L 122.246094 113.625 L 122.246094 111.386719 L 118.265625 111.386719 L 118.265625 109.667969 L 121.976562 103.542969 Z M 122.292969 43.910156 L 130.683594 43.910156 L 130.683594 61.597656 L 122.292969 61.597656 L 122.292969 59.210938 L 128.292969 59.210938 L 128.292969 46.292969 L 122.292969 46.292969 Z M 99.667969 110.925781 L 101.65625 110.925781 C 101.742188 111.75 102.183594 112.304688 103.0625 112.304688 C 104.015625 112.304688 104.566406 111.492188 104.566406 110.414062 C 104.566406 109.519531 104.140625 108.609375 103.089844 108.609375 C 102.820312 108.609375 102.140625 108.625 101.757812 109.335938 L 99.980469 109.25 L 100.675781 103.714844 L 106.214844 103.714844 L 106.214844 105.390625 L 102.113281 105.390625 L 101.757812 107.570312 C 102.125 107.316406 102.582031 107.019531 103.558594 107.019531 C 104.90625 107.019531 106.617188 107.957031 106.617188 110.269531 C 106.617188 111.648438 105.917969 113.894531 102.949219 113.894531 C 101.375 113.894531 99.765625 112.953125 99.667969 110.925781 M 81.121094 108.820312 C 81.121094 106.90625 81.375 103.542969 84.871094 103.542969 C 85.28125 103.542969 86.433594 103.699219 86.929688 104.195312 C 87.484375 104.738281 87.683594 105.035156 87.867188 106.101562 L 85.894531 106.097656 C 85.835938 105.53125 85.464844 105.132812 84.730469 105.132812 C 83.4375 105.132812 83.140625 106.605469 83.070312 107.914062 L 83.097656 107.941406 C 83.367188 107.574219 83.863281 107.101562 84.984375 107.101562 C 87.070312 107.101562 88.066406 108.710938 88.066406 110.214844 C 88.066406 112.414062 86.714844 113.894531 84.773438 113.894531 C 81.71875 113.894531 81.121094 111.335938 81.121094 108.820312 M 63.855469 113.625 C 64.070312 109.59375 66.597656 106.386719 67.453125 105.476562 L 62.433594 105.476562 L 62.476562 103.714844 L 69.582031 103.714844 L 69.582031 105.25 C 68.617188 106.300781 66.144531 109.28125 65.902344 113.625 Z M 43.925781 110.824219 C 43.925781 110.316406 43.925781 108.980469 45.460938 108.269531 C 44.667969 107.871094 44.238281 107.234375 44.238281 106.296875 C 44.238281 104.582031 45.617188 103.542969 47.378906 103.542969 C 49.464844 103.542969 50.574219 104.78125 50.574219 106.171875 C 50.574219 107.035156 50.21875 107.773438 49.410156 108.199219 C 50.375 108.683594 50.917969 109.320312 50.917969 110.628906 C 50.917969 111.90625 50.089844 113.894531 47.421875 113.894531 C 44.824219 113.894531 43.925781 112.203125 43.925781 110.824219 M 131.59375 62.507812 L 131.59375 43 L 121.378906 43 L 121.378906 46.292969 L 115.375 46.292969 L 115.375 59.210938 L 121.378906 59.210938 L 121.378906 64.894531 L 115.375 64.894531 L 115.375 77.816406 L 121.378906 77.816406 L 121.378906 83.5 L 115.375 83.5 L 115.375 96.421875 L 121.378906 96.421875 L 121.378906 102.105469 L 115.375 102.105469 L 115.375 115.023438 L 121.378906 115.023438 L 121.378906 120.511719 L 103.6875 120.511719 L 103.6875 115.023438 L 109.691406 115.023438 L 109.691406 102.105469 L 96.773438 102.105469 L 96.773438 115.023438 L 102.777344 115.023438 L 102.777344 120.511719 L 85.082031 120.511719 L 85.082031 115.023438 L 91.089844 115.023438 L 91.089844 102.105469 L 78.167969 102.105469 L 78.167969 115.023438 L 84.171875 115.023438 L 84.171875 120.511719 L 66.480469 120.511719 L 66.480469 115.023438 L 72.484375 115.023438 L 72.484375 102.105469 L 59.5625 102.105469 L 59.5625 115.023438 L 65.570312 115.023438 L 65.570312 120.511719 L 47.929688 120.511719 L 47.929688 115.023438 L 53.878906 115.023438 L 53.878906 102.105469 L 40.960938 102.105469 L 40.960938 115.023438 L 47.019531 115.023438 L 47.019531 121.421875 L 122.292969 121.421875 L 122.292969 115.023438 L 128.292969 115.023438 L 128.292969 102.105469 L 122.292969 102.105469 L 122.292969 96.421875 L 128.292969 96.421875 L 128.292969 83.5 L 122.292969 83.5 L 122.292969 77.816406 L 128.292969 77.816406 L 128.292969 64.894531 L 122.292969 64.894531 L 122.292969 62.507812 Z M 131.59375 62.507812 "/>
<path fill-rule="nonzero" fill="rgb(0%, 0%, 0%)" fill-opacity="1" d="M 47.394531 109.136719 C 46.667969 109.136719 45.976562 109.605469 45.976562 110.699219 C 45.976562 111.664062 46.527344 112.300781 47.4375 112.300781 C 48.472656 112.300781 48.871094 111.40625 48.871094 110.710938 C 48.871094 110.003906 48.5 109.136719 47.394531 109.136719 "/>
</svg>
