<?xml version="1.0" encoding="UTF-8"?>
<svg xmlns="http://www.w3.org/2000/svg" xmlns:xlink="http://www.w3.org/1999/xlink" width="172" height="152" viewBox="0 0 172 152">
<path fill-rule="nonzero" fill="rgb(0%, 0%, 0%)" fill-opacity="1" d="M 77.796875 139.570312 C 78.875 139.570312 79.117188 139.839844 79.117188 140.828125 L 79.117188 141.84375 C 79.117188 142.835938 78.875 143.078125 77.796875 143.078125 L 70.691406 143.078125 C 69.613281 143.078125 69.371094 142.863281 69.371094 141.84375 L 69.371094 140.828125 C 69.371094 139.839844 69.613281 139.570312 70.691406 139.570312 Z M 77.488281 134.074219 C 78.5625 134.074219 78.800781 134.34375 78.800781 135.34375 L 78.800781 136.046875 C 78.800781 137.050781 78.5625 137.320312 77.488281 137.320312 L 71.023438 137.320312 C 69.953125 137.320312 69.683594 137.050781 69.683594 136.046875 L 69.683594 135.34375 C 69.683594 134.34375 69.953125 134.074219 71.023438 134.074219 Z M 78.5625 131.710938 L 69.925781 131.710938 C 67.558594 131.710938 66.753906 132.21875 66.753906 134.425781 L 66.753906 135.695312 C 66.753906 137.320312 67.480469 138.015625 69.417969 138.390625 C 67.410156 138.605469 66.441406 139.464844 66.441406 141.148438 L 66.441406 142.59375 C 66.441406 144.746094 67.140625 145.578125 69.800781 145.578125 L 78.6875 145.578125 C 81.347656 145.578125 82.074219 144.746094 82.074219 142.59375 L 82.074219 141.148438 C 82.074219 139.464844 81.105469 138.605469 79.117188 138.390625 C 81.035156 138.015625 81.730469 137.320312 81.730469 135.695312 L 81.730469 134.425781 C 81.730469 132.21875 80.925781 131.710938 78.5625 131.710938 "/>
<path fill-rule="nonzero" fill="rgb(0%, 0%, 0%)" fill-opacity="1" d="M 91.574219 131.710938 L 98.710938 131.710938 C 101.074219 131.710938 101.882812 132.21875 101.882812 134.425781 L 101.882812 135.308594 C 101.882812 136.921875 101.398438 137.324219 100.054688 138.132812 L 91.914062 143.078125 L 99.972656 143.078125 L 99.972656 141.035156 L 102.53125 141.761719 L 102.53125 142.863281 C 102.53125 145.066406 101.726562 145.578125 99.382812 145.578125 L 87.707031 145.578125 L 87.707031 144.3125 C 87.707031 143.371094 87.816406 142.808594 89.453125 141.785156 L 99.058594 135.871094 L 99.058594 134.074219 L 91.144531 134.074219 L 91.144531 136.921875 L 88.40625 136.222656 L 88.40625 134.425781 C 88.40625 132.21875 89.210938 131.710938 91.574219 131.710938 "/>
<path fill-rule="nonzero" fill="rgb(0%, 0%, 0%)" fill-opacity="1" d="M 56.726562 107.628906 C 57.507812 107.628906 57.960938 107.105469 57.960938 106.382812 C 57.960938 105.617188 57.4375 105.132812 56.796875 105.132812 C 55.90625 105.132812 55.4375 105.644531 55.4375 106.382812 C 55.4375 106.976562 55.875 107.628906 56.726562 107.628906 "/>
<path fill-rule="nonzero" fill="rgb(0%, 0%, 0%)" fill-opacity="1" d="M 76.765625 91.78125 C 76.765625 90.503906 75.941406 90.09375 75.316406 90.09375 C 74.5625 90.09375 73.796875 90.558594 73.796875 91.824219 C 73.796875 92.917969 74.421875 93.699219 75.375 93.699219 C 76.097656 93.699219 76.765625 93.144531 76.765625 91.78125 "/>
<path fill-rule="nonzero" fill="rgb(0%, 0%, 0%)" fill-opacity="1" d="M 56.683594 109.136719 C 55.960938 109.136719 55.265625 109.605469 55.265625 110.695312 C 55.265625 111.660156 55.820312 112.300781 56.726562 112.300781 C 57.761719 112.300781 58.160156 111.40625 58.160156 110.710938 C 58.160156 110 57.792969 109.136719 56.683594 109.136719 "/>
<path fill-rule="nonzero" fill="rgb(0%, 0%, 0%)" fill-opacity="1" d="M 94.371094 105.519531 L 94.34375 105.519531 L 91.8125 109.835938 L 94.328125 109.835938 C 94.328125 107.402344 94.371094 105.832031 94.371094 105.519531 "/>
<path fill-rule="nonzero" fill="rgb(0%, 0%, 0%)" fill-opacity="1" d="M 111.949219 76.417969 L 111.949219 69.464844 L 109.546875 69.464844 L 109.546875 68.070312 L 109.832031 68.070312 C 111.75 68.070312 112.261719 67.082031 112.304688 66.332031 L 113.941406 66.332031 L 113.941406 76.417969 Z M 115.820312 88.117188 C 115.820312 89.851562 114.695312 90.730469 113.714844 91.398438 C 112.382812 92.335938 111.6875 92.789062 111.460938 93.253906 L 115.835938 93.253906 L 115.835938 95.019531 L 108.945312 95.019531 C 109.015625 93.839844 109.101562 92.605469 111.289062 91.011719 C 113.105469 89.695312 113.828125 89.183594 113.828125 88.050781 C 113.828125 87.382812 113.402344 86.613281 112.441406 86.613281 C 111.046875 86.613281 111.007812 87.765625 110.992188 88.503906 L 109.058594 88.503906 C 109.058594 85.222656 111.460938 84.9375 112.355469 84.9375 C 114.285156 84.9375 115.820312 86.074219 115.820312 88.117188 M 115.59375 106.355469 C 115.59375 107.375 114.953125 108.011719 114.382812 108.269531 L 114.382812 108.296875 C 114.738281 108.398438 115.90625 108.925781 115.90625 110.640625 C 115.90625 112.542969 114.496094 113.894531 112.46875 113.894531 C 111.515625 113.894531 108.957031 113.679688 108.957031 110.527344 L 110.90625 110.527344 L 110.890625 110.539062 C 110.890625 111.082031 111.035156 112.300781 112.367188 112.300781 C 113.160156 112.300781 113.855469 111.761719 113.855469 110.640625 C 113.855469 109.265625 112.523438 109.207031 111.59375 109.207031 L 111.59375 107.785156 L 111.914062 107.785156 C 112.507812 107.785156 113.601562 107.730469 113.601562 106.425781 C 113.601562 106.054688 113.433594 105.132812 112.339844 105.132812 C 110.976562 105.132812 110.976562 106.425781 110.976562 106.777344 L 109.128906 106.777344 C 109.128906 104.890625 110.195312 103.542969 112.46875 103.542969 C 113.816406 103.542969 115.59375 104.226562 115.59375 106.355469 M 112.070312 120.355469 L 94.375 120.355469 L 94.375 115.023438 L 100.378906 115.023438 L 100.378906 102.101562 L 94.375 102.101562 L 94.375 99.714844 L 112.070312 99.714844 L 112.070312 102.101562 L 106.0625 102.101562 L 106.0625 115.023438 L 112.070312 115.023438 Z M 90.347656 111.386719 L 90.347656 109.664062 L 94.058594 103.542969 L 96.320312 103.542969 L 96.320312 109.839844 L 97.441406 109.839844 L 97.441406 111.386719 L 96.320312 111.386719 L 96.320312 113.625 L 94.328125 113.625 L 94.328125 111.386719 Z M 112.980469 62.507812 L 121.371094 62.507812 L 121.371094 80.199219 L 112.980469 80.199219 L 112.980469 77.8125 L 118.984375 77.8125 L 118.984375 64.894531 L 112.980469 64.894531 Z M 73.144531 113.625 C 73.359375 109.59375 75.890625 106.386719 76.746094 105.476562 L 71.726562 105.476562 L 71.769531 103.710938 L 78.875 103.710938 L 78.875 105.25 C 77.910156 106.300781 75.4375 109.28125 75.195312 113.625 Z M 74.859375 120.355469 L 57.167969 120.355469 L 57.167969 115.023438 L 63.171875 115.023438 L 63.171875 102.101562 L 57.171875 102.101562 L 57.171875 99.714844 L 74.859375 99.714844 L 74.859375 102.101562 L 68.855469 102.101562 L 68.855469 115.023438 L 74.859375 115.023438 Z M 53.21875 110.824219 C 53.21875 110.3125 53.21875 108.980469 54.753906 108.269531 C 53.957031 107.871094 53.53125 107.230469 53.53125 106.296875 C 53.53125 104.578125 54.910156 103.542969 56.671875 103.542969 C 58.757812 103.542969 59.867188 104.777344 59.867188 106.171875 C 59.867188 107.035156 59.511719 107.773438 58.703125 108.199219 C 59.667969 108.683594 60.207031 109.320312 60.207031 110.628906 C 60.207031 111.902344 59.382812 113.894531 56.710938 113.894531 C 54.113281 113.894531 53.21875 112.203125 53.21875 110.824219 M 71.808594 90.21875 C 71.808594 88.300781 72.0625 84.9375 75.558594 84.9375 C 75.96875 84.9375 77.121094 85.09375 77.617188 85.59375 C 78.171875 86.132812 78.371094 86.433594 78.558594 87.492188 L 76.578125 87.492188 C 76.523438 86.929688 76.152344 86.53125 75.417969 86.53125 C 74.125 86.53125 73.828125 88.003906 73.757812 89.308594 L 73.785156 89.335938 C 74.054688 88.96875 74.550781 88.5 75.671875 88.5 C 77.757812 88.5 78.753906 90.105469 78.753906 91.609375 C 78.753906 93.8125 77.40625 95.289062 75.457031 95.289062 C 72.40625 95.289062 71.808594 92.730469 71.808594 90.21875 M 71.75 73.714844 L 73.742188 73.714844 C 73.824219 74.539062 74.265625 75.09375 75.144531 75.09375 C 76.097656 75.09375 76.648438 74.285156 76.648438 73.203125 C 76.648438 72.308594 76.226562 71.402344 75.175781 71.402344 C 74.90625 71.402344 74.226562 71.414062 73.839844 72.125 L 72.0625 72.039062 L 72.761719 66.507812 L 78.300781 66.507812 L 78.300781 68.183594 L 74.195312 68.183594 L 73.839844 70.363281 C 74.210938 70.105469 74.664062 69.808594 75.644531 69.808594 C 76.992188 69.808594 78.699219 70.746094 78.699219 73.0625 C 78.699219 74.441406 78.003906 76.6875 75.03125 76.6875 C 73.457031 76.6875 71.851562 75.746094 71.75 73.714844 M 122.28125 81.109375 L 122.28125 61.597656 L 112.070312 61.597656 L 112.070312 64.894531 L 106.0625 64.894531 L 106.0625 77.8125 L 112.070312 77.8125 L 112.070312 83.496094 L 106.0625 83.496094 L 106.0625 96.417969 L 112.070312 96.417969 L 112.070312 98.804688 L 93.464844 98.804688 L 93.464844 102.101562 L 87.457031 102.101562 L 87.457031 115.023438 L 93.464844 115.023438 L 93.464844 120.355469 L 75.769531 120.355469 L 75.769531 115.023438 L 81.773438 115.023438 L 81.773438 102.101562 L 75.769531 102.101562 L 75.769531 96.417969 L 81.773438 96.417969 L 81.773438 83.496094 L 75.769531 83.496094 L 75.769531 77.8125 L 81.773438 77.8125 L 81.773438 64.894531 L 68.855469 64.894531 L 68.855469 77.8125 L 74.859375 77.8125 L 74.859375 83.496094 L 68.855469 83.496094 L 68.855469 96.417969 L 74.859375 96.417969 L 74.859375 98.804688 L 56.261719 98.804688 L 56.257812 102.101562 L 50.25 102.101562 L 50.25 115.023438 L 56.257812 115.023438 L 56.253906 120.8125 L 56.253906 121.269531 L 112.980469 121.269531 L 112.980469 115.023438 L 118.984375 115.023438 L 118.984375 102.101562 L 112.980469 102.101562 L 112.980469 96.417969 L 118.984375 96.417969 L 118.984375 83.496094 L 112.980469 83.496094 L 112.980469 81.109375 Z M 122.28125 81.109375 "/>
</svg>
