<?xml version="1.0" encoding="UTF-8"?>
<svg xmlns="http://www.w3.org/2000/svg" xmlns:xlink="http://www.w3.org/1999/xlink" width="172" height="152" viewBox="0 0 172 152">
<path fill-rule="nonzero" fill="rgb(0%, 0%, 0%)" fill-opacity="1" d="M 70.796875 131.710938 L 77.9375 131.710938 C 80.300781 131.710938 81.105469 132.21875 81.105469 134.425781 L 81.105469 135.308594 C 81.105469 136.921875 80.621094 137.324219 79.28125 138.132812 L 71.140625 143.078125 L 79.199219 143.078125 L 79.199219 141.035156 L 81.757812 141.761719 L 81.757812 142.863281 C 81.757812 145.066406 80.949219 145.578125 78.609375 145.578125 L 66.9375 145.578125 L 66.9375 144.316406 C 66.9375 143.371094 67.039062 142.808594 68.679688 141.785156 L 78.285156 135.875 L 78.285156 134.074219 L 70.367188 134.074219 L 70.367188 136.921875 L 67.632812 136.226562 L 67.632812 134.425781 C 67.632812 132.21875 68.4375 131.710938 70.796875 131.710938 "/>
<path fill-rule="nonzero" fill="rgb(0%, 0%, 0%)" fill-opacity="1" d="M 87.605469 142.863281 L 87.605469 141.734375 L 90.457031 141.140625 L 90.457031 143.078125 L 97.917969 143.078125 C 98.992188 143.078125 99.261719 142.835938 99.261719 141.839844 L 99.261719 140.820312 C 99.261719 139.824219 98.992188 139.558594 97.914062 139.570312 L 93.230469 139.570312 L 93.230469 137.320312 L 97.402344 137.320312 C 98.476562 137.320312 98.71875 137.050781 98.71875 136.050781 L 98.71875 135.347656 C 98.71875 134.34375 98.476562 134.074219 97.402344 134.074219 L 90.539062 134.074219 L 90.539062 135.804688 L 87.808594 135.292969 L 87.808594 134.425781 C 87.808594 132.21875 88.613281 131.710938 90.972656 131.710938 L 98.476562 131.710938 C 100.84375 131.710938 101.648438 132.21875 101.648438 134.425781 L 101.648438 135.699219 C 101.648438 137.347656 100.949219 138.019531 98.964844 138.320312 C 101.167969 138.535156 102.1875 139.394531 102.1875 141.140625 L 102.1875 142.59375 C 102.1875 144.746094 101.492188 145.578125 98.832031 145.578125 L 90.777344 145.578125 C 88.414062 145.578125 87.605469 145.066406 87.605469 142.863281 "/>
<path fill-rule="nonzero" fill="rgb(0%, 0%, 0%)" fill-opacity="1" d="M 47.382812 109.136719 C 46.65625 109.136719 45.964844 109.605469 45.964844 110.699219 C 45.964844 111.664062 46.515625 112.300781 47.421875 112.300781 C 48.457031 112.300781 48.855469 111.40625 48.855469 110.710938 C 48.855469 110 48.488281 109.136719 47.382812 109.136719 "/>
<path fill-rule="nonzero" fill="rgb(0%, 0%, 0%)" fill-opacity="1" d="M 66.464844 68.3125 L 66.4375 68.3125 L 63.90625 72.628906 L 66.421875 72.628906 C 66.421875 70.195312 66.464844 68.625 66.464844 68.3125 "/>
<path fill-rule="nonzero" fill="rgb(0%, 0%, 0%)" fill-opacity="1" d="M 47.421875 107.628906 C 48.203125 107.628906 48.65625 107.105469 48.65625 106.382812 C 48.65625 105.617188 48.132812 105.132812 47.492188 105.132812 C 46.601562 105.132812 46.136719 105.644531 46.136719 106.382812 C 46.136719 106.976562 46.574219 107.628906 47.421875 107.628906 "/>
<path fill-rule="nonzero" fill="rgb(0%, 0%, 0%)" fill-opacity="1" d="M 123.238281 113.625 L 121.25 113.625 L 121.25 106.671875 L 118.847656 106.671875 L 118.847656 105.28125 L 119.132812 105.28125 C 121.050781 105.28125 121.5625 104.289062 121.605469 103.539062 L 123.238281 103.539062 Z M 99.640625 113.625 C 99.710938 112.441406 99.796875 111.207031 101.988281 109.617188 C 103.800781 108.300781 104.523438 107.789062 104.523438 106.652344 C 104.523438 105.984375 104.101562 105.21875 103.136719 105.21875 C 101.746094 105.21875 101.703125 106.371094 101.6875 107.105469 L 99.753906 107.105469 C 99.753906 103.828125 102.15625 103.542969 103.050781 103.542969 C 104.980469 103.542969 106.515625 104.679688 106.515625 106.722656 C 106.515625 108.457031 105.390625 109.335938 104.414062 110.003906 C 103.078125 110.9375 102.382812 111.394531 102.15625 111.859375 L 106.53125 111.859375 L 106.53125 113.625 Z M 62.503906 108.820312 C 62.503906 106.90625 62.761719 103.542969 66.257812 103.542969 C 66.667969 103.542969 67.816406 103.699219 68.3125 104.195312 C 68.867188 104.738281 69.066406 105.035156 69.253906 106.097656 L 67.277344 106.097656 C 67.21875 105.53125 66.847656 105.132812 66.113281 105.132812 C 64.820312 105.132812 64.523438 106.605469 64.453125 107.914062 L 64.480469 107.941406 C 64.753906 107.570312 65.246094 107.101562 66.367188 107.101562 C 68.457031 107.101562 69.453125 108.710938 69.453125 110.214844 C 69.453125 112.414062 68.101562 113.894531 66.15625 113.894531 C 63.101562 113.894531 62.503906 111.335938 62.503906 108.820312 M 62.445312 92.320312 L 64.4375 92.320312 C 64.523438 93.144531 64.964844 93.699219 65.84375 93.699219 C 66.792969 93.699219 67.347656 92.890625 67.347656 91.808594 C 67.347656 90.914062 66.921875 90.007812 65.871094 90.007812 C 65.601562 90.007812 64.921875 90.019531 64.539062 90.730469 L 62.761719 90.644531 L 63.457031 85.109375 L 68.996094 85.109375 L 68.996094 86.785156 L 64.890625 86.785156 L 64.539062 88.96875 C 64.90625 88.710938 65.359375 88.414062 66.339844 88.414062 C 67.6875 88.414062 69.394531 89.351562 69.394531 91.667969 C 69.394531 93.046875 68.699219 95.289062 65.726562 95.289062 C 64.152344 95.289062 62.546875 94.351562 62.445312 92.320312 M 62.441406 74.179688 L 62.441406 72.460938 L 66.152344 66.335938 L 68.414062 66.335938 L 68.414062 72.628906 L 69.535156 72.628906 L 69.535156 74.179688 L 68.414062 74.179688 L 68.414062 76.417969 L 66.421875 76.417969 L 66.421875 74.179688 Z M 43.914062 110.824219 C 43.914062 110.316406 43.914062 108.980469 45.453125 108.269531 C 44.652344 107.871094 44.226562 107.230469 44.226562 106.296875 C 44.226562 104.578125 45.605469 103.542969 47.367188 103.542969 C 49.453125 103.542969 50.5625 104.777344 50.5625 106.171875 C 50.5625 107.035156 50.207031 107.773438 49.398438 108.199219 C 50.363281 108.683594 50.90625 109.320312 50.90625 110.628906 C 50.90625 111.902344 50.078125 113.894531 47.410156 113.894531 C 44.808594 113.894531 43.914062 112.203125 43.914062 110.824219 M 45.238281 95.023438 C 45.453125 90.988281 47.980469 87.78125 48.835938 86.871094 L 43.816406 86.871094 L 43.859375 85.109375 L 50.96875 85.109375 L 50.96875 86.644531 C 50 87.695312 47.527344 90.675781 47.285156 95.023438 Z M 47.863281 81.121094 L 56.253906 81.121094 L 56.253906 98.804688 L 47.863281 98.804688 L 47.863281 96.417969 L 53.867188 96.417969 L 53.867188 83.496094 L 47.863281 83.496094 Z M 81.050781 73.320312 L 83 73.320312 L 82.984375 73.335938 C 82.984375 73.875 83.128906 75.09375 84.460938 75.09375 C 85.257812 75.09375 85.949219 74.554688 85.949219 73.433594 C 85.949219 72.058594 84.617188 72 83.683594 72 L 83.683594 70.578125 L 84.007812 70.578125 C 84.601562 70.578125 85.695312 70.523438 85.695312 69.21875 C 85.695312 68.851562 85.523438 67.925781 84.429688 67.925781 C 83.070312 67.925781 83.070312 69.21875 83.070312 69.570312 L 81.21875 69.570312 C 81.21875 67.683594 82.289062 66.335938 84.558594 66.335938 C 85.90625 66.335938 87.683594 67.019531 87.683594 69.148438 C 87.683594 70.167969 87.046875 70.804688 86.476562 71.0625 L 86.476562 71.089844 C 86.832031 71.191406 88 71.714844 88 73.433594 C 88 75.335938 86.589844 76.6875 84.558594 76.6875 C 83.609375 76.6875 81.050781 76.472656 81.050781 73.320312 M 115.363281 102.101562 L 115.363281 115.023438 L 121.367188 115.023438 L 121.367188 120.511719 L 103.675781 120.511719 L 103.675781 115.023438 L 109.679688 115.023438 L 109.679688 102.101562 L 96.757812 102.101562 L 96.757812 115.023438 L 102.761719 115.023438 L 102.761719 120.511719 L 66.46875 120.511719 L 66.46875 115.023438 L 72.472656 115.023438 L 72.472656 102.101562 L 66.46875 102.101562 L 66.46875 96.417969 L 72.472656 96.417969 L 72.472656 83.496094 L 66.46875 83.496094 L 66.46875 81.113281 L 85.070312 81.113281 L 85.070312 77.816406 L 91.078125 77.816406 L 91.078125 64.894531 L 78.15625 64.894531 L 78.15625 77.816406 L 84.160156 77.816406 L 84.160156 80.203125 L 66.46875 80.203125 L 66.46875 77.816406 L 72.472656 77.816406 L 72.472656 64.894531 L 59.550781 64.894531 L 59.550781 77.816406 L 65.554688 77.816406 L 65.554688 83.496094 L 59.550781 83.496094 L 59.550781 96.417969 L 65.554688 96.417969 L 65.554688 102.101562 L 59.550781 102.101562 L 59.550781 115.023438 L 65.554688 115.023438 L 65.554688 120.511719 L 47.863281 120.511719 L 47.863281 115.023438 L 53.867188 115.023438 L 53.867188 102.101562 L 47.863281 102.101562 L 47.863281 99.714844 L 57.167969 99.714844 L 57.167969 80.210938 L 46.953125 80.210938 L 46.953125 83.496094 L 40.945312 83.496094 L 40.945312 96.417969 L 46.953125 96.417969 L 46.953125 102.101562 L 40.945312 102.101562 L 40.945312 115.023438 L 46.953125 115.023438 L 46.953125 121.421875 L 122.28125 121.421875 L 122.28125 115.023438 L 128.28125 115.023438 L 128.28125 102.101562 Z M 115.363281 102.101562 "/>
<path fill-rule="nonzero" fill="rgb(0%, 0%, 0%)" fill-opacity="1" d="M 66.011719 108.695312 C 65.261719 108.695312 64.492188 109.164062 64.492188 110.425781 C 64.492188 111.519531 65.121094 112.304688 66.070312 112.304688 C 66.792969 112.304688 67.460938 111.75 67.460938 110.386719 C 67.460938 109.105469 66.640625 108.695312 66.011719 108.695312 "/>
</svg>
