<?xml version="1.0" encoding="UTF-8"?>
<svg xmlns="http://www.w3.org/2000/svg" xmlns:xlink="http://www.w3.org/1999/xlink" width="172" height="152" viewBox="0 0 172 152">
<path fill-rule="nonzero" fill="rgb(0%, 0%, 0%)" fill-opacity="1" d="M 66.835938 142.863281 L 66.835938 141.734375 L 69.6875 141.144531 L 69.6875 143.078125 L 77.148438 143.078125 C 78.222656 143.078125 78.488281 142.835938 78.488281 141.84375 L 78.488281 140.820312 C 78.488281 139.828125 78.222656 139.558594 77.140625 139.570312 L 72.460938 139.570312 L 72.460938 137.320312 L 76.632812 137.320312 C 77.707031 137.320312 77.945312 137.050781 77.945312 136.050781 L 77.945312 135.347656 C 77.945312 134.34375 77.707031 134.074219 76.632812 134.074219 L 69.773438 134.074219 L 69.773438 135.804688 L 67.035156 135.292969 L 67.035156 134.425781 C 67.035156 132.21875 67.839844 131.710938 70.199219 131.710938 L 77.707031 131.710938 C 80.070312 131.710938 80.875 132.21875 80.875 134.425781 L 80.875 135.699219 C 80.875 137.347656 80.179688 138.019531 78.191406 138.320312 C 80.398438 138.535156 81.417969 139.398438 81.417969 141.144531 L 81.417969 142.59375 C 81.417969 144.746094 80.722656 145.578125 78.0625 145.578125 L 70.007812 145.578125 C 67.644531 145.578125 66.835938 145.070312 66.835938 142.863281 "/>
<path fill-rule="nonzero" fill="rgb(0%, 0%, 0%)" fill-opacity="1" d="M 90.085938 134.074219 L 100 134.074219 L 100 143.078125 L 90.085938 143.078125 Z M 87.183594 134.988281 L 87.183594 142.300781 C 87.183594 144.855469 87.910156 145.578125 90.355469 145.578125 L 99.734375 145.578125 C 102.179688 145.578125 102.902344 144.855469 102.902344 142.300781 L 102.902344 134.988281 C 102.902344 132.4375 102.179688 131.710938 99.734375 131.710938 L 90.355469 131.710938 C 87.910156 131.710938 87.183594 132.4375 87.183594 134.988281 "/>
<path fill-rule="nonzero" fill="rgb(0%, 0%, 0%)" fill-opacity="1" d="M 56.714844 108.695312 C 55.960938 108.695312 55.195312 109.164062 55.195312 110.429688 C 55.195312 111.519531 55.820312 112.304688 56.769531 112.304688 C 57.492188 112.304688 58.160156 111.75 58.160156 110.386719 C 58.160156 109.109375 57.339844 108.695312 56.714844 108.695312 "/>
<path fill-rule="nonzero" fill="rgb(0%, 0%, 0%)" fill-opacity="1" d="M 132.542969 113.625 L 130.550781 113.625 L 130.550781 106.671875 L 128.152344 106.671875 L 128.152344 105.28125 L 128.4375 105.28125 C 130.355469 105.28125 130.863281 104.292969 130.90625 103.542969 L 132.542969 103.542969 Z M 108.941406 113.625 C 109.015625 112.441406 109.101562 111.210938 111.289062 109.617188 C 113.105469 108.300781 113.828125 107.789062 113.828125 106.65625 C 113.828125 105.988281 113.402344 105.21875 112.4375 105.21875 C 111.050781 105.21875 111.003906 106.371094 110.992188 107.109375 L 109.058594 107.109375 C 109.058594 103.828125 111.460938 103.542969 112.355469 103.542969 C 114.285156 103.542969 115.820312 104.679688 115.820312 106.726562 C 115.820312 108.457031 114.695312 109.335938 113.714844 110.003906 C 112.382812 110.9375 111.6875 111.394531 111.460938 111.859375 L 115.835938 111.859375 L 115.835938 113.625 Z M 90.347656 111.386719 L 90.347656 109.667969 L 94.058594 103.542969 L 96.316406 103.542969 L 96.316406 109.839844 L 97.441406 109.839844 L 97.441406 111.386719 L 96.316406 111.386719 L 96.316406 113.625 L 94.328125 113.625 L 94.328125 111.386719 Z M 93.464844 120.511719 L 75.769531 120.511719 L 75.769531 115.023438 L 81.773438 115.023438 L 81.773438 102.105469 L 75.769531 102.105469 L 75.769531 100.75 L 93.464844 100.75 L 93.464844 102.105469 L 87.457031 102.105469 L 87.457031 115.023438 L 93.464844 115.023438 Z M 71.75 110.925781 L 73.742188 110.925781 C 73.828125 111.75 74.265625 112.304688 75.144531 112.304688 C 76.097656 112.304688 76.648438 111.492188 76.648438 110.414062 C 76.648438 109.519531 76.226562 108.609375 75.175781 108.609375 C 74.90625 108.609375 74.222656 108.625 73.839844 109.335938 L 72.0625 109.25 L 72.761719 103.714844 L 78.300781 103.714844 L 78.300781 105.390625 L 74.195312 105.390625 L 73.839844 107.570312 C 74.210938 107.316406 74.664062 107.019531 75.644531 107.019531 C 76.988281 107.019531 78.695312 107.957031 78.695312 110.273438 C 78.695312 111.648438 78 113.894531 75.03125 113.894531 C 73.457031 113.894531 71.851562 112.957031 71.75 110.925781 M 74.859375 120.511719 L 57.167969 120.511719 L 57.167969 115.023438 L 63.171875 115.023438 L 63.171875 102.105469 L 57.167969 102.105469 L 57.167969 100.75 L 74.859375 100.75 L 74.859375 102.105469 L 68.855469 102.105469 L 68.855469 115.023438 L 74.859375 115.023438 Z M 53.203125 108.824219 C 53.203125 106.90625 53.457031 103.542969 56.953125 103.542969 C 57.363281 103.542969 58.515625 103.699219 59.015625 104.195312 C 59.566406 104.738281 59.769531 105.035156 59.953125 106.097656 L 57.976562 106.097656 C 57.917969 105.53125 57.550781 105.136719 56.8125 105.136719 C 55.519531 105.136719 55.222656 106.609375 55.152344 107.914062 L 55.183594 107.941406 C 55.449219 107.570312 55.945312 107.101562 57.066406 107.101562 C 59.15625 107.101562 60.152344 108.710938 60.152344 110.214844 C 60.152344 112.414062 58.800781 113.894531 56.855469 113.894531 C 53.800781 113.894531 53.203125 111.335938 53.203125 108.824219 M 71.75 91.925781 L 73.699219 91.925781 L 73.683594 91.9375 C 73.683594 92.480469 73.824219 93.699219 75.160156 93.699219 C 75.953125 93.699219 76.648438 93.160156 76.648438 92.039062 C 76.648438 90.664062 75.316406 90.605469 74.386719 90.605469 L 74.386719 89.183594 L 74.707031 89.183594 C 75.304688 89.183594 76.394531 89.125 76.394531 87.824219 C 76.394531 87.453125 76.222656 86.53125 75.132812 86.53125 C 73.769531 86.53125 73.769531 87.824219 73.769531 88.175781 L 71.921875 88.175781 C 71.921875 86.289062 72.988281 84.9375 75.257812 84.9375 C 76.605469 84.9375 78.386719 85.621094 78.386719 87.75 C 78.386719 88.773438 77.746094 89.410156 77.175781 89.667969 L 77.175781 89.695312 C 77.53125 89.796875 78.695312 90.320312 78.695312 92.039062 C 78.695312 93.941406 77.289062 95.292969 75.257812 95.292969 C 74.308594 95.292969 71.75 95.078125 71.75 91.925781 M 75.769531 81.113281 L 84.257812 81.121094 L 84.257812 97.769531 L 75.769531 97.769531 L 75.769531 96.421875 L 81.773438 96.421875 L 81.773438 83.5 L 75.769531 83.5 Z M 34.613281 110.824219 C 34.613281 110.316406 34.613281 108.980469 36.148438 108.269531 C 35.355469 107.871094 34.925781 107.230469 34.925781 106.296875 C 34.925781 104.578125 36.308594 103.542969 38.066406 103.542969 C 40.152344 103.542969 41.261719 104.78125 41.261719 106.171875 C 41.261719 107.035156 40.90625 107.773438 40.097656 108.199219 C 41.0625 108.683594 41.605469 109.320312 41.605469 110.628906 C 41.605469 111.90625 40.777344 113.894531 38.109375 113.894531 C 35.511719 113.894531 34.613281 112.203125 34.613281 110.824219 M 35.9375 95.023438 C 36.152344 90.992188 38.683594 87.78125 39.535156 86.871094 L 34.515625 86.871094 L 34.5625 85.109375 L 41.667969 85.109375 L 41.667969 86.648438 C 40.699219 87.695312 38.230469 90.675781 37.984375 95.023438 Z M 124.667969 102.105469 L 124.667969 115.023438 L 130.671875 115.023438 L 130.671875 120.511719 L 112.980469 120.511719 L 112.980469 115.023438 L 118.984375 115.023438 L 118.984375 102.105469 L 106.0625 102.105469 L 106.0625 115.023438 L 112.066406 115.023438 L 112.066406 120.511719 L 94.375 120.511719 L 94.375 115.023438 L 100.378906 115.023438 L 100.378906 102.105469 L 94.375 102.105469 L 94.375 99.839844 L 75.769531 99.839844 L 75.769531 98.683594 L 85.171875 98.683594 L 85.171875 80.210938 L 84.71875 80.210938 L 75.316406 80.203125 L 74.859375 80.203125 L 74.859375 83.5 L 68.855469 83.5 L 68.855469 96.421875 L 74.859375 96.421875 L 74.859375 99.839844 L 56.253906 99.839844 L 56.253906 102.105469 L 50.25 102.105469 L 50.25 115.023438 L 56.253906 115.023438 L 56.253906 120.511719 L 38.660156 120.511719 L 38.660156 115.023438 L 44.566406 115.023438 L 44.566406 102.105469 L 38.660156 102.105469 L 38.660156 96.421875 L 44.566406 96.421875 L 44.566406 83.5 L 31.648438 83.5 L 31.648438 96.421875 L 37.75 96.421875 L 37.75 102.105469 L 31.648438 102.105469 L 31.648438 115.023438 L 37.75 115.023438 L 37.75 121.421875 L 131.582031 121.421875 L 131.582031 115.023438 L 137.585938 115.023438 L 137.585938 102.105469 Z M 124.667969 102.105469 "/>
<path fill-rule="nonzero" fill="rgb(0%, 0%, 0%)" fill-opacity="1" d="M 94.371094 105.519531 L 94.34375 105.519531 L 91.8125 109.839844 L 94.328125 109.839844 C 94.328125 107.402344 94.371094 105.832031 94.371094 105.519531 "/>
<path fill-rule="nonzero" fill="rgb(0%, 0%, 0%)" fill-opacity="1" d="M 38.082031 109.136719 C 37.355469 109.136719 36.664062 109.605469 36.664062 110.699219 C 36.664062 111.664062 37.214844 112.300781 38.125 112.300781 C 39.15625 112.300781 39.554688 111.40625 39.554688 110.710938 C 39.554688 110.003906 39.1875 109.136719 38.082031 109.136719 "/>
<path fill-rule="nonzero" fill="rgb(0%, 0%, 0%)" fill-opacity="1" d="M 38.121094 107.628906 C 38.902344 107.628906 39.355469 107.105469 39.355469 106.382812 C 39.355469 105.617188 38.832031 105.136719 38.195312 105.136719 C 37.300781 105.136719 36.835938 105.648438 36.835938 106.382812 C 36.835938 106.980469 37.273438 107.628906 38.121094 107.628906 "/>
</svg>
