<?xml version="1.0" encoding="UTF-8"?>
<svg xmlns="http://www.w3.org/2000/svg" xmlns:xlink="http://www.w3.org/1999/xlink" width="172" height="152" viewBox="0 0 172 152">
<path fill-rule="nonzero" fill="rgb(0%, 0%, 0%)" fill-opacity="1" d="M 69.882812 139.324219 C 72 139.109375 74.066406 139 76.027344 139 C 78.363281 139 79.085938 139.296875 79.085938 140.664062 L 79.085938 141.414062 C 79.085938 142.648438 78.550781 143.078125 76.5625 143.078125 L 72.699219 143.078125 C 70.042969 143.078125 69.828125 142.542969 69.828125 140.128906 C 69.828125 139.914062 69.828125 139.644531 69.882812 139.324219 M 70.070312 137.230469 C 71.113281 134.292969 73.964844 133.648438 79.113281 133.648438 L 80 133.648438 L 78.09375 131.421875 C 77.773438 131.394531 77.421875 131.367188 77.101562 131.367188 C 70.605469 131.367188 66.867188 134.320312 66.867188 139.484375 L 66.867188 141.308594 C 66.867188 144.609375 67.996094 145.578125 71.4375 145.578125 L 77.289062 145.578125 C 80.511719 145.578125 82.042969 144.53125 82.042969 142.191406 L 82.042969 140.316406 C 82.042969 137.5 80.429688 136.753906 76.1875 136.753906 C 74.039062 136.753906 72 136.9375 70.070312 137.230469 "/>
<path fill-rule="nonzero" fill="rgb(0%, 0%, 0%)" fill-opacity="1" d="M 99.664062 137.941406 C 97.273438 138.179688 95.207031 138.289062 93.542969 138.289062 C 91.207031 138.289062 90.453125 137.992188 90.453125 136.570312 L 90.453125 135.792969 C 90.453125 134.503906 91.015625 134.074219 93.007812 134.074219 L 96.847656 134.074219 C 99.503906 134.074219 99.746094 134.609375 99.746094 137.109375 C 99.746094 137.324219 99.71875 137.617188 99.664062 137.941406 M 99.503906 140.054688 C 98.457031 142.996094 95.582031 143.644531 90.429688 143.644531 L 89.539062 143.644531 L 91.445312 145.871094 C 91.769531 145.894531 92.117188 145.894531 92.441406 145.894531 C 98.941406 145.894531 102.675781 142.96875 102.675781 137.804688 L 102.675781 135.980469 C 102.675781 132.675781 101.546875 131.710938 98.105469 131.710938 L 92.253906 131.710938 C 89.03125 131.710938 87.523438 132.757812 87.523438 135.09375 L 87.523438 136.945312 C 87.523438 139.761719 89.136719 140.511719 93.382812 140.511719 C 95.527344 140.511719 97.570312 140.351562 99.503906 140.054688 "/>
<path fill-rule="nonzero" fill="rgb(0%, 0%, 0%)" fill-opacity="1" d="M 75.285156 109.136719 C 74.5625 109.136719 73.867188 109.605469 73.867188 110.699219 C 73.867188 111.660156 74.421875 112.300781 75.332031 112.300781 C 76.363281 112.300781 76.761719 111.40625 76.761719 110.710938 C 76.761719 110 76.390625 109.136719 75.285156 109.136719 "/>
<path fill-rule="nonzero" fill="rgb(0%, 0%, 0%)" fill-opacity="1" d="M 94.328125 109.839844 C 94.328125 107.402344 94.367188 105.832031 94.367188 105.519531 L 94.339844 105.519531 L 91.808594 109.839844 Z M 94.328125 109.839844 "/>
<path fill-rule="nonzero" fill="rgb(0%, 0%, 0%)" fill-opacity="1" d="M 75.332031 107.628906 C 76.109375 107.628906 76.5625 107.105469 76.5625 106.382812 C 76.5625 105.617188 76.035156 105.132812 75.398438 105.132812 C 74.507812 105.132812 74.035156 105.644531 74.035156 106.382812 C 74.035156 106.976562 74.476562 107.628906 75.332031 107.628906 "/>
<path fill-rule="nonzero" fill="rgb(0%, 0%, 0%)" fill-opacity="1" d="M 102.761719 61.597656 L 94.371094 61.597656 L 94.371094 59.210938 L 100.375 59.210938 L 100.375 46.289062 L 94.371094 46.289062 L 94.371094 43.90625 L 102.761719 43.90625 Z M 93.34375 57.8125 L 93.34375 50.863281 L 90.941406 50.863281 L 90.941406 49.46875 L 91.226562 49.46875 C 93.144531 49.46875 93.65625 48.480469 93.699219 47.730469 L 95.332031 47.730469 L 95.332031 57.8125 Z M 97.214844 69.519531 C 97.214844 71.246094 96.089844 72.128906 95.109375 72.792969 C 93.777344 73.730469 93.082031 74.183594 92.855469 74.652344 L 97.230469 74.652344 L 97.230469 76.414062 L 90.335938 76.414062 C 90.410156 75.238281 90.492188 74 92.683594 72.410156 C 94.5 71.089844 95.222656 70.578125 95.222656 69.445312 C 95.222656 68.777344 94.796875 68.011719 93.832031 68.011719 C 92.441406 68.011719 92.402344 69.160156 92.386719 69.902344 L 90.453125 69.902344 C 90.453125 66.621094 92.855469 66.332031 93.746094 66.332031 C 95.679688 66.332031 97.214844 67.472656 97.214844 69.519531 M 96.984375 87.75 C 96.984375 88.769531 96.34375 89.410156 95.777344 89.664062 L 95.777344 89.695312 C 96.132812 89.792969 97.300781 90.320312 97.300781 92.035156 C 97.300781 93.9375 95.890625 95.289062 93.863281 95.289062 C 92.910156 95.289062 90.351562 95.078125 90.351562 91.925781 L 92.300781 91.925781 L 92.285156 91.941406 C 92.285156 92.476562 92.425781 93.699219 93.761719 93.699219 C 94.554688 93.699219 95.25 93.160156 95.25 92.035156 C 95.25 90.660156 93.917969 90.605469 92.988281 90.605469 L 92.988281 89.183594 L 93.308594 89.183594 C 93.902344 89.183594 94.996094 89.125 94.996094 87.820312 C 94.996094 87.453125 94.824219 86.53125 93.734375 86.53125 C 92.371094 86.53125 92.371094 87.820312 92.371094 88.175781 L 90.523438 88.175781 C 90.523438 86.289062 91.589844 84.9375 93.863281 84.9375 C 95.207031 84.9375 96.984375 85.621094 96.984375 87.75 M 96.316406 103.539062 L 96.316406 109.835938 L 97.441406 109.835938 L 97.441406 111.386719 L 96.316406 111.386719 L 96.316406 113.625 L 94.324219 113.625 L 94.324219 111.386719 L 90.347656 111.386719 L 90.347656 109.667969 L 94.054688 103.539062 Z M 71.820312 110.828125 C 71.820312 110.316406 71.820312 108.980469 73.355469 108.269531 C 72.558594 107.871094 72.132812 107.234375 72.132812 106.296875 C 72.132812 104.578125 73.511719 103.539062 75.273438 103.539062 C 77.359375 103.539062 78.464844 104.777344 78.464844 106.167969 C 78.464844 107.035156 78.113281 107.773438 77.300781 108.199219 C 78.269531 108.683594 78.808594 109.324219 78.808594 110.625 C 78.808594 111.902344 77.984375 113.894531 75.316406 113.894531 C 72.714844 113.894531 71.820312 112.203125 71.820312 110.828125 M 73.144531 95.023438 C 73.359375 90.988281 75.890625 87.78125 76.742188 86.871094 L 71.722656 86.871094 L 71.765625 85.109375 L 78.871094 85.109375 L 78.871094 86.644531 C 77.90625 87.695312 75.433594 90.675781 75.191406 95.023438 Z M 71.804688 71.617188 C 71.804688 69.699219 72.0625 66.332031 75.554688 66.332031 C 75.96875 66.332031 77.117188 66.492188 77.613281 66.988281 C 78.167969 67.53125 78.367188 67.828125 78.554688 68.890625 L 76.574219 68.890625 C 76.519531 68.324219 76.152344 67.925781 75.414062 67.925781 C 74.121094 67.925781 73.824219 69.398438 73.753906 70.707031 L 73.78125 70.734375 C 74.050781 70.367188 74.546875 69.894531 75.667969 69.894531 C 77.757812 69.894531 78.753906 71.5 78.753906 73.007812 C 78.753906 75.207031 77.402344 76.6875 75.453125 76.6875 C 72.402344 76.6875 71.804688 74.128906 71.804688 71.617188 M 71.75 55.113281 L 73.738281 55.113281 C 73.824219 55.9375 74.265625 56.488281 75.144531 56.488281 C 76.09375 56.488281 76.648438 55.683594 76.648438 54.601562 C 76.648438 53.707031 76.222656 52.796875 75.171875 52.796875 C 74.902344 52.796875 74.222656 52.8125 73.839844 53.523438 L 72.0625 53.4375 L 72.757812 47.902344 L 78.296875 47.902344 L 78.296875 49.578125 L 74.191406 49.578125 L 73.839844 51.761719 C 74.207031 51.503906 74.660156 51.207031 75.640625 51.207031 C 76.988281 51.207031 78.695312 52.144531 78.695312 54.460938 C 78.695312 55.835938 78 58.082031 75.03125 58.082031 C 73.457031 58.082031 71.847656 57.144531 71.75 55.113281 M 93.460938 42.992188 L 93.460938 46.289062 L 87.457031 46.289062 L 87.457031 59.210938 L 93.460938 59.210938 L 93.460938 64.894531 L 87.457031 64.894531 L 87.457031 77.816406 L 93.460938 77.816406 L 93.460938 83.5 L 87.457031 83.5 L 87.457031 96.417969 L 93.460938 96.417969 L 93.460938 102.101562 L 87.457031 102.101562 L 87.457031 115.023438 L 93.460938 115.023438 L 93.460938 120.519531 L 75.769531 120.519531 L 75.769531 115.023438 L 81.773438 115.023438 L 81.773438 102.101562 L 75.769531 102.101562 L 75.769531 96.417969 L 81.773438 96.417969 L 81.773438 83.5 L 75.769531 83.5 L 75.769531 77.816406 L 81.773438 77.816406 L 81.773438 64.894531 L 75.769531 64.894531 L 75.769531 59.210938 L 81.773438 59.210938 L 81.773438 46.289062 L 68.855469 46.289062 L 68.855469 59.210938 L 74.859375 59.210938 L 74.859375 64.894531 L 68.855469 64.894531 L 68.855469 77.816406 L 74.859375 77.816406 L 74.859375 83.5 L 68.855469 83.5 L 68.855469 96.417969 L 74.859375 96.417969 L 74.859375 102.101562 L 68.855469 102.101562 L 68.855469 115.023438 L 74.859375 115.023438 L 74.859375 121.433594 L 94.371094 121.433594 L 94.371094 115.023438 L 100.375 115.023438 L 100.375 102.101562 L 94.371094 102.101562 L 94.371094 96.417969 L 100.375 96.417969 L 100.375 83.5 L 94.371094 83.5 L 94.371094 77.816406 L 100.375 77.816406 L 100.375 64.894531 L 94.371094 64.894531 L 94.371094 62.507812 L 103.675781 62.507812 L 103.675781 42.992188 Z M 93.460938 42.992188 "/>
<path fill-rule="nonzero" fill="rgb(0%, 0%, 0%)" fill-opacity="1" d="M 76.761719 73.175781 C 76.761719 71.898438 75.9375 71.488281 75.316406 71.488281 C 74.5625 71.488281 73.796875 71.957031 73.796875 73.21875 C 73.796875 74.3125 74.417969 75.09375 75.371094 75.09375 C 76.09375 75.09375 76.761719 74.539062 76.761719 73.175781 "/>
</svg>
