<?xml version="1.0" encoding="UTF-8"?>
<svg xmlns="http://www.w3.org/2000/svg" xmlns:xlink="http://www.w3.org/1999/xlink" width="172" height="152" viewBox="0 0 172 152">
<path fill-rule="nonzero" fill="rgb(0%, 0%, 0%)" fill-opacity="1" d="M 68.140625 131.710938 L 80.128906 131.710938 L 79.886719 134.070312 L 70.210938 134.070312 L 69.890625 136.761719 C 72.011719 136.546875 73.867188 136.410156 75.503906 136.410156 C 80.074219 136.410156 82.386719 137.96875 82.386719 141.117188 C 82.386719 144.484375 79.9375 145.777344 74.75 145.777344 C 71.769531 145.777344 69.539062 145.5625 68.0625 145.214844 L 67.363281 142.519531 C 69.890625 142.980469 72.308594 143.246094 74.671875 143.246094 C 77.953125 143.246094 79.402344 142.707031 79.402344 140.984375 C 79.402344 139.339844 77.921875 138.828125 74.859375 138.828125 C 72.953125 138.828125 70.453125 138.992188 67.363281 139.394531 L 68.140625 131.710938 "/>
<path fill-rule="nonzero" fill="rgb(0%, 0%, 0%)" fill-opacity="1" d="M 91.570312 131.710938 L 98.707031 131.710938 C 101.074219 131.710938 101.882812 132.21875 101.882812 134.421875 L 101.882812 135.3125 C 101.882812 136.921875 101.394531 137.324219 100.054688 138.132812 L 91.914062 143.074219 L 99.972656 143.074219 L 99.972656 141.035156 L 102.53125 141.761719 L 102.53125 142.859375 C 102.53125 145.066406 101.722656 145.578125 99.382812 145.578125 L 87.707031 145.578125 L 87.707031 144.3125 C 87.707031 143.371094 87.816406 142.808594 89.453125 141.785156 L 99.058594 135.875 L 99.058594 134.070312 L 91.140625 134.070312 L 91.140625 136.921875 L 88.40625 136.222656 L 88.40625 134.421875 C 88.40625 132.21875 89.210938 131.710938 91.570312 131.710938 "/>
<path fill-rule="nonzero" fill="rgb(0%, 0%, 0%)" fill-opacity="1" d="M 39.554688 73.175781 C 39.554688 71.898438 38.730469 71.488281 38.109375 71.488281 C 37.355469 71.488281 36.589844 71.953125 36.589844 73.21875 C 36.589844 74.3125 37.214844 75.09375 38.164062 75.09375 C 38.890625 75.09375 39.554688 74.539062 39.554688 73.175781 "/>
<path fill-rule="nonzero" fill="rgb(0%, 0%, 0%)" fill-opacity="1" d="M 56.726562 107.628906 C 57.503906 107.628906 57.960938 107.105469 57.960938 106.382812 C 57.960938 105.617188 57.4375 105.132812 56.796875 105.132812 C 55.902344 105.132812 55.4375 105.644531 55.4375 106.382812 C 55.4375 106.980469 55.875 107.628906 56.726562 107.628906 "/>
<path fill-rule="nonzero" fill="rgb(0%, 0%, 0%)" fill-opacity="1" d="M 75.765625 86.914062 L 75.738281 86.914062 L 73.207031 91.230469 L 75.722656 91.230469 C 75.722656 88.796875 75.765625 87.226562 75.765625 86.914062 "/>
<path fill-rule="nonzero" fill="rgb(0%, 0%, 0%)" fill-opacity="1" d="M 56.683594 109.136719 C 55.960938 109.136719 55.265625 109.605469 55.265625 110.699219 C 55.265625 111.660156 55.820312 112.300781 56.726562 112.300781 C 57.761719 112.300781 58.160156 111.40625 58.160156 110.710938 C 58.160156 110.003906 57.789062 109.136719 56.683594 109.136719 "/>
<path fill-rule="nonzero" fill="rgb(0%, 0%, 0%)" fill-opacity="1" d="M 132.542969 113.625 L 130.550781 113.625 L 130.550781 106.671875 L 128.152344 106.671875 L 128.152344 105.277344 L 128.433594 105.277344 C 130.355469 105.277344 130.863281 104.289062 130.90625 103.539062 L 132.542969 103.539062 Z M 108.941406 113.621094 C 109.015625 112.441406 109.101562 111.207031 111.289062 109.617188 C 113.105469 108.296875 113.828125 107.785156 113.828125 106.652344 C 113.828125 105.984375 113.402344 105.21875 112.4375 105.21875 C 111.046875 105.21875 111.003906 106.367188 110.992188 107.105469 L 109.058594 107.105469 C 109.058594 103.824219 111.460938 103.542969 112.351562 103.542969 C 114.28125 103.542969 115.820312 104.679688 115.820312 106.722656 C 115.820312 108.453125 114.695312 109.335938 113.714844 110 C 112.382812 110.9375 111.683594 111.390625 111.460938 111.859375 L 115.832031 111.859375 L 115.832031 113.621094 Z M 53.21875 110.824219 C 53.21875 110.3125 53.21875 108.980469 54.753906 108.269531 C 53.957031 107.871094 53.53125 107.230469 53.53125 106.296875 C 53.53125 104.582031 54.910156 103.542969 56.667969 103.542969 C 58.757812 103.542969 59.867188 104.777344 59.867188 106.167969 C 59.867188 107.03125 59.507812 107.769531 58.699219 108.199219 C 59.667969 108.679688 60.207031 109.320312 60.207031 110.625 C 60.207031 111.902344 59.382812 113.894531 56.710938 113.894531 C 54.113281 113.894531 53.21875 112.199219 53.21875 110.824219 M 53.148438 92.320312 L 55.136719 92.320312 C 55.222656 93.144531 55.664062 93.695312 56.539062 93.695312 C 57.492188 93.695312 58.046875 92.886719 58.046875 91.808594 C 58.046875 90.914062 57.621094 90.007812 56.570312 90.007812 C 56.300781 90.007812 55.621094 90.019531 55.234375 90.730469 L 53.460938 90.644531 L 54.15625 85.109375 L 59.695312 85.109375 L 59.695312 86.785156 L 55.589844 86.785156 L 55.234375 88.96875 C 55.605469 88.714844 56.058594 88.414062 57.035156 88.414062 C 58.386719 88.414062 60.09375 89.351562 60.09375 91.664062 C 60.09375 93.046875 59.394531 95.289062 56.429688 95.289062 C 54.851562 95.289062 53.246094 94.351562 53.148438 92.320312 M 35.9375 95.019531 C 36.148438 90.988281 38.683594 87.78125 39.535156 86.871094 L 34.515625 86.871094 L 34.558594 85.109375 L 41.667969 85.109375 L 41.667969 86.644531 C 40.699219 87.695312 38.230469 90.675781 37.984375 95.019531 Z M 34.597656 71.613281 C 34.597656 69.699219 34.855469 66.335938 38.347656 66.335938 C 38.761719 66.335938 39.910156 66.492188 40.410156 66.988281 C 40.964844 67.527344 41.160156 67.828125 41.347656 68.890625 L 39.371094 68.890625 C 39.316406 68.320312 38.945312 67.925781 38.207031 67.925781 C 36.914062 67.925781 36.617188 69.398438 36.546875 70.703125 L 36.578125 70.734375 C 36.84375 70.363281 37.34375 69.894531 38.460938 69.894531 C 40.550781 69.894531 41.546875 71.5 41.546875 73.007812 C 41.546875 75.207031 40.195312 76.6875 38.25 76.6875 C 35.195312 76.6875 34.597656 74.128906 34.597656 71.613281 M 71.742188 92.78125 L 71.742188 91.0625 L 75.453125 84.9375 L 77.714844 84.9375 L 77.714844 91.230469 L 78.835938 91.230469 L 78.835938 92.78125 L 77.714844 92.78125 L 77.714844 95.019531 L 75.722656 95.019531 L 75.722656 92.78125 Z M 90.355469 91.925781 L 92.300781 91.925781 L 92.289062 91.9375 C 92.289062 92.476562 92.429688 93.695312 93.761719 93.695312 C 94.558594 93.695312 95.253906 93.15625 95.253906 92.035156 C 95.253906 90.660156 93.917969 90.605469 92.988281 90.605469 L 92.988281 89.183594 L 93.308594 89.183594 C 93.90625 89.183594 94.996094 89.125 94.996094 87.820312 C 94.996094 87.449219 94.824219 86.53125 93.734375 86.53125 C 92.375 86.53125 92.375 87.820312 92.375 88.175781 L 90.523438 88.175781 C 90.523438 86.289062 91.589844 84.9375 93.863281 84.9375 C 95.210938 84.9375 96.988281 85.621094 96.988281 87.75 C 96.988281 88.769531 96.347656 89.410156 95.777344 89.664062 L 95.777344 89.691406 C 96.132812 89.792969 97.300781 90.320312 97.300781 92.035156 C 97.300781 93.9375 95.894531 95.289062 93.863281 95.289062 C 92.910156 95.289062 90.355469 95.078125 90.355469 91.925781 M 94.375 81.113281 L 102.761719 81.113281 L 102.761719 97.769531 L 94.375 97.769531 L 94.375 96.417969 L 100.378906 96.417969 L 100.378906 83.5 L 94.375 83.5 Z M 124.667969 102.105469 L 124.667969 115.019531 L 130.671875 115.019531 L 130.671875 120.507812 L 112.976562 120.507812 L 112.976562 115.019531 L 118.980469 115.019531 L 118.980469 102.105469 L 106.0625 102.105469 L 106.0625 115.019531 L 112.066406 115.019531 L 112.066406 120.507812 L 57.167969 120.507812 L 57.167969 115.019531 L 63.171875 115.019531 L 63.171875 102.105469 L 57.167969 102.105469 L 57.167969 100.75 L 94.375 100.75 L 94.375 98.683594 L 103.675781 98.683594 L 103.675781 80.199219 L 93.460938 80.199219 L 93.460938 83.5 L 87.460938 83.5 L 87.460938 96.417969 L 93.460938 96.417969 L 93.460938 99.839844 L 75.769531 99.839844 L 75.769531 96.417969 L 81.773438 96.417969 L 81.773438 83.5 L 68.855469 83.5 L 68.855469 96.417969 L 74.859375 96.417969 L 74.859375 99.839844 L 57.167969 99.839844 L 57.167969 96.417969 L 63.171875 96.417969 L 63.171875 83.5 L 50.25 83.5 L 50.25 96.417969 L 56.253906 96.417969 L 56.253906 99.839844 L 38.5625 99.839844 L 38.5625 96.417969 L 44.566406 96.417969 L 44.566406 83.5 L 38.5625 83.5 L 38.5625 77.8125 L 44.566406 77.8125 L 44.566406 64.894531 L 31.648438 64.894531 L 31.648438 77.8125 L 37.648438 77.8125 L 37.648438 83.5 L 31.648438 83.5 L 31.648438 96.417969 L 37.648438 96.417969 L 37.648438 100.75 L 56.253906 100.75 L 56.253906 102.105469 L 50.25 102.105469 L 50.25 115.019531 L 56.253906 115.019531 L 56.253906 121.421875 L 131.582031 121.421875 L 131.582031 115.019531 L 137.585938 115.019531 L 137.585938 102.105469 Z M 124.667969 102.105469 "/>
</svg>
