<?xml version="1.0" encoding="UTF-8"?>
<svg xmlns="http://www.w3.org/2000/svg" xmlns:xlink="http://www.w3.org/1999/xlink" width="172" height="152" viewBox="0 0 172 152">
<path fill-rule="nonzero" fill="rgb(0%, 0%, 0%)" fill-opacity="1" d="M 70.800781 131.710938 L 77.9375 131.710938 C 80.304688 131.710938 81.109375 132.21875 81.109375 134.425781 L 81.109375 135.308594 C 81.109375 136.921875 80.625 137.324219 79.285156 138.132812 L 71.140625 143.078125 L 79.203125 143.078125 L 79.203125 141.035156 L 81.761719 141.761719 L 81.761719 142.863281 C 81.761719 145.066406 80.953125 145.578125 78.613281 145.578125 L 66.9375 145.578125 L 66.9375 144.316406 C 66.9375 143.375 67.042969 142.808594 68.679688 141.789062 L 78.289062 135.875 L 78.289062 134.074219 L 70.367188 134.074219 L 70.367188 136.921875 L 67.636719 136.226562 L 67.636719 134.425781 C 67.636719 132.21875 68.4375 131.710938 70.800781 131.710938 "/>
<path fill-rule="nonzero" fill="rgb(0%, 0%, 0%)" fill-opacity="1" d="M 99.664062 137.941406 C 97.273438 138.183594 95.207031 138.289062 93.542969 138.289062 C 91.207031 138.289062 90.457031 137.996094 90.457031 136.570312 L 90.457031 135.792969 C 90.457031 134.503906 91.019531 134.074219 93.007812 134.074219 L 96.847656 134.074219 C 99.507812 134.074219 99.746094 134.613281 99.746094 137.109375 C 99.746094 137.324219 99.71875 137.617188 99.664062 137.941406 M 99.507812 140.054688 C 98.457031 142.996094 95.585938 143.644531 90.429688 143.644531 L 89.542969 143.644531 L 91.449219 145.867188 C 91.769531 145.894531 92.121094 145.894531 92.441406 145.894531 C 98.941406 145.894531 102.675781 142.96875 102.675781 137.808594 L 102.675781 135.980469 C 102.675781 132.675781 101.546875 131.710938 98.109375 131.710938 L 92.253906 131.710938 C 89.03125 131.710938 87.527344 132.757812 87.527344 135.09375 L 87.527344 136.945312 C 87.527344 139.761719 89.140625 140.511719 93.382812 140.511719 C 95.53125 140.511719 97.570312 140.351562 99.507812 140.054688 "/>
<path fill-rule="nonzero" fill="rgb(0%, 0%, 0%)" fill-opacity="1" d="M 38.082031 109.136719 C 37.355469 109.136719 36.664062 109.605469 36.664062 110.699219 C 36.664062 111.664062 37.214844 112.300781 38.125 112.300781 C 39.15625 112.300781 39.554688 111.40625 39.554688 110.710938 C 39.554688 110.003906 39.1875 109.136719 38.082031 109.136719 "/>
<path fill-rule="nonzero" fill="rgb(0%, 0%, 0%)" fill-opacity="1" d="M 58.160156 91.78125 C 58.160156 90.503906 57.335938 90.09375 56.714844 90.09375 C 55.960938 90.09375 55.195312 90.558594 55.195312 91.824219 C 55.195312 92.917969 55.820312 93.699219 56.769531 93.699219 C 57.492188 93.699219 58.160156 93.144531 58.160156 91.78125 "/>
<path fill-rule="nonzero" fill="rgb(0%, 0%, 0%)" fill-opacity="1" d="M 38.125 107.628906 C 38.902344 107.628906 39.355469 107.105469 39.355469 106.382812 C 39.355469 105.617188 38.832031 105.136719 38.195312 105.136719 C 37.300781 105.136719 36.835938 105.648438 36.835938 106.382812 C 36.835938 106.980469 37.273438 107.628906 38.125 107.628906 "/>
<path fill-rule="nonzero" fill="rgb(0%, 0%, 0%)" fill-opacity="1" d="M 132.542969 113.625 L 130.550781 113.625 L 130.550781 106.671875 L 128.152344 106.671875 L 128.152344 105.28125 L 128.4375 105.28125 C 130.355469 105.28125 130.863281 104.292969 130.910156 103.542969 L 132.542969 103.542969 Z M 108.941406 113.625 C 109.015625 112.441406 109.101562 111.210938 111.289062 109.617188 C 113.105469 108.300781 113.828125 107.789062 113.828125 106.65625 C 113.828125 105.988281 113.402344 105.21875 112.4375 105.21875 C 111.050781 105.21875 111.003906 106.371094 110.992188 107.109375 L 109.058594 107.109375 C 109.058594 103.828125 111.460938 103.542969 112.355469 103.542969 C 114.285156 103.542969 115.820312 104.679688 115.820312 106.726562 C 115.820312 108.457031 114.695312 109.335938 113.714844 110.003906 C 112.382812 110.9375 111.6875 111.394531 111.460938 111.859375 L 115.832031 111.859375 L 115.832031 113.625 Z M 90.347656 111.386719 L 90.347656 109.667969 L 94.058594 103.542969 L 96.316406 103.542969 L 96.316406 109.839844 L 97.441406 109.839844 L 97.441406 111.386719 L 96.316406 111.386719 L 96.316406 113.625 L 94.328125 113.625 L 94.328125 111.386719 Z M 93.464844 120.511719 L 75.769531 120.511719 L 75.769531 115.023438 L 81.773438 115.023438 L 81.773438 102.105469 L 75.769531 102.105469 L 75.769531 100.75 L 93.464844 100.75 L 93.464844 102.105469 L 87.460938 102.105469 L 87.460938 115.023438 L 93.464844 115.023438 Z M 71.75 110.925781 L 73.742188 110.925781 C 73.828125 111.75 74.265625 112.304688 75.144531 112.304688 C 76.097656 112.304688 76.648438 111.492188 76.648438 110.414062 C 76.648438 109.519531 76.226562 108.609375 75.175781 108.609375 C 74.90625 108.609375 74.226562 108.625 73.839844 109.335938 L 72.0625 109.25 L 72.761719 103.714844 L 78.300781 103.714844 L 78.300781 105.390625 L 74.195312 105.390625 L 73.839844 107.570312 C 74.210938 107.316406 74.664062 107.019531 75.644531 107.019531 C 76.988281 107.019531 78.699219 107.957031 78.699219 110.273438 C 78.699219 111.648438 78 113.894531 75.03125 113.894531 C 73.457031 113.894531 71.851562 112.957031 71.75 110.925781 M 90.355469 91.925781 L 92.304688 91.925781 L 92.289062 91.9375 C 92.289062 92.480469 92.429688 93.699219 93.765625 93.699219 C 94.558594 93.699219 95.253906 93.160156 95.253906 92.039062 C 95.253906 90.664062 93.917969 90.605469 92.988281 90.605469 L 92.988281 89.183594 L 93.3125 89.183594 C 93.90625 89.183594 94.996094 89.125 94.996094 87.824219 C 94.996094 87.453125 94.828125 86.53125 93.734375 86.53125 C 92.371094 86.53125 92.371094 87.824219 92.371094 88.175781 L 90.523438 88.175781 C 90.523438 86.289062 91.59375 84.9375 93.863281 84.9375 C 95.210938 84.9375 96.988281 85.621094 96.988281 87.75 C 96.988281 88.773438 96.351562 89.410156 95.78125 89.667969 L 95.78125 89.695312 C 96.136719 89.796875 97.300781 90.320312 97.300781 92.039062 C 97.300781 93.941406 95.894531 95.292969 93.863281 95.292969 C 92.914062 95.292969 90.355469 95.078125 90.355469 91.925781 M 54.542969 113.625 C 54.757812 109.59375 57.285156 106.386719 58.140625 105.476562 L 53.121094 105.476562 L 53.164062 103.714844 L 60.273438 103.714844 L 60.273438 105.25 C 59.304688 106.300781 56.832031 109.28125 56.589844 113.625 Z M 56.257812 120.511719 L 38.660156 120.511719 L 38.660156 115.023438 L 44.566406 115.023438 L 44.566406 102.105469 L 38.660156 102.105469 L 38.660156 100.75 L 56.257812 100.75 L 56.257812 102.105469 L 50.25 102.105469 L 50.25 115.023438 L 56.257812 115.023438 Z M 34.613281 110.824219 C 34.613281 110.316406 34.613281 108.980469 36.148438 108.269531 C 35.355469 107.871094 34.925781 107.230469 34.925781 106.296875 C 34.925781 104.578125 36.308594 103.542969 38.066406 103.542969 C 40.152344 103.542969 41.261719 104.78125 41.261719 106.171875 C 41.261719 107.035156 40.90625 107.773438 40.097656 108.199219 C 41.0625 108.683594 41.605469 109.320312 41.605469 110.628906 C 41.605469 111.90625 40.777344 113.894531 38.109375 113.894531 C 35.511719 113.894531 34.613281 112.203125 34.613281 110.824219 M 53.203125 90.21875 C 53.203125 88.304688 53.460938 84.9375 56.953125 84.9375 C 57.363281 84.9375 58.515625 85.09375 59.015625 85.59375 C 59.566406 86.132812 59.769531 86.433594 59.953125 87.496094 L 57.976562 87.492188 C 57.917969 86.929688 57.550781 86.53125 56.8125 86.53125 C 55.523438 86.53125 55.222656 88.003906 55.152344 89.308594 L 55.183594 89.339844 C 55.449219 88.96875 55.945312 88.5 57.066406 88.5 C 59.15625 88.5 60.148438 90.105469 60.148438 91.609375 C 60.148438 93.8125 58.800781 95.292969 56.855469 95.292969 C 53.800781 95.292969 53.203125 92.730469 53.203125 90.21875 M 57.167969 81.113281 L 65.65625 81.121094 L 65.65625 97.769531 L 57.167969 97.769531 L 57.167969 96.421875 L 63.171875 96.421875 L 63.171875 83.5 L 57.167969 83.5 Z M 124.667969 102.105469 L 124.667969 115.023438 L 130.671875 115.023438 L 130.671875 120.511719 L 112.980469 120.511719 L 112.980469 115.023438 L 118.980469 115.023438 L 118.980469 102.105469 L 106.0625 102.105469 L 106.0625 115.023438 L 112.066406 115.023438 L 112.066406 120.511719 L 94.375 120.511719 L 94.375 115.023438 L 100.378906 115.023438 L 100.378906 102.105469 L 94.375 102.105469 L 94.375 96.421875 L 100.378906 96.421875 L 100.378906 83.5 L 87.460938 83.5 L 87.460938 96.421875 L 93.464844 96.421875 L 93.464844 99.839844 L 74.859375 99.839844 L 74.859375 102.105469 L 68.855469 102.105469 L 68.855469 115.023438 L 74.859375 115.023438 L 74.859375 120.511719 L 57.167969 120.511719 L 57.167969 115.023438 L 63.171875 115.023438 L 63.171875 102.105469 L 57.167969 102.105469 L 57.167969 98.683594 L 66.566406 98.683594 L 66.566406 80.210938 L 66.113281 80.210938 L 56.714844 80.203125 L 56.257812 80.203125 L 56.257812 83.5 L 50.25 83.5 L 50.25 96.421875 L 56.257812 96.421875 L 56.257812 99.839844 L 37.75 99.839844 L 37.75 102.105469 L 31.648438 102.105469 L 31.648438 115.023438 L 37.75 115.023438 L 37.75 121.421875 L 131.582031 121.421875 L 131.582031 115.023438 L 137.585938 115.023438 L 137.585938 102.105469 Z M 124.667969 102.105469 "/>
<path fill-rule="nonzero" fill="rgb(0%, 0%, 0%)" fill-opacity="1" d="M 94.371094 105.519531 L 94.34375 105.519531 L 91.8125 109.839844 L 94.328125 109.839844 C 94.328125 107.402344 94.371094 105.832031 94.371094 105.519531 "/>
</svg>
