<?xml version="1.0" encoding="UTF-8"?>
<svg xmlns="http://www.w3.org/2000/svg" xmlns:xlink="http://www.w3.org/1999/xlink" width="172" height="152" viewBox="0 0 172 152">
<path fill-rule="nonzero" fill="rgb(0%, 0%, 0%)" fill-opacity="1" d="M 66.839844 142.863281 L 66.839844 141.734375 L 69.6875 141.144531 L 69.6875 143.078125 L 77.148438 143.078125 C 78.222656 143.078125 78.492188 142.835938 78.492188 141.839844 L 78.492188 140.816406 C 78.492188 139.824219 78.222656 139.558594 77.140625 139.570312 L 72.460938 139.570312 L 72.460938 137.320312 L 76.632812 137.320312 C 77.707031 137.320312 77.949219 137.046875 77.949219 136.046875 L 77.949219 135.34375 C 77.949219 134.34375 77.707031 134.074219 76.632812 134.074219 L 69.773438 134.074219 L 69.773438 135.804688 L 67.035156 135.289062 L 67.035156 134.421875 C 67.035156 132.21875 67.839844 131.707031 70.199219 131.707031 L 77.707031 131.707031 C 80.070312 131.707031 80.875 132.21875 80.875 134.421875 L 80.875 135.695312 C 80.875 137.347656 80.179688 138.015625 78.195312 138.320312 C 80.398438 138.535156 81.417969 139.394531 81.417969 141.144531 L 81.417969 142.59375 C 81.417969 144.742188 80.722656 145.578125 78.0625 145.578125 L 70.007812 145.578125 C 67.644531 145.578125 66.839844 145.066406 66.839844 142.863281 "/>
<path fill-rule="nonzero" fill="rgb(0%, 0%, 0%)" fill-opacity="1" d="M 99.589844 134.074219 L 90.425781 134.074219 L 90.425781 137.0625 L 87.5 136.546875 L 87.5 131.707031 L 102.898438 131.707031 L 102.898438 133.9375 L 95.640625 145.835938 L 92.121094 145.835938 Z M 99.589844 134.074219 "/>
<path fill-rule="nonzero" fill="rgb(0%, 0%, 0%)" fill-opacity="1" d="M 66.027344 107.628906 C 66.808594 107.628906 67.261719 107.105469 67.261719 106.378906 C 67.261719 105.617188 66.738281 105.132812 66.097656 105.132812 C 65.207031 105.132812 64.738281 105.644531 64.738281 106.378906 C 64.738281 106.976562 65.175781 107.628906 66.027344 107.628906 "/>
<path fill-rule="nonzero" fill="rgb(0%, 0%, 0%)" fill-opacity="1" d="M 67.460938 73.175781 C 67.460938 71.898438 66.636719 71.488281 66.015625 71.488281 C 65.261719 71.488281 64.496094 71.957031 64.496094 73.21875 C 64.496094 74.3125 65.121094 75.09375 66.070312 75.09375 C 66.792969 75.09375 67.460938 74.539062 67.460938 73.175781 "/>
<path fill-rule="nonzero" fill="rgb(0%, 0%, 0%)" fill-opacity="1" d="M 66.464844 31.101562 L 66.433594 31.101562 L 63.90625 35.421875 L 66.421875 35.421875 C 66.421875 32.984375 66.464844 31.414062 66.464844 31.101562 "/>
<path fill-rule="nonzero" fill="rgb(0%, 0%, 0%)" fill-opacity="1" d="M 104.636719 113.625 L 102.648438 113.625 L 102.648438 106.671875 L 100.242188 106.671875 L 100.242188 105.28125 L 100.527344 105.28125 C 102.449219 105.28125 102.957031 104.289062 103 103.539062 L 104.636719 103.539062 Z M 81.039062 113.621094 C 81.109375 112.441406 81.195312 111.207031 83.382812 109.617188 C 85.199219 108.296875 85.921875 107.789062 85.921875 106.652344 C 85.921875 105.984375 85.496094 105.21875 84.53125 105.21875 C 83.140625 105.21875 83.101562 106.367188 83.085938 107.105469 L 81.152344 107.105469 C 81.152344 103.828125 83.554688 103.542969 84.449219 103.542969 C 86.375 103.542969 87.910156 104.679688 87.910156 106.722656 C 87.910156 108.453125 86.789062 109.332031 85.808594 110 C 84.476562 110.933594 83.78125 111.390625 83.554688 111.859375 L 87.925781 111.859375 L 87.925781 113.621094 Z M 62.519531 110.824219 C 62.519531 110.3125 62.519531 108.976562 64.054688 108.269531 C 63.257812 107.871094 62.832031 107.230469 62.832031 106.296875 C 62.832031 104.578125 64.210938 103.542969 65.972656 103.542969 C 68.058594 103.542969 69.167969 104.777344 69.167969 106.167969 C 69.167969 107.035156 68.8125 107.773438 68 108.199219 C 68.96875 108.679688 69.507812 109.320312 69.507812 110.625 C 69.507812 111.902344 68.683594 113.894531 66.015625 113.894531 C 63.414062 113.894531 62.519531 112.203125 62.519531 110.824219 M 63.84375 95.019531 C 64.054688 90.988281 66.585938 87.78125 67.441406 86.871094 L 62.421875 86.871094 L 62.464844 85.109375 L 69.574219 85.109375 L 69.574219 86.644531 C 68.605469 87.695312 66.132812 90.675781 65.890625 95.019531 Z M 62.503906 71.613281 C 62.503906 69.699219 62.757812 66.332031 66.253906 66.332031 C 66.667969 66.332031 67.816406 66.488281 68.316406 66.988281 C 68.867188 67.527344 69.066406 67.828125 69.253906 68.890625 L 67.277344 68.890625 C 67.21875 68.324219 66.851562 67.925781 66.113281 67.925781 C 64.820312 67.925781 64.523438 69.398438 64.453125 70.703125 L 64.484375 70.730469 C 64.75 70.363281 65.246094 69.894531 66.367188 69.894531 C 68.457031 69.894531 69.453125 71.5 69.453125 73.003906 C 69.453125 75.207031 68.101562 76.683594 66.15625 76.683594 C 63.101562 76.683594 62.503906 74.125 62.503906 71.613281 M 62.449219 55.113281 L 64.4375 55.113281 C 64.523438 55.933594 64.964844 56.488281 65.84375 56.488281 C 66.792969 56.488281 67.347656 55.679688 67.347656 54.601562 C 67.347656 53.707031 66.921875 52.796875 65.871094 52.796875 C 65.601562 52.796875 64.921875 52.8125 64.539062 53.523438 L 62.757812 53.4375 L 63.457031 47.902344 L 68.996094 47.902344 L 68.996094 49.578125 L 64.894531 49.578125 L 64.539062 51.757812 C 64.90625 51.503906 65.363281 51.207031 66.339844 51.207031 C 67.6875 51.207031 69.394531 52.140625 69.394531 54.457031 C 69.394531 55.835938 68.699219 58.082031 65.730469 58.082031 C 64.15625 58.082031 62.546875 57.144531 62.449219 55.113281 M 62.441406 36.972656 L 62.441406 35.25 L 66.152344 29.125 L 68.414062 29.125 L 68.414062 35.421875 L 69.535156 35.421875 L 69.535156 36.972656 L 68.414062 36.972656 L 68.414062 39.207031 L 66.421875 39.207031 L 66.421875 36.972656 Z M 62.449219 17.507812 L 64.394531 17.507812 L 64.382812 17.519531 C 64.382812 18.058594 64.523438 19.28125 65.859375 19.28125 C 66.652344 19.28125 67.347656 18.742188 67.347656 17.621094 C 67.347656 16.246094 66.015625 16.1875 65.082031 16.1875 L 65.082031 14.765625 L 65.402344 14.765625 C 65.996094 14.765625 67.089844 14.710938 67.089844 13.40625 C 67.089844 13.035156 66.917969 12.113281 65.828125 12.113281 C 64.46875 12.113281 64.46875 13.40625 64.46875 13.757812 L 62.617188 13.757812 C 62.617188 11.871094 63.6875 10.523438 65.957031 10.523438 C 67.304688 10.523438 69.082031 11.203125 69.082031 13.335938 C 69.082031 14.355469 68.441406 14.996094 67.871094 15.25 L 67.871094 15.277344 C 68.230469 15.375 69.394531 15.902344 69.394531 17.621094 C 69.394531 19.523438 67.988281 20.875 65.957031 20.875 C 65.003906 20.875 62.449219 20.660156 62.449219 17.507812 M 66.46875 6.703125 L 74.859375 6.703125 L 74.859375 24.386719 L 66.46875 24.386719 L 66.46875 22 L 72.472656 22 L 72.472656 9.082031 L 66.46875 9.082031 Z M 96.757812 102.101562 L 96.757812 115.023438 L 102.765625 115.023438 L 102.765625 120.507812 L 85.074219 120.507812 L 85.074219 115.023438 L 91.074219 115.023438 L 91.074219 102.101562 L 78.15625 102.101562 L 78.15625 115.023438 L 84.160156 115.023438 L 84.160156 120.507812 L 66.46875 120.507812 L 66.46875 115.023438 L 72.472656 115.023438 L 72.472656 102.101562 L 66.46875 102.101562 L 66.46875 96.417969 L 72.472656 96.417969 L 72.472656 83.496094 L 66.46875 83.496094 L 66.46875 77.8125 L 72.472656 77.8125 L 72.472656 64.894531 L 66.46875 64.894531 L 66.46875 59.210938 L 72.472656 59.210938 L 72.472656 46.289062 L 66.46875 46.289062 L 66.46875 40.605469 L 72.472656 40.605469 L 72.472656 27.683594 L 66.46875 27.683594 L 66.46875 25.300781 L 75.769531 25.300781 L 75.769531 5.789062 L 65.558594 5.789062 L 65.558594 9.082031 L 59.550781 9.082031 L 59.550781 22 L 65.558594 22 L 65.558594 27.683594 L 59.550781 27.683594 L 59.550781 40.605469 L 65.558594 40.605469 L 65.558594 46.289062 L 59.550781 46.289062 L 59.550781 59.210938 L 65.558594 59.210938 L 65.558594 64.894531 L 59.550781 64.894531 L 59.550781 77.8125 L 65.558594 77.8125 L 65.558594 83.496094 L 59.550781 83.496094 L 59.550781 96.417969 L 65.558594 96.417969 L 65.558594 102.101562 L 59.550781 102.101562 L 59.550781 115.023438 L 65.558594 115.023438 L 65.558594 121.421875 L 103.675781 121.421875 L 103.675781 115.023438 L 109.679688 115.023438 L 109.679688 102.101562 Z M 96.757812 102.101562 "/>
<path fill-rule="nonzero" fill="rgb(0%, 0%, 0%)" fill-opacity="1" d="M 65.984375 109.136719 C 65.261719 109.136719 64.566406 109.605469 64.566406 110.695312 C 64.566406 111.660156 65.121094 112.300781 66.027344 112.300781 C 67.0625 112.300781 67.460938 111.40625 67.460938 110.710938 C 67.460938 110 67.089844 109.136719 65.984375 109.136719 "/>
</svg>
