<?xml version="1.0" encoding="UTF-8"?>
<svg xmlns="http://www.w3.org/2000/svg" xmlns:xlink="http://www.w3.org/1999/xlink" width="172" height="152" viewBox="0 0 172 152">
<path fill-rule="nonzero" fill="rgb(0%, 0%, 0%)" fill-opacity="1" d="M 77.792969 138.535156 C 78.871094 138.535156 79.113281 138.804688 79.113281 139.796875 L 79.113281 140.8125 C 79.113281 141.804688 78.871094 142.042969 77.792969 142.042969 L 70.6875 142.042969 C 69.609375 142.042969 69.367188 141.832031 69.367188 140.8125 L 69.367188 139.796875 C 69.367188 138.804688 69.609375 138.535156 70.6875 138.535156 Z M 77.484375 133.039062 C 78.5625 133.039062 78.804688 133.308594 78.804688 134.3125 L 78.804688 135.015625 C 78.804688 136.015625 78.5625 136.285156 77.484375 136.285156 L 71.023438 136.285156 C 69.949219 136.285156 69.683594 136.015625 69.683594 135.015625 L 69.683594 134.3125 C 69.683594 133.308594 69.949219 133.039062 71.023438 133.039062 Z M 78.5625 130.675781 L 69.921875 130.675781 C 67.558594 130.675781 66.75 131.1875 66.75 133.390625 L 66.75 134.664062 C 66.75 136.285156 67.476562 136.984375 69.410156 137.355469 C 67.40625 137.574219 66.4375 138.429688 66.4375 140.117188 L 66.4375 141.5625 C 66.4375 143.710938 67.136719 144.542969 69.800781 144.542969 L 78.683594 144.542969 C 81.347656 144.542969 82.074219 143.710938 82.074219 141.5625 L 82.074219 140.117188 C 82.074219 138.429688 81.105469 137.574219 79.113281 137.355469 C 81.03125 136.984375 81.730469 136.285156 81.730469 134.664062 L 81.730469 133.390625 C 81.730469 131.1875 80.925781 130.675781 78.5625 130.675781 "/>
<path fill-rule="nonzero" fill="rgb(0%, 0%, 0%)" fill-opacity="1" d="M 90.085938 133.039062 L 100 133.039062 L 100 142.042969 L 90.085938 142.042969 Z M 87.183594 133.953125 L 87.183594 141.265625 C 87.183594 143.816406 87.90625 144.542969 90.351562 144.542969 L 99.730469 144.542969 C 102.175781 144.542969 102.902344 143.816406 102.902344 141.265625 L 102.902344 133.953125 C 102.902344 131.398438 102.175781 130.675781 99.730469 130.675781 L 90.351562 130.675781 C 87.90625 130.675781 87.183594 131.398438 87.183594 133.953125 "/>
<path fill-rule="nonzero" fill="rgb(0%, 0%, 0%)" fill-opacity="1" d="M 66.015625 108.695312 C 65.261719 108.695312 64.496094 109.164062 64.496094 110.425781 C 64.496094 111.519531 65.121094 112.300781 66.070312 112.300781 C 66.792969 112.300781 67.460938 111.746094 67.460938 110.382812 C 67.460938 109.105469 66.640625 108.695312 66.015625 108.695312 "/>
<path fill-rule="nonzero" fill="rgb(0%, 0%, 0%)" fill-opacity="1" d="M 149.273438 97.769531 L 140.882812 97.769531 L 140.882812 96.417969 L 146.886719 96.417969 L 146.886719 83.5 L 140.882812 83.5 L 140.882812 81.113281 L 149.273438 81.113281 Z M 139.851562 95.019531 L 139.851562 88.070312 L 137.453125 88.070312 L 137.453125 86.675781 L 137.738281 86.675781 C 139.65625 86.675781 140.167969 85.6875 140.210938 84.9375 L 141.84375 84.9375 L 141.84375 95.019531 Z M 118.246094 95.019531 C 118.316406 93.839844 118.402344 92.601562 120.589844 91.011719 C 122.40625 89.695312 123.128906 89.183594 123.128906 88.050781 C 123.128906 87.382812 122.707031 86.617188 121.738281 86.617188 C 120.351562 86.617188 120.308594 87.765625 120.292969 88.503906 L 118.359375 88.503906 C 118.359375 85.222656 120.761719 84.9375 121.652344 84.9375 C 123.585938 84.9375 125.121094 86.074219 125.121094 88.121094 C 125.121094 89.851562 124 90.730469 123.015625 91.398438 C 121.683594 92.332031 120.988281 92.789062 120.761719 93.253906 L 125.136719 93.253906 L 125.136719 95.019531 Z M 124.894531 106.351562 C 124.894531 107.375 124.253906 108.011719 123.683594 108.269531 L 123.683594 108.296875 C 124.039062 108.398438 125.207031 108.921875 125.207031 110.640625 C 125.207031 112.542969 123.800781 113.894531 121.769531 113.894531 C 120.816406 113.894531 118.257812 113.679688 118.257812 110.527344 L 120.207031 110.527344 L 120.195312 110.539062 C 120.195312 111.082031 120.335938 112.300781 121.667969 112.300781 C 122.460938 112.300781 123.160156 111.761719 123.160156 110.640625 C 123.160156 109.265625 121.824219 109.207031 120.894531 109.207031 L 120.894531 107.785156 L 121.214844 107.785156 C 121.808594 107.785156 122.902344 107.730469 122.902344 106.425781 C 122.902344 106.054688 122.730469 105.132812 121.640625 105.132812 C 120.28125 105.132812 120.28125 106.425781 120.28125 106.78125 L 118.429688 106.78125 C 118.429688 104.890625 119.496094 103.542969 121.765625 103.542969 C 123.117188 103.542969 124.894531 104.226562 124.894531 106.351562 M 121.367188 120.359375 L 103.675781 120.359375 L 103.675781 115.023438 L 109.679688 115.023438 L 109.679688 102.101562 L 103.675781 102.101562 L 103.675781 100.75 L 121.367188 100.75 L 121.367188 102.101562 L 115.363281 102.101562 L 115.363281 115.023438 L 121.367188 115.023438 Z M 99.648438 111.386719 L 99.648438 109.667969 L 103.359375 103.542969 L 105.621094 103.542969 L 105.621094 109.835938 L 106.742188 109.835938 L 106.742188 111.386719 L 105.621094 111.386719 L 105.621094 113.625 L 103.628906 113.625 L 103.628906 111.386719 Z M 102.765625 120.359375 L 85.074219 120.359375 L 85.074219 115.023438 L 91.074219 115.023438 L 91.074219 102.101562 L 85.074219 102.101562 L 85.074219 100.75 L 102.765625 100.75 L 102.765625 102.101562 L 96.757812 102.101562 L 96.757812 115.023438 L 102.765625 115.023438 Z M 81.050781 110.921875 L 83.042969 110.921875 C 83.128906 111.746094 83.570312 112.300781 84.449219 112.300781 C 85.398438 112.300781 85.953125 111.492188 85.953125 110.414062 C 85.953125 109.515625 85.523438 108.609375 84.476562 108.609375 C 84.207031 108.609375 83.523438 108.625 83.140625 109.332031 L 81.363281 109.25 L 82.0625 103.710938 L 87.601562 103.710938 L 87.601562 105.390625 L 83.496094 105.390625 L 83.140625 107.570312 C 83.511719 107.316406 83.964844 107.015625 84.945312 107.015625 C 86.292969 107.015625 88 107.957031 88 110.269531 C 88 111.648438 87.300781 113.894531 84.335938 113.894531 C 82.757812 113.894531 81.152344 112.957031 81.050781 110.921875 M 84.160156 120.359375 L 66.46875 120.359375 L 66.46875 115.023438 L 72.46875 115.023438 L 72.46875 102.101562 L 66.46875 102.101562 L 66.46875 100.75 L 84.160156 100.75 L 84.160156 102.101562 L 78.15625 102.101562 L 78.15625 115.023438 L 84.160156 115.023438 Z M 62.503906 108.824219 C 62.503906 106.90625 62.761719 103.542969 66.253906 103.542969 C 66.667969 103.542969 67.816406 103.699219 68.3125 104.195312 C 68.871094 104.734375 69.070312 105.035156 69.253906 106.097656 L 67.277344 106.097656 C 67.21875 105.53125 66.851562 105.132812 66.113281 105.132812 C 64.824219 105.132812 64.523438 106.605469 64.453125 107.914062 L 64.480469 107.941406 C 64.753906 107.570312 65.25 107.101562 66.371094 107.101562 C 68.457031 107.101562 69.453125 108.707031 69.453125 110.214844 C 69.453125 112.414062 68.101562 113.894531 66.15625 113.894531 C 63.101562 113.894531 62.503906 111.335938 62.503906 108.824219 M 65.554688 120.359375 L 47.863281 120.359375 L 47.863281 115.023438 L 53.867188 115.023438 L 53.867188 102.101562 L 47.863281 102.101562 L 47.863281 100.75 L 65.554688 100.75 L 65.554688 102.101562 L 59.550781 102.101562 L 59.550781 115.023438 L 65.554688 115.023438 Z M 45.238281 113.625 C 45.453125 109.59375 47.984375 106.386719 48.835938 105.476562 L 43.820312 105.476562 L 43.863281 103.710938 L 50.96875 103.710938 L 50.96875 105.25 C 50.003906 106.300781 47.53125 109.28125 47.289062 113.625 Z M 46.953125 120.359375 L 29.261719 120.359375 L 29.261719 115.023438 L 35.265625 115.023438 L 35.265625 102.101562 L 29.261719 102.101562 L 29.261719 100.75 L 46.953125 100.75 L 46.953125 102.101562 L 40.949219 102.101562 L 40.949219 115.023438 L 46.953125 115.023438 Z M 25.308594 110.824219 C 25.308594 110.316406 25.308594 108.980469 26.847656 108.269531 C 26.050781 107.871094 25.625 107.230469 25.625 106.296875 C 25.625 104.578125 27.003906 103.542969 28.761719 103.542969 C 30.851562 103.542969 31.960938 104.78125 31.960938 106.167969 C 31.960938 107.035156 31.601562 107.773438 30.792969 108.199219 C 31.761719 108.679688 32.300781 109.320312 32.300781 110.625 C 32.300781 111.90625 31.476562 113.894531 28.804688 113.894531 C 26.207031 113.894531 25.308594 112.203125 25.308594 110.824219 M 149.726562 80.203125 L 139.972656 80.203125 L 139.972656 83.5 L 133.96875 83.5 L 133.96875 96.417969 L 139.972656 96.417969 L 139.972656 99.839844 L 122.28125 99.839844 L 122.28125 96.417969 L 128.285156 96.417969 L 128.285156 83.5 L 115.363281 83.5 L 115.363281 96.417969 L 121.367188 96.417969 L 121.367188 99.839844 L 28.347656 99.839844 L 28.347656 102.101562 L 22.34375 102.101562 L 22.34375 115.023438 L 28.347656 115.023438 L 28.347656 121.269531 L 122.28125 121.269531 L 122.28125 115.023438 L 128.285156 115.023438 L 128.285156 102.101562 L 122.28125 102.101562 L 122.28125 100.75 L 140.882812 100.75 L 140.882812 98.679688 L 150.183594 98.679688 L 150.183594 80.203125 Z M 149.726562 80.203125 "/>
<path fill-rule="nonzero" fill="rgb(0%, 0%, 0%)" fill-opacity="1" d="M 28.777344 109.136719 C 28.054688 109.136719 27.359375 109.605469 27.359375 110.699219 C 27.359375 111.664062 27.914062 112.300781 28.820312 112.300781 C 29.855469 112.300781 30.253906 111.40625 30.253906 110.710938 C 30.253906 110.003906 29.882812 109.136719 28.777344 109.136719 "/>
<path fill-rule="nonzero" fill="rgb(0%, 0%, 0%)" fill-opacity="1" d="M 28.820312 107.628906 C 29.597656 107.628906 30.054688 107.105469 30.054688 106.382812 C 30.054688 105.617188 29.53125 105.136719 28.890625 105.136719 C 28 105.136719 27.53125 105.644531 27.53125 106.382812 C 27.53125 106.980469 27.96875 107.628906 28.820312 107.628906 "/>
<path fill-rule="nonzero" fill="rgb(0%, 0%, 0%)" fill-opacity="1" d="M 103.671875 105.519531 L 103.644531 105.519531 L 101.113281 109.835938 L 103.628906 109.835938 C 103.628906 107.402344 103.671875 105.828125 103.671875 105.519531 "/>
</svg>
