<?xml version="1.0" encoding="UTF-8"?>
<svg xmlns="http://www.w3.org/2000/svg" xmlns:xlink="http://www.w3.org/1999/xlink" width="172" height="152" viewBox="0 0 172 152">
<path fill-rule="nonzero" fill="rgb(0%, 0%, 0%)" fill-opacity="1" d="M 69.882812 139.324219 C 72 139.109375 74.066406 139.003906 76.027344 139.003906 C 78.359375 139.003906 79.085938 139.296875 79.085938 140.664062 L 79.085938 141.414062 C 79.085938 142.648438 78.550781 143.078125 76.566406 143.078125 L 72.699219 143.078125 C 70.039062 143.078125 69.828125 142.542969 69.828125 140.128906 C 69.828125 139.914062 69.828125 139.644531 69.882812 139.324219 M 70.070312 137.234375 C 71.113281 134.296875 73.960938 133.644531 79.113281 133.644531 L 80 133.644531 L 78.09375 131.421875 C 77.769531 131.394531 77.421875 131.367188 77.101562 131.367188 C 70.605469 131.367188 66.867188 134.320312 66.867188 139.484375 L 66.867188 141.308594 C 66.867188 144.609375 67.996094 145.582031 71.4375 145.582031 L 77.289062 145.582031 C 80.511719 145.582031 82.042969 144.53125 82.042969 142.191406 L 82.042969 140.3125 C 82.042969 137.503906 80.429688 136.75 76.1875 136.75 C 74.039062 136.75 72 136.9375 70.070312 137.234375 "/>
<path fill-rule="nonzero" fill="rgb(0%, 0%, 0%)" fill-opacity="1" d="M 91.570312 131.710938 L 98.710938 131.710938 C 101.074219 131.710938 101.878906 132.222656 101.878906 134.421875 L 101.878906 135.3125 C 101.878906 136.921875 101.394531 137.328125 100.054688 138.136719 L 91.914062 143.078125 L 99.972656 143.078125 L 99.972656 141.035156 L 102.53125 141.761719 L 102.53125 142.863281 C 102.53125 145.066406 101.722656 145.578125 99.382812 145.578125 L 87.707031 145.578125 L 87.707031 144.3125 C 87.707031 143.375 87.8125 142.808594 89.453125 141.789062 L 99.058594 135.875 L 99.058594 134.070312 L 91.140625 134.070312 L 91.140625 136.921875 L 88.40625 136.222656 L 88.40625 134.421875 C 88.40625 132.222656 89.210938 131.710938 91.570312 131.710938 "/>
<path fill-rule="nonzero" fill="rgb(0%, 0%, 0%)" fill-opacity="1" d="M 75.765625 68.3125 L 75.738281 68.3125 L 73.207031 72.628906 L 75.722656 72.628906 C 75.722656 70.195312 75.765625 68.625 75.765625 68.3125 "/>
<path fill-rule="nonzero" fill="rgb(0%, 0%, 0%)" fill-opacity="1" d="M 38.078125 109.136719 C 37.355469 109.136719 36.660156 109.605469 36.660156 110.699219 C 36.660156 111.664062 37.214844 112.300781 38.125 112.300781 C 39.15625 112.300781 39.554688 111.40625 39.554688 110.714844 C 39.554688 110.003906 39.183594 109.136719 38.078125 109.136719 "/>
<path fill-rule="nonzero" fill="rgb(0%, 0%, 0%)" fill-opacity="1" d="M 58.160156 91.78125 C 58.160156 90.503906 57.335938 90.089844 56.710938 90.089844 C 55.960938 90.089844 55.195312 90.558594 55.195312 91.824219 C 55.195312 92.917969 55.816406 93.699219 56.769531 93.699219 C 57.492188 93.699219 58.160156 93.144531 58.160156 91.78125 "/>
<path fill-rule="nonzero" fill="rgb(0%, 0%, 0%)" fill-opacity="1" d="M 38.121094 107.632812 C 38.902344 107.632812 39.355469 107.105469 39.355469 106.382812 C 39.355469 105.617188 38.828125 105.136719 38.195312 105.136719 C 37.300781 105.136719 36.832031 105.644531 36.832031 106.382812 C 36.832031 106.980469 37.273438 107.632812 38.121094 107.632812 "/>
<path fill-rule="nonzero" fill="rgb(0%, 0%, 0%)" fill-opacity="1" d="M 132.542969 113.625 L 130.550781 113.625 L 130.550781 106.675781 L 128.152344 106.675781 L 128.152344 105.28125 L 128.433594 105.28125 C 130.355469 105.28125 130.863281 104.289062 130.90625 103.542969 L 132.542969 103.542969 Z M 108.941406 113.621094 C 109.015625 112.441406 109.101562 111.207031 111.289062 109.617188 C 113.105469 108.300781 113.828125 107.789062 113.828125 106.652344 C 113.828125 105.984375 113.402344 105.222656 112.4375 105.222656 C 111.046875 105.222656 111.003906 106.367188 110.988281 107.105469 L 109.058594 107.105469 C 109.058594 103.828125 111.460938 103.542969 112.351562 103.542969 C 114.28125 103.542969 115.816406 104.679688 115.816406 106.726562 C 115.816406 108.453125 114.695312 109.335938 113.714844 110 C 112.382812 110.9375 111.6875 111.390625 111.460938 111.859375 L 115.832031 111.859375 L 115.832031 113.621094 Z M 90.355469 110.527344 L 92.300781 110.527344 L 92.289062 110.542969 C 92.289062 111.082031 92.429688 112.300781 93.761719 112.300781 C 94.558594 112.300781 95.253906 111.761719 95.253906 110.640625 C 95.253906 109.265625 93.921875 109.207031 92.988281 109.207031 L 92.988281 107.789062 L 93.308594 107.789062 C 93.90625 107.789062 94.996094 107.730469 94.996094 106.425781 C 94.996094 106.054688 94.824219 105.136719 93.734375 105.136719 C 92.375 105.136719 92.375 106.425781 92.375 106.777344 L 90.523438 106.777344 C 90.523438 104.894531 91.59375 103.542969 93.859375 103.542969 C 95.210938 103.542969 96.988281 104.226562 96.988281 106.355469 C 96.988281 107.375 96.347656 108.015625 95.777344 108.269531 L 95.777344 108.296875 C 96.136719 108.398438 97.300781 108.925781 97.300781 110.640625 C 97.300781 112.542969 95.894531 113.894531 93.859375 113.894531 C 92.910156 113.894531 90.355469 113.679688 90.355469 110.527344 M 34.613281 110.828125 C 34.613281 110.3125 34.613281 108.980469 36.148438 108.269531 C 35.355469 107.871094 34.925781 107.234375 34.925781 106.300781 C 34.925781 104.582031 36.308594 103.542969 38.066406 103.542969 C 40.152344 103.542969 41.261719 104.777344 41.261719 106.171875 C 41.261719 107.035156 40.90625 107.773438 40.097656 108.199219 C 41.0625 108.683594 41.605469 109.320312 41.605469 110.628906 C 41.605469 111.902344 40.777344 113.894531 38.109375 113.894531 C 35.511719 113.894531 34.613281 112.199219 34.613281 110.828125 M 35.9375 95.019531 C 36.148438 90.988281 38.683594 87.78125 39.535156 86.875 L 34.515625 86.875 L 34.558594 85.109375 L 41.667969 85.109375 L 41.667969 86.644531 C 40.699219 87.695312 38.226562 90.679688 37.984375 95.019531 Z M 38.5625 81.113281 L 46.953125 81.113281 L 46.953125 97.769531 L 38.5625 97.769531 L 38.5625 96.417969 L 44.566406 96.417969 L 44.566406 83.5 L 38.5625 83.5 Z M 53.203125 90.21875 C 53.203125 88.304688 53.460938 84.9375 56.953125 84.9375 C 57.363281 84.9375 58.515625 85.097656 59.015625 85.59375 C 59.566406 86.132812 59.765625 86.433594 59.949219 87.496094 L 57.976562 87.496094 C 57.917969 86.929688 57.546875 86.53125 56.8125 86.53125 C 55.519531 86.53125 55.222656 88.003906 55.152344 89.308594 L 55.179688 89.339844 C 55.449219 88.96875 55.945312 88.5 57.066406 88.5 C 59.152344 88.5 60.152344 90.105469 60.152344 91.609375 C 60.152344 93.8125 58.800781 95.289062 56.855469 95.289062 C 53.800781 95.289062 53.203125 92.734375 53.203125 90.21875 M 53.144531 73.71875 L 55.136719 73.71875 C 55.222656 74.539062 55.660156 75.09375 56.539062 75.09375 C 57.492188 75.09375 58.046875 74.285156 58.046875 73.207031 C 58.046875 72.3125 57.621094 71.402344 56.570312 71.402344 C 56.300781 71.402344 55.617188 71.417969 55.234375 72.128906 L 53.460938 72.039062 L 54.15625 66.507812 L 59.695312 66.507812 L 59.695312 68.183594 L 55.59375 68.183594 L 55.234375 70.363281 C 55.605469 70.109375 56.058594 69.808594 57.035156 69.808594 C 58.386719 69.808594 60.09375 70.75 60.09375 73.0625 C 60.09375 74.441406 59.398438 76.6875 56.429688 76.6875 C 54.855469 76.6875 53.246094 75.746094 53.144531 73.71875 M 71.742188 74.179688 L 71.742188 72.460938 L 75.453125 66.335938 L 77.714844 66.335938 L 77.714844 72.628906 L 78.835938 72.628906 L 78.835938 74.179688 L 77.714844 74.179688 L 77.714844 76.417969 L 75.722656 76.417969 L 75.722656 74.179688 Z M 124.664062 102.105469 L 124.664062 115.023438 L 130.671875 115.023438 L 130.671875 120.511719 L 112.976562 120.511719 L 112.976562 115.023438 L 118.980469 115.023438 L 118.980469 102.105469 L 106.0625 102.105469 L 106.0625 115.023438 L 112.066406 115.023438 L 112.066406 120.511719 L 94.371094 120.511719 L 94.371094 115.023438 L 100.378906 115.023438 L 100.378906 102.105469 L 87.460938 102.105469 L 87.460938 115.023438 L 93.460938 115.023438 L 93.460938 120.511719 L 38.5625 120.511719 L 38.5625 115.023438 L 44.566406 115.023438 L 44.566406 102.105469 L 38.5625 102.105469 L 38.5625 100.75 L 57.167969 100.75 L 57.167969 96.417969 L 63.171875 96.417969 L 63.171875 83.5 L 57.167969 83.5 L 57.167969 81.113281 L 75.769531 81.113281 L 75.769531 77.8125 L 81.773438 77.8125 L 81.773438 64.894531 L 68.855469 64.894531 L 68.855469 77.8125 L 74.859375 77.8125 L 74.859375 80.199219 L 57.167969 80.199219 L 57.167969 77.8125 L 63.171875 77.8125 L 63.171875 64.894531 L 50.253906 64.894531 L 50.253906 77.8125 L 56.253906 77.8125 L 56.253906 83.5 L 50.253906 83.5 L 50.253906 96.417969 L 56.253906 96.417969 L 56.253906 99.839844 L 38.5625 99.839844 L 38.5625 98.683594 L 47.863281 98.683594 L 47.863281 80.199219 L 37.648438 80.199219 L 37.648438 83.5 L 31.648438 83.5 L 31.648438 96.417969 L 37.648438 96.417969 L 37.648438 102.105469 L 31.648438 102.105469 L 31.648438 115.023438 L 37.648438 115.023438 L 37.648438 121.421875 L 131.582031 121.421875 L 131.582031 115.023438 L 137.585938 115.023438 L 137.585938 102.105469 Z M 124.664062 102.105469 "/>
</svg>
