<?xml version="1.0" encoding="UTF-8"?>
<svg xmlns="http://www.w3.org/2000/svg" xmlns:xlink="http://www.w3.org/1999/xlink" width="172" height="152" viewBox="0 0 172 152">
<path fill-rule="nonzero" fill="rgb(0%, 0%, 0%)" fill-opacity="1" d="M 83.777344 134.339844 L 80.820312 134.339844 L 80.820312 132.484375 L 86.707031 131.597656 L 86.707031 145.578125 L 83.777344 145.578125 Z M 83.777344 134.339844 "/>
<path fill-rule="nonzero" fill="rgb(0%, 0%, 0%)" fill-opacity="1" d="M 158.578125 117.410156 L 150.1875 117.410156 L 150.1875 115.023438 L 156.191406 115.023438 L 156.191406 102.105469 L 150.1875 102.105469 L 150.1875 99.726562 L 158.578125 99.726562 Z M 149.15625 113.625 L 149.15625 106.671875 L 146.753906 106.671875 L 146.753906 105.28125 L 147.039062 105.28125 C 148.960938 105.28125 149.46875 104.289062 149.511719 103.542969 L 151.148438 103.542969 L 151.148438 113.625 Z M 127.546875 113.625 C 127.617188 112.441406 127.707031 111.207031 129.894531 109.621094 C 131.710938 108.300781 132.433594 107.789062 132.433594 106.652344 C 132.433594 105.988281 132.007812 105.21875 131.042969 105.21875 C 129.652344 105.21875 129.609375 106.371094 129.597656 107.105469 L 127.660156 107.105469 C 127.660156 103.828125 130.0625 103.542969 130.957031 103.542969 C 132.886719 103.542969 134.425781 104.679688 134.425781 106.722656 C 134.425781 108.457031 133.300781 109.335938 132.320312 110.003906 C 130.988281 110.9375 130.292969 111.390625 130.0625 111.859375 L 134.441406 111.859375 L 134.441406 113.625 Z M 108.960938 110.527344 L 110.90625 110.527344 L 110.894531 110.542969 C 110.894531 111.082031 111.035156 112.304688 112.367188 112.304688 C 113.164062 112.304688 113.855469 111.761719 113.855469 110.640625 C 113.855469 109.265625 112.523438 109.207031 111.59375 109.207031 L 111.59375 107.785156 L 111.914062 107.785156 C 112.511719 107.785156 113.601562 107.730469 113.601562 106.425781 C 113.601562 106.054688 113.429688 105.132812 112.339844 105.132812 C 110.980469 105.132812 110.980469 106.425781 110.980469 106.78125 L 109.128906 106.78125 C 109.128906 104.894531 110.195312 103.542969 112.46875 103.542969 C 113.816406 103.542969 115.59375 104.222656 115.59375 106.355469 C 115.59375 107.375 114.953125 108.015625 114.382812 108.269531 L 114.382812 108.300781 C 114.738281 108.398438 115.90625 108.925781 115.90625 110.640625 C 115.90625 112.542969 114.496094 113.894531 112.46875 113.894531 C 111.515625 113.894531 108.960938 113.679688 108.960938 110.527344 M 90.347656 111.386719 L 90.347656 109.667969 L 94.058594 103.542969 L 96.320312 103.542969 L 96.320312 109.839844 L 97.441406 109.839844 L 97.441406 111.386719 L 96.320312 111.386719 L 96.320312 113.625 L 94.328125 113.625 L 94.328125 111.386719 Z M 71.75 110.925781 L 73.742188 110.925781 C 73.828125 111.75 74.265625 112.304688 75.144531 112.304688 C 76.097656 112.304688 76.648438 111.492188 76.648438 110.414062 C 76.648438 109.519531 76.222656 108.609375 75.175781 108.609375 C 74.90625 108.609375 74.222656 108.625 73.839844 109.335938 L 72.0625 109.25 L 72.761719 103.714844 L 78.300781 103.714844 L 78.300781 105.390625 L 74.195312 105.390625 L 73.839844 107.570312 C 74.210938 107.316406 74.664062 107.019531 75.640625 107.019531 C 76.992188 107.019531 78.699219 107.957031 78.699219 110.269531 C 78.699219 111.648438 78 113.894531 75.035156 113.894531 C 73.457031 113.894531 71.851562 112.957031 71.75 110.925781 M 53.203125 108.820312 C 53.203125 106.90625 53.460938 103.542969 56.953125 103.542969 C 57.367188 103.542969 58.515625 103.699219 59.015625 104.195312 C 59.566406 104.738281 59.765625 105.035156 59.953125 106.101562 L 57.976562 106.097656 C 57.917969 105.53125 57.550781 105.132812 56.8125 105.132812 C 55.519531 105.132812 55.222656 106.605469 55.152344 107.914062 L 55.179688 107.941406 C 55.449219 107.574219 55.949219 107.101562 57.066406 107.101562 C 59.15625 107.101562 60.152344 108.710938 60.152344 110.214844 C 60.152344 112.414062 58.800781 113.894531 56.855469 113.894531 C 53.800781 113.894531 53.203125 111.335938 53.203125 108.820312 M 35.941406 113.625 C 36.152344 109.59375 38.683594 106.386719 39.535156 105.476562 L 34.515625 105.476562 L 34.558594 103.714844 L 41.667969 103.714844 L 41.667969 105.25 C 40.703125 106.300781 38.230469 109.28125 37.988281 113.625 Z M 16.011719 110.828125 C 16.011719 110.316406 16.011719 108.980469 17.546875 108.269531 C 16.75 107.871094 16.324219 107.234375 16.324219 106.296875 C 16.324219 104.582031 17.703125 103.542969 19.464844 103.542969 C 21.550781 103.542969 22.660156 104.78125 22.660156 106.171875 C 22.660156 107.035156 22.304688 107.773438 21.492188 108.199219 C 22.460938 108.683594 23 109.320312 23 110.628906 C 23 111.90625 22.175781 113.894531 19.507812 113.894531 C 16.90625 113.894531 16.011719 112.203125 16.011719 110.828125 M 149.730469 98.8125 L 149.277344 98.8125 L 149.277344 102.105469 L 143.269531 102.105469 L 143.269531 115.023438 L 149.277344 115.023438 L 149.277344 120.511719 L 131.582031 120.511719 L 131.582031 115.023438 L 137.585938 115.023438 L 137.585938 102.105469 L 124.667969 102.105469 L 124.667969 115.023438 L 130.671875 115.023438 L 130.671875 120.511719 L 112.980469 120.511719 L 112.980469 115.023438 L 118.984375 115.023438 L 118.984375 102.105469 L 106.0625 102.105469 L 106.0625 115.023438 L 112.066406 115.023438 L 112.066406 120.511719 L 94.375 120.511719 L 94.375 115.023438 L 100.378906 115.023438 L 100.378906 102.105469 L 87.460938 102.105469 L 87.460938 115.023438 L 93.464844 115.023438 L 93.464844 120.511719 L 75.773438 120.511719 L 75.773438 115.023438 L 81.773438 115.023438 L 81.773438 102.105469 L 68.855469 102.105469 L 68.855469 115.023438 L 74.859375 115.023438 L 74.859375 120.511719 L 57.167969 120.511719 L 57.167969 115.023438 L 63.171875 115.023438 L 63.171875 102.105469 L 50.253906 102.105469 L 50.253906 115.023438 L 56.257812 115.023438 L 56.257812 120.511719 L 38.5625 120.511719 L 38.5625 115.023438 L 44.566406 115.023438 L 44.566406 102.105469 L 31.648438 102.105469 L 31.648438 115.023438 L 37.652344 115.023438 L 37.652344 120.511719 L 19.960938 120.511719 L 19.960938 115.023438 L 25.964844 115.023438 L 25.964844 102.105469 L 13.042969 102.105469 L 13.042969 115.023438 L 19.050781 115.023438 L 19.050781 121.421875 L 150.1875 121.421875 L 150.1875 118.320312 L 159.488281 118.320312 L 159.488281 98.8125 Z M 149.730469 98.8125 "/>
<path fill-rule="nonzero" fill="rgb(0%, 0%, 0%)" fill-opacity="1" d="M 56.714844 108.695312 C 55.960938 108.695312 55.195312 109.164062 55.195312 110.429688 C 55.195312 111.519531 55.820312 112.304688 56.769531 112.304688 C 57.496094 112.304688 58.160156 111.75 58.160156 110.386719 C 58.160156 109.109375 57.335938 108.695312 56.714844 108.695312 "/>
<path fill-rule="nonzero" fill="rgb(0%, 0%, 0%)" fill-opacity="1" d="M 94.371094 105.519531 L 94.339844 105.519531 L 91.8125 109.839844 L 94.328125 109.839844 C 94.328125 107.402344 94.371094 105.832031 94.371094 105.519531 "/>
<path fill-rule="nonzero" fill="rgb(0%, 0%, 0%)" fill-opacity="1" d="M 19.476562 109.136719 C 18.753906 109.136719 18.058594 109.605469 18.058594 110.699219 C 18.058594 111.664062 18.613281 112.300781 19.519531 112.300781 C 20.554688 112.300781 20.953125 111.40625 20.953125 110.710938 C 20.953125 110.003906 20.582031 109.136719 19.476562 109.136719 "/>
<path fill-rule="nonzero" fill="rgb(0%, 0%, 0%)" fill-opacity="1" d="M 19.519531 107.628906 C 20.300781 107.628906 20.753906 107.105469 20.753906 106.382812 C 20.753906 105.617188 20.226562 105.132812 19.589844 105.132812 C 18.699219 105.132812 18.230469 105.648438 18.230469 106.382812 C 18.230469 106.980469 18.667969 107.628906 19.519531 107.628906 "/>
</svg>
