<?xml version="1.0" encoding="UTF-8"?>
<svg xmlns="http://www.w3.org/2000/svg" xmlns:xlink="http://www.w3.org/1999/xlink" width="172" height="152" viewBox="0 0 172 152">
<path fill-rule="nonzero" fill="rgb(0%, 0%, 0%)" fill-opacity="1" d="M 66.835938 142.863281 L 66.835938 141.734375 L 69.683594 141.144531 L 69.683594 143.078125 L 77.148438 143.078125 C 78.222656 143.078125 78.488281 142.835938 78.488281 141.84375 L 78.488281 140.820312 C 78.488281 139.828125 78.222656 139.558594 77.140625 139.570312 L 72.460938 139.570312 L 72.460938 137.320312 L 76.628906 137.320312 C 77.703125 137.320312 77.945312 137.050781 77.945312 136.050781 L 77.945312 135.347656 C 77.945312 134.34375 77.703125 134.074219 76.628906 134.074219 L 69.769531 134.074219 L 69.769531 135.804688 L 67.035156 135.292969 L 67.035156 134.425781 C 67.035156 132.21875 67.839844 131.710938 70.199219 131.710938 L 77.703125 131.710938 C 80.070312 131.710938 80.878906 132.21875 80.878906 134.425781 L 80.878906 135.699219 C 80.878906 137.347656 80.179688 138.019531 78.191406 138.320312 C 80.398438 138.535156 81.417969 139.398438 81.417969 141.144531 L 81.417969 142.59375 C 81.417969 144.746094 80.71875 145.578125 78.058594 145.578125 L 70.007812 145.578125 C 67.644531 145.578125 66.835938 145.070312 66.835938 142.863281 "/>
<path fill-rule="nonzero" fill="rgb(0%, 0%, 0%)" fill-opacity="1" d="M 94.160156 134.34375 L 91.207031 134.34375 L 91.207031 132.484375 L 97.089844 131.597656 L 97.089844 145.582031 L 94.160156 145.582031 Z M 94.160156 134.34375 "/>
<path fill-rule="nonzero" fill="rgb(0%, 0%, 0%)" fill-opacity="1" d="M 38.121094 107.628906 C 38.902344 107.628906 39.355469 107.105469 39.355469 106.382812 C 39.355469 105.617188 38.832031 105.136719 38.191406 105.136719 C 37.300781 105.136719 36.832031 105.648438 36.832031 106.382812 C 36.832031 106.980469 37.273438 107.628906 38.121094 107.628906 "/>
<path fill-rule="nonzero" fill="rgb(0%, 0%, 0%)" fill-opacity="1" d="M 38.082031 109.136719 C 37.355469 109.136719 36.660156 109.605469 36.660156 110.699219 C 36.660156 111.664062 37.214844 112.300781 38.121094 112.300781 C 39.15625 112.300781 39.554688 111.40625 39.554688 110.710938 C 39.554688 110.003906 39.1875 109.136719 38.082031 109.136719 "/>
<path fill-rule="nonzero" fill="rgb(0%, 0%, 0%)" fill-opacity="1" d="M 75.316406 108.695312 C 74.5625 108.695312 73.796875 109.164062 73.796875 110.429688 C 73.796875 111.519531 74.421875 112.304688 75.375 112.304688 C 76.097656 112.304688 76.761719 111.75 76.761719 110.386719 C 76.761719 109.109375 75.9375 108.695312 75.316406 108.695312 "/>
<path fill-rule="nonzero" fill="rgb(0%, 0%, 0%)" fill-opacity="1" d="M 94.367188 86.917969 L 94.34375 86.917969 L 91.8125 91.234375 L 94.328125 91.234375 C 94.328125 88.800781 94.367188 87.226562 94.367188 86.917969 "/>
<path fill-rule="nonzero" fill="rgb(0%, 0%, 0%)" fill-opacity="1" d="M 130.550781 95.023438 L 130.550781 88.070312 L 128.152344 88.070312 L 128.152344 86.679688 L 128.433594 86.679688 C 130.351562 86.679688 130.863281 85.6875 130.90625 84.9375 L 132.542969 84.9375 L 132.542969 95.023438 Z M 134.421875 106.726562 C 134.421875 108.457031 133.300781 109.335938 132.316406 110.003906 C 130.984375 110.9375 130.289062 111.394531 130.0625 111.859375 L 134.4375 111.859375 L 134.4375 113.625 L 127.546875 113.625 C 127.617188 112.441406 127.703125 111.210938 129.894531 109.617188 C 131.707031 108.300781 132.433594 107.789062 132.433594 106.65625 C 132.433594 105.988281 132.003906 105.21875 131.042969 105.21875 C 129.652344 105.21875 129.609375 106.371094 129.59375 107.109375 L 127.660156 107.109375 C 127.660156 103.828125 130.0625 103.542969 130.957031 103.542969 C 132.886719 103.542969 134.421875 104.679688 134.421875 106.726562 M 130.667969 120.511719 L 112.976562 120.511719 L 112.976562 115.023438 L 118.984375 115.023438 L 118.984375 102.105469 L 112.976562 102.105469 L 112.976562 100.75 L 130.667969 100.75 L 130.667969 102.105469 L 124.664062 102.105469 L 124.664062 115.023438 L 130.667969 115.023438 Z M 108.957031 110.527344 L 110.90625 110.527344 L 110.890625 110.542969 C 110.890625 111.082031 111.03125 112.304688 112.367188 112.304688 C 113.160156 112.304688 113.859375 111.761719 113.859375 110.640625 C 113.859375 109.265625 112.523438 109.210938 111.589844 109.210938 L 111.589844 107.785156 L 111.910156 107.785156 C 112.507812 107.785156 113.601562 107.730469 113.601562 106.425781 C 113.601562 106.058594 113.429688 105.136719 112.339844 105.136719 C 110.976562 105.136719 110.976562 106.425781 110.976562 106.78125 L 109.128906 106.78125 C 109.128906 104.894531 110.195312 103.542969 112.46875 103.542969 C 113.8125 103.542969 115.589844 104.226562 115.589844 106.355469 C 115.589844 107.375 114.949219 108.015625 114.382812 108.269531 L 114.382812 108.300781 C 114.738281 108.398438 115.90625 108.925781 115.90625 110.640625 C 115.90625 112.546875 114.496094 113.894531 112.46875 113.894531 C 111.515625 113.894531 108.957031 113.683594 108.957031 110.527344 M 131.582031 81.113281 L 140.070312 81.121094 L 140.070312 97.769531 L 131.582031 97.769531 L 131.582031 96.421875 L 137.585938 96.421875 L 137.585938 83.5 L 131.582031 83.5 Z M 90.351562 110.925781 L 92.347656 110.925781 C 92.429688 111.75 92.871094 112.304688 93.75 112.304688 C 94.699219 112.304688 95.253906 111.492188 95.253906 110.414062 C 95.253906 109.519531 94.824219 108.609375 93.777344 108.609375 C 93.507812 108.609375 92.828125 108.625 92.445312 109.335938 L 90.664062 109.25 L 91.363281 103.714844 L 96.902344 103.714844 L 96.902344 105.390625 L 92.796875 105.390625 L 92.445312 107.570312 C 92.8125 107.316406 93.265625 107.019531 94.246094 107.019531 C 95.59375 107.019531 97.300781 107.957031 97.300781 110.273438 C 97.300781 111.648438 96.605469 113.894531 93.636719 113.894531 C 92.058594 113.894531 90.453125 112.957031 90.351562 110.925781 M 90.347656 92.785156 L 90.347656 91.0625 L 94.058594 84.9375 L 96.316406 84.9375 L 96.316406 91.234375 L 97.441406 91.234375 L 97.441406 92.785156 L 96.316406 92.785156 L 96.316406 95.023438 L 94.328125 95.023438 L 94.328125 92.785156 Z M 71.808594 108.824219 C 71.808594 106.90625 72.0625 103.542969 75.558594 103.542969 C 75.96875 103.542969 77.117188 103.699219 77.617188 104.195312 C 78.171875 104.738281 78.371094 105.035156 78.554688 106.097656 L 76.578125 106.097656 C 76.523438 105.53125 76.152344 105.136719 75.414062 105.136719 C 74.125 105.136719 73.828125 106.609375 73.753906 107.914062 L 73.78125 107.941406 C 74.054688 107.570312 74.550781 107.101562 75.667969 107.101562 C 77.757812 107.101562 78.753906 108.710938 78.753906 110.214844 C 78.753906 112.414062 77.402344 113.894531 75.457031 113.894531 C 72.40625 113.894531 71.808594 111.335938 71.808594 108.824219 M 54.539062 113.625 C 54.753906 109.59375 57.285156 106.386719 58.140625 105.476562 L 53.121094 105.476562 L 53.160156 103.714844 L 60.269531 103.714844 L 60.269531 105.25 C 59.304688 106.300781 56.832031 109.28125 56.589844 113.625 Z M 34.613281 110.824219 C 34.613281 110.316406 34.613281 108.980469 36.148438 108.269531 C 35.351562 107.871094 34.925781 107.230469 34.925781 106.296875 C 34.925781 104.578125 36.308594 103.542969 38.066406 103.542969 C 40.152344 103.542969 41.261719 104.78125 41.261719 106.171875 C 41.261719 107.035156 40.90625 107.773438 40.097656 108.199219 C 41.0625 108.683594 41.601562 109.320312 41.601562 110.628906 C 41.601562 111.90625 40.777344 113.894531 38.109375 113.894531 C 35.511719 113.894531 34.613281 112.203125 34.613281 110.824219 M 140.984375 98.683594 L 140.984375 80.210938 L 140.527344 80.210938 L 131.125 80.203125 L 130.667969 80.203125 L 130.667969 83.5 L 124.664062 83.5 L 124.664062 96.421875 L 130.667969 96.421875 L 130.667969 99.839844 L 112.066406 99.839844 L 112.066406 102.105469 L 106.0625 102.105469 L 106.0625 115.023438 L 112.066406 115.023438 L 112.066406 120.511719 L 94.375 120.511719 L 94.375 115.023438 L 100.378906 115.023438 L 100.378906 102.105469 L 94.375 102.105469 L 94.375 96.421875 L 100.378906 96.421875 L 100.378906 83.5 L 87.457031 83.5 L 87.457031 96.421875 L 93.460938 96.421875 L 93.460938 102.105469 L 87.457031 102.105469 L 87.457031 115.023438 L 93.460938 115.023438 L 93.460938 120.511719 L 75.769531 120.511719 L 75.769531 115.023438 L 81.773438 115.023438 L 81.773438 102.105469 L 68.855469 102.105469 L 68.855469 115.023438 L 74.859375 115.023438 L 74.859375 120.511719 L 57.164062 120.511719 L 57.164062 115.023438 L 63.171875 115.023438 L 63.171875 102.105469 L 50.25 102.105469 L 50.25 115.023438 L 56.253906 115.023438 L 56.253906 120.511719 L 38.5625 120.511719 L 38.5625 115.023438 L 44.566406 115.023438 L 44.566406 102.105469 L 31.648438 102.105469 L 31.648438 115.023438 L 37.652344 115.023438 L 37.652344 121.421875 L 131.582031 121.421875 L 131.582031 115.023438 L 137.585938 115.023438 L 137.585938 102.105469 L 131.582031 102.105469 L 131.582031 98.683594 Z M 140.984375 98.683594 "/>
</svg>
