<?xml version="1.0" encoding="UTF-8"?>
<svg xmlns="http://www.w3.org/2000/svg" xmlns:xlink="http://www.w3.org/1999/xlink" width="172" height="152" viewBox="0 0 172 152">
<path fill-rule="nonzero" fill="rgb(0%, 0%, 0%)" fill-opacity="1" d="M 73.390625 134.234375 L 70.433594 134.234375 L 70.433594 132.382812 L 76.320312 131.492188 L 76.320312 145.476562 L 73.390625 145.476562 Z M 73.390625 134.234375 "/>
<path fill-rule="nonzero" fill="rgb(0%, 0%, 0%)" fill-opacity="1" d="M 90.652344 139.21875 C 92.773438 139.003906 94.839844 138.898438 96.800781 138.898438 C 99.132812 138.898438 99.859375 139.195312 99.859375 140.5625 L 99.859375 141.3125 C 99.859375 142.542969 99.324219 142.972656 97.335938 142.972656 L 93.46875 142.972656 C 90.8125 142.972656 90.597656 142.4375 90.597656 140.023438 C 90.597656 139.808594 90.597656 139.542969 90.652344 139.21875 M 90.839844 137.128906 C 91.886719 134.191406 94.730469 133.542969 99.886719 133.542969 L 100.769531 133.542969 L 98.863281 131.316406 C 98.542969 131.289062 98.191406 131.261719 97.875 131.261719 C 91.378906 131.261719 87.636719 134.21875 87.636719 139.382812 L 87.636719 141.203125 C 87.636719 144.507812 88.769531 145.476562 92.210938 145.476562 L 98.058594 145.476562 C 101.285156 145.476562 102.816406 144.425781 102.816406 142.089844 L 102.816406 140.210938 C 102.816406 137.398438 101.203125 136.648438 96.960938 136.648438 C 94.8125 136.648438 92.773438 136.835938 90.839844 137.128906 "/>
<path fill-rule="nonzero" fill="rgb(0%, 0%, 0%)" fill-opacity="1" d="M 47.382812 109.03125 C 46.65625 109.03125 45.964844 109.5 45.964844 110.59375 C 45.964844 111.558594 46.515625 112.199219 47.421875 112.199219 C 48.457031 112.199219 48.855469 111.304688 48.855469 110.609375 C 48.855469 109.898438 48.488281 109.03125 47.382812 109.03125 "/>
<path fill-rule="nonzero" fill="rgb(0%, 0%, 0%)" fill-opacity="1" d="M 66.011719 108.589844 C 65.261719 108.589844 64.492188 109.058594 64.492188 110.324219 C 64.492188 111.417969 65.121094 112.199219 66.070312 112.199219 C 66.792969 112.199219 67.460938 111.644531 67.460938 110.28125 C 67.460938 109.003906 66.640625 108.589844 66.011719 108.589844 "/>
<path fill-rule="nonzero" fill="rgb(0%, 0%, 0%)" fill-opacity="1" d="M 47.421875 107.527344 C 48.203125 107.527344 48.65625 107 48.65625 106.28125 C 48.65625 105.515625 48.132812 105.03125 47.492188 105.03125 C 46.601562 105.03125 46.136719 105.542969 46.136719 106.28125 C 46.136719 106.875 46.574219 107.527344 47.421875 107.527344 "/>
<path fill-rule="nonzero" fill="rgb(0%, 0%, 0%)" fill-opacity="1" d="M 123.238281 113.519531 L 121.25 113.519531 L 121.25 106.570312 L 118.847656 106.570312 L 118.847656 105.175781 L 119.132812 105.175781 C 121.050781 105.175781 121.5625 104.1875 121.601562 103.4375 L 123.238281 103.4375 Z M 99.640625 113.519531 C 99.710938 112.339844 99.796875 111.105469 101.984375 109.515625 C 103.800781 108.195312 104.523438 107.6875 104.523438 106.550781 C 104.523438 105.882812 104.101562 105.117188 103.136719 105.117188 C 101.746094 105.117188 101.703125 106.265625 101.6875 107.003906 L 99.753906 107.003906 C 99.753906 103.722656 102.15625 103.4375 103.050781 103.4375 C 104.980469 103.4375 106.515625 104.574219 106.515625 106.621094 C 106.515625 108.351562 105.390625 109.230469 104.414062 109.898438 C 103.078125 110.835938 102.386719 111.289062 102.15625 111.757812 L 106.53125 111.757812 L 106.53125 113.519531 Z M 62.503906 108.71875 C 62.503906 106.804688 62.761719 103.4375 66.253906 103.4375 C 66.667969 103.4375 67.816406 103.59375 68.3125 104.09375 C 68.867188 104.632812 69.066406 104.929688 69.253906 105.996094 L 67.277344 105.992188 C 67.21875 105.429688 66.847656 105.03125 66.113281 105.03125 C 64.820312 105.03125 64.523438 106.503906 64.453125 107.808594 L 64.480469 107.835938 C 64.75 107.46875 65.246094 107 66.367188 107 C 68.457031 107 69.453125 108.605469 69.453125 110.109375 C 69.453125 112.3125 68.101562 113.789062 66.15625 113.789062 C 63.101562 113.789062 62.503906 111.230469 62.503906 108.71875 M 62.445312 92.21875 L 64.4375 92.21875 C 64.523438 93.039062 64.964844 93.59375 65.84375 93.59375 C 66.792969 93.59375 67.34375 92.785156 67.34375 91.707031 C 67.34375 90.8125 66.921875 89.902344 65.871094 89.902344 C 65.601562 89.902344 64.921875 89.914062 64.539062 90.628906 L 62.761719 90.542969 L 63.457031 85.007812 L 68.996094 85.007812 L 68.996094 86.683594 L 64.890625 86.683594 L 64.539062 88.863281 C 64.90625 88.609375 65.359375 88.308594 66.339844 88.308594 C 67.6875 88.308594 69.394531 89.25 69.394531 91.5625 C 69.394531 92.941406 68.695312 95.1875 65.726562 95.1875 C 64.152344 95.1875 62.546875 94.246094 62.445312 92.21875 M 66.46875 81.011719 L 74.855469 81.015625 L 74.855469 97.667969 L 66.46875 97.667969 L 66.46875 96.316406 L 72.472656 96.316406 L 72.472656 83.394531 L 66.46875 83.394531 Z M 43.914062 110.722656 C 43.914062 110.210938 43.914062 108.875 45.449219 108.167969 C 44.652344 107.769531 44.226562 107.128906 44.226562 106.195312 C 44.226562 104.476562 45.605469 103.4375 47.367188 103.4375 C 49.453125 103.4375 50.5625 104.675781 50.5625 106.066406 C 50.5625 106.929688 50.207031 107.667969 49.398438 108.097656 C 50.363281 108.578125 50.90625 109.21875 50.90625 110.523438 C 50.90625 111.800781 50.078125 113.789062 47.40625 113.789062 C 44.808594 113.789062 43.914062 112.097656 43.914062 110.722656 M 45.238281 94.917969 C 45.453125 90.886719 47.980469 87.675781 48.835938 86.769531 L 43.816406 86.769531 L 43.859375 85.007812 L 50.96875 85.007812 L 50.96875 86.542969 C 50 87.59375 47.527344 90.574219 47.285156 94.917969 Z M 81.042969 92.679688 L 81.042969 90.960938 L 84.753906 84.835938 L 87.015625 84.835938 L 87.015625 91.128906 L 88.140625 91.128906 L 88.140625 92.679688 L 87.015625 92.679688 L 87.015625 94.917969 L 85.023438 94.917969 L 85.023438 92.679688 Z M 81.050781 73.21875 L 83 73.21875 L 82.984375 73.230469 C 82.984375 73.769531 83.128906 74.988281 84.460938 74.988281 C 85.257812 74.988281 85.949219 74.449219 85.949219 73.328125 C 85.949219 71.953125 84.613281 71.898438 83.683594 71.898438 L 83.683594 70.476562 L 84.007812 70.476562 C 84.601562 70.476562 85.691406 70.417969 85.691406 69.113281 C 85.691406 68.746094 85.523438 67.820312 84.429688 67.820312 C 83.070312 67.820312 83.070312 69.113281 83.070312 69.46875 L 81.222656 69.46875 C 81.222656 67.582031 82.289062 66.230469 84.558594 66.230469 C 85.90625 66.230469 87.683594 66.914062 87.683594 69.042969 C 87.683594 70.0625 87.046875 70.703125 86.476562 70.957031 L 86.476562 70.988281 C 86.832031 71.085938 87.996094 71.613281 87.996094 73.328125 C 87.996094 75.230469 86.589844 76.582031 84.558594 76.582031 C 83.609375 76.582031 81.050781 76.367188 81.050781 73.21875 M 115.363281 102 L 115.363281 114.917969 L 121.367188 114.917969 L 121.367188 120.40625 L 103.675781 120.40625 L 103.675781 114.917969 L 109.679688 114.917969 L 109.679688 102 L 96.761719 102 L 96.761719 114.917969 L 102.761719 114.917969 L 102.761719 120.40625 L 66.46875 120.40625 L 66.46875 114.917969 L 72.472656 114.917969 L 72.472656 102 L 66.46875 102 L 66.46875 100.945312 L 85.070312 100.945312 L 85.070312 96.316406 L 91.074219 96.316406 L 91.074219 83.394531 L 85.070312 83.394531 L 85.070312 77.710938 L 91.074219 77.710938 L 91.074219 64.792969 L 78.152344 64.792969 L 78.152344 77.710938 L 84.160156 77.710938 L 84.160156 83.394531 L 78.152344 83.394531 L 78.152344 96.316406 L 84.160156 96.316406 L 84.160156 100.035156 L 66.46875 100.035156 L 66.46875 98.578125 L 75.769531 98.578125 L 75.769531 80.105469 L 75.3125 80.105469 L 66.011719 80.097656 L 65.554688 80.097656 L 65.554688 83.394531 L 59.550781 83.394531 L 59.550781 96.316406 L 65.554688 96.316406 L 65.554688 102 L 59.550781 102 L 59.550781 114.917969 L 65.554688 114.917969 L 65.554688 120.40625 L 47.863281 120.40625 L 47.863281 114.917969 L 53.867188 114.917969 L 53.867188 102 L 47.863281 102 L 47.863281 96.316406 L 53.867188 96.316406 L 53.867188 83.394531 L 40.945312 83.394531 L 40.945312 96.316406 L 46.953125 96.316406 L 46.953125 102 L 40.945312 102 L 40.945312 114.917969 L 46.953125 114.917969 L 46.953125 121.316406 L 122.28125 121.316406 L 122.28125 114.917969 L 128.28125 114.917969 L 128.28125 102 Z M 115.363281 102 "/>
<path fill-rule="nonzero" fill="rgb(0%, 0%, 0%)" fill-opacity="1" d="M 85.066406 86.8125 L 85.039062 86.8125 L 82.507812 91.128906 L 85.023438 91.128906 C 85.023438 88.695312 85.066406 87.125 85.066406 86.8125 "/>
</svg>
