<?xml version="1.0" encoding="UTF-8"?>
<svg xmlns="http://www.w3.org/2000/svg" xmlns:xlink="http://www.w3.org/1999/xlink" width="172" height="152" viewBox="0 0 172 152">
<path fill-rule="nonzero" fill="rgb(0%, 0%, 0%)" fill-opacity="1" d="M 68.140625 131.710938 L 80.125 131.710938 L 79.882812 134.070312 L 70.210938 134.070312 L 69.886719 136.761719 C 72.007812 136.546875 73.867188 136.410156 75.503906 136.410156 C 80.074219 136.410156 82.386719 137.96875 82.386719 141.117188 C 82.386719 144.484375 79.9375 145.777344 74.75 145.777344 C 71.769531 145.777344 69.539062 145.5625 68.0625 145.214844 L 67.363281 142.519531 C 69.886719 142.980469 72.308594 143.246094 74.671875 143.246094 C 77.949219 143.246094 79.402344 142.707031 79.402344 140.984375 C 79.402344 139.339844 77.921875 138.828125 74.859375 138.828125 C 72.949219 138.828125 70.453125 138.992188 67.363281 139.394531 L 68.140625 131.710938 "/>
<path fill-rule="nonzero" fill="rgb(0%, 0%, 0%)" fill-opacity="1" d="M 97.324219 140.195312 L 89.746094 140.195312 L 97.324219 133.988281 Z M 97.324219 145.75 L 100.253906 145.75 L 100.253906 142.503906 L 103.613281 142.503906 L 103.613281 140.195312 L 100.253906 140.195312 L 100.253906 131.539062 L 97.214844 131.539062 L 86.816406 140.195312 L 86.816406 142.503906 L 97.324219 142.503906 Z M 97.324219 145.75 "/>
<path fill-rule="nonzero" fill="rgb(0%, 0%, 0%)" fill-opacity="1" d="M 65.984375 109.136719 C 65.261719 109.136719 64.566406 109.605469 64.566406 110.699219 C 64.566406 111.660156 65.121094 112.300781 66.027344 112.300781 C 67.0625 112.300781 67.460938 111.40625 67.460938 110.710938 C 67.460938 110.003906 67.089844 109.136719 65.984375 109.136719 "/>
<path fill-rule="nonzero" fill="rgb(0%, 0%, 0%)" fill-opacity="1" d="M 66.027344 107.628906 C 66.804688 107.628906 67.261719 107.105469 67.261719 106.382812 C 67.261719 105.617188 66.738281 105.132812 66.097656 105.132812 C 65.207031 105.132812 64.738281 105.644531 64.738281 106.382812 C 64.738281 106.980469 65.175781 107.628906 66.027344 107.628906 "/>
<path fill-rule="nonzero" fill="rgb(0%, 0%, 0%)" fill-opacity="1" d="M 47.410156 90.089844 C 46.65625 90.089844 45.890625 90.558594 45.890625 91.824219 C 45.890625 92.917969 46.515625 93.695312 47.464844 93.695312 C 48.1875 93.695312 48.855469 93.144531 48.855469 91.78125 C 48.855469 90.503906 48.035156 90.089844 47.410156 90.089844 "/>
<path fill-rule="nonzero" fill="rgb(0%, 0%, 0%)" fill-opacity="1" d="M 141.84375 113.625 L 139.855469 113.625 L 139.855469 106.671875 L 137.453125 106.671875 L 137.453125 105.277344 L 137.738281 105.277344 C 139.65625 105.277344 140.167969 104.289062 140.207031 103.539062 L 141.84375 103.539062 Z M 118.246094 113.621094 C 118.316406 112.441406 118.402344 111.207031 120.589844 109.617188 C 122.40625 108.296875 123.128906 107.785156 123.128906 106.652344 C 123.128906 105.984375 122.703125 105.21875 121.738281 105.21875 C 120.351562 105.21875 120.308594 106.367188 120.292969 107.105469 L 118.359375 107.105469 C 118.359375 103.824219 120.761719 103.542969 121.65625 103.542969 C 123.582031 103.542969 125.121094 104.679688 125.121094 106.722656 C 125.121094 108.453125 123.996094 109.335938 123.019531 110 C 121.683594 110.9375 120.988281 111.390625 120.761719 111.859375 L 125.136719 111.859375 L 125.136719 113.621094 Z M 62.519531 110.824219 C 62.519531 110.3125 62.519531 108.980469 64.054688 108.269531 C 63.257812 107.871094 62.832031 107.230469 62.832031 106.296875 C 62.832031 104.582031 64.210938 103.542969 65.972656 103.542969 C 68.058594 103.542969 69.167969 104.777344 69.167969 106.167969 C 69.167969 107.03125 68.8125 107.769531 68 108.199219 C 68.96875 108.679688 69.507812 109.320312 69.507812 110.625 C 69.507812 111.902344 68.683594 113.894531 66.015625 113.894531 C 63.414062 113.894531 62.519531 112.199219 62.519531 110.824219 M 62.449219 92.320312 L 64.4375 92.320312 C 64.523438 93.144531 64.964844 93.695312 65.84375 93.695312 C 66.792969 93.695312 67.347656 92.886719 67.347656 91.808594 C 67.347656 90.914062 66.921875 90.007812 65.871094 90.007812 C 65.601562 90.007812 64.917969 90.019531 64.535156 90.730469 L 62.757812 90.644531 L 63.457031 85.109375 L 68.996094 85.109375 L 68.996094 86.785156 L 64.894531 86.785156 L 64.535156 88.96875 C 64.90625 88.714844 65.363281 88.414062 66.339844 88.414062 C 67.6875 88.414062 69.394531 89.351562 69.394531 91.664062 C 69.394531 93.046875 68.699219 95.289062 65.730469 95.289062 C 64.15625 95.289062 62.546875 94.351562 62.449219 92.320312 M 43.902344 90.21875 C 43.902344 88.304688 44.15625 84.9375 47.652344 84.9375 C 48.0625 84.9375 49.210938 85.09375 49.710938 85.59375 C 50.265625 86.132812 50.464844 86.429688 50.648438 87.496094 L 48.671875 87.492188 C 48.617188 86.925781 48.246094 86.53125 47.507812 86.53125 C 46.21875 86.53125 45.917969 88.003906 45.847656 89.308594 L 45.878906 89.339844 C 46.148438 88.96875 46.644531 88.496094 47.765625 88.496094 C 49.851562 88.496094 50.847656 90.105469 50.847656 91.609375 C 50.847656 93.8125 49.496094 95.289062 47.550781 95.289062 C 44.496094 95.289062 43.902344 92.730469 43.902344 90.21875 M 26.636719 95.019531 C 26.851562 90.988281 29.378906 87.78125 30.234375 86.871094 L 25.214844 86.871094 L 25.257812 85.109375 L 32.367188 85.109375 L 32.367188 86.644531 C 31.398438 87.695312 28.925781 90.675781 28.683594 95.019531 Z M 81.042969 92.78125 L 81.042969 91.0625 L 84.753906 84.9375 L 87.019531 84.9375 L 87.019531 91.230469 L 88.140625 91.230469 L 88.140625 92.78125 L 87.019531 92.78125 L 87.019531 95.019531 L 85.023438 95.019531 L 85.023438 92.78125 Z M 99.65625 91.925781 L 101.605469 91.925781 L 101.589844 91.9375 C 101.589844 92.476562 101.730469 93.695312 103.066406 93.695312 C 103.859375 93.695312 104.554688 93.15625 104.554688 92.035156 C 104.554688 90.660156 103.21875 90.605469 102.289062 90.605469 L 102.289062 89.183594 L 102.609375 89.183594 C 103.207031 89.183594 104.296875 89.125 104.296875 87.820312 C 104.296875 87.449219 104.128906 86.53125 103.035156 86.53125 C 101.675781 86.53125 101.675781 87.820312 101.675781 88.175781 L 99.824219 88.175781 C 99.824219 86.289062 100.894531 84.9375 103.164062 84.9375 C 104.511719 84.9375 106.289062 85.621094 106.289062 87.75 C 106.289062 88.769531 105.648438 89.410156 105.078125 89.664062 L 105.078125 89.691406 C 105.4375 89.792969 106.601562 90.320312 106.601562 92.035156 C 106.601562 93.9375 105.195312 95.289062 103.164062 95.289062 C 102.210938 95.289062 99.65625 95.078125 99.65625 91.925781 M 103.675781 81.113281 L 112.066406 81.113281 L 112.066406 97.769531 L 103.675781 97.769531 L 103.675781 96.417969 L 109.679688 96.417969 L 109.679688 83.5 L 103.675781 83.5 Z M 133.964844 102.105469 L 133.964844 115.019531 L 139.972656 115.019531 L 139.972656 120.507812 L 122.28125 120.507812 L 122.28125 115.019531 L 128.28125 115.019531 L 128.28125 102.105469 L 115.363281 102.105469 L 115.363281 115.019531 L 121.367188 115.019531 L 121.367188 120.507812 L 66.46875 120.507812 L 66.46875 115.019531 L 72.472656 115.019531 L 72.472656 102.105469 L 66.46875 102.105469 L 66.46875 100.75 L 103.675781 100.75 L 103.675781 98.683594 L 112.976562 98.683594 L 112.976562 80.199219 L 102.765625 80.199219 L 102.765625 83.5 L 96.757812 83.5 L 96.757812 96.417969 L 102.765625 96.417969 L 102.765625 99.839844 L 85.074219 99.839844 L 85.074219 96.417969 L 91.074219 96.417969 L 91.074219 83.5 L 78.15625 83.5 L 78.15625 96.417969 L 84.160156 96.417969 L 84.160156 99.839844 L 66.46875 99.839844 L 66.46875 96.417969 L 72.472656 96.417969 L 72.472656 83.5 L 59.550781 83.5 L 59.550781 96.417969 L 65.558594 96.417969 L 65.558594 99.839844 L 47.863281 99.839844 L 47.863281 96.417969 L 53.867188 96.417969 L 53.867188 83.5 L 40.949219 83.5 L 40.949219 96.417969 L 46.953125 96.417969 L 46.953125 99.839844 L 29.261719 99.839844 L 29.261719 96.417969 L 35.265625 96.417969 L 35.265625 83.5 L 22.34375 83.5 L 22.34375 96.417969 L 28.351562 96.417969 L 28.351562 100.75 L 65.558594 100.75 L 65.558594 102.105469 L 59.550781 102.105469 L 59.550781 115.019531 L 65.558594 115.019531 L 65.558594 121.421875 L 140.882812 121.421875 L 140.882812 115.019531 L 146.886719 115.019531 L 146.886719 102.105469 Z M 133.964844 102.105469 "/>
<path fill-rule="nonzero" fill="rgb(0%, 0%, 0%)" fill-opacity="1" d="M 85.070312 86.914062 L 85.039062 86.914062 L 82.507812 91.230469 L 85.023438 91.230469 C 85.023438 88.796875 85.070312 87.226562 85.070312 86.914062 "/>
</svg>
