<?xml version="1.0" encoding="UTF-8"?>
<svg xmlns="http://www.w3.org/2000/svg" xmlns:xlink="http://www.w3.org/1999/xlink" width="172" height="152" viewBox="0 0 172 152">
<path fill-rule="nonzero" fill="rgb(0%, 0%, 0%)" fill-opacity="1" d="M 76.550781 140.199219 L 68.976562 140.199219 L 76.550781 133.984375 Z M 76.550781 145.75 L 79.484375 145.75 L 79.484375 142.503906 L 82.839844 142.503906 L 82.839844 140.199219 L 79.484375 140.199219 L 79.484375 131.539062 L 76.449219 131.539062 L 66.046875 140.199219 L 66.046875 142.503906 L 76.550781 142.503906 Z M 76.550781 145.75 "/>
<path fill-rule="nonzero" fill="rgb(0%, 0%, 0%)" fill-opacity="1" d="M 94.164062 134.339844 L 91.207031 134.339844 L 91.207031 132.484375 L 97.09375 131.597656 L 97.09375 145.578125 L 94.164062 145.578125 Z M 94.164062 134.339844 "/>
<path fill-rule="nonzero" fill="rgb(0%, 0%, 0%)" fill-opacity="1" d="M 58.15625 73.175781 C 58.15625 71.898438 57.335938 71.488281 56.710938 71.488281 C 55.960938 71.488281 55.195312 71.957031 55.195312 73.21875 C 55.195312 74.3125 55.816406 75.09375 56.769531 75.09375 C 57.492188 75.09375 58.15625 74.539062 58.15625 73.175781 "/>
<path fill-rule="nonzero" fill="rgb(0%, 0%, 0%)" fill-opacity="1" d="M 56.726562 107.628906 C 57.503906 107.628906 57.960938 107.105469 57.960938 106.382812 C 57.960938 105.613281 57.433594 105.132812 56.796875 105.132812 C 55.902344 105.132812 55.4375 105.644531 55.4375 106.382812 C 55.4375 106.976562 55.875 107.628906 56.726562 107.628906 "/>
<path fill-rule="nonzero" fill="rgb(0%, 0%, 0%)" fill-opacity="1" d="M 113.9375 113.625 L 111.949219 113.625 L 111.949219 106.671875 L 109.542969 106.671875 L 109.542969 105.28125 L 109.832031 105.28125 C 111.75 105.28125 112.261719 104.289062 112.304688 103.539062 L 113.9375 103.539062 Z M 90.339844 113.625 C 90.410156 112.441406 90.496094 111.207031 92.683594 109.617188 C 94.5 108.300781 95.222656 107.785156 95.222656 106.652344 C 95.222656 105.984375 94.796875 105.21875 93.835938 105.21875 C 92.445312 105.21875 92.402344 106.371094 92.386719 107.105469 L 90.453125 107.105469 C 90.453125 103.828125 92.855469 103.542969 93.75 103.542969 C 95.679688 103.542969 97.214844 104.679688 97.214844 106.722656 C 97.214844 108.457031 96.089844 109.335938 95.109375 110.003906 C 93.777344 110.9375 93.082031 111.390625 92.855469 111.859375 L 97.230469 111.859375 L 97.230469 113.625 Z M 53.214844 110.824219 C 53.214844 110.316406 53.214844 108.980469 54.753906 108.269531 C 53.957031 107.871094 53.53125 107.230469 53.53125 106.296875 C 53.53125 104.578125 54.910156 103.542969 56.671875 103.542969 C 58.757812 103.542969 59.863281 104.777344 59.863281 106.171875 C 59.863281 107.035156 59.507812 107.773438 58.699219 108.199219 C 59.667969 108.683594 60.207031 109.320312 60.207031 110.628906 C 60.207031 111.902344 59.382812 113.894531 56.710938 113.894531 C 54.113281 113.894531 53.214844 112.203125 53.214844 110.824219 M 54.542969 95.019531 C 54.753906 90.988281 57.285156 87.78125 58.136719 86.871094 L 53.121094 86.871094 L 53.164062 85.109375 L 60.273438 85.109375 L 60.273438 86.644531 C 59.304688 87.695312 56.832031 90.679688 56.589844 95.019531 Z M 53.203125 71.613281 C 53.203125 69.699219 53.457031 66.335938 56.953125 66.335938 C 57.363281 66.335938 58.511719 66.492188 59.011719 66.988281 C 59.566406 67.527344 59.765625 67.828125 59.949219 68.890625 L 57.972656 68.890625 C 57.917969 68.324219 57.546875 67.925781 56.8125 67.925781 C 55.519531 67.925781 55.222656 69.398438 55.152344 70.707031 L 55.179688 70.734375 C 55.449219 70.363281 55.945312 69.894531 57.066406 69.894531 C 59.152344 69.894531 60.152344 71.5 60.152344 73.007812 C 60.152344 75.207031 58.796875 76.6875 56.851562 76.6875 C 53.800781 76.6875 53.203125 74.128906 53.203125 71.613281 M 53.144531 55.113281 L 55.136719 55.113281 C 55.222656 55.9375 55.664062 56.488281 56.542969 56.488281 C 57.492188 56.488281 58.046875 55.679688 58.046875 54.601562 C 58.046875 53.707031 57.617188 52.796875 56.570312 52.796875 C 56.296875 52.796875 55.617188 52.8125 55.234375 53.523438 L 53.457031 53.4375 L 54.15625 47.902344 L 59.695312 47.902344 L 59.695312 49.578125 L 55.589844 49.578125 L 55.234375 51.761719 C 55.605469 51.503906 56.058594 51.207031 57.039062 51.207031 C 58.386719 51.207031 60.09375 52.144531 60.09375 54.457031 C 60.09375 55.835938 59.398438 58.082031 56.429688 58.082031 C 54.851562 58.082031 53.246094 57.144531 53.144531 55.113281 M 53.140625 36.972656 L 53.140625 35.253906 L 56.847656 29.128906 L 59.109375 29.128906 L 59.109375 35.421875 L 60.234375 35.421875 L 60.234375 36.972656 L 59.109375 36.972656 L 59.109375 39.210938 L 57.121094 39.210938 L 57.121094 36.972656 Z M 71.75 91.925781 L 73.699219 91.925781 L 73.683594 91.9375 C 73.683594 92.476562 73.824219 93.699219 75.160156 93.699219 C 75.953125 93.699219 76.648438 93.15625 76.648438 92.035156 C 76.648438 90.660156 75.316406 90.605469 74.382812 90.605469 L 74.382812 89.183594 L 74.703125 89.183594 C 75.300781 89.183594 76.390625 89.125 76.390625 87.820312 C 76.390625 87.453125 76.222656 86.53125 75.128906 86.53125 C 73.769531 86.53125 73.769531 87.820312 73.769531 88.175781 L 71.921875 88.175781 C 71.921875 86.289062 72.988281 84.9375 75.257812 84.9375 C 76.605469 84.9375 78.382812 85.621094 78.382812 87.75 C 78.382812 88.769531 77.742188 89.410156 77.175781 89.664062 L 77.175781 89.695312 C 77.53125 89.792969 78.695312 90.320312 78.695312 92.035156 C 78.695312 93.9375 77.289062 95.289062 75.257812 95.289062 C 74.308594 95.289062 71.75 95.074219 71.75 91.925781 M 75.769531 81.113281 L 84.160156 81.113281 L 84.160156 97.769531 L 75.769531 97.769531 L 75.769531 96.417969 L 81.773438 96.417969 L 81.773438 83.5 L 75.769531 83.5 Z M 106.0625 102.101562 L 106.0625 115.023438 L 112.066406 115.023438 L 112.066406 120.511719 L 94.375 120.511719 L 94.375 115.023438 L 100.378906 115.023438 L 100.378906 102.101562 L 87.457031 102.101562 L 87.457031 115.023438 L 93.460938 115.023438 L 93.460938 120.511719 L 57.167969 120.511719 L 57.167969 115.023438 L 63.167969 115.023438 L 63.167969 102.101562 L 57.167969 102.101562 L 57.167969 100.75 L 75.769531 100.75 L 75.769531 98.683594 L 85.074219 98.683594 L 85.074219 80.203125 L 74.859375 80.203125 L 74.859375 83.5 L 68.855469 83.5 L 68.855469 96.417969 L 74.859375 96.417969 L 74.859375 99.839844 L 57.167969 99.839844 L 57.167969 96.417969 L 63.167969 96.417969 L 63.167969 83.5 L 57.167969 83.5 L 57.167969 77.8125 L 63.167969 77.8125 L 63.167969 64.894531 L 57.167969 64.894531 L 57.167969 59.210938 L 63.167969 59.210938 L 63.167969 46.289062 L 57.167969 46.289062 L 57.167969 40.605469 L 63.167969 40.605469 L 63.167969 27.6875 L 50.25 27.6875 L 50.25 40.605469 L 56.253906 40.605469 L 56.253906 46.289062 L 50.25 46.289062 L 50.25 59.210938 L 56.253906 59.210938 L 56.253906 64.894531 L 50.25 64.894531 L 50.25 77.8125 L 56.253906 77.8125 L 56.253906 83.5 L 50.25 83.5 L 50.25 96.417969 L 56.253906 96.417969 L 56.253906 102.101562 L 50.25 102.101562 L 50.25 115.023438 L 56.253906 115.023438 L 56.253906 121.421875 L 112.976562 121.421875 L 112.976562 115.023438 L 118.980469 115.023438 L 118.980469 102.101562 Z M 106.0625 102.101562 "/>
<path fill-rule="nonzero" fill="rgb(0%, 0%, 0%)" fill-opacity="1" d="M 57.160156 31.101562 L 57.132812 31.101562 L 54.601562 35.421875 L 57.117188 35.421875 C 57.117188 32.988281 57.160156 31.414062 57.160156 31.101562 "/>
<path fill-rule="nonzero" fill="rgb(0%, 0%, 0%)" fill-opacity="1" d="M 56.683594 109.136719 C 55.960938 109.136719 55.265625 109.605469 55.265625 110.699219 C 55.265625 111.660156 55.816406 112.300781 56.726562 112.300781 C 57.761719 112.300781 58.160156 111.40625 58.160156 110.710938 C 58.160156 110 57.789062 109.136719 56.683594 109.136719 "/>
</svg>
