<?xml version="1.0" encoding="UTF-8"?>
<svg xmlns="http://www.w3.org/2000/svg" xmlns:xlink="http://www.w3.org/1999/xlink" width="172" height="152" viewBox="0 0 172 152">
<path fill-rule="nonzero" fill="rgb(0%, 0%, 0%)" fill-opacity="1" d="M 66.839844 142.863281 L 66.839844 141.734375 L 69.6875 141.144531 L 69.6875 143.078125 L 77.148438 143.078125 C 78.222656 143.078125 78.492188 142.835938 78.492188 141.839844 L 78.492188 140.816406 C 78.492188 139.824219 78.222656 139.558594 77.140625 139.570312 L 72.460938 139.570312 L 72.460938 137.320312 L 76.632812 137.320312 C 77.707031 137.320312 77.949219 137.046875 77.949219 136.046875 L 77.949219 135.34375 C 77.949219 134.34375 77.707031 134.074219 76.632812 134.074219 L 69.769531 134.074219 L 69.769531 135.804688 L 67.035156 135.289062 L 67.035156 134.421875 C 67.035156 132.21875 67.84375 131.707031 70.203125 131.707031 L 77.707031 131.707031 C 80.070312 131.707031 80.878906 132.21875 80.878906 134.421875 L 80.878906 135.695312 C 80.878906 137.347656 80.179688 138.015625 78.195312 138.320312 C 80.398438 138.535156 81.421875 139.394531 81.421875 141.144531 L 81.421875 142.59375 C 81.421875 144.742188 80.722656 145.578125 78.0625 145.578125 L 70.007812 145.578125 C 67.644531 145.578125 66.839844 145.066406 66.839844 142.863281 "/>
<path fill-rule="nonzero" fill="rgb(0%, 0%, 0%)" fill-opacity="1" d="M 90.65625 139.324219 C 92.773438 139.109375 94.84375 139 96.800781 139 C 99.136719 139 99.859375 139.296875 99.859375 140.664062 L 99.859375 141.414062 C 99.859375 142.644531 99.324219 143.078125 97.339844 143.078125 L 93.472656 143.078125 C 90.816406 143.078125 90.601562 142.539062 90.601562 140.125 C 90.601562 139.914062 90.601562 139.644531 90.65625 139.324219 M 90.84375 137.230469 C 91.890625 134.292969 94.734375 133.644531 99.886719 133.644531 L 100.773438 133.644531 L 98.867188 131.421875 C 98.546875 131.390625 98.195312 131.363281 97.875 131.363281 C 91.378906 131.363281 87.640625 134.320312 87.640625 139.480469 L 87.640625 141.304688 C 87.640625 144.609375 88.769531 145.578125 92.210938 145.578125 L 98.0625 145.578125 C 101.285156 145.578125 102.816406 144.527344 102.816406 142.191406 L 102.816406 140.3125 C 102.816406 137.5 101.203125 136.75 96.960938 136.75 C 94.8125 136.75 92.773438 136.9375 90.84375 137.230469 "/>
<path fill-rule="nonzero" fill="rgb(0%, 0%, 0%)" fill-opacity="1" d="M 38.121094 107.628906 C 38.902344 107.628906 39.355469 107.105469 39.355469 106.378906 C 39.355469 105.617188 38.832031 105.132812 38.195312 105.132812 C 37.300781 105.132812 36.835938 105.644531 36.835938 106.378906 C 36.835938 106.976562 37.273438 107.628906 38.121094 107.628906 "/>
<path fill-rule="nonzero" fill="rgb(0%, 0%, 0%)" fill-opacity="1" d="M 75.316406 108.695312 C 74.566406 108.695312 73.796875 109.160156 73.796875 110.425781 C 73.796875 111.519531 74.425781 112.300781 75.375 112.300781 C 76.097656 112.300781 76.765625 111.746094 76.765625 110.382812 C 76.765625 109.105469 75.941406 108.695312 75.316406 108.695312 "/>
<path fill-rule="nonzero" fill="rgb(0%, 0%, 0%)" fill-opacity="1" d="M 130.554688 76.417969 L 130.554688 69.464844 L 128.152344 69.464844 L 128.152344 68.070312 L 128.433594 68.070312 C 130.351562 68.070312 130.867188 67.082031 130.910156 66.332031 L 132.542969 66.332031 L 132.542969 76.417969 Z M 134.425781 88.117188 C 134.425781 89.851562 133.300781 90.730469 132.320312 91.398438 C 130.984375 92.332031 130.292969 92.789062 130.0625 93.253906 L 134.4375 93.253906 L 134.4375 95.019531 L 127.546875 95.019531 C 127.617188 93.835938 127.703125 92.601562 129.894531 91.011719 C 131.710938 89.695312 132.433594 89.183594 132.433594 88.050781 C 132.433594 87.382812 132.007812 86.613281 131.042969 86.613281 C 129.652344 86.613281 129.609375 87.765625 129.597656 88.503906 L 127.664062 88.503906 C 127.664062 85.222656 130.0625 84.9375 130.957031 84.9375 C 132.886719 84.9375 134.425781 86.074219 134.425781 88.117188 M 134.195312 106.351562 C 134.195312 107.375 133.554688 108.011719 132.988281 108.269531 L 132.988281 108.296875 C 133.34375 108.398438 134.511719 108.921875 134.511719 110.640625 C 134.511719 112.542969 133.101562 113.894531 131.070312 113.894531 C 130.121094 113.894531 127.5625 113.679688 127.5625 110.527344 L 129.511719 110.527344 L 129.496094 110.539062 C 129.496094 111.082031 129.636719 112.300781 130.972656 112.300781 C 131.765625 112.300781 132.460938 111.761719 132.460938 110.640625 C 132.460938 109.265625 131.128906 109.207031 130.195312 109.207031 L 130.195312 107.785156 L 130.515625 107.785156 C 131.113281 107.785156 132.207031 107.726562 132.207031 106.421875 C 132.207031 106.054688 132.035156 105.132812 130.941406 105.132812 C 129.582031 105.132812 129.582031 106.421875 129.582031 106.777344 L 127.734375 106.777344 C 127.734375 104.890625 128.800781 103.542969 131.070312 103.542969 C 132.417969 103.542969 134.195312 104.222656 134.195312 106.351562 M 131.582031 62.507812 L 140.070312 62.511719 L 140.070312 80.199219 L 131.582031 80.199219 L 131.582031 77.8125 L 137.585938 77.8125 L 137.585938 64.894531 L 131.582031 64.894531 Z M 108.953125 111.386719 L 108.953125 109.664062 L 112.664062 103.542969 L 114.921875 103.542969 L 114.921875 109.835938 L 116.046875 109.835938 L 116.046875 111.386719 L 114.921875 111.386719 L 114.921875 113.625 L 112.933594 113.625 L 112.933594 111.386719 Z M 90.351562 110.921875 L 92.347656 110.921875 C 92.429688 111.746094 92.871094 112.300781 93.75 112.300781 C 94.699219 112.300781 95.253906 111.492188 95.253906 110.414062 C 95.253906 109.515625 94.828125 108.609375 93.777344 108.609375 C 93.507812 108.609375 92.828125 108.621094 92.445312 109.332031 L 90.667969 109.25 L 91.363281 103.710938 L 96.902344 103.710938 L 96.902344 105.390625 L 92.800781 105.390625 L 92.445312 107.570312 C 92.816406 107.3125 93.269531 107.015625 94.246094 107.015625 C 95.59375 107.015625 97.300781 107.953125 97.300781 110.269531 C 97.300781 111.648438 96.605469 113.894531 93.636719 113.894531 C 92.0625 113.894531 90.453125 112.953125 90.351562 110.921875 M 71.808594 108.820312 C 71.808594 106.90625 72.0625 103.542969 75.558594 103.542969 C 75.96875 103.542969 77.121094 103.699219 77.617188 104.195312 C 78.171875 104.734375 78.371094 105.035156 78.554688 106.097656 L 76.578125 106.09375 C 76.523438 105.527344 76.152344 105.132812 75.414062 105.132812 C 74.125 105.132812 73.828125 106.605469 73.757812 107.914062 L 73.78125 107.941406 C 74.054688 107.570312 74.550781 107.101562 75.671875 107.101562 C 77.761719 107.101562 78.753906 108.707031 78.753906 110.210938 C 78.753906 112.414062 77.402344 113.894531 75.460938 113.894531 C 72.40625 113.894531 71.808594 111.332031 71.808594 108.820312 M 54.542969 113.625 C 54.757812 109.59375 57.289062 106.382812 58.140625 105.476562 L 53.121094 105.476562 L 53.164062 103.710938 L 60.269531 103.710938 L 60.269531 105.25 C 59.304688 106.296875 56.832031 109.28125 56.589844 113.625 Z M 34.613281 110.824219 C 34.613281 110.3125 34.613281 108.976562 36.148438 108.269531 C 35.351562 107.871094 34.925781 107.230469 34.925781 106.296875 C 34.925781 104.578125 36.308594 103.542969 38.066406 103.542969 C 40.152344 103.542969 41.261719 104.777344 41.261719 106.167969 C 41.261719 107.035156 40.90625 107.773438 40.097656 108.199219 C 41.0625 108.679688 41.605469 109.320312 41.605469 110.625 C 41.605469 111.902344 40.777344 113.894531 38.109375 113.894531 C 35.511719 113.894531 34.613281 112.203125 34.613281 110.824219 M 140.984375 81.109375 L 140.984375 61.601562 L 140.527344 61.601562 L 131.125 61.597656 L 130.671875 61.59375 L 130.671875 64.894531 L 124.667969 64.894531 L 124.667969 77.8125 L 130.671875 77.8125 L 130.671875 83.496094 L 124.667969 83.496094 L 124.667969 96.417969 L 130.671875 96.417969 L 130.671875 102.101562 L 124.667969 102.101562 L 124.667969 115.023438 L 130.671875 115.023438 L 130.671875 120.507812 L 112.976562 120.507812 L 112.976562 115.023438 L 118.984375 115.023438 L 118.984375 102.101562 L 106.0625 102.101562 L 106.0625 115.023438 L 112.066406 115.023438 L 112.066406 120.507812 L 94.375 120.507812 L 94.375 115.023438 L 100.378906 115.023438 L 100.378906 102.101562 L 87.460938 102.101562 L 87.460938 115.023438 L 93.464844 115.023438 L 93.464844 120.507812 L 75.769531 120.507812 L 75.769531 115.023438 L 81.773438 115.023438 L 81.773438 102.101562 L 68.855469 102.101562 L 68.855469 115.023438 L 74.859375 115.023438 L 74.859375 120.507812 L 57.167969 120.507812 L 57.167969 115.023438 L 63.171875 115.023438 L 63.171875 102.101562 L 50.253906 102.101562 L 50.253906 115.023438 L 56.253906 115.023438 L 56.253906 120.507812 L 38.5625 120.507812 L 38.5625 115.023438 L 44.566406 115.023438 L 44.566406 102.101562 L 31.648438 102.101562 L 31.648438 115.023438 L 37.652344 115.023438 L 37.652344 121.421875 L 131.582031 121.421875 L 131.582031 115.023438 L 137.585938 115.023438 L 137.585938 102.101562 L 131.582031 102.101562 L 131.582031 96.417969 L 137.585938 96.417969 L 137.585938 83.496094 L 131.582031 83.496094 L 131.582031 81.109375 Z M 140.984375 81.109375 "/>
<path fill-rule="nonzero" fill="rgb(0%, 0%, 0%)" fill-opacity="1" d="M 112.972656 105.519531 L 112.945312 105.519531 L 110.417969 109.835938 L 112.933594 109.835938 C 112.933594 107.402344 112.972656 105.832031 112.972656 105.519531 "/>
<path fill-rule="nonzero" fill="rgb(0%, 0%, 0%)" fill-opacity="1" d="M 38.082031 109.136719 C 37.355469 109.136719 36.664062 109.605469 36.664062 110.695312 C 36.664062 111.660156 37.214844 112.300781 38.125 112.300781 C 39.15625 112.300781 39.554688 111.40625 39.554688 110.710938 C 39.554688 110 39.1875 109.136719 38.082031 109.136719 "/>
</svg>
