<?xml version="1.0" encoding="UTF-8"?>
<svg xmlns="http://www.w3.org/2000/svg" xmlns:xlink="http://www.w3.org/1999/xlink" width="172" height="152" viewBox="0 0 172 152">
<path fill-rule="nonzero" fill="rgb(0%, 0%, 0%)" fill-opacity="1" d="M 68.140625 131.710938 L 80.125 131.710938 L 79.882812 134.070312 L 70.210938 134.070312 L 69.886719 136.761719 C 72.007812 136.546875 73.863281 136.410156 75.503906 136.410156 C 80.070312 136.410156 82.382812 137.96875 82.382812 141.117188 C 82.382812 144.484375 79.9375 145.777344 74.75 145.777344 C 71.769531 145.777344 69.539062 145.5625 68.058594 145.214844 L 67.363281 142.519531 C 69.886719 142.980469 72.304688 143.246094 74.667969 143.246094 C 77.949219 143.246094 79.402344 142.707031 79.402344 140.984375 C 79.402344 139.339844 77.921875 138.828125 74.859375 138.828125 C 72.949219 138.828125 70.453125 138.992188 67.363281 139.394531 L 68.140625 131.710938 "/>
<path fill-rule="nonzero" fill="rgb(0%, 0%, 0%)" fill-opacity="1" d="M 90.652344 139.324219 C 92.773438 139.105469 94.839844 139.003906 96.796875 139.003906 C 99.132812 139.003906 99.855469 139.296875 99.855469 140.664062 L 99.855469 141.414062 C 99.855469 142.648438 99.320312 143.078125 97.335938 143.078125 L 93.46875 143.078125 C 90.8125 143.078125 90.597656 142.542969 90.597656 140.128906 C 90.597656 139.914062 90.597656 139.644531 90.652344 139.324219 M 90.839844 137.230469 C 91.886719 134.296875 94.730469 133.644531 99.882812 133.644531 L 100.773438 133.644531 L 98.867188 131.421875 C 98.542969 131.394531 98.195312 131.367188 97.871094 131.367188 C 91.378906 131.367188 87.636719 134.320312 87.636719 139.484375 L 87.636719 141.304688 C 87.636719 144.609375 88.765625 145.578125 92.210938 145.578125 L 98.058594 145.578125 C 101.285156 145.578125 102.8125 144.527344 102.8125 142.191406 L 102.8125 140.3125 C 102.8125 137.5 101.203125 136.75 96.957031 136.75 C 94.8125 136.75 92.773438 136.9375 90.839844 137.230469 "/>
<path fill-rule="nonzero" fill="rgb(0%, 0%, 0%)" fill-opacity="1" d="M 66.460938 49.710938 L 66.433594 49.710938 L 63.902344 54.023438 L 66.417969 54.023438 C 66.417969 51.589844 66.460938 50.019531 66.460938 49.710938 "/>
<path fill-rule="nonzero" fill="rgb(0%, 0%, 0%)" fill-opacity="1" d="M 48.855469 73.175781 C 48.855469 71.898438 48.035156 71.488281 47.410156 71.488281 C 46.65625 71.488281 45.890625 71.953125 45.890625 73.21875 C 45.890625 74.3125 46.515625 75.09375 47.464844 75.09375 C 48.1875 75.09375 48.855469 74.539062 48.855469 73.175781 "/>
<path fill-rule="nonzero" fill="rgb(0%, 0%, 0%)" fill-opacity="1" d="M 47.382812 109.136719 C 46.65625 109.136719 45.960938 109.605469 45.960938 110.699219 C 45.960938 111.660156 46.515625 112.300781 47.425781 112.300781 C 48.460938 112.300781 48.859375 111.40625 48.859375 110.710938 C 48.859375 110.003906 48.488281 109.136719 47.382812 109.136719 "/>
<path fill-rule="nonzero" fill="rgb(0%, 0%, 0%)" fill-opacity="1" d="M 47.421875 107.628906 C 48.203125 107.628906 48.65625 107.105469 48.65625 106.382812 C 48.65625 105.617188 48.132812 105.132812 47.496094 105.132812 C 46.601562 105.132812 46.132812 105.644531 46.132812 106.382812 C 46.132812 106.980469 46.574219 107.628906 47.421875 107.628906 "/>
<path fill-rule="nonzero" fill="rgb(0%, 0%, 0%)" fill-opacity="1" d="M 123.242188 113.625 L 121.25 113.625 L 121.25 106.671875 L 118.847656 106.671875 L 118.847656 105.277344 L 119.132812 105.277344 C 121.050781 105.277344 121.5625 104.289062 121.605469 103.539062 L 123.242188 103.539062 Z M 99.640625 113.621094 C 99.710938 112.441406 99.796875 111.207031 101.984375 109.617188 C 103.804688 108.296875 104.527344 107.785156 104.527344 106.652344 C 104.527344 105.984375 104.097656 105.21875 103.136719 105.21875 C 101.746094 105.21875 101.703125 106.367188 101.6875 107.105469 L 99.753906 107.105469 C 99.753906 103.824219 102.15625 103.542969 103.050781 103.542969 C 104.980469 103.542969 106.515625 104.679688 106.515625 106.722656 C 106.515625 108.453125 105.390625 109.335938 104.410156 110 C 103.078125 110.9375 102.382812 111.390625 102.15625 111.859375 L 106.527344 111.859375 L 106.527344 113.621094 Z M 81.050781 110.527344 L 83 110.527344 L 82.984375 110.542969 C 82.984375 111.078125 83.128906 112.300781 84.460938 112.300781 C 85.253906 112.300781 85.953125 111.761719 85.953125 110.640625 C 85.953125 109.265625 84.617188 109.207031 83.683594 109.207031 L 83.683594 107.785156 L 84.007812 107.785156 C 84.601562 107.785156 85.691406 107.730469 85.691406 106.425781 C 85.691406 106.054688 85.523438 105.132812 84.433594 105.132812 C 83.070312 105.132812 83.070312 106.425781 83.070312 106.777344 L 81.222656 106.777344 C 81.222656 104.894531 82.289062 103.542969 84.558594 103.542969 C 85.90625 103.542969 87.683594 104.222656 87.683594 106.351562 C 87.683594 107.375 87.046875 108.015625 86.476562 108.269531 L 86.476562 108.296875 C 86.832031 108.394531 88 108.925781 88 110.640625 C 88 112.542969 86.589844 113.894531 84.558594 113.894531 C 83.609375 113.894531 81.050781 113.679688 81.050781 110.527344 M 43.914062 110.824219 C 43.914062 110.3125 43.914062 108.980469 45.453125 108.269531 C 44.65625 107.871094 44.226562 107.230469 44.226562 106.296875 C 44.226562 104.582031 45.609375 103.542969 47.367188 103.542969 C 49.453125 103.542969 50.5625 104.777344 50.5625 106.167969 C 50.5625 107.03125 50.207031 107.769531 49.394531 108.199219 C 50.363281 108.679688 50.902344 109.320312 50.902344 110.625 C 50.902344 111.902344 50.082031 113.894531 47.410156 113.894531 C 44.808594 113.894531 43.914062 112.199219 43.914062 110.824219 M 45.238281 95.019531 C 45.453125 90.988281 47.984375 87.78125 48.835938 86.871094 L 43.816406 86.871094 L 43.859375 85.109375 L 50.96875 85.109375 L 50.96875 86.644531 C 50.003906 87.695312 47.527344 90.675781 47.289062 95.019531 Z M 43.898438 71.613281 C 43.898438 69.699219 44.15625 66.335938 47.648438 66.335938 C 48.0625 66.335938 49.214844 66.492188 49.710938 66.988281 C 50.265625 67.527344 50.464844 67.828125 50.648438 68.890625 L 48.671875 68.890625 C 48.617188 68.320312 48.246094 67.925781 47.511719 67.925781 C 46.21875 67.925781 45.921875 69.398438 45.847656 70.703125 L 45.875 70.734375 C 46.148438 70.363281 46.644531 69.894531 47.761719 69.894531 C 49.851562 69.894531 50.847656 71.5 50.847656 73.007812 C 50.847656 75.207031 49.496094 76.6875 47.550781 76.6875 C 44.5 76.6875 43.898438 74.128906 43.898438 71.613281 M 43.84375 55.113281 L 45.835938 55.113281 C 45.921875 55.9375 46.359375 56.488281 47.238281 56.488281 C 48.1875 56.488281 48.742188 55.679688 48.742188 54.601562 C 48.742188 53.707031 48.316406 52.800781 47.265625 52.800781 C 46.996094 52.800781 46.316406 52.8125 45.933594 53.523438 L 44.15625 53.4375 L 44.851562 47.902344 L 50.390625 47.902344 L 50.390625 49.578125 L 46.289062 49.578125 L 45.933594 51.761719 C 46.304688 51.503906 46.757812 51.203125 47.734375 51.203125 C 49.082031 51.203125 50.792969 52.144531 50.792969 54.460938 C 50.792969 55.835938 50.09375 58.082031 47.125 58.082031 C 45.550781 58.082031 43.941406 57.144531 43.84375 55.113281 M 62.441406 55.574219 L 62.441406 53.855469 L 66.148438 47.730469 L 68.410156 47.730469 L 68.410156 54.023438 L 69.535156 54.023438 L 69.535156 55.574219 L 68.410156 55.574219 L 68.410156 57.8125 L 66.421875 57.8125 L 66.421875 55.574219 Z M 66.46875 43.902344 L 74.855469 43.902344 L 74.855469 60.5625 L 66.46875 60.5625 L 66.46875 59.210938 L 72.46875 59.210938 L 72.46875 46.292969 L 66.46875 46.292969 Z M 115.363281 102.105469 L 115.363281 115.019531 L 121.367188 115.019531 L 121.367188 120.507812 L 103.675781 120.507812 L 103.675781 115.019531 L 109.679688 115.019531 L 109.679688 102.105469 L 96.761719 102.105469 L 96.761719 115.019531 L 102.761719 115.019531 L 102.761719 120.507812 L 85.070312 120.507812 L 85.070312 115.019531 L 91.074219 115.019531 L 91.074219 102.105469 L 78.15625 102.105469 L 78.15625 115.019531 L 84.160156 115.019531 L 84.160156 120.507812 L 47.863281 120.507812 L 47.863281 115.019531 L 53.867188 115.019531 L 53.867188 102.105469 L 47.863281 102.105469 L 47.863281 96.417969 L 53.867188 96.417969 L 53.867188 83.5 L 47.863281 83.5 L 47.863281 77.8125 L 53.867188 77.8125 L 53.867188 64.894531 L 47.863281 64.894531 L 47.863281 63.542969 L 66.46875 63.542969 L 66.46875 61.476562 L 75.769531 61.476562 L 75.769531 42.992188 L 65.554688 42.992188 L 65.554688 46.292969 L 59.550781 46.292969 L 59.550781 59.210938 L 65.554688 59.210938 L 65.554688 62.628906 L 47.863281 62.628906 L 47.863281 59.210938 L 53.867188 59.210938 L 53.867188 46.292969 L 40.949219 46.292969 L 40.949219 59.210938 L 46.953125 59.210938 L 46.953125 64.894531 L 40.949219 64.894531 L 40.949219 77.8125 L 46.953125 77.8125 L 46.953125 83.5 L 40.949219 83.5 L 40.949219 96.417969 L 46.953125 96.417969 L 46.953125 102.105469 L 40.949219 102.105469 L 40.949219 115.019531 L 46.953125 115.019531 L 46.953125 121.421875 L 122.277344 121.421875 L 122.277344 115.019531 L 128.28125 115.019531 L 128.28125 102.105469 Z M 115.363281 102.105469 "/>
</svg>
