<?xml version="1.0" encoding="UTF-8"?>
<svg xmlns="http://www.w3.org/2000/svg" xmlns:xlink="http://www.w3.org/1999/xlink" width="172" height="152" viewBox="0 0 172 152">
<path fill-rule="nonzero" fill="rgb(0%, 0%, 0%)" fill-opacity="1" d="M 73.394531 134.339844 L 70.4375 134.339844 L 70.4375 132.484375 L 76.320312 131.597656 L 76.320312 145.582031 L 73.394531 145.582031 Z M 73.394531 134.339844 "/>
<path fill-rule="nonzero" fill="rgb(0%, 0%, 0%)" fill-opacity="1" d="M 99.589844 134.074219 L 90.429688 134.074219 L 90.429688 137.0625 L 87.496094 136.550781 L 87.496094 131.707031 L 102.894531 131.707031 L 102.894531 133.9375 L 95.640625 145.835938 L 92.121094 145.835938 Z M 99.589844 134.074219 "/>
<path fill-rule="nonzero" fill="rgb(0%, 0%, 0%)" fill-opacity="1" d="M 47.425781 107.628906 C 48.203125 107.628906 48.65625 107.105469 48.65625 106.382812 C 48.65625 105.617188 48.132812 105.132812 47.496094 105.132812 C 46.601562 105.132812 46.132812 105.644531 46.132812 106.382812 C 46.132812 106.976562 46.574219 107.628906 47.425781 107.628906 "/>
<path fill-rule="nonzero" fill="rgb(0%, 0%, 0%)" fill-opacity="1" d="M 47.382812 109.136719 C 46.660156 109.136719 45.964844 109.605469 45.964844 110.699219 C 45.964844 111.664062 46.515625 112.300781 47.425781 112.300781 C 48.460938 112.300781 48.859375 111.40625 48.859375 110.710938 C 48.859375 110 48.488281 109.136719 47.382812 109.136719 "/>
<path fill-rule="nonzero" fill="rgb(0%, 0%, 0%)" fill-opacity="1" d="M 85.066406 86.914062 L 85.039062 86.914062 L 82.511719 91.234375 L 85.027344 91.234375 C 85.027344 88.800781 85.066406 87.226562 85.066406 86.914062 "/>
<path fill-rule="nonzero" fill="rgb(0%, 0%, 0%)" fill-opacity="1" d="M 123.242188 113.625 L 121.25 113.625 L 121.25 106.671875 L 118.847656 106.671875 L 118.847656 105.28125 L 119.132812 105.28125 C 121.050781 105.28125 121.5625 104.289062 121.605469 103.539062 L 123.242188 103.539062 Z M 99.640625 113.625 C 99.710938 112.441406 99.796875 111.207031 101.988281 109.617188 C 103.804688 108.300781 104.527344 107.789062 104.527344 106.652344 C 104.527344 105.984375 104.101562 105.21875 103.136719 105.21875 C 101.746094 105.21875 101.703125 106.371094 101.6875 107.105469 L 99.753906 107.105469 C 99.753906 103.828125 102.15625 103.542969 103.050781 103.542969 C 104.980469 103.542969 106.519531 104.679688 106.519531 106.722656 C 106.519531 108.457031 105.394531 109.335938 104.410156 110.003906 C 103.078125 110.9375 102.382812 111.394531 102.15625 111.859375 L 106.53125 111.859375 L 106.53125 113.625 Z M 62.503906 108.820312 C 62.503906 106.90625 62.761719 103.542969 66.253906 103.542969 C 66.667969 103.542969 67.816406 103.699219 68.3125 104.195312 C 68.871094 104.738281 69.070312 105.035156 69.253906 106.097656 L 67.277344 106.097656 C 67.21875 105.53125 66.851562 105.132812 66.113281 105.132812 C 64.824219 105.132812 64.523438 106.605469 64.453125 107.914062 L 64.480469 107.941406 C 64.75 107.570312 65.246094 107.101562 66.367188 107.101562 C 68.457031 107.101562 69.453125 108.710938 69.453125 110.214844 C 69.453125 112.414062 68.101562 113.894531 66.15625 113.894531 C 63.101562 113.894531 62.503906 111.335938 62.503906 108.820312 M 62.449219 92.320312 L 64.441406 92.320312 C 64.523438 93.144531 64.960938 93.699219 65.84375 93.699219 C 66.792969 93.699219 67.347656 92.890625 67.347656 91.808594 C 67.347656 90.914062 66.921875 90.007812 65.871094 90.007812 C 65.601562 90.007812 64.921875 90.019531 64.539062 90.730469 L 62.761719 90.644531 L 63.457031 85.109375 L 68.996094 85.109375 L 68.996094 86.785156 L 64.894531 86.785156 L 64.539062 88.96875 C 64.90625 88.710938 65.359375 88.414062 66.339844 88.414062 C 67.6875 88.414062 69.394531 89.351562 69.394531 91.667969 C 69.394531 93.046875 68.699219 95.289062 65.730469 95.289062 C 64.15625 95.289062 62.546875 94.351562 62.449219 92.320312 M 43.914062 110.824219 C 43.914062 110.316406 43.914062 108.980469 45.449219 108.269531 C 44.65625 107.871094 44.230469 107.230469 44.230469 106.296875 C 44.230469 104.578125 45.609375 103.542969 47.367188 103.542969 C 49.453125 103.542969 50.566406 104.777344 50.566406 106.171875 C 50.566406 107.035156 50.207031 107.773438 49.398438 108.199219 C 50.367188 108.683594 50.90625 109.320312 50.90625 110.628906 C 50.90625 111.902344 50.082031 113.894531 47.410156 113.894531 C 44.8125 113.894531 43.914062 112.203125 43.914062 110.824219 M 45.238281 95.023438 C 45.453125 90.988281 47.984375 87.78125 48.835938 86.871094 L 43.820312 86.871094 L 43.859375 85.109375 L 50.96875 85.109375 L 50.96875 86.644531 C 50.003906 87.695312 47.527344 90.675781 47.289062 95.023438 Z M 47.863281 81.121094 L 56.253906 81.121094 L 56.253906 98.804688 L 47.863281 98.804688 L 47.863281 96.417969 L 53.867188 96.417969 L 53.867188 83.496094 L 47.863281 83.496094 Z M 81.046875 92.78125 L 81.046875 91.0625 L 84.753906 84.9375 L 87.015625 84.9375 L 87.015625 91.234375 L 88.140625 91.234375 L 88.140625 92.78125 L 87.015625 92.78125 L 87.015625 95.023438 L 85.027344 95.023438 L 85.027344 92.78125 Z M 81.050781 73.320312 L 83 73.320312 L 82.984375 73.335938 C 82.984375 73.875 83.128906 75.09375 84.460938 75.09375 C 85.253906 75.09375 85.949219 74.554688 85.949219 73.433594 C 85.949219 72.058594 84.617188 72 83.6875 72 L 83.6875 70.578125 L 84.007812 70.578125 C 84.601562 70.578125 85.695312 70.523438 85.695312 69.21875 C 85.695312 68.851562 85.527344 67.925781 84.433594 67.925781 C 83.070312 67.925781 83.070312 69.21875 83.070312 69.570312 L 81.222656 69.570312 C 81.222656 67.683594 82.289062 66.335938 84.5625 66.335938 C 85.90625 66.335938 87.6875 67.019531 87.6875 69.148438 C 87.6875 70.167969 87.046875 70.804688 86.476562 71.0625 L 86.476562 71.089844 C 86.832031 71.191406 88 71.714844 88 73.433594 C 88 75.335938 86.589844 76.6875 84.5625 76.6875 C 83.609375 76.6875 81.050781 76.472656 81.050781 73.320312 M 115.363281 102.101562 L 115.363281 115.023438 L 121.367188 115.023438 L 121.367188 120.511719 L 103.675781 120.511719 L 103.675781 115.023438 L 109.679688 115.023438 L 109.679688 102.101562 L 96.761719 102.101562 L 96.761719 115.023438 L 102.765625 115.023438 L 102.765625 120.511719 L 66.46875 120.511719 L 66.46875 115.023438 L 72.472656 115.023438 L 72.472656 102.101562 L 66.46875 102.101562 L 66.46875 99.714844 L 85.074219 99.714844 L 85.074219 96.417969 L 91.078125 96.417969 L 91.078125 83.496094 L 85.074219 83.496094 L 85.074219 77.816406 L 91.078125 77.816406 L 91.078125 64.894531 L 78.15625 64.894531 L 78.15625 77.816406 L 84.160156 77.816406 L 84.160156 83.496094 L 78.15625 83.496094 L 78.15625 96.417969 L 84.160156 96.417969 L 84.160156 98.804688 L 66.46875 98.804688 L 66.46875 96.417969 L 72.472656 96.417969 L 72.472656 83.496094 L 59.550781 83.496094 L 59.550781 96.417969 L 65.558594 96.417969 L 65.558594 102.101562 L 59.550781 102.101562 L 59.550781 115.023438 L 65.558594 115.023438 L 65.558594 120.511719 L 47.863281 120.511719 L 47.863281 115.023438 L 53.867188 115.023438 L 53.867188 102.101562 L 47.863281 102.101562 L 47.863281 99.714844 L 57.164062 99.714844 L 57.164062 80.210938 L 46.953125 80.210938 L 46.953125 83.496094 L 40.949219 83.496094 L 40.949219 96.417969 L 46.953125 96.417969 L 46.953125 102.101562 L 40.949219 102.101562 L 40.949219 115.023438 L 46.953125 115.023438 L 46.953125 121.421875 L 122.28125 121.421875 L 122.28125 115.023438 L 128.28125 115.023438 L 128.28125 102.101562 Z M 115.363281 102.101562 "/>
<path fill-rule="nonzero" fill="rgb(0%, 0%, 0%)" fill-opacity="1" d="M 66.011719 108.695312 C 65.261719 108.695312 64.496094 109.164062 64.496094 110.425781 C 64.496094 111.519531 65.121094 112.304688 66.070312 112.304688 C 66.796875 112.304688 67.460938 111.75 67.460938 110.386719 C 67.460938 109.105469 66.636719 108.695312 66.011719 108.695312 "/>
</svg>
