<?xml version="1.0" encoding="UTF-8"?>
<svg xmlns="http://www.w3.org/2000/svg" xmlns:xlink="http://www.w3.org/1999/xlink" width="172" height="152" viewBox="0 0 172 152">
<path fill-rule="nonzero" fill="rgb(0%, 0%, 0%)" fill-opacity="1" d="M 69.882812 139.324219 C 72.003906 139.109375 74.070312 139 76.03125 139 C 78.367188 139 79.089844 139.296875 79.089844 140.664062 L 79.089844 141.414062 C 79.089844 142.648438 78.550781 143.078125 76.566406 143.078125 L 72.699219 143.078125 C 70.042969 143.078125 69.828125 142.542969 69.828125 140.128906 C 69.828125 139.914062 69.828125 139.644531 69.882812 139.324219 M 70.070312 137.230469 C 71.117188 134.292969 73.960938 133.648438 79.117188 133.648438 L 80.003906 133.648438 L 78.09375 131.421875 C 77.773438 131.394531 77.425781 131.367188 77.101562 131.367188 C 70.609375 131.367188 66.867188 134.320312 66.867188 139.484375 L 66.867188 141.308594 C 66.867188 144.609375 68 145.578125 71.441406 145.578125 L 77.289062 145.578125 C 80.515625 145.578125 82.046875 144.53125 82.046875 142.191406 L 82.046875 140.316406 C 82.046875 137.5 80.433594 136.753906 76.191406 136.753906 C 74.042969 136.753906 72.003906 136.9375 70.070312 137.230469 "/>
<path fill-rule="nonzero" fill="rgb(0%, 0%, 0%)" fill-opacity="1" d="M 88.914062 131.710938 L 100.898438 131.710938 L 100.65625 134.074219 L 90.984375 134.074219 L 90.660156 136.761719 C 92.785156 136.546875 94.640625 136.410156 96.277344 136.410156 C 100.847656 136.410156 103.160156 137.96875 103.160156 141.117188 C 103.160156 144.488281 100.710938 145.777344 95.523438 145.777344 C 92.542969 145.777344 90.3125 145.5625 88.835938 145.214844 L 88.136719 142.519531 C 90.660156 142.980469 93.082031 143.25 95.445312 143.25 C 98.722656 143.25 100.175781 142.710938 100.175781 140.984375 C 100.175781 139.339844 98.695312 138.828125 95.632812 138.828125 C 93.726562 138.828125 91.226562 138.988281 88.136719 139.394531 L 88.914062 131.710938 "/>
<path fill-rule="nonzero" fill="rgb(0%, 0%, 0%)" fill-opacity="1" d="M 66.015625 108.695312 C 65.261719 108.695312 64.496094 109.164062 64.496094 110.425781 C 64.496094 111.519531 65.121094 112.300781 66.074219 112.300781 C 66.796875 112.300781 67.460938 111.75 67.460938 110.382812 C 67.460938 109.105469 66.640625 108.695312 66.015625 108.695312 "/>
<path fill-rule="nonzero" fill="rgb(0%, 0%, 0%)" fill-opacity="1" d="M 28.820312 107.628906 C 29.601562 107.628906 30.054688 107.105469 30.054688 106.382812 C 30.054688 105.617188 29.53125 105.132812 28.894531 105.132812 C 28 105.132812 27.53125 105.644531 27.53125 106.382812 C 27.53125 106.976562 27.96875 107.628906 28.820312 107.628906 "/>
<path fill-rule="nonzero" fill="rgb(0%, 0%, 0%)" fill-opacity="1" d="M 85.070312 86.914062 L 85.039062 86.914062 L 82.511719 91.234375 L 85.027344 91.234375 C 85.027344 88.800781 85.070312 87.226562 85.070312 86.914062 "/>
<path fill-rule="nonzero" fill="rgb(0%, 0%, 0%)" fill-opacity="1" d="M 141.84375 113.625 L 139.855469 113.625 L 139.855469 106.671875 L 137.453125 106.671875 L 137.453125 105.28125 L 137.738281 105.28125 C 139.65625 105.28125 140.167969 104.289062 140.210938 103.539062 L 141.84375 103.539062 Z M 118.246094 113.625 C 118.316406 112.441406 118.402344 111.207031 120.589844 109.617188 C 122.40625 108.300781 123.128906 107.789062 123.128906 106.652344 C 123.128906 105.984375 122.707031 105.21875 121.742188 105.21875 C 120.351562 105.21875 120.308594 106.371094 120.292969 107.105469 L 118.359375 107.105469 C 118.359375 103.828125 120.761719 103.539062 121.65625 103.539062 C 123.585938 103.539062 125.121094 104.679688 125.121094 106.722656 C 125.121094 108.457031 123.996094 109.335938 123.019531 110.003906 C 121.683594 110.9375 120.988281 111.394531 120.761719 111.859375 L 125.136719 111.859375 L 125.136719 113.625 Z M 81.050781 110.925781 L 83.042969 110.925781 C 83.128906 111.746094 83.566406 112.304688 84.449219 112.304688 C 85.398438 112.304688 85.949219 111.492188 85.949219 110.414062 C 85.949219 109.519531 85.527344 108.609375 84.476562 108.609375 C 84.207031 108.609375 83.527344 108.625 83.144531 109.335938 L 81.363281 109.25 L 82.0625 103.710938 L 87.601562 103.710938 L 87.601562 105.390625 L 83.496094 105.390625 L 83.144531 107.570312 C 83.511719 107.316406 83.964844 107.019531 84.945312 107.019531 C 86.292969 107.019531 88 107.957031 88 110.269531 C 88 111.648438 87.304688 113.894531 84.332031 113.894531 C 82.757812 113.894531 81.152344 112.953125 81.050781 110.925781 M 84.160156 120.359375 L 66.46875 120.359375 L 66.46875 115.023438 L 72.472656 115.023438 L 72.472656 102.101562 L 66.46875 102.101562 L 66.46875 100.75 L 84.160156 100.75 L 84.160156 102.101562 L 78.15625 102.101562 L 78.15625 115.023438 L 84.160156 115.023438 Z M 62.507812 108.820312 C 62.507812 106.90625 62.761719 103.539062 66.257812 103.539062 C 66.667969 103.539062 67.816406 103.695312 68.316406 104.195312 C 68.871094 104.734375 69.070312 105.035156 69.253906 106.097656 L 67.277344 106.097656 C 67.21875 105.53125 66.851562 105.132812 66.113281 105.132812 C 64.824219 105.132812 64.523438 106.605469 64.453125 107.910156 L 64.484375 107.941406 C 64.753906 107.570312 65.246094 107.101562 66.371094 107.101562 C 68.457031 107.101562 69.453125 108.710938 69.453125 110.214844 C 69.453125 112.414062 68.101562 113.894531 66.15625 113.894531 C 63.101562 113.894531 62.507812 111.335938 62.507812 108.820312 M 65.558594 120.359375 L 47.867188 120.359375 L 47.867188 115.023438 L 53.867188 115.023438 L 53.867188 102.101562 L 47.867188 102.101562 L 47.867188 100.75 L 65.558594 100.75 L 65.558594 102.101562 L 59.554688 102.101562 L 59.554688 115.023438 L 65.558594 115.023438 Z M 45.242188 113.625 C 45.453125 109.59375 47.984375 106.386719 48.839844 105.476562 L 43.820312 105.476562 L 43.863281 103.710938 L 50.96875 103.710938 L 50.96875 105.25 C 50 106.300781 47.53125 109.28125 47.289062 113.625 Z M 46.953125 120.359375 L 29.265625 120.359375 L 29.265625 115.023438 L 35.265625 115.023438 L 35.265625 102.101562 L 29.265625 102.101562 L 29.265625 100.75 L 46.953125 100.75 L 46.953125 102.101562 L 40.949219 102.101562 L 40.949219 115.023438 L 46.953125 115.023438 Z M 25.3125 110.824219 C 25.3125 110.316406 25.3125 108.980469 26.847656 108.269531 C 26.050781 107.871094 25.625 107.230469 25.625 106.296875 C 25.625 104.578125 27.003906 103.539062 28.765625 103.539062 C 30.851562 103.539062 31.960938 104.777344 31.960938 106.171875 C 31.960938 107.035156 31.605469 107.773438 30.792969 108.199219 C 31.761719 108.683594 32.300781 109.320312 32.300781 110.628906 C 32.300781 111.902344 31.476562 113.894531 28.808594 113.894531 C 26.207031 113.894531 25.3125 112.203125 25.3125 110.824219 M 81.046875 92.78125 L 81.046875 91.0625 L 84.753906 84.9375 L 87.019531 84.9375 L 87.019531 91.234375 L 88.140625 91.234375 L 88.140625 92.78125 L 87.019531 92.78125 L 87.019531 95.019531 L 85.027344 95.019531 L 85.027344 92.78125 Z M 99.65625 91.925781 L 101.605469 91.925781 L 101.589844 91.9375 C 101.589844 92.476562 101.730469 93.699219 103.066406 93.699219 C 103.859375 93.699219 104.554688 93.15625 104.554688 92.035156 C 104.554688 90.660156 103.222656 90.605469 102.289062 90.605469 L 102.289062 89.183594 L 102.613281 89.183594 C 103.207031 89.183594 104.296875 89.125 104.296875 87.820312 C 104.296875 87.453125 104.128906 86.53125 103.035156 86.53125 C 101.675781 86.53125 101.675781 87.820312 101.675781 88.175781 L 99.824219 88.175781 C 99.824219 86.289062 100.894531 84.9375 103.164062 84.9375 C 104.511719 84.9375 106.289062 85.621094 106.289062 87.75 C 106.289062 88.769531 105.652344 89.410156 105.082031 89.664062 L 105.082031 89.695312 C 105.4375 89.792969 106.605469 90.320312 106.605469 92.035156 C 106.605469 93.9375 105.195312 95.289062 103.164062 95.289062 C 102.214844 95.289062 99.65625 95.074219 99.65625 91.925781 M 103.675781 81.113281 L 112.066406 81.113281 L 112.066406 97.769531 L 103.675781 97.769531 L 103.675781 96.417969 L 109.679688 96.417969 L 109.679688 83.5 L 103.675781 83.5 Z M 133.96875 102.101562 L 133.96875 115.023438 L 139.980469 115.023438 L 139.980469 120.359375 L 122.28125 120.359375 L 122.28125 115.023438 L 128.285156 115.023438 L 128.285156 102.101562 L 115.367188 102.101562 L 115.367188 115.023438 L 121.367188 115.023438 L 121.367188 120.359375 L 85.074219 120.359375 L 85.074219 115.023438 L 91.078125 115.023438 L 91.078125 102.101562 L 85.074219 102.101562 L 85.074219 100.75 L 103.675781 100.75 L 103.675781 98.683594 L 112.976562 98.683594 L 112.976562 80.203125 L 102.765625 80.203125 L 102.765625 83.5 L 96.761719 83.5 L 96.761719 96.417969 L 102.765625 96.417969 L 102.765625 99.839844 L 85.074219 99.839844 L 85.074219 96.417969 L 91.078125 96.417969 L 91.078125 83.5 L 78.15625 83.5 L 78.15625 96.417969 L 84.160156 96.417969 L 84.160156 99.839844 L 28.355469 99.839844 L 28.355469 102.101562 L 22.34375 102.101562 L 22.34375 115.023438 L 28.355469 115.023438 L 28.355469 121.269531 L 140.890625 121.269531 L 140.890625 115.023438 L 146.890625 115.023438 L 146.890625 102.101562 Z M 133.96875 102.101562 "/>
<path fill-rule="nonzero" fill="rgb(0%, 0%, 0%)" fill-opacity="1" d="M 28.78125 109.136719 C 28.054688 109.136719 27.359375 109.605469 27.359375 110.699219 C 27.359375 111.660156 27.914062 112.300781 28.820312 112.300781 C 29.855469 112.300781 30.253906 111.40625 30.253906 110.710938 C 30.253906 110 29.886719 109.136719 28.78125 109.136719 "/>
</svg>
