<?xml version="1.0" encoding="UTF-8"?>
<svg xmlns="http://www.w3.org/2000/svg" xmlns:xlink="http://www.w3.org/1999/xlink" width="172" height="152" viewBox="0 0 172 152">
<path fill-rule="nonzero" fill="rgb(0%, 0%, 0%)" fill-opacity="1" d="M 70.796875 131.710938 L 77.9375 131.710938 C 80.300781 131.710938 81.105469 132.21875 81.105469 134.425781 L 81.105469 135.308594 C 81.105469 136.921875 80.621094 137.324219 79.28125 138.132812 L 71.140625 143.078125 L 79.199219 143.078125 L 79.199219 141.035156 L 81.757812 141.761719 L 81.757812 142.863281 C 81.757812 145.066406 80.949219 145.578125 78.609375 145.578125 L 66.933594 145.578125 L 66.933594 144.316406 C 66.933594 143.371094 67.039062 142.808594 68.679688 141.785156 L 78.285156 135.875 L 78.285156 134.074219 L 70.367188 134.074219 L 70.367188 136.921875 L 67.632812 136.226562 L 67.632812 134.425781 C 67.632812 132.21875 68.4375 131.710938 70.796875 131.710938 "/>
<path fill-rule="nonzero" fill="rgb(0%, 0%, 0%)" fill-opacity="1" d="M 97.324219 140.199219 L 89.746094 140.199219 L 97.324219 133.988281 Z M 97.324219 145.75 L 100.253906 145.75 L 100.253906 142.503906 L 103.609375 142.503906 L 103.609375 140.199219 L 100.253906 140.199219 L 100.253906 131.539062 L 97.21875 131.539062 L 86.816406 140.199219 L 86.816406 142.503906 L 97.324219 142.503906 Z M 97.324219 145.75 "/>
<path fill-rule="nonzero" fill="rgb(0%, 0%, 0%)" fill-opacity="1" d="M 66.027344 107.628906 C 66.808594 107.628906 67.257812 107.105469 67.257812 106.382812 C 67.257812 105.617188 66.734375 105.132812 66.097656 105.132812 C 65.207031 105.132812 64.738281 105.644531 64.738281 106.382812 C 64.738281 106.976562 65.175781 107.628906 66.027344 107.628906 "/>
<path fill-rule="nonzero" fill="rgb(0%, 0%, 0%)" fill-opacity="1" d="M 85.066406 86.914062 L 85.039062 86.914062 L 82.507812 91.234375 L 85.023438 91.234375 C 85.023438 88.800781 85.066406 87.226562 85.066406 86.914062 "/>
<path fill-rule="nonzero" fill="rgb(0%, 0%, 0%)" fill-opacity="1" d="M 65.984375 109.136719 C 65.261719 109.136719 64.566406 109.605469 64.566406 110.699219 C 64.566406 111.664062 65.121094 112.300781 66.027344 112.300781 C 67.0625 112.300781 67.460938 111.40625 67.460938 110.710938 C 67.460938 110 67.089844 109.136719 65.984375 109.136719 "/>
<path fill-rule="nonzero" fill="rgb(0%, 0%, 0%)" fill-opacity="1" d="M 67.460938 91.78125 C 67.460938 90.503906 66.640625 90.09375 66.011719 90.09375 C 65.261719 90.09375 64.492188 90.558594 64.492188 91.824219 C 64.492188 92.917969 65.121094 93.699219 66.070312 93.699219 C 66.792969 93.699219 67.460938 93.144531 67.460938 91.78125 "/>
<path fill-rule="nonzero" fill="rgb(0%, 0%, 0%)" fill-opacity="1" d="M 123.238281 113.625 L 121.25 113.625 L 121.25 106.671875 L 118.847656 106.671875 L 118.847656 105.28125 L 119.132812 105.28125 C 121.050781 105.28125 121.5625 104.289062 121.601562 103.539062 L 123.238281 103.539062 Z M 99.640625 113.625 C 99.710938 112.441406 99.796875 111.207031 101.984375 109.617188 C 103.800781 108.300781 104.523438 107.789062 104.523438 106.652344 C 104.523438 105.984375 104.101562 105.21875 103.136719 105.21875 C 101.746094 105.21875 101.703125 106.371094 101.6875 107.105469 L 99.753906 107.105469 C 99.753906 103.828125 102.15625 103.542969 103.050781 103.542969 C 104.980469 103.542969 106.515625 104.679688 106.515625 106.722656 C 106.515625 108.457031 105.390625 109.335938 104.414062 110.003906 C 103.078125 110.9375 102.386719 111.394531 102.15625 111.859375 L 106.53125 111.859375 L 106.53125 113.625 Z M 62.519531 110.824219 C 62.519531 110.316406 62.519531 108.980469 64.054688 108.269531 C 63.257812 107.871094 62.832031 107.230469 62.832031 106.296875 C 62.832031 104.578125 64.210938 103.542969 65.96875 103.542969 C 68.054688 103.542969 69.167969 104.777344 69.167969 106.171875 C 69.167969 107.035156 68.8125 107.773438 68 108.199219 C 68.96875 108.683594 69.507812 109.320312 69.507812 110.628906 C 69.507812 111.902344 68.683594 113.894531 66.011719 113.894531 C 63.414062 113.894531 62.519531 112.203125 62.519531 110.824219 M 62.503906 90.21875 C 62.503906 88.304688 62.761719 84.9375 66.253906 84.9375 C 66.667969 84.9375 67.816406 85.09375 68.3125 85.59375 C 68.867188 86.132812 69.066406 86.429688 69.253906 87.496094 L 67.277344 87.496094 C 67.21875 86.925781 66.847656 86.53125 66.113281 86.53125 C 64.820312 86.53125 64.523438 88.003906 64.453125 89.308594 L 64.480469 89.335938 C 64.75 88.96875 65.246094 88.5 66.367188 88.5 C 68.457031 88.5 69.453125 90.105469 69.453125 91.609375 C 69.453125 93.8125 68.101562 95.289062 66.15625 95.289062 C 63.101562 95.289062 62.503906 92.730469 62.503906 90.21875 M 62.445312 73.71875 L 64.4375 73.71875 C 64.523438 74.539062 64.964844 75.09375 65.84375 75.09375 C 66.792969 75.09375 67.34375 74.285156 67.34375 73.203125 C 67.34375 72.3125 66.921875 71.402344 65.871094 71.402344 C 65.601562 71.402344 64.921875 71.417969 64.539062 72.128906 L 62.761719 72.042969 L 63.457031 66.503906 L 68.996094 66.503906 L 68.996094 68.183594 L 64.890625 68.183594 L 64.539062 70.363281 C 64.90625 70.109375 65.359375 69.8125 66.339844 69.8125 C 67.6875 69.8125 69.394531 70.746094 69.394531 73.0625 C 69.394531 74.441406 68.695312 76.6875 65.726562 76.6875 C 64.152344 76.6875 62.546875 75.75 62.445312 73.71875 M 45.238281 95.023438 C 45.453125 90.988281 47.980469 87.78125 48.835938 86.871094 L 43.816406 86.871094 L 43.859375 85.109375 L 50.96875 85.109375 L 50.96875 86.644531 C 50 87.695312 47.527344 90.675781 47.285156 95.023438 Z M 81.042969 92.78125 L 81.042969 91.0625 L 84.753906 84.9375 L 87.015625 84.9375 L 87.015625 91.234375 L 88.140625 91.234375 L 88.140625 92.78125 L 87.015625 92.78125 L 87.015625 95.023438 L 85.023438 95.023438 L 85.023438 92.78125 Z M 81.050781 73.320312 L 83 73.320312 L 82.984375 73.335938 C 82.984375 73.875 83.128906 75.09375 84.460938 75.09375 C 85.257812 75.09375 85.949219 74.554688 85.949219 73.433594 C 85.949219 72.058594 84.613281 72 83.683594 72 L 83.683594 70.578125 L 84.007812 70.578125 C 84.601562 70.578125 85.691406 70.523438 85.691406 69.21875 C 85.691406 68.851562 85.523438 67.925781 84.429688 67.925781 C 83.070312 67.925781 83.070312 69.21875 83.070312 69.570312 L 81.222656 69.570312 C 81.222656 67.683594 82.289062 66.335938 84.558594 66.335938 C 85.90625 66.335938 87.683594 67.019531 87.683594 69.148438 C 87.683594 70.167969 87.046875 70.804688 86.476562 71.0625 L 86.476562 71.089844 C 86.832031 71.191406 87.996094 71.714844 87.996094 73.433594 C 87.996094 75.335938 86.589844 76.6875 84.558594 76.6875 C 83.609375 76.6875 81.050781 76.472656 81.050781 73.320312 M 85.070312 62.515625 L 93.460938 62.515625 L 93.460938 80.203125 L 85.070312 80.203125 L 85.070312 77.816406 L 91.074219 77.816406 L 91.074219 64.894531 L 85.070312 64.894531 Z M 115.363281 102.101562 L 115.363281 115.023438 L 121.367188 115.023438 L 121.367188 120.511719 L 103.675781 120.511719 L 103.675781 115.023438 L 109.679688 115.023438 L 109.679688 102.101562 L 96.761719 102.101562 L 96.761719 115.023438 L 102.761719 115.023438 L 102.761719 120.511719 L 66.46875 120.511719 L 66.46875 115.023438 L 72.472656 115.023438 L 72.472656 102.101562 L 66.46875 102.101562 L 66.46875 99.714844 L 85.070312 99.714844 L 85.070312 96.417969 L 91.074219 96.417969 L 91.074219 83.496094 L 85.070312 83.496094 L 85.070312 81.113281 L 94.371094 81.113281 L 94.371094 61.605469 L 84.160156 61.605469 L 84.160156 64.894531 L 78.152344 64.894531 L 78.152344 77.816406 L 84.160156 77.816406 L 84.160156 83.496094 L 78.152344 83.496094 L 78.152344 96.417969 L 84.160156 96.417969 L 84.160156 98.804688 L 66.46875 98.804688 L 66.46875 96.417969 L 72.472656 96.417969 L 72.472656 83.496094 L 66.46875 83.496094 L 66.46875 77.816406 L 72.472656 77.816406 L 72.472656 64.894531 L 59.550781 64.894531 L 59.550781 77.816406 L 65.554688 77.816406 L 65.554688 83.496094 L 59.550781 83.496094 L 59.550781 96.417969 L 65.554688 96.417969 L 65.554688 98.804688 L 47.863281 98.804688 L 47.863281 96.417969 L 53.867188 96.417969 L 53.867188 83.496094 L 40.945312 83.496094 L 40.945312 96.417969 L 46.953125 96.417969 L 46.953125 99.714844 L 65.554688 99.714844 L 65.554688 102.101562 L 59.550781 102.101562 L 59.550781 115.023438 L 65.554688 115.023438 L 65.554688 121.421875 L 122.28125 121.421875 L 122.28125 115.023438 L 128.28125 115.023438 L 128.28125 102.101562 Z M 115.363281 102.101562 "/>
</svg>
