<?xml version="1.0" encoding="UTF-8"?>
<svg xmlns="http://www.w3.org/2000/svg" xmlns:xlink="http://www.w3.org/1999/xlink" width="172" height="152" viewBox="0 0 172 152">
<path fill-rule="nonzero" fill="rgb(0%, 0%, 0%)" fill-opacity="1" d="M 76.554688 140.199219 L 68.972656 140.199219 L 76.554688 133.984375 Z M 76.554688 145.75 L 79.484375 145.75 L 79.484375 142.503906 L 82.839844 142.503906 L 82.839844 140.199219 L 79.484375 140.199219 L 79.484375 131.539062 L 76.445312 131.539062 L 66.046875 140.199219 L 66.046875 142.503906 L 76.554688 142.503906 Z M 76.554688 145.75 "/>
<path fill-rule="nonzero" fill="rgb(0%, 0%, 0%)" fill-opacity="1" d="M 91.574219 131.710938 L 98.710938 131.710938 C 101.074219 131.710938 101.882812 132.21875 101.882812 134.425781 L 101.882812 135.308594 C 101.882812 136.921875 101.398438 137.324219 100.054688 138.132812 L 91.914062 143.078125 L 99.972656 143.078125 L 99.972656 141.035156 L 102.53125 141.761719 L 102.53125 142.863281 C 102.53125 145.066406 101.726562 145.578125 99.382812 145.578125 L 87.707031 145.578125 L 87.707031 144.316406 C 87.707031 143.371094 87.816406 142.808594 89.453125 141.785156 L 99.058594 135.875 L 99.058594 134.074219 L 91.144531 134.074219 L 91.144531 136.921875 L 88.40625 136.222656 L 88.40625 134.425781 C 88.40625 132.21875 89.210938 131.710938 91.574219 131.710938 "/>
<path fill-rule="nonzero" fill="rgb(0%, 0%, 0%)" fill-opacity="1" d="M 65.984375 109.136719 C 65.261719 109.136719 64.566406 109.605469 64.566406 110.699219 C 64.566406 111.660156 65.121094 112.300781 66.027344 112.300781 C 67.0625 112.300781 67.460938 111.40625 67.460938 110.710938 C 67.460938 110 67.089844 109.136719 65.984375 109.136719 "/>
<path fill-rule="nonzero" fill="rgb(0%, 0%, 0%)" fill-opacity="1" d="M 67.460938 73.175781 C 67.460938 71.898438 66.636719 71.488281 66.015625 71.488281 C 65.261719 71.488281 64.496094 71.957031 64.496094 73.21875 C 64.496094 74.3125 65.121094 75.09375 66.070312 75.09375 C 66.792969 75.09375 67.460938 74.539062 67.460938 73.175781 "/>
<path fill-rule="nonzero" fill="rgb(0%, 0%, 0%)" fill-opacity="1" d="M 66.027344 107.628906 C 66.808594 107.628906 67.261719 107.105469 67.261719 106.382812 C 67.261719 105.613281 66.738281 105.132812 66.101562 105.132812 C 65.203125 105.132812 64.738281 105.644531 64.738281 106.382812 C 64.738281 106.976562 65.175781 107.628906 66.027344 107.628906 "/>
<path fill-rule="nonzero" fill="rgb(0%, 0%, 0%)" fill-opacity="1" d="M 123.242188 113.625 L 121.25 113.625 L 121.25 106.671875 L 118.847656 106.671875 L 118.847656 105.28125 L 119.132812 105.28125 C 121.050781 105.28125 121.5625 104.289062 121.605469 103.539062 L 123.242188 103.539062 Z M 99.640625 113.625 C 99.714844 112.441406 99.796875 111.207031 101.988281 109.617188 C 103.800781 108.300781 104.527344 107.785156 104.527344 106.652344 C 104.527344 105.984375 104.101562 105.21875 103.136719 105.21875 C 101.746094 105.21875 101.703125 106.371094 101.691406 107.105469 L 99.753906 107.105469 C 99.753906 103.828125 102.160156 103.542969 103.050781 103.542969 C 104.980469 103.542969 106.515625 104.679688 106.515625 106.722656 C 106.515625 108.457031 105.394531 109.335938 104.414062 110.003906 C 103.078125 110.9375 102.382812 111.390625 102.160156 111.859375 L 106.53125 111.859375 L 106.53125 113.625 Z M 62.519531 110.824219 C 62.519531 110.316406 62.519531 108.980469 64.054688 108.269531 C 63.257812 107.871094 62.832031 107.230469 62.832031 106.296875 C 62.832031 104.578125 64.210938 103.542969 65.96875 103.542969 C 68.058594 103.542969 69.167969 104.777344 69.167969 106.171875 C 69.167969 107.035156 68.8125 107.773438 68 108.199219 C 68.96875 108.683594 69.507812 109.320312 69.507812 110.628906 C 69.507812 111.902344 68.683594 113.894531 66.015625 113.894531 C 63.414062 113.894531 62.519531 112.203125 62.519531 110.824219 M 63.84375 95.019531 C 64.054688 90.988281 66.589844 87.78125 67.441406 86.871094 L 62.421875 86.871094 L 62.464844 85.109375 L 69.570312 85.109375 L 69.570312 86.644531 C 68.605469 87.695312 66.132812 90.679688 65.890625 95.019531 Z M 62.503906 71.613281 C 62.503906 69.699219 62.757812 66.335938 66.253906 66.335938 C 66.667969 66.335938 67.816406 66.492188 68.316406 66.988281 C 68.867188 67.527344 69.066406 67.828125 69.253906 68.890625 L 67.277344 68.890625 C 67.21875 68.324219 66.851562 67.925781 66.113281 67.925781 C 64.820312 67.925781 64.523438 69.398438 64.453125 70.707031 L 64.480469 70.734375 C 64.75 70.363281 65.246094 69.894531 66.367188 69.894531 C 68.457031 69.894531 69.453125 71.5 69.453125 73.007812 C 69.453125 75.207031 68.101562 76.6875 66.15625 76.6875 C 63.101562 76.6875 62.503906 74.128906 62.503906 71.613281 M 62.441406 55.574219 L 62.441406 53.855469 L 66.152344 47.730469 L 68.414062 47.730469 L 68.414062 54.027344 L 69.535156 54.027344 L 69.535156 55.574219 L 68.414062 55.574219 L 68.414062 57.8125 L 66.421875 57.8125 L 66.421875 55.574219 Z M 43.84375 55.113281 L 45.835938 55.113281 C 45.921875 55.9375 46.359375 56.488281 47.238281 56.488281 C 48.191406 56.488281 48.742188 55.679688 48.742188 54.601562 C 48.742188 53.707031 48.316406 52.796875 47.269531 52.796875 C 46.996094 52.796875 46.316406 52.8125 45.933594 53.523438 L 44.15625 53.4375 L 44.855469 47.902344 L 50.390625 47.902344 L 50.390625 49.578125 L 46.289062 49.578125 L 45.933594 51.761719 C 46.304688 51.503906 46.757812 51.207031 47.734375 51.207031 C 49.085938 51.207031 50.792969 52.144531 50.792969 54.457031 C 50.792969 55.835938 50.09375 58.082031 47.125 58.082031 C 45.550781 58.082031 43.941406 57.144531 43.84375 55.113281 M 81.050781 54.714844 L 83 54.714844 L 82.984375 54.730469 C 82.984375 55.269531 83.125 56.488281 84.460938 56.488281 C 85.257812 56.488281 85.949219 55.949219 85.949219 54.832031 C 85.949219 53.453125 84.617188 53.394531 83.6875 53.394531 L 83.6875 51.976562 L 84.003906 51.976562 C 84.601562 51.976562 85.695312 51.917969 85.695312 50.613281 C 85.695312 50.242188 85.523438 49.324219 84.433594 49.324219 C 83.070312 49.324219 83.070312 50.613281 83.070312 50.96875 L 81.222656 50.96875 C 81.222656 49.082031 82.289062 47.730469 84.558594 47.730469 C 85.90625 47.730469 87.6875 48.414062 87.6875 50.542969 C 87.6875 51.5625 87.042969 52.203125 86.476562 52.460938 L 86.476562 52.484375 C 86.832031 52.585938 87.996094 53.109375 87.996094 54.832031 C 87.996094 56.730469 86.589844 58.082031 84.558594 58.082031 C 83.609375 58.082031 81.050781 57.871094 81.050781 54.714844 M 85.074219 43.90625 L 93.460938 43.910156 L 93.460938 60.5625 L 85.074219 60.5625 L 85.074219 59.210938 L 91.074219 59.210938 L 91.074219 46.289062 L 85.074219 46.289062 Z M 115.363281 102.101562 L 115.363281 115.023438 L 121.367188 115.023438 L 121.367188 120.511719 L 103.675781 120.511719 L 103.675781 115.023438 L 109.679688 115.023438 L 109.679688 102.101562 L 96.757812 102.101562 L 96.757812 115.023438 L 102.765625 115.023438 L 102.765625 120.511719 L 66.46875 120.511719 L 66.46875 115.023438 L 72.46875 115.023438 L 72.46875 102.101562 L 66.46875 102.101562 L 66.46875 96.417969 L 72.46875 96.417969 L 72.46875 83.5 L 66.46875 83.5 L 66.46875 77.8125 L 72.46875 77.8125 L 72.46875 64.894531 L 66.46875 64.894531 L 66.46875 63.542969 L 85.074219 63.542969 L 85.074219 61.476562 L 94.375 61.476562 L 94.375 43 L 93.917969 43 L 84.617188 42.992188 L 84.160156 42.992188 L 84.160156 46.289062 L 78.15625 46.289062 L 78.15625 59.210938 L 84.160156 59.210938 L 84.160156 62.632812 L 66.46875 62.632812 L 66.46875 59.210938 L 72.46875 59.210938 L 72.46875 46.289062 L 59.554688 46.289062 L 59.554688 59.210938 L 65.554688 59.210938 L 65.554688 62.632812 L 47.863281 62.632812 L 47.863281 59.210938 L 53.867188 59.210938 L 53.867188 46.289062 L 40.949219 46.289062 L 40.949219 59.210938 L 46.953125 59.210938 L 46.953125 63.542969 L 65.554688 63.542969 L 65.554688 64.894531 L 59.554688 64.894531 L 59.554688 77.8125 L 65.554688 77.8125 L 65.554688 83.5 L 59.554688 83.5 L 59.554688 96.417969 L 65.554688 96.417969 L 65.554688 102.101562 L 59.554688 102.101562 L 59.554688 115.023438 L 65.554688 115.023438 L 65.554688 121.421875 L 122.28125 121.421875 L 122.28125 115.023438 L 128.285156 115.023438 L 128.285156 102.101562 Z M 115.363281 102.101562 "/>
<path fill-rule="nonzero" fill="rgb(0%, 0%, 0%)" fill-opacity="1" d="M 66.464844 49.707031 L 66.433594 49.707031 L 63.90625 54.027344 L 66.421875 54.027344 C 66.421875 51.589844 66.464844 50.019531 66.464844 49.707031 "/>
</svg>
