<?xml version="1.0" encoding="UTF-8"?>
<svg xmlns="http://www.w3.org/2000/svg" xmlns:xlink="http://www.w3.org/1999/xlink" width="172" height="152" viewBox="0 0 172 152">
<path fill-rule="nonzero" fill="rgb(0%, 0%, 0%)" fill-opacity="1" d="M 77.222656 142.863281 L 77.222656 141.734375 L 80.070312 141.144531 L 80.070312 143.078125 L 87.535156 143.078125 C 88.609375 143.078125 88.875 142.835938 88.875 141.84375 L 88.875 140.820312 C 88.875 139.828125 88.609375 139.558594 87.527344 139.570312 L 82.847656 139.570312 L 82.847656 137.320312 L 87.015625 137.320312 C 88.09375 137.320312 88.335938 137.050781 88.335938 136.050781 L 88.335938 135.347656 C 88.335938 134.34375 88.09375 134.074219 87.015625 134.074219 L 80.15625 134.074219 L 80.15625 135.804688 L 77.421875 135.292969 L 77.421875 134.425781 C 77.421875 132.21875 78.226562 131.710938 80.589844 131.710938 L 88.09375 131.710938 C 90.457031 131.710938 91.265625 132.21875 91.265625 134.425781 L 91.265625 135.699219 C 91.265625 137.347656 90.5625 138.015625 88.582031 138.320312 C 90.785156 138.535156 91.804688 139.398438 91.804688 141.144531 L 91.804688 142.59375 C 91.804688 144.746094 91.105469 145.578125 88.445312 145.578125 L 80.394531 145.578125 C 78.027344 145.578125 77.222656 145.070312 77.222656 142.863281 "/>
<path fill-rule="nonzero" fill="rgb(0%, 0%, 0%)" fill-opacity="1" d="M 75.316406 108.695312 C 74.566406 108.695312 73.796875 109.164062 73.796875 110.429688 C 73.796875 111.519531 74.421875 112.304688 75.371094 112.304688 C 76.097656 112.304688 76.765625 111.75 76.765625 110.386719 C 76.765625 109.109375 75.941406 108.695312 75.316406 108.695312 "/>
<path fill-rule="nonzero" fill="rgb(0%, 0%, 0%)" fill-opacity="1" d="M 38.082031 109.136719 C 37.355469 109.136719 36.660156 109.605469 36.660156 110.699219 C 36.660156 111.664062 37.214844 112.300781 38.121094 112.300781 C 39.160156 112.300781 39.558594 111.40625 39.558594 110.710938 C 39.558594 110.003906 39.1875 109.136719 38.082031 109.136719 "/>
<path fill-rule="nonzero" fill="rgb(0%, 0%, 0%)" fill-opacity="1" d="M 38.121094 107.628906 C 38.902344 107.628906 39.355469 107.105469 39.355469 106.382812 C 39.355469 105.617188 38.832031 105.132812 38.191406 105.132812 C 37.300781 105.132812 36.832031 105.648438 36.832031 106.382812 C 36.832031 106.980469 37.273438 107.628906 38.121094 107.628906 "/>
<path fill-rule="nonzero" fill="rgb(0%, 0%, 0%)" fill-opacity="1" d="M 112.929688 109.839844 C 112.929688 107.402344 112.972656 105.832031 112.972656 105.519531 L 112.945312 105.519531 L 110.414062 109.839844 Z M 112.929688 109.839844 "/>
<path fill-rule="nonzero" fill="rgb(0%, 0%, 0%)" fill-opacity="1" d="M 139.972656 79.167969 L 131.582031 79.167969 L 131.582031 77.816406 L 137.585938 77.816406 L 137.585938 64.894531 L 131.582031 64.894531 L 131.582031 62.515625 L 139.972656 62.515625 Z M 130.554688 76.417969 L 130.554688 69.464844 L 128.152344 69.464844 L 128.152344 68.074219 L 128.433594 68.074219 C 130.351562 68.074219 130.863281 67.082031 130.910156 66.335938 L 132.542969 66.335938 L 132.542969 76.417969 Z M 108.941406 76.414062 C 109.015625 75.238281 109.097656 74 111.289062 72.414062 C 113.105469 71.09375 113.828125 70.582031 113.828125 69.445312 C 113.828125 68.777344 113.402344 68.011719 112.4375 68.011719 C 111.046875 68.011719 111.007812 69.160156 110.992188 69.898438 L 109.058594 69.898438 C 109.058594 66.621094 111.460938 66.335938 112.355469 66.335938 C 114.285156 66.335938 115.820312 67.472656 115.820312 69.515625 C 115.820312 71.246094 114.695312 72.128906 113.714844 72.792969 C 112.378906 73.730469 111.6875 74.183594 111.460938 74.652344 L 115.832031 74.652344 L 115.832031 76.414062 Z M 115.589844 87.75 C 115.589844 88.773438 114.953125 89.410156 114.382812 89.667969 L 114.382812 89.695312 C 114.738281 89.792969 115.90625 90.320312 115.90625 92.039062 C 115.90625 93.941406 114.496094 95.289062 112.464844 95.289062 C 111.515625 95.289062 108.957031 95.078125 108.957031 91.925781 L 110.90625 91.925781 L 110.890625 91.941406 C 110.890625 92.476562 111.035156 93.699219 112.367188 93.699219 C 113.160156 93.699219 113.859375 93.160156 113.859375 92.039062 C 113.859375 90.660156 112.523438 90.605469 111.589844 90.605469 L 111.589844 89.183594 L 111.910156 89.183594 C 112.507812 89.183594 113.601562 89.128906 113.601562 87.824219 C 113.601562 87.453125 113.429688 86.53125 112.339844 86.53125 C 110.976562 86.53125 110.976562 87.824219 110.976562 88.175781 L 109.128906 88.175781 C 109.128906 86.289062 110.195312 84.9375 112.464844 84.9375 C 113.8125 84.9375 115.589844 85.621094 115.589844 87.75 M 114.921875 103.542969 L 114.921875 109.835938 L 116.042969 109.835938 L 116.042969 111.386719 L 114.921875 111.386719 L 114.921875 113.625 L 112.929688 113.625 L 112.929688 111.386719 L 108.953125 111.386719 L 108.953125 109.667969 L 112.660156 103.542969 Z M 90.355469 110.925781 L 92.34375 110.925781 C 92.429688 111.75 92.871094 112.300781 93.75 112.300781 C 94.699219 112.300781 95.253906 111.492188 95.253906 110.414062 C 95.253906 109.519531 94.828125 108.609375 93.777344 108.609375 C 93.507812 108.609375 92.828125 108.625 92.445312 109.335938 L 90.664062 109.25 L 91.363281 103.714844 L 96.902344 103.714844 L 96.902344 105.390625 L 92.800781 105.390625 L 92.445312 107.570312 C 92.8125 107.316406 93.269531 107.019531 94.246094 107.019531 C 95.59375 107.019531 97.300781 107.957031 97.300781 110.273438 C 97.300781 111.648438 96.605469 113.894531 93.636719 113.894531 C 92.0625 113.894531 90.453125 112.957031 90.355469 110.925781 M 71.808594 108.824219 C 71.808594 106.910156 72.0625 103.542969 75.558594 103.542969 C 75.96875 103.542969 77.117188 103.699219 77.617188 104.199219 C 78.171875 104.738281 78.371094 105.035156 78.554688 106.101562 L 76.578125 106.097656 C 76.519531 105.53125 76.152344 105.132812 75.414062 105.132812 C 74.125 105.132812 73.828125 106.609375 73.753906 107.914062 L 73.78125 107.941406 C 74.050781 107.574219 74.550781 107.101562 75.671875 107.101562 C 77.757812 107.101562 78.753906 108.710938 78.753906 110.214844 C 78.753906 112.414062 77.402344 113.894531 75.457031 113.894531 C 72.40625 113.894531 71.808594 111.335938 71.808594 108.824219 M 54.542969 113.625 C 54.753906 109.59375 57.285156 106.382812 58.140625 105.476562 L 53.121094 105.476562 L 53.164062 103.714844 L 60.269531 103.714844 L 60.269531 105.25 C 59.304688 106.300781 56.832031 109.28125 56.589844 113.625 Z M 34.613281 110.828125 C 34.613281 110.316406 34.613281 108.980469 36.148438 108.269531 C 35.351562 107.871094 34.925781 107.234375 34.925781 106.296875 C 34.925781 104.582031 36.304688 103.542969 38.066406 103.542969 C 40.152344 103.542969 41.261719 104.78125 41.261719 106.167969 C 41.261719 107.035156 40.90625 107.773438 40.097656 108.199219 C 41.0625 108.683594 41.605469 109.320312 41.605469 110.625 C 41.605469 111.90625 40.777344 113.894531 38.109375 113.894531 C 35.507812 113.894531 34.613281 112.203125 34.613281 110.828125 M 131.125 61.605469 L 130.667969 61.605469 L 130.667969 64.894531 L 124.667969 64.894531 L 124.667969 77.816406 L 130.667969 77.816406 L 130.667969 81.234375 L 112.980469 81.234375 L 112.980469 77.816406 L 118.980469 77.816406 L 118.980469 64.894531 L 106.0625 64.894531 L 106.0625 77.816406 L 112.066406 77.816406 L 112.066406 83.5 L 106.0625 83.5 L 106.0625 96.417969 L 112.066406 96.417969 L 112.066406 102.105469 L 106.0625 102.105469 L 106.0625 115.023438 L 112.066406 115.023438 L 112.066406 120.507812 L 94.375 120.507812 L 94.375 115.023438 L 100.378906 115.023438 L 100.378906 102.105469 L 87.460938 102.105469 L 87.460938 115.023438 L 93.460938 115.023438 L 93.460938 120.507812 L 75.769531 120.507812 L 75.769531 115.023438 L 81.777344 115.023438 L 81.777344 102.105469 L 68.855469 102.105469 L 68.855469 115.023438 L 74.859375 115.023438 L 74.859375 120.507812 L 57.164062 120.507812 L 57.164062 115.023438 L 63.171875 115.023438 L 63.171875 102.105469 L 50.25 102.105469 L 50.25 115.023438 L 56.253906 115.023438 L 56.253906 120.507812 L 38.5625 120.507812 L 38.5625 115.023438 L 44.566406 115.023438 L 44.566406 102.105469 L 31.648438 102.105469 L 31.648438 115.023438 L 37.652344 115.023438 L 37.652344 121.421875 L 112.980469 121.421875 L 112.980469 115.023438 L 118.980469 115.023438 L 118.980469 102.105469 L 112.980469 102.105469 L 112.980469 96.417969 L 118.980469 96.417969 L 118.980469 83.5 L 112.980469 83.5 L 112.980469 82.148438 L 131.582031 82.148438 L 131.582031 80.082031 L 140.882812 80.082031 L 140.882812 61.605469 Z M 131.125 61.605469 "/>
</svg>
