<?xml version="1.0" encoding="UTF-8"?>
<svg xmlns="http://www.w3.org/2000/svg" xmlns:xlink="http://www.w3.org/1999/xlink" width="172" height="152" viewBox="0 0 172 152">
<path fill-rule="nonzero" fill="rgb(0%, 0%, 0%)" fill-opacity="1" d="M 69.882812 139.324219 C 72 139.109375 74.066406 139.003906 76.027344 139.003906 C 78.359375 139.003906 79.085938 139.296875 79.085938 140.664062 L 79.085938 141.414062 C 79.085938 142.648438 78.550781 143.078125 76.5625 143.078125 L 72.699219 143.078125 C 70.039062 143.078125 69.824219 142.542969 69.824219 140.128906 C 69.824219 139.914062 69.824219 139.644531 69.882812 139.324219 M 70.066406 137.234375 C 71.113281 134.296875 73.960938 133.644531 79.113281 133.644531 L 80 133.644531 L 78.09375 131.421875 C 77.769531 131.394531 77.421875 131.367188 77.101562 131.367188 C 70.605469 131.367188 66.867188 134.320312 66.867188 139.484375 L 66.867188 141.308594 C 66.867188 144.609375 67.996094 145.582031 71.4375 145.582031 L 77.289062 145.582031 C 80.511719 145.582031 82.042969 144.53125 82.042969 142.191406 L 82.042969 140.3125 C 82.042969 137.503906 80.429688 136.75 76.1875 136.75 C 74.039062 136.75 72 136.9375 70.066406 137.234375 "/>
<path fill-rule="nonzero" fill="rgb(0%, 0%, 0%)" fill-opacity="1" d="M 97.324219 140.199219 L 89.746094 140.199219 L 97.324219 133.988281 Z M 97.324219 145.75 L 100.253906 145.75 L 100.253906 142.503906 L 103.609375 142.503906 L 103.609375 140.199219 L 100.253906 140.199219 L 100.253906 131.539062 L 97.214844 131.539062 L 86.816406 140.199219 L 86.816406 142.503906 L 97.324219 142.503906 Z M 97.324219 145.75 "/>
<path fill-rule="nonzero" fill="rgb(0%, 0%, 0%)" fill-opacity="1" d="M 75.765625 86.914062 L 75.738281 86.914062 L 73.207031 91.234375 L 75.722656 91.234375 C 75.722656 88.800781 75.765625 87.226562 75.765625 86.914062 "/>
<path fill-rule="nonzero" fill="rgb(0%, 0%, 0%)" fill-opacity="1" d="M 38.078125 109.136719 C 37.355469 109.136719 36.660156 109.605469 36.660156 110.699219 C 36.660156 111.664062 37.214844 112.300781 38.125 112.300781 C 39.15625 112.300781 39.554688 111.40625 39.554688 110.714844 C 39.554688 110.003906 39.183594 109.136719 38.078125 109.136719 "/>
<path fill-rule="nonzero" fill="rgb(0%, 0%, 0%)" fill-opacity="1" d="M 38.121094 107.632812 C 38.902344 107.632812 39.355469 107.105469 39.355469 106.382812 C 39.355469 105.617188 38.828125 105.136719 38.191406 105.136719 C 37.300781 105.136719 36.832031 105.644531 36.832031 106.382812 C 36.832031 106.980469 37.269531 107.632812 38.121094 107.632812 "/>
<path fill-rule="nonzero" fill="rgb(0%, 0%, 0%)" fill-opacity="1" d="M 58.15625 91.78125 C 58.15625 90.503906 57.335938 90.089844 56.710938 90.089844 C 55.960938 90.089844 55.191406 90.558594 55.191406 91.824219 C 55.191406 92.917969 55.816406 93.699219 56.769531 93.699219 C 57.492188 93.699219 58.15625 93.144531 58.15625 91.78125 "/>
<path fill-rule="nonzero" fill="rgb(0%, 0%, 0%)" fill-opacity="1" d="M 132.542969 113.625 L 130.550781 113.625 L 130.550781 106.675781 L 128.148438 106.675781 L 128.148438 105.28125 L 128.433594 105.28125 C 130.351562 105.28125 130.863281 104.289062 130.90625 103.542969 L 132.542969 103.542969 Z M 108.941406 113.621094 C 109.011719 112.441406 109.097656 111.207031 111.289062 109.617188 C 113.105469 108.300781 113.828125 107.789062 113.828125 106.652344 C 113.828125 105.984375 113.402344 105.222656 112.4375 105.222656 C 111.046875 105.222656 111.003906 106.367188 110.988281 107.105469 L 109.058594 107.105469 C 109.058594 103.828125 111.460938 103.542969 112.351562 103.542969 C 114.28125 103.542969 115.816406 104.679688 115.816406 106.726562 C 115.816406 108.453125 114.695312 109.335938 113.714844 110 C 112.382812 110.9375 111.6875 111.390625 111.460938 111.859375 L 115.832031 111.859375 L 115.832031 113.621094 Z M 71.75 110.925781 L 73.738281 110.925781 C 73.824219 111.746094 74.265625 112.300781 75.144531 112.300781 C 76.097656 112.300781 76.648438 111.492188 76.648438 110.414062 C 76.648438 109.519531 76.222656 108.609375 75.171875 108.609375 C 74.902344 108.609375 74.222656 108.625 73.839844 109.335938 L 72.0625 109.25 L 72.757812 103.714844 L 78.296875 103.714844 L 78.296875 105.394531 L 74.195312 105.394531 L 73.839844 107.570312 C 74.210938 107.316406 74.660156 107.019531 75.640625 107.019531 C 76.988281 107.019531 78.695312 107.953125 78.695312 110.269531 C 78.695312 111.648438 78 113.894531 75.03125 113.894531 C 73.457031 113.894531 71.851562 112.957031 71.75 110.925781 M 71.742188 92.785156 L 71.742188 91.0625 L 75.453125 84.9375 L 77.714844 84.9375 L 77.714844 91.234375 L 78.835938 91.234375 L 78.835938 92.785156 L 77.714844 92.785156 L 77.714844 95.019531 L 75.722656 95.019531 L 75.722656 92.785156 Z M 34.609375 110.828125 C 34.609375 110.3125 34.609375 108.980469 36.148438 108.269531 C 35.355469 107.871094 34.925781 107.234375 34.925781 106.300781 C 34.925781 104.582031 36.304688 103.542969 38.0625 103.542969 C 40.152344 103.542969 41.261719 104.777344 41.261719 106.171875 C 41.261719 107.035156 40.90625 107.773438 40.097656 108.199219 C 41.0625 108.683594 41.601562 109.320312 41.601562 110.628906 C 41.601562 111.902344 40.777344 113.894531 38.109375 113.894531 C 35.507812 113.894531 34.609375 112.199219 34.609375 110.828125 M 35.9375 95.019531 C 36.148438 90.988281 38.683594 87.78125 39.535156 86.875 L 34.515625 86.875 L 34.558594 85.109375 L 41.664062 85.109375 L 41.664062 86.644531 C 40.699219 87.695312 38.226562 90.679688 37.984375 95.019531 Z M 53.203125 90.21875 C 53.203125 88.304688 53.457031 84.9375 56.953125 84.9375 C 57.363281 84.9375 58.515625 85.097656 59.011719 85.59375 C 59.566406 86.132812 59.765625 86.433594 59.949219 87.496094 L 57.976562 87.496094 C 57.914062 86.929688 57.546875 86.53125 56.8125 86.53125 C 55.519531 86.53125 55.222656 88.003906 55.148438 89.308594 L 55.179688 89.339844 C 55.445312 88.96875 55.945312 88.5 57.066406 88.5 C 59.152344 88.5 60.148438 90.105469 60.148438 91.609375 C 60.148438 93.8125 58.796875 95.289062 56.851562 95.289062 C 53.800781 95.289062 53.203125 92.734375 53.203125 90.21875 M 90.351562 91.925781 L 92.300781 91.925781 L 92.285156 91.9375 C 92.285156 92.476562 92.429688 93.699219 93.761719 93.699219 C 94.558594 93.699219 95.253906 93.160156 95.253906 92.039062 C 95.253906 90.660156 93.921875 90.605469 92.988281 90.605469 L 92.988281 89.183594 L 93.308594 89.183594 C 93.90625 89.183594 94.996094 89.128906 94.996094 87.820312 C 94.996094 87.453125 94.824219 86.53125 93.734375 86.53125 C 92.371094 86.53125 92.371094 87.820312 92.371094 88.175781 L 90.523438 88.175781 C 90.523438 86.289062 91.589844 84.9375 93.859375 84.9375 C 95.210938 84.9375 96.988281 85.621094 96.988281 87.75 C 96.988281 88.769531 96.347656 89.410156 95.777344 89.667969 L 95.777344 89.695312 C 96.132812 89.792969 97.300781 90.320312 97.300781 92.039062 C 97.300781 93.9375 95.890625 95.289062 93.859375 95.289062 C 92.910156 95.289062 90.351562 95.078125 90.351562 91.925781 M 94.371094 81.113281 L 102.761719 81.113281 L 102.761719 97.769531 L 94.371094 97.769531 L 94.371094 96.417969 L 100.378906 96.417969 L 100.378906 83.5 L 94.371094 83.5 Z M 124.664062 102.105469 L 124.664062 115.023438 L 130.667969 115.023438 L 130.667969 120.511719 L 112.976562 120.511719 L 112.976562 115.023438 L 118.980469 115.023438 L 118.980469 102.105469 L 106.0625 102.105469 L 106.0625 115.023438 L 112.066406 115.023438 L 112.066406 120.511719 L 75.769531 120.511719 L 75.769531 115.023438 L 81.773438 115.023438 L 81.773438 102.105469 L 75.769531 102.105469 L 75.769531 100.75 L 94.371094 100.75 L 94.371094 98.683594 L 103.675781 98.683594 L 103.675781 80.199219 L 93.460938 80.199219 L 93.460938 83.5 L 87.460938 83.5 L 87.460938 96.417969 L 93.460938 96.417969 L 93.460938 99.839844 L 75.769531 99.839844 L 75.769531 96.417969 L 81.773438 96.417969 L 81.773438 83.5 L 68.855469 83.5 L 68.855469 96.417969 L 74.855469 96.417969 L 74.855469 102.105469 L 68.855469 102.105469 L 68.855469 115.023438 L 74.855469 115.023438 L 74.855469 120.511719 L 38.5625 120.511719 L 38.5625 115.023438 L 44.566406 115.023438 L 44.566406 102.105469 L 38.5625 102.105469 L 38.5625 100.75 L 57.164062 100.75 L 57.164062 96.417969 L 63.171875 96.417969 L 63.171875 83.5 L 50.25 83.5 L 50.25 96.417969 L 56.253906 96.417969 L 56.253906 99.839844 L 38.5625 99.839844 L 38.5625 96.417969 L 44.566406 96.417969 L 44.566406 83.5 L 31.644531 83.5 L 31.644531 96.417969 L 37.648438 96.417969 L 37.648438 102.105469 L 31.644531 102.105469 L 31.644531 115.023438 L 37.648438 115.023438 L 37.648438 121.421875 L 131.578125 121.421875 L 131.578125 115.023438 L 137.585938 115.023438 L 137.585938 102.105469 Z M 124.664062 102.105469 "/>
</svg>
