<?xml version="1.0" encoding="UTF-8"?>
<svg xmlns="http://www.w3.org/2000/svg" xmlns:xlink="http://www.w3.org/1999/xlink" width="172" height="152" viewBox="0 0 172 152">
<path fill-rule="nonzero" fill="rgb(0%, 0%, 0%)" fill-opacity="1" d="M 69.882812 139.324219 C 72.003906 139.109375 74.070312 139 76.027344 139 C 78.363281 139 79.089844 139.296875 79.089844 140.664062 L 79.089844 141.414062 C 79.089844 142.648438 78.550781 143.078125 76.5625 143.078125 L 72.699219 143.078125 C 70.042969 143.078125 69.828125 142.542969 69.828125 140.128906 C 69.828125 139.914062 69.828125 139.644531 69.882812 139.324219 M 70.070312 137.230469 C 71.117188 134.292969 73.960938 133.648438 79.113281 133.648438 L 80.003906 133.648438 L 78.09375 131.421875 C 77.773438 131.394531 77.421875 131.367188 77.101562 131.367188 C 70.605469 131.367188 66.867188 134.320312 66.867188 139.484375 L 66.867188 141.308594 C 66.867188 144.609375 68 145.578125 71.4375 145.578125 L 77.289062 145.578125 C 80.511719 145.578125 82.046875 144.53125 82.046875 142.191406 L 82.046875 140.316406 C 82.046875 137.5 80.433594 136.753906 76.1875 136.753906 C 74.042969 136.753906 72.003906 136.9375 70.070312 137.230469 "/>
<path fill-rule="nonzero" fill="rgb(0%, 0%, 0%)" fill-opacity="1" d="M 98.570312 139.574219 C 99.648438 139.574219 99.886719 139.839844 99.886719 140.832031 L 99.886719 141.847656 C 99.886719 142.835938 99.648438 143.078125 98.570312 143.078125 L 91.460938 143.078125 C 90.382812 143.078125 90.140625 142.863281 90.140625 141.847656 L 90.140625 140.832031 C 90.140625 139.839844 90.382812 139.574219 91.460938 139.574219 Z M 98.261719 134.074219 C 99.332031 134.074219 99.574219 134.34375 99.574219 135.34375 L 99.574219 136.050781 C 99.574219 137.050781 99.332031 137.320312 98.261719 137.320312 L 91.796875 137.320312 C 90.722656 137.320312 90.453125 137.050781 90.453125 136.050781 L 90.453125 135.34375 C 90.453125 134.34375 90.722656 134.074219 91.796875 134.074219 Z M 99.332031 131.710938 L 90.695312 131.710938 C 88.332031 131.710938 87.527344 132.21875 87.527344 134.425781 L 87.527344 135.699219 C 87.527344 137.320312 88.25 138.015625 90.1875 138.390625 C 88.179688 138.605469 87.210938 139.464844 87.210938 141.148438 L 87.210938 142.597656 C 87.210938 144.746094 87.910156 145.578125 90.570312 145.578125 L 99.457031 145.578125 C 102.121094 145.578125 102.84375 144.746094 102.84375 142.597656 L 102.84375 141.148438 C 102.84375 139.464844 101.878906 138.605469 99.886719 138.390625 C 101.804688 138.015625 102.503906 137.320312 102.503906 135.699219 L 102.503906 134.425781 C 102.503906 132.21875 101.699219 131.710938 99.332031 131.710938 "/>
<path fill-rule="nonzero" fill="rgb(0%, 0%, 0%)" fill-opacity="1" d="M 84.589844 109.136719 C 83.867188 109.136719 83.171875 109.605469 83.171875 110.699219 C 83.171875 111.660156 83.726562 112.300781 84.632812 112.300781 C 85.667969 112.300781 86.066406 111.40625 86.066406 110.710938 C 86.066406 110 85.695312 109.136719 84.589844 109.136719 "/>
<path fill-rule="nonzero" fill="rgb(0%, 0%, 0%)" fill-opacity="1" d="M 83.34375 106.382812 C 83.34375 106.976562 83.78125 107.628906 84.632812 107.628906 C 85.410156 107.628906 85.863281 107.105469 85.863281 106.382812 C 85.863281 105.617188 85.34375 105.132812 84.703125 105.132812 C 83.8125 105.132812 83.34375 105.644531 83.34375 106.382812 "/>
<path fill-rule="nonzero" fill="rgb(0%, 0%, 0%)" fill-opacity="1" d="M 82.511719 91.234375 L 85.023438 91.234375 C 85.023438 88.800781 85.070312 87.226562 85.070312 86.914062 L 85.039062 86.914062 Z M 82.511719 91.234375 "/>
<path fill-rule="nonzero" fill="rgb(0%, 0%, 0%)" fill-opacity="1" d="M 149.273438 97.769531 L 140.882812 97.769531 L 140.882812 96.417969 L 146.886719 96.417969 L 146.886719 83.5 L 140.882812 83.5 L 140.882812 81.113281 L 149.273438 81.113281 Z M 139.855469 95.023438 L 139.855469 88.070312 L 137.453125 88.070312 L 137.453125 86.675781 L 137.738281 86.675781 C 139.65625 86.675781 140.167969 85.6875 140.207031 84.9375 L 141.847656 84.9375 L 141.847656 95.023438 Z M 118.246094 95.019531 C 118.316406 93.839844 118.402344 92.601562 120.589844 91.015625 C 122.40625 89.695312 123.128906 89.183594 123.128906 88.046875 C 123.128906 87.382812 122.703125 86.617188 121.742188 86.617188 C 120.351562 86.617188 120.308594 87.765625 120.292969 88.5 L 118.359375 88.5 C 118.359375 85.222656 120.761719 84.9375 121.65625 84.9375 C 123.585938 84.9375 125.121094 86.078125 125.121094 88.121094 C 125.121094 89.851562 123.996094 90.730469 123.019531 91.398438 C 121.683594 92.335938 120.988281 92.789062 120.761719 93.253906 L 125.136719 93.253906 L 125.136719 95.019531 Z M 99.65625 91.925781 L 101.605469 91.925781 L 101.589844 91.941406 C 101.589844 92.476562 101.734375 93.699219 103.066406 93.699219 C 103.859375 93.699219 104.554688 93.160156 104.554688 92.039062 C 104.554688 90.660156 103.222656 90.605469 102.289062 90.605469 L 102.289062 89.183594 L 102.609375 89.183594 C 103.207031 89.183594 104.296875 89.125 104.296875 87.820312 C 104.296875 87.453125 104.128906 86.53125 103.035156 86.53125 C 101.675781 86.53125 101.675781 87.820312 101.675781 88.175781 L 99.824219 88.175781 C 99.824219 86.289062 100.894531 84.9375 103.164062 84.9375 C 104.511719 84.9375 106.289062 85.621094 106.289062 87.75 C 106.289062 88.769531 105.648438 89.410156 105.078125 89.667969 L 105.078125 89.695312 C 105.4375 89.792969 106.601562 90.320312 106.601562 92.039062 C 106.601562 93.9375 105.195312 95.289062 103.164062 95.289062 C 102.214844 95.289062 99.65625 95.078125 99.65625 91.925781 M 85.023438 95.023438 L 85.023438 92.785156 L 81.046875 92.785156 L 81.046875 91.0625 L 84.753906 84.9375 L 87.019531 84.9375 L 87.019531 91.234375 L 88.140625 91.234375 L 88.140625 92.785156 L 87.019531 92.785156 L 87.019531 95.023438 Z M 87.773438 106.167969 C 87.773438 107.035156 87.414062 107.773438 86.605469 108.199219 C 87.574219 108.679688 88.113281 109.324219 88.113281 110.625 C 88.113281 111.902344 87.289062 113.894531 84.617188 113.894531 C 82.019531 113.894531 81.125 112.203125 81.125 110.828125 C 81.125 110.316406 81.125 108.980469 82.660156 108.269531 C 81.863281 107.871094 81.4375 107.234375 81.4375 106.296875 C 81.4375 104.582031 82.816406 103.542969 84.574219 103.542969 C 86.660156 103.542969 87.773438 104.777344 87.773438 106.167969 M 62.449219 92.320312 L 64.4375 92.320312 C 64.523438 93.144531 64.964844 93.699219 65.84375 93.699219 C 66.792969 93.699219 67.347656 92.886719 67.347656 91.808594 C 67.347656 90.914062 66.921875 90.007812 65.871094 90.007812 C 65.605469 90.007812 64.921875 90.019531 64.539062 90.730469 L 62.761719 90.644531 L 63.457031 85.109375 L 68.996094 85.109375 L 68.996094 86.789062 L 64.894531 86.789062 L 64.539062 88.96875 C 64.90625 88.710938 65.359375 88.414062 66.339844 88.414062 C 67.691406 88.414062 69.394531 89.351562 69.394531 91.667969 C 69.394531 93.046875 68.699219 95.289062 65.730469 95.289062 C 64.152344 95.289062 62.546875 94.351562 62.449219 92.320312 M 43.898438 90.21875 C 43.898438 88.304688 44.15625 84.9375 47.652344 84.9375 C 48.0625 84.9375 49.210938 85.09375 49.710938 85.59375 C 50.265625 86.132812 50.464844 86.429688 50.648438 87.496094 L 48.671875 87.496094 C 48.617188 86.925781 48.246094 86.53125 47.511719 86.53125 C 46.21875 86.53125 45.921875 88.003906 45.851562 89.308594 L 45.878906 89.335938 C 46.148438 88.96875 46.644531 88.5 47.765625 88.5 C 49.851562 88.5 50.851562 90.105469 50.851562 91.609375 C 50.851562 93.8125 49.5 95.289062 47.550781 95.289062 C 44.496094 95.289062 43.898438 92.734375 43.898438 90.21875 M 26.636719 95.023438 C 26.847656 90.988281 29.382812 87.78125 30.234375 86.875 L 25.214844 86.875 L 25.257812 85.109375 L 32.367188 85.109375 L 32.367188 86.644531 C 31.398438 87.695312 28.925781 90.675781 28.683594 95.023438 Z M 140.429688 80.203125 L 139.972656 80.203125 L 139.972656 83.5 L 133.96875 83.5 L 133.96875 96.417969 L 139.972656 96.417969 L 139.972656 99.835938 L 122.277344 99.835938 L 122.277344 96.417969 L 128.285156 96.417969 L 128.285156 83.5 L 115.363281 83.5 L 115.363281 96.417969 L 121.367188 96.417969 L 121.367188 99.835938 L 103.675781 99.835938 L 103.675781 96.417969 L 109.679688 96.417969 L 109.679688 83.5 L 96.761719 83.5 L 96.761719 96.417969 L 102.765625 96.417969 L 102.765625 99.835938 L 85.070312 99.835938 L 85.070312 96.417969 L 91.074219 96.417969 L 91.074219 83.5 L 78.15625 83.5 L 78.15625 96.417969 L 84.160156 96.417969 L 84.160156 99.835938 L 66.46875 99.835938 L 66.46875 96.417969 L 72.472656 96.417969 L 72.472656 83.5 L 59.554688 83.5 L 59.554688 96.417969 L 65.554688 96.417969 L 65.554688 99.835938 L 47.863281 99.835938 L 47.863281 96.417969 L 53.867188 96.417969 L 53.867188 83.5 L 40.949219 83.5 L 40.949219 96.417969 L 46.953125 96.417969 L 46.953125 99.835938 L 29.261719 99.835938 L 29.261719 96.417969 L 35.265625 96.417969 L 35.265625 83.5 L 22.347656 83.5 L 22.347656 96.417969 L 28.351562 96.417969 L 28.351562 100.75 L 84.160156 100.75 L 84.160156 102.101562 L 78.15625 102.101562 L 78.15625 115.023438 L 84.160156 115.023438 L 84.160156 120.964844 L 85.070312 120.964844 L 85.070312 115.023438 L 91.074219 115.023438 L 91.074219 102.101562 L 85.070312 102.101562 L 85.070312 100.75 L 140.882812 100.75 L 140.882812 98.683594 L 150.1875 98.683594 L 150.1875 80.203125 Z M 140.429688 80.203125 "/>
<path fill-rule="nonzero" fill="rgb(0%, 0%, 0%)" fill-opacity="1" d="M 47.410156 90.09375 C 46.660156 90.09375 45.894531 90.5625 45.894531 91.824219 C 45.894531 92.914062 46.515625 93.699219 47.46875 93.699219 C 48.191406 93.699219 48.859375 93.144531 48.859375 91.78125 C 48.859375 90.503906 48.035156 90.09375 47.410156 90.09375 "/>
</svg>
