<?xml version="1.0" encoding="UTF-8"?>
<svg xmlns="http://www.w3.org/2000/svg" xmlns:xlink="http://www.w3.org/1999/xlink" width="172" height="152" viewBox="0 0 172 152">
<path fill-rule="nonzero" fill="rgb(0%, 0%, 0%)" fill-opacity="1" d="M 68.144531 131.710938 L 80.128906 131.710938 L 79.886719 134.070312 L 70.210938 134.070312 L 69.890625 136.761719 C 72.011719 136.546875 73.867188 136.410156 75.503906 136.410156 C 80.074219 136.410156 82.386719 137.96875 82.386719 141.117188 C 82.386719 144.484375 79.941406 145.777344 74.753906 145.777344 C 71.769531 145.777344 69.539062 145.5625 68.0625 145.214844 L 67.363281 142.519531 C 69.890625 142.980469 72.308594 143.246094 74.671875 143.246094 C 77.953125 143.246094 79.402344 142.707031 79.402344 140.984375 C 79.402344 139.339844 77.921875 138.828125 74.863281 138.828125 C 72.953125 138.828125 70.453125 138.992188 67.363281 139.394531 L 68.144531 131.710938 "/>
<path fill-rule="nonzero" fill="rgb(0%, 0%, 0%)" fill-opacity="1" d="M 90.085938 134.070312 L 100.003906 134.070312 L 100.003906 143.074219 L 90.085938 143.074219 Z M 87.183594 134.984375 L 87.183594 142.296875 C 87.183594 144.851562 87.910156 145.578125 90.355469 145.578125 L 99.734375 145.578125 C 102.179688 145.578125 102.90625 144.851562 102.90625 142.296875 L 102.90625 134.984375 C 102.90625 132.433594 102.179688 131.710938 99.734375 131.710938 L 90.355469 131.710938 C 87.910156 131.710938 87.183594 132.433594 87.183594 134.984375 "/>
<path fill-rule="nonzero" fill="rgb(0%, 0%, 0%)" fill-opacity="1" d="M 67.460938 91.78125 C 67.460938 90.503906 66.636719 90.089844 66.015625 90.089844 C 65.261719 90.089844 64.496094 90.558594 64.496094 91.824219 C 64.496094 92.917969 65.121094 93.695312 66.070312 93.695312 C 66.792969 93.695312 67.460938 93.140625 67.460938 91.78125 "/>
<path fill-rule="nonzero" fill="rgb(0%, 0%, 0%)" fill-opacity="1" d="M 66.464844 68.3125 L 66.433594 68.3125 L 63.90625 72.628906 L 66.421875 72.628906 C 66.421875 70.195312 66.464844 68.625 66.464844 68.3125 "/>
<path fill-rule="nonzero" fill="rgb(0%, 0%, 0%)" fill-opacity="1" d="M 47.425781 107.628906 C 48.203125 107.628906 48.660156 107.105469 48.660156 106.382812 C 48.660156 105.617188 48.132812 105.132812 47.496094 105.132812 C 46.601562 105.132812 46.136719 105.644531 46.136719 106.382812 C 46.136719 106.980469 46.574219 107.628906 47.425781 107.628906 "/>
<path fill-rule="nonzero" fill="rgb(0%, 0%, 0%)" fill-opacity="1" d="M 123.242188 113.625 L 121.25 113.625 L 121.25 106.671875 L 118.847656 106.671875 L 118.847656 105.277344 L 119.132812 105.277344 C 121.050781 105.277344 121.5625 104.289062 121.605469 103.539062 L 123.242188 103.539062 Z M 99.640625 113.621094 C 99.714844 112.441406 99.796875 111.207031 101.988281 109.617188 C 103.800781 108.296875 104.527344 107.785156 104.527344 106.652344 C 104.527344 105.984375 104.101562 105.21875 103.136719 105.21875 C 101.746094 105.21875 101.703125 106.367188 101.691406 107.105469 L 99.753906 107.105469 C 99.753906 103.824219 102.160156 103.542969 103.050781 103.542969 C 104.980469 103.542969 106.515625 104.679688 106.515625 106.722656 C 106.515625 108.453125 105.394531 109.335938 104.414062 110 C 103.078125 110.9375 102.382812 111.390625 102.160156 111.859375 L 106.53125 111.859375 L 106.53125 113.621094 Z M 43.914062 110.824219 C 43.914062 110.3125 43.914062 108.980469 45.453125 108.269531 C 44.65625 107.871094 44.230469 107.230469 44.230469 106.296875 C 44.230469 104.582031 45.609375 103.542969 47.367188 103.542969 C 49.453125 103.542969 50.5625 104.777344 50.5625 106.167969 C 50.5625 107.03125 50.207031 107.769531 49.398438 108.199219 C 50.363281 108.679688 50.90625 109.320312 50.90625 110.625 C 50.90625 111.902344 50.082031 113.894531 47.410156 113.894531 C 44.8125 113.894531 43.914062 112.199219 43.914062 110.824219 M 45.242188 95.019531 C 45.453125 90.988281 47.984375 87.78125 48.835938 86.871094 L 43.820312 86.871094 L 43.859375 85.109375 L 50.96875 85.109375 L 50.96875 86.644531 C 50 87.695312 47.53125 90.675781 47.289062 95.019531 Z M 47.863281 82.144531 L 56.253906 82.144531 L 56.253906 97.769531 L 47.863281 97.769531 L 47.863281 96.417969 L 53.867188 96.417969 L 53.867188 83.5 L 47.863281 83.5 Z M 62.503906 90.21875 C 62.503906 88.304688 62.761719 84.9375 66.253906 84.9375 C 66.667969 84.9375 67.816406 85.09375 68.316406 85.59375 C 68.867188 86.132812 69.066406 86.429688 69.253906 87.496094 L 67.277344 87.492188 C 67.21875 86.925781 66.851562 86.53125 66.113281 86.53125 C 64.820312 86.53125 64.523438 88.003906 64.453125 89.308594 L 64.480469 89.339844 C 64.75 88.96875 65.246094 88.496094 66.371094 88.496094 C 68.457031 88.496094 69.453125 90.105469 69.453125 91.609375 C 69.453125 93.8125 68.101562 95.289062 66.15625 95.289062 C 63.101562 95.289062 62.503906 92.730469 62.503906 90.21875 M 62.441406 74.179688 L 62.441406 72.460938 L 66.152344 66.335938 L 68.414062 66.335938 L 68.414062 72.628906 L 69.535156 72.628906 L 69.535156 74.179688 L 68.414062 74.179688 L 68.414062 76.414062 L 66.421875 76.414062 L 66.421875 74.179688 Z M 43.84375 73.71875 L 45.835938 73.71875 C 45.921875 74.539062 46.359375 75.09375 47.238281 75.09375 C 48.191406 75.09375 48.742188 74.285156 48.742188 73.207031 C 48.742188 72.3125 48.316406 71.402344 47.269531 71.402344 C 46.996094 71.402344 46.316406 71.414062 45.933594 72.125 L 44.15625 72.039062 L 44.855469 66.503906 L 50.390625 66.503906 L 50.390625 68.183594 L 46.289062 68.183594 L 45.933594 70.363281 C 46.304688 70.105469 46.757812 69.808594 47.734375 69.808594 C 49.085938 69.808594 50.792969 70.75 50.792969 73.0625 C 50.792969 74.441406 50.09375 76.6875 47.125 76.6875 C 45.550781 76.6875 43.945312 75.746094 43.84375 73.71875 M 81.050781 73.320312 L 83 73.320312 L 82.984375 73.335938 C 82.984375 73.871094 83.125 75.09375 84.460938 75.09375 C 85.257812 75.09375 85.949219 74.554688 85.949219 73.433594 C 85.949219 72.058594 84.617188 72 83.6875 72 L 83.6875 70.578125 L 84.003906 70.578125 C 84.605469 70.578125 85.695312 70.523438 85.695312 69.21875 C 85.695312 68.847656 85.523438 67.925781 84.433594 67.925781 C 83.070312 67.925781 83.070312 69.21875 83.070312 69.570312 L 81.222656 69.570312 C 81.222656 67.683594 82.289062 66.335938 84.558594 66.335938 C 85.90625 66.335938 87.6875 67.015625 87.6875 69.144531 C 87.6875 70.167969 87.042969 70.804688 86.476562 71.0625 L 86.476562 71.089844 C 86.832031 71.1875 87.996094 71.714844 87.996094 73.433594 C 87.996094 75.335938 86.589844 76.6875 84.558594 76.6875 C 83.609375 76.6875 81.050781 76.472656 81.050781 73.320312 M 115.363281 102.105469 L 115.363281 115.019531 L 121.367188 115.019531 L 121.367188 120.507812 L 103.675781 120.507812 L 103.675781 115.019531 L 109.679688 115.019531 L 109.679688 102.105469 L 96.757812 102.105469 L 96.757812 115.019531 L 102.765625 115.019531 L 102.765625 120.507812 L 47.863281 120.507812 L 47.863281 115.019531 L 53.867188 115.019531 L 53.867188 102.105469 L 47.863281 102.105469 L 47.863281 100.75 L 66.46875 100.75 L 66.46875 96.417969 L 72.46875 96.417969 L 72.46875 83.5 L 66.46875 83.5 L 66.46875 80.078125 L 85.074219 80.078125 L 85.074219 77.8125 L 91.074219 77.8125 L 91.074219 64.894531 L 78.15625 64.894531 L 78.15625 77.8125 L 84.160156 77.8125 L 84.160156 79.167969 L 66.46875 79.167969 L 66.46875 77.8125 L 72.46875 77.8125 L 72.46875 64.894531 L 59.554688 64.894531 L 59.554688 77.8125 L 65.554688 77.8125 L 65.554688 79.167969 L 47.863281 79.167969 L 47.863281 77.8125 L 53.867188 77.8125 L 53.867188 64.894531 L 40.949219 64.894531 L 40.949219 77.8125 L 46.953125 77.8125 L 46.953125 80.078125 L 65.554688 80.078125 L 65.554688 83.5 L 59.554688 83.5 L 59.554688 96.417969 L 65.554688 96.417969 L 65.554688 99.839844 L 47.863281 99.839844 L 47.863281 98.683594 L 57.167969 98.683594 L 57.167969 81.234375 L 46.953125 81.234375 L 46.953125 83.5 L 40.949219 83.5 L 40.949219 96.417969 L 46.953125 96.417969 L 46.953125 102.105469 L 40.949219 102.105469 L 40.949219 115.019531 L 46.953125 115.019531 L 46.953125 121.421875 L 122.28125 121.421875 L 122.28125 115.019531 L 128.285156 115.019531 L 128.285156 102.105469 Z M 115.363281 102.105469 "/>
<path fill-rule="nonzero" fill="rgb(0%, 0%, 0%)" fill-opacity="1" d="M 47.382812 109.136719 C 46.660156 109.136719 45.964844 109.605469 45.964844 110.699219 C 45.964844 111.660156 46.515625 112.300781 47.425781 112.300781 C 48.460938 112.300781 48.855469 111.40625 48.855469 110.710938 C 48.855469 110.003906 48.488281 109.136719 47.382812 109.136719 "/>
</svg>
