<?xml version="1.0" encoding="UTF-8"?>
<svg xmlns="http://www.w3.org/2000/svg" xmlns:xlink="http://www.w3.org/1999/xlink" width="172" height="152" viewBox="0 0 172 152">
<path fill-rule="nonzero" fill="rgb(0%, 0%, 0%)" fill-opacity="1" d="M 73.390625 134.234375 L 70.433594 134.234375 L 70.433594 132.382812 L 76.320312 131.492188 L 76.320312 145.476562 L 73.390625 145.476562 Z M 73.390625 134.234375 "/>
<path fill-rule="nonzero" fill="rgb(0%, 0%, 0%)" fill-opacity="1" d="M 97.324219 140.09375 L 89.746094 140.09375 L 97.324219 133.882812 Z M 97.324219 145.648438 L 100.253906 145.648438 L 100.253906 142.398438 L 103.613281 142.398438 L 103.613281 140.09375 L 100.253906 140.09375 L 100.253906 131.4375 L 97.21875 131.4375 L 86.816406 140.09375 L 86.816406 142.398438 L 97.324219 142.398438 Z M 97.324219 145.648438 "/>
<path fill-rule="nonzero" fill="rgb(0%, 0%, 0%)" fill-opacity="1" d="M 66.015625 108.589844 C 65.261719 108.589844 64.496094 109.058594 64.496094 110.324219 C 64.496094 111.417969 65.121094 112.199219 66.070312 112.199219 C 66.792969 112.199219 67.460938 111.644531 67.460938 110.28125 C 67.460938 109.003906 66.640625 108.589844 66.015625 108.589844 "/>
<path fill-rule="nonzero" fill="rgb(0%, 0%, 0%)" fill-opacity="1" d="M 47.382812 109.03125 C 46.65625 109.03125 45.964844 109.5 45.964844 110.59375 C 45.964844 111.558594 46.515625 112.199219 47.425781 112.199219 C 48.460938 112.199219 48.859375 111.304688 48.859375 110.609375 C 48.859375 109.898438 48.488281 109.03125 47.382812 109.03125 "/>
<path fill-rule="nonzero" fill="rgb(0%, 0%, 0%)" fill-opacity="1" d="M 85.070312 105.414062 L 85.039062 105.414062 L 82.511719 109.734375 L 85.027344 109.734375 C 85.027344 107.296875 85.070312 105.726562 85.070312 105.414062 "/>
<path fill-rule="nonzero" fill="rgb(0%, 0%, 0%)" fill-opacity="1" d="M 47.421875 107.527344 C 48.203125 107.527344 48.65625 107 48.65625 106.28125 C 48.65625 105.515625 48.132812 105.03125 47.496094 105.03125 C 46.601562 105.03125 46.136719 105.542969 46.136719 106.28125 C 46.136719 106.875 46.574219 107.527344 47.421875 107.527344 "/>
<path fill-rule="nonzero" fill="rgb(0%, 0%, 0%)" fill-opacity="1" d="M 123.242188 113.519531 L 121.25 113.519531 L 121.25 106.570312 L 118.847656 106.570312 L 118.847656 105.175781 L 119.132812 105.175781 C 121.050781 105.175781 121.5625 104.1875 121.605469 103.4375 L 123.242188 103.4375 Z M 99.640625 113.519531 C 99.714844 112.339844 99.800781 111.105469 101.984375 109.515625 C 103.804688 108.195312 104.527344 107.6875 104.527344 106.550781 C 104.527344 105.882812 104.101562 105.117188 103.136719 105.117188 C 101.746094 105.117188 101.703125 106.265625 101.6875 107.003906 L 99.753906 107.003906 C 99.753906 103.722656 102.15625 103.4375 103.050781 103.4375 C 104.980469 103.4375 106.519531 104.574219 106.519531 106.621094 C 106.519531 108.351562 105.394531 109.230469 104.414062 109.898438 C 103.082031 110.835938 102.382812 111.289062 102.15625 111.757812 L 106.53125 111.757812 L 106.53125 113.519531 Z M 81.046875 111.285156 L 81.046875 109.5625 L 84.753906 103.4375 L 87.015625 103.4375 L 87.015625 109.734375 L 88.140625 109.734375 L 88.140625 111.285156 L 87.015625 111.285156 L 87.015625 113.519531 L 85.027344 113.519531 L 85.027344 111.285156 Z M 81.054688 91.820312 L 83 91.820312 L 82.984375 91.835938 C 82.984375 92.375 83.128906 93.59375 84.460938 93.59375 C 85.257812 93.59375 85.953125 93.054688 85.953125 91.933594 C 85.953125 90.558594 84.617188 90.5 83.6875 90.5 L 83.6875 89.078125 L 84.007812 89.078125 C 84.601562 89.078125 85.695312 89.023438 85.695312 87.71875 C 85.695312 87.347656 85.523438 86.425781 84.433594 86.425781 C 83.070312 86.425781 83.070312 87.71875 83.070312 88.074219 L 81.222656 88.074219 C 81.222656 86.1875 82.289062 84.835938 84.558594 84.835938 C 85.910156 84.835938 87.6875 85.515625 87.6875 87.644531 C 87.6875 88.667969 87.046875 89.308594 86.476562 89.5625 L 86.476562 89.589844 C 86.832031 89.691406 88 90.214844 88 91.933594 C 88 93.835938 86.589844 95.1875 84.5625 95.1875 C 83.609375 95.1875 81.054688 94.972656 81.054688 91.820312 M 85.070312 81.015625 L 93.460938 81.015625 L 93.460938 117.304688 L 85.070312 117.304688 L 85.070312 114.917969 L 91.074219 114.917969 L 91.074219 102 L 85.070312 102 L 85.070312 96.316406 L 91.074219 96.316406 L 91.074219 83.394531 L 85.070312 83.394531 Z M 62.503906 108.71875 C 62.503906 106.804688 62.761719 103.4375 66.257812 103.4375 C 66.667969 103.4375 67.816406 103.59375 68.3125 104.09375 C 68.871094 104.632812 69.070312 104.929688 69.253906 105.996094 L 67.277344 105.992188 C 67.222656 105.429688 66.851562 105.03125 66.113281 105.03125 C 64.820312 105.03125 64.523438 106.503906 64.453125 107.808594 L 64.480469 107.835938 C 64.753906 107.46875 65.25 107 66.371094 107 C 68.457031 107 69.453125 108.605469 69.453125 110.109375 C 69.453125 112.3125 68.101562 113.789062 66.15625 113.789062 C 63.101562 113.789062 62.503906 111.230469 62.503906 108.71875 M 62.449219 92.21875 L 64.4375 92.21875 C 64.523438 93.039062 64.964844 93.59375 65.84375 93.59375 C 66.792969 93.59375 67.347656 92.785156 67.347656 91.707031 C 67.347656 90.8125 66.921875 89.902344 65.871094 89.902344 C 65.601562 89.902344 64.921875 89.914062 64.539062 90.628906 L 62.761719 90.542969 L 63.457031 85.007812 L 69 85.007812 L 69 86.683594 L 64.890625 86.683594 L 64.539062 88.863281 C 64.90625 88.609375 65.359375 88.308594 66.339844 88.308594 C 67.6875 88.308594 69.394531 89.25 69.394531 91.5625 C 69.394531 92.941406 68.699219 95.1875 65.730469 95.1875 C 64.152344 95.1875 62.546875 94.246094 62.449219 92.21875 M 43.914062 110.722656 C 43.914062 110.210938 43.914062 108.875 45.453125 108.167969 C 44.65625 107.769531 44.226562 107.128906 44.226562 106.195312 C 44.226562 104.476562 45.609375 103.4375 47.367188 103.4375 C 49.457031 103.4375 50.5625 104.675781 50.5625 106.066406 C 50.5625 106.929688 50.207031 107.667969 49.398438 108.097656 C 50.363281 108.578125 50.90625 109.21875 50.90625 110.523438 C 50.90625 111.800781 50.082031 113.789062 47.410156 113.789062 C 44.8125 113.789062 43.914062 112.097656 43.914062 110.722656 M 45.238281 94.917969 C 45.453125 90.886719 47.984375 87.675781 48.835938 86.769531 L 43.816406 86.769531 L 43.863281 85.007812 L 50.96875 85.007812 L 50.96875 86.542969 C 50.003906 87.59375 47.53125 90.574219 47.289062 94.917969 Z M 115.363281 102 L 115.363281 114.917969 L 121.367188 114.917969 L 121.367188 120.40625 L 103.675781 120.40625 L 103.675781 114.917969 L 109.679688 114.917969 L 109.679688 102 L 96.761719 102 L 96.761719 114.917969 L 102.765625 114.917969 L 102.765625 120.40625 L 85.070312 120.40625 L 85.070312 118.21875 L 94.375 118.21875 L 94.375 80.105469 L 84.160156 80.105469 L 84.160156 83.394531 L 78.15625 83.394531 L 78.15625 96.316406 L 84.160156 96.316406 L 84.160156 102 L 78.15625 102 L 78.15625 114.917969 L 84.160156 114.917969 L 84.160156 120.40625 L 66.46875 120.40625 L 66.46875 114.917969 L 72.472656 114.917969 L 72.472656 102 L 66.46875 102 L 66.46875 96.316406 L 72.472656 96.316406 L 72.472656 83.394531 L 59.554688 83.394531 L 59.554688 96.316406 L 65.554688 96.316406 L 65.554688 102 L 59.554688 102 L 59.554688 114.917969 L 65.554688 114.917969 L 65.554688 120.40625 L 47.863281 120.40625 L 47.863281 114.917969 L 53.871094 114.917969 L 53.871094 102 L 47.863281 102 L 47.863281 96.316406 L 53.871094 96.316406 L 53.871094 83.394531 L 40.949219 83.394531 L 40.949219 96.316406 L 46.953125 96.316406 L 46.953125 102 L 40.949219 102 L 40.949219 114.917969 L 46.953125 114.917969 L 46.953125 121.316406 L 122.277344 121.316406 L 122.277344 114.917969 L 128.285156 114.917969 L 128.285156 102 Z M 115.363281 102 "/>
</svg>
