<?xml version="1.0" encoding="UTF-8"?>
<svg xmlns="http://www.w3.org/2000/svg" xmlns:xlink="http://www.w3.org/1999/xlink" width="172" height="152" viewBox="0 0 172 152">
<path fill-rule="nonzero" fill="rgb(0%, 0%, 0%)" fill-opacity="1" d="M 66.835938 142.863281 L 66.835938 141.734375 L 69.6875 141.144531 L 69.6875 143.078125 L 77.148438 143.078125 C 78.222656 143.078125 78.488281 142.835938 78.488281 141.839844 L 78.488281 140.816406 C 78.488281 139.824219 78.222656 139.558594 77.140625 139.570312 L 72.460938 139.570312 L 72.460938 137.320312 L 76.632812 137.320312 C 77.707031 137.320312 77.945312 137.046875 77.945312 136.046875 L 77.945312 135.34375 C 77.945312 134.34375 77.707031 134.074219 76.632812 134.074219 L 69.773438 134.074219 L 69.773438 135.804688 L 67.035156 135.289062 L 67.035156 134.421875 C 67.035156 132.21875 67.839844 131.707031 70.199219 131.707031 L 77.707031 131.707031 C 80.070312 131.707031 80.875 132.21875 80.875 134.421875 L 80.875 135.695312 C 80.875 137.347656 80.179688 138.015625 78.191406 138.320312 C 80.398438 138.535156 81.417969 139.394531 81.417969 141.144531 L 81.417969 142.59375 C 81.417969 144.742188 80.722656 145.578125 78.0625 145.578125 L 70.007812 145.578125 C 67.644531 145.578125 66.835938 145.066406 66.835938 142.863281 "/>
<path fill-rule="nonzero" fill="rgb(0%, 0%, 0%)" fill-opacity="1" d="M 98.570312 139.570312 C 99.644531 139.570312 99.886719 139.835938 99.886719 140.828125 L 99.886719 141.84375 C 99.886719 142.835938 99.644531 143.078125 98.570312 143.078125 L 91.460938 143.078125 C 90.382812 143.078125 90.140625 142.859375 90.140625 141.84375 L 90.140625 140.828125 C 90.140625 139.835938 90.382812 139.570312 91.460938 139.570312 Z M 98.261719 134.074219 C 99.335938 134.074219 99.574219 134.34375 99.574219 135.34375 L 99.574219 136.046875 C 99.574219 137.046875 99.335938 137.320312 98.261719 137.320312 L 91.796875 137.320312 C 90.722656 137.320312 90.457031 137.046875 90.457031 136.046875 L 90.457031 135.34375 C 90.457031 134.34375 90.722656 134.074219 91.796875 134.074219 Z M 99.335938 131.707031 L 90.695312 131.707031 C 88.332031 131.707031 87.527344 132.21875 87.527344 134.425781 L 87.527344 135.695312 C 87.527344 137.320312 88.253906 138.015625 90.183594 138.390625 C 88.179688 138.605469 87.214844 139.464844 87.214844 141.148438 L 87.214844 142.59375 C 87.214844 144.742188 87.910156 145.578125 90.574219 145.578125 L 99.457031 145.578125 C 102.121094 145.578125 102.84375 144.742188 102.84375 142.59375 L 102.84375 141.148438 C 102.84375 139.464844 101.878906 138.605469 99.886719 138.390625 C 101.804688 138.015625 102.503906 137.320312 102.503906 135.695312 L 102.503906 134.425781 C 102.503906 132.21875 101.699219 131.707031 99.335938 131.707031 "/>
<path fill-rule="nonzero" fill="rgb(0%, 0%, 0%)" fill-opacity="1" d="M 58.15625 73.175781 C 58.15625 71.898438 57.335938 71.488281 56.714844 71.488281 C 55.960938 71.488281 55.195312 71.957031 55.195312 73.21875 C 55.195312 74.3125 55.820312 75.09375 56.769531 75.09375 C 57.492188 75.09375 58.15625 74.539062 58.15625 73.175781 "/>
<path fill-rule="nonzero" fill="rgb(0%, 0%, 0%)" fill-opacity="1" d="M 113.941406 113.625 L 111.949219 113.625 L 111.949219 106.671875 L 109.546875 106.671875 L 109.546875 105.28125 L 109.832031 105.28125 C 111.75 105.28125 112.261719 104.289062 112.304688 103.539062 L 113.941406 103.539062 Z M 90.339844 113.621094 C 90.410156 112.441406 90.496094 111.207031 92.683594 109.617188 C 94.5 108.296875 95.222656 107.789062 95.222656 106.652344 C 95.222656 105.984375 94.796875 105.21875 93.835938 105.21875 C 92.445312 105.21875 92.402344 106.367188 92.386719 107.105469 L 90.453125 107.105469 C 90.453125 103.828125 92.855469 103.542969 93.75 103.542969 C 95.679688 103.542969 97.214844 104.679688 97.214844 106.722656 C 97.214844 108.453125 96.09375 109.332031 95.109375 110 C 93.777344 110.933594 93.082031 111.390625 92.855469 111.859375 L 97.230469 111.859375 L 97.230469 113.621094 Z M 53.21875 110.824219 C 53.21875 110.3125 53.21875 108.976562 54.753906 108.269531 C 53.957031 107.871094 53.53125 107.230469 53.53125 106.296875 C 53.53125 104.578125 54.910156 103.542969 56.667969 103.542969 C 58.753906 103.542969 59.863281 104.777344 59.863281 106.167969 C 59.863281 107.035156 59.511719 107.773438 58.699219 108.199219 C 59.667969 108.679688 60.207031 109.320312 60.207031 110.625 C 60.207031 111.902344 59.382812 113.894531 56.710938 113.894531 C 54.113281 113.894531 53.21875 112.203125 53.21875 110.824219 M 54.542969 95.019531 C 54.753906 90.988281 57.289062 87.78125 58.136719 86.871094 L 53.121094 86.871094 L 53.164062 85.109375 L 60.269531 85.109375 L 60.269531 86.644531 C 59.304688 87.695312 56.832031 90.675781 56.589844 95.019531 Z M 53.203125 71.613281 C 53.203125 69.699219 53.460938 66.332031 56.953125 66.332031 C 57.367188 66.332031 58.515625 66.488281 59.011719 66.988281 C 59.566406 67.527344 59.765625 67.828125 59.953125 68.890625 L 57.972656 68.890625 C 57.917969 68.324219 57.550781 67.925781 56.8125 67.925781 C 55.519531 67.925781 55.222656 69.398438 55.152344 70.703125 L 55.179688 70.730469 C 55.449219 70.363281 55.949219 69.894531 57.066406 69.894531 C 59.15625 69.894531 60.152344 71.5 60.152344 73.003906 C 60.152344 75.207031 58.800781 76.683594 56.855469 76.683594 C 53.800781 76.683594 53.203125 74.125 53.203125 71.613281 M 53.144531 55.113281 L 55.136719 55.113281 C 55.222656 55.933594 55.664062 56.488281 56.542969 56.488281 C 57.492188 56.488281 58.042969 55.679688 58.042969 54.601562 C 58.042969 53.707031 57.621094 52.796875 56.570312 52.796875 C 56.300781 52.796875 55.621094 52.8125 55.238281 53.523438 L 53.460938 53.4375 L 54.15625 47.902344 L 59.695312 47.902344 L 59.695312 49.578125 L 55.589844 49.578125 L 55.238281 51.757812 C 55.605469 51.503906 56.058594 51.207031 57.039062 51.207031 C 58.386719 51.207031 60.09375 52.140625 60.09375 54.457031 C 60.09375 55.835938 59.394531 58.082031 56.429688 58.082031 C 54.851562 58.082031 53.246094 57.144531 53.144531 55.113281 M 53.140625 36.972656 L 53.140625 35.25 L 56.847656 29.125 L 59.109375 29.125 L 59.109375 35.421875 L 60.234375 35.421875 L 60.234375 36.972656 L 59.109375 36.972656 L 59.109375 39.207031 L 57.121094 39.207031 L 57.121094 36.972656 Z M 71.75 36.109375 L 73.699219 36.109375 L 73.683594 36.125 C 73.683594 36.664062 73.828125 37.882812 75.160156 37.882812 C 75.953125 37.882812 76.648438 37.347656 76.648438 36.226562 C 76.648438 34.847656 75.316406 34.792969 74.386719 34.792969 L 74.386719 33.371094 L 74.707031 33.371094 C 75.300781 33.371094 76.390625 33.3125 76.390625 32.007812 C 76.390625 31.640625 76.222656 30.71875 75.128906 30.71875 C 73.769531 30.71875 73.769531 32.007812 73.769531 32.363281 L 71.921875 32.363281 C 71.921875 30.476562 72.988281 29.125 75.257812 29.125 C 76.605469 29.125 78.382812 29.808594 78.382812 31.9375 C 78.382812 32.957031 77.742188 33.597656 77.175781 33.851562 L 77.175781 33.882812 C 77.53125 33.980469 78.699219 34.507812 78.699219 36.226562 C 78.699219 38.125 77.289062 39.476562 75.257812 39.476562 C 74.308594 39.476562 71.75 39.265625 71.75 36.109375 M 75.769531 25.308594 L 84.160156 25.308594 L 84.160156 41.957031 L 75.769531 41.957031 L 75.769531 40.605469 L 81.773438 40.605469 L 81.773438 27.683594 L 75.769531 27.683594 Z M 106.0625 102.101562 L 106.0625 115.023438 L 112.066406 115.023438 L 112.066406 120.507812 L 94.375 120.507812 L 94.375 115.023438 L 100.378906 115.023438 L 100.378906 102.101562 L 87.460938 102.101562 L 87.460938 115.023438 L 93.460938 115.023438 L 93.460938 120.507812 L 57.167969 120.507812 L 57.167969 115.023438 L 63.167969 115.023438 L 63.167969 102.101562 L 57.167969 102.101562 L 57.167969 96.417969 L 63.167969 96.417969 L 63.167969 83.496094 L 57.167969 83.496094 L 57.167969 77.8125 L 63.167969 77.8125 L 63.167969 64.894531 L 57.167969 64.894531 L 57.167969 59.210938 L 63.167969 59.210938 L 63.167969 46.289062 L 57.167969 46.289062 L 57.167969 44.9375 L 75.769531 44.9375 L 75.769531 42.871094 L 85.074219 42.871094 L 85.074219 24.394531 L 74.859375 24.394531 L 74.859375 27.683594 L 68.855469 27.683594 L 68.855469 40.605469 L 74.859375 40.605469 L 74.859375 44.027344 L 57.167969 44.027344 L 57.167969 40.605469 L 63.167969 40.605469 L 63.167969 27.683594 L 50.25 27.683594 L 50.25 40.605469 L 56.253906 40.605469 L 56.253906 46.289062 L 50.25 46.289062 L 50.25 59.210938 L 56.253906 59.210938 L 56.253906 64.894531 L 50.25 64.894531 L 50.25 77.8125 L 56.253906 77.8125 L 56.253906 83.496094 L 50.25 83.496094 L 50.25 96.417969 L 56.253906 96.417969 L 56.253906 102.101562 L 50.25 102.101562 L 50.25 115.023438 L 56.253906 115.023438 L 56.253906 121.421875 L 112.976562 121.421875 L 112.976562 115.023438 L 118.980469 115.023438 L 118.980469 102.101562 Z M 106.0625 102.101562 "/>
<path fill-rule="nonzero" fill="rgb(0%, 0%, 0%)" fill-opacity="1" d="M 56.683594 109.136719 C 55.960938 109.136719 55.265625 109.605469 55.265625 110.695312 C 55.265625 111.660156 55.820312 112.300781 56.726562 112.300781 C 57.761719 112.300781 58.160156 111.40625 58.160156 110.710938 C 58.160156 110 57.789062 109.136719 56.683594 109.136719 "/>
<path fill-rule="nonzero" fill="rgb(0%, 0%, 0%)" fill-opacity="1" d="M 56.726562 107.628906 C 57.503906 107.628906 57.960938 107.105469 57.960938 106.378906 C 57.960938 105.617188 57.433594 105.132812 56.796875 105.132812 C 55.90625 105.132812 55.4375 105.644531 55.4375 106.378906 C 55.4375 106.976562 55.875 107.628906 56.726562 107.628906 "/>
<path fill-rule="nonzero" fill="rgb(0%, 0%, 0%)" fill-opacity="1" d="M 57.164062 31.101562 L 57.132812 31.101562 L 54.601562 35.421875 L 57.117188 35.421875 C 57.117188 32.984375 57.164062 31.414062 57.164062 31.101562 "/>
</svg>
