<?xml version="1.0" encoding="UTF-8"?>
<svg xmlns="http://www.w3.org/2000/svg" xmlns:xlink="http://www.w3.org/1999/xlink" width="172" height="152" viewBox="0 0 172 152">
<path fill-rule="nonzero" fill="rgb(0%, 0%, 0%)" fill-opacity="1" d="M 68.140625 131.710938 L 80.125 131.710938 L 79.886719 134.070312 L 70.210938 134.070312 L 69.886719 136.761719 C 72.011719 136.546875 73.867188 136.410156 75.503906 136.410156 C 80.074219 136.410156 82.386719 137.96875 82.386719 141.117188 C 82.386719 144.484375 79.9375 145.777344 74.75 145.777344 C 71.769531 145.777344 69.539062 145.5625 68.0625 145.214844 L 67.363281 142.519531 C 69.886719 142.980469 72.304688 143.246094 74.671875 143.246094 C 77.949219 143.246094 79.402344 142.707031 79.402344 140.984375 C 79.402344 139.339844 77.921875 138.828125 74.859375 138.828125 C 72.949219 138.828125 70.453125 138.992188 67.363281 139.394531 L 68.140625 131.710938 "/>
<path fill-rule="nonzero" fill="rgb(0%, 0%, 0%)" fill-opacity="1" d="M 87.609375 142.859375 L 87.609375 141.734375 L 90.457031 141.140625 L 90.457031 143.078125 L 97.917969 143.078125 C 98.992188 143.078125 99.261719 142.835938 99.261719 141.839844 L 99.261719 140.820312 C 99.261719 139.828125 98.992188 139.554688 97.914062 139.570312 L 93.230469 139.570312 L 93.230469 137.320312 L 97.402344 137.320312 C 98.476562 137.320312 98.71875 137.050781 98.71875 136.050781 L 98.71875 135.34375 C 98.71875 134.34375 98.476562 134.074219 97.402344 134.074219 L 90.542969 134.074219 L 90.542969 135.804688 L 87.804688 135.289062 L 87.804688 134.425781 C 87.804688 132.21875 88.613281 131.710938 90.972656 131.710938 L 98.476562 131.710938 C 100.84375 131.710938 101.648438 132.21875 101.648438 134.425781 L 101.648438 135.699219 C 101.648438 137.347656 100.953125 138.015625 98.964844 138.320312 C 101.167969 138.535156 102.191406 139.394531 102.191406 141.140625 L 102.191406 142.59375 C 102.191406 144.746094 101.492188 145.578125 98.832031 145.578125 L 90.777344 145.578125 C 88.414062 145.578125 87.609375 145.066406 87.609375 142.859375 "/>
<path fill-rule="nonzero" fill="rgb(0%, 0%, 0%)" fill-opacity="1" d="M 58.160156 91.78125 C 58.160156 90.503906 57.335938 90.089844 56.714844 90.089844 C 55.960938 90.089844 55.195312 90.558594 55.195312 91.824219 C 55.195312 92.917969 55.816406 93.695312 56.769531 93.695312 C 57.492188 93.695312 58.160156 93.140625 58.160156 91.78125 "/>
<path fill-rule="nonzero" fill="rgb(0%, 0%, 0%)" fill-opacity="1" d="M 75.765625 68.3125 L 75.738281 68.3125 L 73.207031 72.628906 L 75.722656 72.628906 C 75.722656 70.195312 75.765625 68.625 75.765625 68.3125 "/>
<path fill-rule="nonzero" fill="rgb(0%, 0%, 0%)" fill-opacity="1" d="M 56.683594 109.136719 C 55.960938 109.136719 55.265625 109.605469 55.265625 110.699219 C 55.265625 111.660156 55.816406 112.300781 56.726562 112.300781 C 57.761719 112.300781 58.160156 111.40625 58.160156 110.710938 C 58.160156 110.003906 57.789062 109.136719 56.683594 109.136719 "/>
<path fill-rule="nonzero" fill="rgb(0%, 0%, 0%)" fill-opacity="1" d="M 56.726562 107.628906 C 57.503906 107.628906 57.960938 107.105469 57.960938 106.382812 C 57.960938 105.617188 57.4375 105.132812 56.796875 105.132812 C 55.902344 105.132812 55.4375 105.644531 55.4375 106.382812 C 55.4375 106.980469 55.875 107.628906 56.726562 107.628906 "/>
<path fill-rule="nonzero" fill="rgb(0%, 0%, 0%)" fill-opacity="1" d="M 132.542969 113.625 L 130.550781 113.625 L 130.550781 106.671875 L 128.152344 106.671875 L 128.152344 105.277344 L 128.433594 105.277344 C 130.355469 105.277344 130.863281 104.289062 130.90625 103.539062 L 132.542969 103.539062 Z M 108.941406 113.621094 C 109.015625 112.441406 109.101562 111.207031 111.289062 109.617188 C 113.105469 108.296875 113.828125 107.785156 113.828125 106.652344 C 113.828125 105.984375 113.402344 105.21875 112.4375 105.21875 C 111.046875 105.21875 111.003906 106.367188 110.988281 107.105469 L 109.058594 107.105469 C 109.058594 103.824219 111.460938 103.542969 112.351562 103.542969 C 114.28125 103.542969 115.820312 104.679688 115.820312 106.722656 C 115.820312 108.453125 114.695312 109.335938 113.714844 110 C 112.382812 110.9375 111.6875 111.390625 111.460938 111.859375 L 115.835938 111.859375 L 115.835938 113.621094 Z M 53.21875 110.824219 C 53.21875 110.3125 53.21875 108.980469 54.753906 108.269531 C 53.957031 107.871094 53.527344 107.230469 53.527344 106.296875 C 53.527344 104.582031 54.910156 103.542969 56.667969 103.542969 C 58.757812 103.542969 59.867188 104.777344 59.867188 106.167969 C 59.867188 107.03125 59.507812 107.769531 58.699219 108.199219 C 59.667969 108.679688 60.207031 109.320312 60.207031 110.625 C 60.207031 111.902344 59.382812 113.894531 56.714844 113.894531 C 54.113281 113.894531 53.21875 112.199219 53.21875 110.824219 M 53.203125 90.21875 C 53.203125 88.304688 53.457031 84.9375 56.953125 84.9375 C 57.363281 84.9375 58.515625 85.09375 59.011719 85.59375 C 59.566406 86.132812 59.765625 86.429688 59.949219 87.496094 L 57.976562 87.492188 C 57.917969 86.925781 57.550781 86.53125 56.8125 86.53125 C 55.519531 86.53125 55.222656 88.003906 55.152344 89.308594 L 55.179688 89.339844 C 55.449219 88.96875 55.945312 88.496094 57.066406 88.496094 C 59.152344 88.496094 60.148438 90.105469 60.148438 91.609375 C 60.148438 93.8125 58.800781 95.289062 56.855469 95.289062 C 53.800781 95.289062 53.203125 92.730469 53.203125 90.21875 M 35.9375 95.019531 C 36.148438 90.988281 38.683594 87.78125 39.535156 86.871094 L 34.515625 86.871094 L 34.558594 85.109375 L 41.667969 85.109375 L 41.667969 86.644531 C 40.699219 87.695312 38.230469 90.675781 37.984375 95.019531 Z M 38.5625 81.113281 L 46.953125 81.113281 L 46.953125 97.769531 L 38.5625 97.769531 L 38.5625 96.417969 L 44.566406 96.417969 L 44.566406 83.5 L 38.5625 83.5 Z M 71.75 92.320312 L 73.738281 92.320312 C 73.824219 93.144531 74.265625 93.695312 75.144531 93.695312 C 76.097656 93.695312 76.648438 92.886719 76.648438 91.808594 C 76.648438 90.914062 76.222656 90.007812 75.175781 90.007812 C 74.90625 90.007812 74.222656 90.019531 73.839844 90.730469 L 72.0625 90.644531 L 72.757812 85.109375 L 78.296875 85.109375 L 78.296875 86.785156 L 74.191406 86.785156 L 73.839844 88.96875 C 74.207031 88.714844 74.660156 88.414062 75.640625 88.414062 C 76.988281 88.414062 78.695312 89.351562 78.695312 91.664062 C 78.695312 93.046875 78 95.289062 75.03125 95.289062 C 73.457031 95.289062 71.851562 94.351562 71.75 92.320312 M 71.742188 74.179688 L 71.742188 72.460938 L 75.453125 66.335938 L 77.714844 66.335938 L 77.714844 72.628906 L 78.835938 72.628906 L 78.835938 74.179688 L 77.714844 74.179688 L 77.714844 76.414062 L 75.722656 76.414062 L 75.722656 74.179688 Z M 90.355469 73.320312 L 92.304688 73.320312 L 92.289062 73.335938 C 92.289062 73.871094 92.429688 75.09375 93.761719 75.09375 C 94.558594 75.09375 95.253906 74.554688 95.253906 73.433594 C 95.253906 72.058594 93.917969 72 92.988281 72 L 92.988281 70.578125 L 93.308594 70.578125 C 93.90625 70.578125 94.996094 70.523438 94.996094 69.21875 C 94.996094 68.847656 94.824219 67.925781 93.734375 67.925781 C 92.371094 67.925781 92.371094 69.21875 92.371094 69.570312 L 90.523438 69.570312 C 90.523438 67.683594 91.589844 66.335938 93.859375 66.335938 C 95.210938 66.335938 96.988281 67.015625 96.988281 69.144531 C 96.988281 70.167969 96.347656 70.804688 95.777344 71.0625 L 95.777344 71.089844 C 96.136719 71.1875 97.300781 71.714844 97.300781 73.433594 C 97.300781 75.335938 95.890625 76.6875 93.859375 76.6875 C 92.910156 76.6875 90.355469 76.472656 90.355469 73.320312 M 124.667969 102.105469 L 124.667969 115.019531 L 130.667969 115.019531 L 130.667969 120.507812 L 112.976562 120.507812 L 112.976562 115.019531 L 118.980469 115.019531 L 118.980469 102.105469 L 106.0625 102.105469 L 106.0625 115.019531 L 112.066406 115.019531 L 112.066406 120.507812 L 57.164062 120.507812 L 57.164062 115.019531 L 63.171875 115.019531 L 63.171875 102.105469 L 57.164062 102.105469 L 57.164062 100.75 L 75.769531 100.75 L 75.769531 96.417969 L 81.773438 96.417969 L 81.773438 83.5 L 75.769531 83.5 L 75.769531 81.113281 L 94.371094 81.113281 L 94.371094 77.8125 L 100.378906 77.8125 L 100.378906 64.894531 L 87.457031 64.894531 L 87.457031 77.8125 L 93.460938 77.8125 L 93.460938 80.199219 L 75.769531 80.199219 L 75.769531 77.8125 L 81.773438 77.8125 L 81.773438 64.894531 L 68.855469 64.894531 L 68.855469 77.8125 L 74.859375 77.8125 L 74.859375 83.5 L 68.855469 83.5 L 68.855469 96.417969 L 74.859375 96.417969 L 74.859375 99.839844 L 57.164062 99.839844 L 57.164062 96.417969 L 63.171875 96.417969 L 63.171875 83.5 L 50.253906 83.5 L 50.253906 96.417969 L 56.253906 96.417969 L 56.253906 99.839844 L 38.5625 99.839844 L 38.5625 98.683594 L 47.863281 98.683594 L 47.863281 80.199219 L 37.648438 80.199219 L 37.648438 83.5 L 31.648438 83.5 L 31.648438 96.417969 L 37.648438 96.417969 L 37.648438 100.75 L 56.253906 100.75 L 56.253906 102.105469 L 50.253906 102.105469 L 50.253906 115.019531 L 56.253906 115.019531 L 56.253906 121.421875 L 131.578125 121.421875 L 131.578125 115.019531 L 137.585938 115.019531 L 137.585938 102.105469 Z M 124.667969 102.105469 "/>
</svg>
