<?xml version="1.0" encoding="UTF-8"?>
<svg xmlns="http://www.w3.org/2000/svg" xmlns:xlink="http://www.w3.org/1999/xlink" width="172" height="152" viewBox="0 0 172 152">
<path fill-rule="nonzero" fill="rgb(0%, 0%, 0%)" fill-opacity="1" d="M 88.179688 139.570312 C 89.257812 139.570312 89.5 139.839844 89.5 140.828125 L 89.5 141.847656 C 89.5 142.835938 89.257812 143.078125 88.179688 143.078125 L 81.074219 143.078125 C 79.996094 143.078125 79.753906 142.863281 79.753906 141.847656 L 79.753906 140.828125 C 79.753906 139.839844 79.996094 139.570312 81.074219 139.570312 Z M 87.871094 134.074219 C 88.945312 134.074219 89.1875 134.34375 89.1875 135.347656 L 89.1875 136.050781 C 89.1875 137.050781 88.945312 137.320312 87.871094 137.320312 L 81.410156 137.320312 C 80.335938 137.320312 80.066406 137.050781 80.066406 136.050781 L 80.066406 135.347656 C 80.066406 134.34375 80.335938 134.074219 81.410156 134.074219 Z M 88.945312 131.710938 L 80.308594 131.710938 C 77.945312 131.710938 77.136719 132.21875 77.136719 134.425781 L 77.136719 135.699219 C 77.136719 137.320312 77.863281 138.015625 79.796875 138.394531 C 77.792969 138.609375 76.824219 139.464844 76.824219 141.152344 L 76.824219 142.597656 C 76.824219 144.746094 77.523438 145.578125 80.1875 145.578125 L 89.070312 145.578125 C 91.734375 145.578125 92.457031 144.746094 92.457031 142.597656 L 92.457031 141.152344 C 92.457031 139.464844 91.492188 138.609375 89.5 138.394531 C 91.417969 138.015625 92.117188 137.320312 92.117188 135.699219 L 92.117188 134.425781 C 92.117188 132.21875 91.308594 131.710938 88.945312 131.710938 "/>
<path fill-rule="nonzero" fill="rgb(0%, 0%, 0%)" fill-opacity="1" d="M 66.011719 108.695312 C 65.261719 108.695312 64.496094 109.164062 64.496094 110.429688 C 64.496094 111.519531 65.121094 112.304688 66.070312 112.304688 C 66.792969 112.304688 67.460938 111.75 67.460938 110.386719 C 67.460938 109.109375 66.640625 108.695312 66.011719 108.695312 "/>
<path fill-rule="nonzero" fill="rgb(0%, 0%, 0%)" fill-opacity="1" d="M 103.671875 105.519531 L 103.644531 105.519531 L 101.113281 109.839844 L 103.628906 109.839844 C 103.628906 107.402344 103.671875 105.832031 103.671875 105.519531 "/>
<path fill-rule="nonzero" fill="rgb(0%, 0%, 0%)" fill-opacity="1" d="M 28.777344 109.136719 C 28.054688 109.136719 27.359375 109.605469 27.359375 110.699219 C 27.359375 111.664062 27.914062 112.300781 28.820312 112.300781 C 29.855469 112.300781 30.253906 111.40625 30.253906 110.710938 C 30.253906 110.003906 29.886719 109.136719 28.777344 109.136719 "/>
<path fill-rule="nonzero" fill="rgb(0%, 0%, 0%)" fill-opacity="1" d="M 28.820312 107.628906 C 29.601562 107.628906 30.050781 107.105469 30.050781 106.382812 C 30.050781 105.617188 29.53125 105.132812 28.890625 105.132812 C 28 105.132812 27.53125 105.648438 27.53125 106.382812 C 27.53125 106.980469 27.96875 107.628906 28.820312 107.628906 "/>
<path fill-rule="nonzero" fill="rgb(0%, 0%, 0%)" fill-opacity="1" d="M 139.855469 95.023438 L 139.855469 88.070312 L 137.453125 88.070312 L 137.453125 86.675781 L 137.734375 86.675781 C 139.65625 86.675781 140.167969 85.6875 140.210938 84.9375 L 141.84375 84.9375 L 141.84375 95.023438 Z M 143.722656 106.722656 C 143.722656 108.457031 142.601562 109.335938 141.621094 110.003906 C 140.289062 110.9375 139.589844 111.394531 139.367188 111.859375 L 143.738281 111.859375 L 143.738281 113.625 L 136.847656 113.625 C 136.917969 112.441406 137.003906 111.207031 139.195312 109.617188 C 141.007812 108.300781 141.734375 107.789062 141.734375 106.652344 C 141.734375 105.988281 141.308594 105.21875 140.34375 105.21875 C 138.953125 105.21875 138.914062 106.371094 138.898438 107.105469 L 136.960938 107.105469 C 136.960938 103.828125 139.367188 103.542969 140.257812 103.542969 C 142.191406 103.542969 143.722656 104.679688 143.722656 106.722656 M 140.882812 81.121094 L 149.273438 81.121094 L 149.273438 98.804688 L 140.882812 98.804688 L 140.882812 96.421875 L 146.886719 96.421875 L 146.886719 83.5 L 140.882812 83.5 Z M 118.257812 110.527344 L 120.207031 110.527344 L 120.195312 110.542969 C 120.195312 111.082031 120.335938 112.304688 121.667969 112.304688 C 122.464844 112.304688 123.160156 111.761719 123.160156 110.640625 C 123.160156 109.265625 121.828125 109.210938 120.894531 109.210938 L 120.894531 107.785156 L 121.214844 107.785156 C 121.808594 107.785156 122.902344 107.730469 122.902344 106.425781 C 122.902344 106.058594 122.734375 105.132812 121.640625 105.132812 C 120.28125 105.132812 120.28125 106.425781 120.28125 106.78125 L 118.429688 106.78125 C 118.429688 104.894531 119.496094 103.542969 121.765625 103.542969 C 123.117188 103.542969 124.894531 104.226562 124.894531 106.355469 C 124.894531 107.375 124.253906 108.015625 123.683594 108.269531 L 123.683594 108.300781 C 124.042969 108.398438 125.207031 108.925781 125.207031 110.640625 C 125.207031 112.542969 123.796875 113.894531 121.765625 113.894531 C 120.816406 113.894531 118.257812 113.679688 118.257812 110.527344 M 99.652344 111.386719 L 99.652344 109.667969 L 103.359375 103.542969 L 105.621094 103.542969 L 105.621094 109.839844 L 106.746094 109.839844 L 106.746094 111.386719 L 105.621094 111.386719 L 105.621094 113.625 L 103.628906 113.625 L 103.628906 111.386719 Z M 81.050781 110.925781 L 83.042969 110.925781 C 83.128906 111.75 83.566406 112.304688 84.449219 112.304688 C 85.398438 112.304688 85.949219 111.492188 85.949219 110.414062 C 85.949219 109.519531 85.527344 108.609375 84.476562 108.609375 C 84.207031 108.609375 83.527344 108.625 83.140625 109.335938 L 81.367188 109.25 L 82.0625 103.714844 L 87.601562 103.714844 L 87.601562 105.390625 L 83.496094 105.390625 L 83.140625 107.570312 C 83.511719 107.316406 83.964844 107.019531 84.945312 107.019531 C 86.292969 107.019531 88 107.957031 88 110.273438 C 88 111.648438 87.300781 113.894531 84.332031 113.894531 C 82.757812 113.894531 81.152344 112.953125 81.050781 110.925781 M 62.503906 108.820312 C 62.503906 106.90625 62.761719 103.542969 66.253906 103.542969 C 66.667969 103.542969 67.816406 103.699219 68.316406 104.195312 C 68.871094 104.738281 69.070312 105.035156 69.253906 106.101562 L 67.277344 106.097656 C 67.21875 105.53125 66.851562 105.132812 66.113281 105.132812 C 64.824219 105.132812 64.527344 106.605469 64.453125 107.914062 L 64.480469 107.941406 C 64.75 107.574219 65.246094 107.101562 66.367188 107.101562 C 68.457031 107.101562 69.453125 108.710938 69.453125 110.214844 C 69.453125 112.414062 68.101562 113.894531 66.15625 113.894531 C 63.101562 113.894531 62.503906 111.335938 62.503906 108.820312 M 45.238281 113.625 C 45.453125 109.59375 47.984375 106.386719 48.835938 105.476562 L 43.820312 105.476562 L 43.863281 103.714844 L 50.96875 103.714844 L 50.96875 105.25 C 50.003906 106.300781 47.53125 109.28125 47.289062 113.625 Z M 25.3125 110.824219 C 25.3125 110.316406 25.3125 108.980469 26.847656 108.269531 C 26.050781 107.871094 25.625 107.234375 25.625 106.296875 C 25.625 104.582031 27.003906 103.542969 28.765625 103.542969 C 30.851562 103.542969 31.960938 104.78125 31.960938 106.171875 C 31.960938 107.035156 31.605469 107.773438 30.792969 108.199219 C 31.761719 108.683594 32.300781 109.320312 32.300781 110.628906 C 32.300781 111.90625 31.476562 113.894531 28.804688 113.894531 C 26.207031 113.894531 25.3125 112.203125 25.3125 110.824219 M 150.183594 99.71875 L 150.183594 80.210938 L 139.972656 80.210938 L 139.972656 83.5 L 133.96875 83.5 L 133.96875 96.421875 L 139.972656 96.421875 L 139.972656 102.105469 L 133.96875 102.105469 L 133.96875 115.023438 L 139.972656 115.023438 L 139.972656 120.511719 L 122.28125 120.511719 L 122.28125 115.023438 L 128.285156 115.023438 L 128.285156 102.105469 L 115.367188 102.105469 L 115.367188 115.023438 L 121.367188 115.023438 L 121.367188 120.511719 L 103.675781 120.511719 L 103.675781 115.023438 L 109.679688 115.023438 L 109.679688 102.105469 L 96.761719 102.105469 L 96.761719 115.023438 L 102.761719 115.023438 L 102.761719 120.511719 L 85.070312 120.511719 L 85.070312 115.023438 L 91.078125 115.023438 L 91.078125 102.105469 L 78.15625 102.105469 L 78.15625 115.023438 L 84.160156 115.023438 L 84.160156 120.511719 L 66.46875 120.511719 L 66.46875 115.023438 L 72.472656 115.023438 L 72.472656 102.105469 L 59.550781 102.105469 L 59.550781 115.023438 L 65.558594 115.023438 L 65.558594 120.511719 L 47.863281 120.511719 L 47.863281 115.023438 L 53.867188 115.023438 L 53.867188 102.105469 L 40.949219 102.105469 L 40.949219 115.023438 L 46.953125 115.023438 L 46.953125 120.511719 L 29.257812 120.511719 L 29.257812 115.023438 L 35.265625 115.023438 L 35.265625 102.105469 L 22.34375 102.105469 L 22.34375 115.023438 L 28.347656 115.023438 L 28.347656 121.421875 L 140.882812 121.421875 L 140.882812 115.023438 L 146.886719 115.023438 L 146.886719 102.105469 L 140.882812 102.105469 L 140.882812 99.71875 Z M 150.183594 99.71875 "/>
</svg>
