<?xml version="1.0" encoding="UTF-8"?>
<svg xmlns="http://www.w3.org/2000/svg" xmlns:xlink="http://www.w3.org/1999/xlink" width="172" height="152" viewBox="0 0 172 152">
<path fill-rule="nonzero" fill="rgb(0%, 0%, 0%)" fill-opacity="1" d="M 70.800781 131.710938 L 77.9375 131.710938 C 80.304688 131.710938 81.109375 132.21875 81.109375 134.425781 L 81.109375 135.308594 C 81.109375 136.921875 80.625 137.324219 79.285156 138.132812 L 71.140625 143.078125 L 79.203125 143.078125 L 79.203125 141.035156 L 81.761719 141.761719 L 81.761719 142.863281 C 81.761719 145.066406 80.953125 145.578125 78.609375 145.578125 L 66.9375 145.578125 L 66.9375 144.316406 C 66.9375 143.375 67.046875 142.808594 68.679688 141.789062 L 78.289062 135.875 L 78.289062 134.074219 L 70.371094 134.074219 L 70.371094 136.921875 L 67.636719 136.226562 L 67.636719 134.425781 C 67.636719 132.21875 68.441406 131.710938 70.800781 131.710938 "/>
<path fill-rule="nonzero" fill="rgb(0%, 0%, 0%)" fill-opacity="1" d="M 90.65625 139.324219 C 92.777344 139.109375 94.84375 139 96.800781 139 C 99.136719 139 99.859375 139.296875 99.859375 140.664062 L 99.859375 141.414062 C 99.859375 142.648438 99.324219 143.078125 97.339844 143.078125 L 93.472656 143.078125 C 90.816406 143.078125 90.601562 142.542969 90.601562 140.128906 C 90.601562 139.914062 90.601562 139.644531 90.65625 139.324219 M 90.84375 137.234375 C 91.890625 134.296875 94.734375 133.648438 99.886719 133.648438 L 100.777344 133.648438 L 98.871094 131.421875 C 98.546875 131.394531 98.199219 131.367188 97.875 131.367188 C 91.378906 131.367188 87.640625 134.320312 87.640625 139.484375 L 87.640625 141.308594 C 87.640625 144.609375 88.769531 145.578125 92.214844 145.578125 L 98.0625 145.578125 C 101.285156 145.578125 102.820312 144.53125 102.820312 142.191406 L 102.820312 140.316406 C 102.820312 137.5 101.207031 136.75 96.964844 136.75 C 94.816406 136.75 92.777344 136.9375 90.84375 137.234375 "/>
<path fill-rule="nonzero" fill="rgb(0%, 0%, 0%)" fill-opacity="1" d="M 65.984375 109.136719 C 65.261719 109.136719 64.566406 109.605469 64.566406 110.699219 C 64.566406 111.664062 65.121094 112.300781 66.027344 112.300781 C 67.0625 112.300781 67.460938 111.40625 67.460938 110.710938 C 67.460938 110.003906 67.09375 109.136719 65.984375 109.136719 "/>
<path fill-rule="nonzero" fill="rgb(0%, 0%, 0%)" fill-opacity="1" d="M 67.460938 91.78125 C 67.460938 90.503906 66.640625 90.09375 66.011719 90.09375 C 65.261719 90.09375 64.496094 90.558594 64.496094 91.824219 C 64.496094 92.917969 65.121094 93.699219 66.074219 93.699219 C 66.792969 93.699219 67.460938 93.144531 67.460938 91.78125 "/>
<path fill-rule="nonzero" fill="rgb(0%, 0%, 0%)" fill-opacity="1" d="M 66.027344 107.628906 C 66.808594 107.628906 67.261719 107.105469 67.261719 106.382812 C 67.261719 105.617188 66.738281 105.136719 66.097656 105.136719 C 65.207031 105.136719 64.738281 105.648438 64.738281 106.382812 C 64.738281 106.980469 65.175781 107.628906 66.027344 107.628906 "/>
<path fill-rule="nonzero" fill="rgb(0%, 0%, 0%)" fill-opacity="1" d="M 85.070312 68.3125 L 85.039062 68.3125 L 82.511719 72.632812 L 85.027344 72.632812 C 85.027344 70.195312 85.070312 68.625 85.070312 68.3125 "/>
<path fill-rule="nonzero" fill="rgb(0%, 0%, 0%)" fill-opacity="1" d="M 123.242188 113.625 L 121.25 113.625 L 121.25 106.671875 L 118.851562 106.671875 L 118.851562 105.28125 L 119.132812 105.28125 C 121.050781 105.28125 121.566406 104.292969 121.605469 103.542969 L 123.242188 103.542969 Z M 99.640625 113.625 C 99.714844 112.441406 99.796875 111.210938 101.988281 109.617188 C 103.804688 108.300781 104.527344 107.789062 104.527344 106.65625 C 104.527344 105.988281 104.101562 105.21875 103.136719 105.21875 C 101.746094 105.21875 101.703125 106.371094 101.691406 107.109375 L 99.753906 107.109375 C 99.753906 103.828125 102.15625 103.542969 103.050781 103.542969 C 104.980469 103.542969 106.519531 104.679688 106.519531 106.726562 C 106.519531 108.457031 105.394531 109.335938 104.414062 110.003906 C 103.082031 110.9375 102.386719 111.394531 102.15625 111.859375 L 106.535156 111.859375 L 106.535156 113.625 Z M 62.519531 110.824219 C 62.519531 110.316406 62.519531 108.980469 64.054688 108.269531 C 63.257812 107.871094 62.832031 107.230469 62.832031 106.296875 C 62.832031 104.578125 64.210938 103.542969 65.972656 103.542969 C 68.058594 103.542969 69.167969 104.78125 69.167969 106.171875 C 69.167969 107.035156 68.8125 107.773438 68.003906 108.199219 C 68.96875 108.683594 69.511719 109.320312 69.511719 110.628906 C 69.511719 111.90625 68.683594 113.894531 66.015625 113.894531 C 63.414062 113.894531 62.519531 112.203125 62.519531 110.824219 M 62.507812 90.21875 C 62.507812 88.304688 62.761719 84.9375 66.257812 84.9375 C 66.667969 84.9375 67.816406 85.09375 68.316406 85.59375 C 68.871094 86.132812 69.070312 86.433594 69.253906 87.496094 L 67.277344 87.492188 C 67.21875 86.929688 66.851562 86.53125 66.113281 86.53125 C 64.824219 86.53125 64.523438 88.003906 64.453125 89.308594 L 64.484375 89.339844 C 64.753906 88.96875 65.246094 88.5 66.371094 88.5 C 68.457031 88.5 69.453125 90.105469 69.453125 91.609375 C 69.453125 93.8125 68.101562 95.292969 66.15625 95.292969 C 63.101562 95.292969 62.507812 92.730469 62.507812 90.21875 M 66.46875 81.113281 L 74.859375 81.121094 L 74.859375 97.769531 L 66.46875 97.769531 L 66.46875 96.421875 L 72.472656 96.421875 L 72.472656 83.5 L 66.46875 83.5 Z M 45.242188 95.023438 C 45.453125 90.992188 47.984375 87.78125 48.835938 86.871094 L 43.820312 86.871094 L 43.863281 85.109375 L 50.96875 85.109375 L 50.96875 86.648438 C 50.003906 87.695312 47.53125 90.675781 47.289062 95.023438 Z M 81.050781 92.320312 L 83.042969 92.320312 C 83.128906 93.144531 83.566406 93.699219 84.449219 93.699219 C 85.398438 93.699219 85.949219 92.890625 85.949219 91.808594 C 85.949219 90.914062 85.527344 90.007812 84.476562 90.007812 C 84.207031 90.007812 83.527344 90.019531 83.144531 90.730469 L 81.367188 90.648438 L 82.0625 85.109375 L 87.601562 85.109375 L 87.601562 86.789062 L 83.496094 86.789062 L 83.144531 88.96875 C 83.511719 88.714844 83.964844 88.414062 84.945312 88.414062 C 86.292969 88.414062 88 89.351562 88 91.667969 C 88 93.046875 87.304688 95.292969 84.332031 95.292969 C 82.757812 95.292969 81.152344 94.351562 81.050781 92.320312 M 81.046875 74.179688 L 81.046875 72.460938 L 84.757812 66.335938 L 87.019531 66.335938 L 87.019531 72.632812 L 88.140625 72.632812 L 88.140625 74.179688 L 87.019531 74.179688 L 87.019531 76.417969 L 85.027344 76.417969 L 85.027344 74.179688 Z M 81.050781 54.71875 L 83 54.71875 L 82.988281 54.730469 C 82.988281 55.273438 83.128906 56.492188 84.460938 56.492188 C 85.257812 56.492188 85.949219 55.953125 85.949219 54.832031 C 85.949219 53.453125 84.617188 53.398438 83.6875 53.398438 L 83.6875 51.976562 L 84.007812 51.976562 C 84.605469 51.976562 85.695312 51.917969 85.695312 50.613281 C 85.695312 50.246094 85.523438 49.324219 84.433594 49.324219 C 83.074219 49.324219 83.074219 50.613281 83.074219 50.96875 L 81.222656 50.96875 C 81.222656 49.082031 82.289062 47.730469 84.5625 47.730469 C 85.910156 47.730469 87.6875 48.414062 87.6875 50.542969 C 87.6875 51.566406 87.046875 52.203125 86.476562 52.460938 L 86.476562 52.488281 C 86.832031 52.585938 88 53.113281 88 54.832031 C 88 56.730469 86.589844 58.082031 84.5625 58.082031 C 83.609375 58.082031 81.050781 57.871094 81.050781 54.71875 M 115.363281 102.105469 L 115.363281 115.023438 L 121.367188 115.023438 L 121.367188 120.511719 L 103.675781 120.511719 L 103.675781 115.023438 L 109.679688 115.023438 L 109.679688 102.105469 L 96.761719 102.105469 L 96.761719 115.023438 L 102.765625 115.023438 L 102.765625 120.511719 L 66.46875 120.511719 L 66.46875 115.023438 L 72.472656 115.023438 L 72.472656 102.105469 L 66.46875 102.105469 L 66.46875 100.75 L 85.074219 100.75 L 85.074219 96.421875 L 91.078125 96.421875 L 91.078125 83.5 L 85.074219 83.5 L 85.074219 77.816406 L 91.078125 77.816406 L 91.078125 64.894531 L 85.074219 64.894531 L 85.074219 59.210938 L 91.078125 59.210938 L 91.078125 46.292969 L 78.15625 46.292969 L 78.15625 59.210938 L 84.160156 59.210938 L 84.160156 64.894531 L 78.15625 64.894531 L 78.15625 77.816406 L 84.160156 77.816406 L 84.160156 83.5 L 78.15625 83.5 L 78.15625 96.421875 L 84.160156 96.421875 L 84.160156 99.839844 L 66.46875 99.839844 L 66.46875 98.683594 L 75.769531 98.683594 L 75.769531 80.210938 L 75.316406 80.210938 L 66.015625 80.203125 L 65.558594 80.203125 L 65.558594 83.5 L 59.554688 83.5 L 59.554688 96.421875 L 65.558594 96.421875 L 65.558594 99.839844 L 47.867188 99.839844 L 47.867188 96.421875 L 53.867188 96.421875 L 53.867188 83.5 L 40.949219 83.5 L 40.949219 96.421875 L 46.953125 96.421875 L 46.953125 100.75 L 65.558594 100.75 L 65.558594 102.105469 L 59.554688 102.105469 L 59.554688 115.023438 L 65.558594 115.023438 L 65.558594 121.421875 L 122.28125 121.421875 L 122.28125 115.023438 L 128.285156 115.023438 L 128.285156 102.105469 Z M 115.363281 102.105469 "/>
</svg>
