<?xml version="1.0" encoding="UTF-8"?>
<svg xmlns="http://www.w3.org/2000/svg" xmlns:xlink="http://www.w3.org/1999/xlink" width="172" height="152" viewBox="0 0 172 152">
<path fill-rule="nonzero" fill="rgb(0%, 0%, 0%)" fill-opacity="1" d="M 70.800781 131.710938 L 77.9375 131.710938 C 80.304688 131.710938 81.109375 132.21875 81.109375 134.425781 L 81.109375 135.308594 C 81.109375 136.921875 80.625 137.324219 79.285156 138.132812 L 71.140625 143.078125 L 79.203125 143.078125 L 79.203125 141.035156 L 81.761719 141.761719 L 81.761719 142.863281 C 81.761719 145.066406 80.953125 145.578125 78.609375 145.578125 L 66.9375 145.578125 L 66.9375 144.316406 C 66.9375 143.371094 67.042969 142.808594 68.679688 141.785156 L 78.289062 135.875 L 78.289062 134.074219 L 70.371094 134.074219 L 70.371094 136.921875 L 67.636719 136.226562 L 67.636719 134.425781 C 67.636719 132.21875 68.441406 131.710938 70.800781 131.710938 "/>
<path fill-rule="nonzero" fill="rgb(0%, 0%, 0%)" fill-opacity="1" d="M 90.085938 134.074219 L 100.003906 134.074219 L 100.003906 143.078125 L 90.085938 143.078125 Z M 87.183594 134.988281 L 87.183594 142.296875 C 87.183594 144.851562 87.910156 145.578125 90.355469 145.578125 L 99.734375 145.578125 C 102.179688 145.578125 102.902344 144.851562 102.902344 142.296875 L 102.902344 134.988281 C 102.902344 132.433594 102.179688 131.710938 99.734375 131.710938 L 90.355469 131.710938 C 87.910156 131.710938 87.183594 132.433594 87.183594 134.988281 "/>
<path fill-rule="nonzero" fill="rgb(0%, 0%, 0%)" fill-opacity="1" d="M 56.683594 109.136719 C 55.960938 109.136719 55.265625 109.605469 55.265625 110.699219 C 55.265625 111.664062 55.820312 112.300781 56.726562 112.300781 C 57.761719 112.300781 58.160156 111.40625 58.160156 110.710938 C 58.160156 110 57.792969 109.136719 56.683594 109.136719 "/>
<path fill-rule="nonzero" fill="rgb(0%, 0%, 0%)" fill-opacity="1" d="M 56.726562 107.628906 C 57.507812 107.628906 57.960938 107.105469 57.960938 106.382812 C 57.960938 105.617188 57.4375 105.132812 56.796875 105.132812 C 55.90625 105.132812 55.4375 105.644531 55.4375 106.382812 C 55.4375 106.976562 55.875 107.628906 56.726562 107.628906 "/>
<path fill-rule="nonzero" fill="rgb(0%, 0%, 0%)" fill-opacity="1" d="M 58.160156 91.78125 C 58.160156 90.503906 57.339844 90.09375 56.710938 90.09375 C 55.960938 90.09375 55.195312 90.558594 55.195312 91.824219 C 55.195312 92.917969 55.820312 93.699219 56.769531 93.699219 C 57.492188 93.699219 58.160156 93.144531 58.160156 91.78125 "/>
<path fill-rule="nonzero" fill="rgb(0%, 0%, 0%)" fill-opacity="1" d="M 94.371094 105.519531 L 94.34375 105.519531 L 91.8125 109.839844 L 94.328125 109.839844 C 94.328125 107.402344 94.371094 105.832031 94.371094 105.519531 "/>
<path fill-rule="nonzero" fill="rgb(0%, 0%, 0%)" fill-opacity="1" d="M 132.542969 113.625 L 130.554688 113.625 L 130.554688 106.671875 L 128.152344 106.671875 L 128.152344 105.28125 L 128.433594 105.28125 C 130.351562 105.28125 130.867188 104.289062 130.910156 103.539062 L 132.542969 103.539062 Z M 108.945312 113.625 C 109.015625 112.441406 109.101562 111.207031 111.289062 109.617188 C 113.105469 108.300781 113.828125 107.789062 113.828125 106.652344 C 113.828125 105.984375 113.402344 105.21875 112.441406 105.21875 C 111.046875 105.21875 111.007812 106.371094 110.992188 107.105469 L 109.058594 107.105469 C 109.058594 103.828125 111.460938 103.542969 112.355469 103.542969 C 114.285156 103.542969 115.820312 104.679688 115.820312 106.722656 C 115.820312 108.457031 114.695312 109.335938 113.714844 110.003906 C 112.382812 110.9375 111.6875 111.394531 111.460938 111.859375 L 115.835938 111.859375 L 115.835938 113.625 Z M 90.347656 111.386719 L 90.347656 109.667969 L 94.058594 103.542969 L 96.320312 103.542969 L 96.320312 109.839844 L 97.441406 109.839844 L 97.441406 111.386719 L 96.320312 111.386719 L 96.320312 113.625 L 94.328125 113.625 L 94.328125 111.386719 Z M 90.351562 91.925781 L 92.300781 91.925781 L 92.289062 91.9375 C 92.289062 92.476562 92.429688 93.699219 93.765625 93.699219 C 94.558594 93.699219 95.253906 93.160156 95.253906 92.039062 C 95.253906 90.660156 93.917969 90.605469 92.988281 90.605469 L 92.988281 89.183594 L 93.308594 89.183594 C 93.90625 89.183594 94.996094 89.125 94.996094 87.820312 C 94.996094 87.453125 94.828125 86.53125 93.734375 86.53125 C 92.375 86.53125 92.375 87.820312 92.375 88.175781 L 90.523438 88.175781 C 90.523438 86.289062 91.589844 84.9375 93.863281 84.9375 C 95.210938 84.9375 96.988281 85.621094 96.988281 87.75 C 96.988281 88.769531 96.347656 89.410156 95.78125 89.664062 L 95.78125 89.695312 C 96.136719 89.792969 97.300781 90.320312 97.300781 92.039062 C 97.300781 93.9375 95.894531 95.289062 93.863281 95.289062 C 92.914062 95.289062 90.351562 95.074219 90.351562 91.925781 M 94.375 81.121094 L 102.765625 81.121094 L 102.765625 98.804688 L 94.375 98.804688 L 94.375 96.417969 L 100.378906 96.417969 L 100.378906 83.496094 L 94.375 83.496094 Z M 53.21875 110.824219 C 53.21875 110.316406 53.21875 108.980469 54.753906 108.269531 C 53.957031 107.871094 53.53125 107.230469 53.53125 106.296875 C 53.53125 104.578125 54.910156 103.542969 56.671875 103.542969 C 58.757812 103.542969 59.867188 104.777344 59.867188 106.171875 C 59.867188 107.035156 59.511719 107.773438 58.699219 108.199219 C 59.667969 108.683594 60.210938 109.320312 60.210938 110.628906 C 60.210938 111.902344 59.382812 113.894531 56.710938 113.894531 C 54.113281 113.894531 53.21875 112.203125 53.21875 110.824219 M 53.203125 90.21875 C 53.203125 88.304688 53.460938 84.9375 56.953125 84.9375 C 57.367188 84.9375 58.515625 85.09375 59.011719 85.59375 C 59.566406 86.132812 59.769531 86.429688 59.953125 87.496094 L 57.976562 87.496094 C 57.917969 86.925781 57.550781 86.53125 56.8125 86.53125 C 55.519531 86.53125 55.222656 88.003906 55.152344 89.308594 L 55.179688 89.335938 C 55.453125 88.96875 55.945312 88.5 57.070312 88.5 C 59.15625 88.5 60.152344 90.105469 60.152344 91.609375 C 60.152344 93.8125 58.800781 95.289062 56.855469 95.289062 C 53.800781 95.289062 53.203125 92.730469 53.203125 90.21875 M 35.9375 95.023438 C 36.152344 90.988281 38.683594 87.78125 39.535156 86.871094 L 34.515625 86.871094 L 34.558594 85.109375 L 41.667969 85.109375 L 41.667969 86.644531 C 40.699219 87.695312 38.226562 90.675781 37.988281 95.023438 Z M 71.75 92.320312 L 73.742188 92.320312 C 73.828125 93.144531 74.265625 93.699219 75.144531 93.699219 C 76.097656 93.699219 76.648438 92.890625 76.648438 91.808594 C 76.648438 90.914062 76.222656 90.007812 75.175781 90.007812 C 74.90625 90.007812 74.226562 90.019531 73.84375 90.730469 L 72.0625 90.644531 L 72.761719 85.109375 L 78.300781 85.109375 L 78.300781 86.785156 L 74.195312 86.785156 L 73.84375 88.96875 C 74.210938 88.710938 74.664062 88.414062 75.644531 88.414062 C 76.992188 88.414062 78.699219 89.351562 78.699219 91.667969 C 78.699219 93.046875 78 95.289062 75.03125 95.289062 C 73.457031 95.289062 71.847656 94.351562 71.75 92.320312 M 124.667969 102.101562 L 124.667969 115.023438 L 130.671875 115.023438 L 130.671875 120.511719 L 112.976562 120.511719 L 112.976562 115.023438 L 118.980469 115.023438 L 118.980469 102.101562 L 106.0625 102.101562 L 106.0625 115.023438 L 112.066406 115.023438 L 112.066406 120.511719 L 94.375 120.511719 L 94.375 115.023438 L 100.378906 115.023438 L 100.378906 102.101562 L 94.375 102.101562 L 94.375 99.714844 L 103.675781 99.714844 L 103.675781 80.210938 L 93.464844 80.210938 L 93.464844 83.496094 L 87.460938 83.496094 L 87.460938 96.417969 L 93.464844 96.417969 L 93.464844 102.101562 L 87.460938 102.101562 L 87.460938 115.023438 L 93.464844 115.023438 L 93.464844 120.511719 L 57.167969 120.511719 L 57.167969 115.023438 L 63.171875 115.023438 L 63.171875 102.101562 L 57.167969 102.101562 L 57.167969 99.714844 L 75.769531 99.714844 L 75.769531 96.417969 L 81.773438 96.417969 L 81.773438 83.496094 L 68.855469 83.496094 L 68.855469 96.417969 L 74.859375 96.417969 L 74.859375 98.804688 L 57.167969 98.804688 L 57.167969 96.417969 L 63.171875 96.417969 L 63.171875 83.496094 L 50.253906 83.496094 L 50.253906 96.417969 L 56.253906 96.417969 L 56.253906 98.804688 L 38.5625 98.804688 L 38.5625 96.417969 L 44.566406 96.417969 L 44.566406 83.496094 L 31.648438 83.496094 L 31.648438 96.417969 L 37.652344 96.417969 L 37.652344 99.714844 L 56.253906 99.714844 L 56.253906 102.101562 L 50.253906 102.101562 L 50.253906 115.023438 L 56.253906 115.023438 L 56.253906 121.421875 L 131.582031 121.421875 L 131.582031 115.023438 L 137.585938 115.023438 L 137.585938 102.101562 Z M 124.667969 102.101562 "/>
</svg>
