<?xml version="1.0" encoding="UTF-8"?>
<svg xmlns="http://www.w3.org/2000/svg" xmlns:xlink="http://www.w3.org/1999/xlink" width="172" height="152" viewBox="0 0 172 152">
<path fill-rule="nonzero" fill="rgb(0%, 0%, 0%)" fill-opacity="1" d="M 77.796875 139.570312 C 78.875 139.570312 79.117188 139.839844 79.117188 140.828125 L 79.117188 141.84375 C 79.117188 142.835938 78.875 143.078125 77.796875 143.078125 L 70.6875 143.078125 C 69.609375 143.078125 69.367188 142.863281 69.367188 141.84375 L 69.367188 140.828125 C 69.367188 139.839844 69.609375 139.570312 70.6875 139.570312 Z M 77.484375 134.074219 C 78.5625 134.074219 78.804688 134.34375 78.804688 135.34375 L 78.804688 136.046875 C 78.804688 137.050781 78.5625 137.320312 77.484375 137.320312 L 71.023438 137.320312 C 69.949219 137.320312 69.683594 137.050781 69.683594 136.046875 L 69.683594 135.34375 C 69.683594 134.34375 69.949219 134.074219 71.023438 134.074219 Z M 78.5625 131.710938 L 69.925781 131.710938 C 67.558594 131.710938 66.75 132.21875 66.75 134.425781 L 66.75 135.695312 C 66.75 137.320312 67.476562 138.015625 69.414062 138.390625 C 67.40625 138.605469 66.4375 139.464844 66.4375 141.148438 L 66.4375 142.59375 C 66.4375 144.746094 67.140625 145.578125 69.800781 145.578125 L 78.683594 145.578125 C 81.347656 145.578125 82.074219 144.746094 82.074219 142.59375 L 82.074219 141.148438 C 82.074219 139.464844 81.105469 138.605469 79.117188 138.390625 C 81.03125 138.015625 81.730469 137.320312 81.730469 135.695312 L 81.730469 134.425781 C 81.730469 132.21875 80.925781 131.710938 78.5625 131.710938 "/>
<path fill-rule="nonzero" fill="rgb(0%, 0%, 0%)" fill-opacity="1" d="M 90.652344 139.324219 C 92.773438 139.109375 94.839844 139 96.800781 139 C 99.132812 139 99.859375 139.296875 99.859375 140.664062 L 99.859375 141.414062 C 99.859375 142.648438 99.324219 143.078125 97.335938 143.078125 L 93.46875 143.078125 C 90.8125 143.078125 90.597656 142.542969 90.597656 140.125 C 90.597656 139.914062 90.597656 139.644531 90.652344 139.324219 M 90.839844 137.234375 C 91.886719 134.292969 94.730469 133.644531 99.886719 133.644531 L 100.773438 133.644531 L 98.867188 131.421875 C 98.546875 131.394531 98.195312 131.367188 97.875 131.367188 C 91.378906 131.367188 87.636719 134.320312 87.636719 139.480469 L 87.636719 141.308594 C 87.636719 144.609375 88.769531 145.578125 92.210938 145.578125 L 98.0625 145.578125 C 101.285156 145.578125 102.816406 144.527344 102.816406 142.191406 L 102.816406 140.3125 C 102.816406 137.5 101.203125 136.75 96.960938 136.75 C 94.8125 136.75 92.773438 136.9375 90.839844 137.234375 "/>
<path fill-rule="nonzero" fill="rgb(0%, 0%, 0%)" fill-opacity="1" d="M 121.25 57.8125 L 121.25 50.863281 L 118.847656 50.863281 L 118.847656 49.464844 L 119.132812 49.464844 C 121.050781 49.464844 121.5625 48.480469 121.605469 47.730469 L 123.238281 47.730469 L 123.238281 57.8125 Z M 125.117188 69.515625 C 125.117188 71.246094 123.996094 72.128906 123.015625 72.792969 C 121.683594 73.730469 120.984375 74.183594 120.761719 74.652344 L 125.132812 74.652344 L 125.132812 76.417969 L 118.242188 76.417969 C 118.316406 75.234375 118.398438 74 120.589844 72.410156 C 122.40625 71.089844 123.128906 70.582031 123.128906 69.445312 C 123.128906 68.78125 122.703125 68.011719 121.738281 68.011719 C 120.347656 68.011719 120.308594 69.164062 120.292969 69.898438 L 118.355469 69.898438 C 118.355469 66.617188 120.761719 66.335938 121.652344 66.335938 C 123.585938 66.335938 125.117188 67.472656 125.117188 69.515625 M 124.894531 87.75 C 124.894531 88.773438 124.253906 89.410156 123.683594 89.667969 L 123.683594 89.695312 C 124.039062 89.792969 125.207031 90.320312 125.207031 92.039062 C 125.207031 93.9375 123.796875 95.289062 121.765625 95.289062 C 120.816406 95.289062 118.257812 95.078125 118.257812 91.925781 L 120.207031 91.925781 L 120.191406 91.9375 C 120.191406 92.476562 120.335938 93.699219 121.667969 93.699219 C 122.464844 93.699219 123.15625 93.160156 123.15625 92.039062 C 123.15625 90.660156 121.824219 90.605469 120.894531 90.605469 L 120.894531 89.183594 L 121.214844 89.183594 C 121.8125 89.183594 122.898438 89.125 122.898438 87.820312 C 122.898438 87.453125 122.730469 86.53125 121.640625 86.53125 C 120.277344 86.53125 120.277344 87.820312 120.277344 88.175781 L 118.429688 88.175781 C 118.429688 86.289062 119.496094 84.9375 121.765625 84.9375 C 123.113281 84.9375 124.894531 85.621094 124.894531 87.75 M 124.226562 103.542969 L 124.226562 109.835938 L 125.347656 109.835938 L 125.347656 111.386719 L 124.226562 111.386719 L 124.226562 113.625 L 122.230469 113.625 L 122.230469 111.386719 L 118.253906 111.386719 L 118.253906 109.667969 L 121.960938 103.542969 Z M 121.367188 120.375 L 103.675781 120.375 L 103.675781 115.023438 L 109.679688 115.023438 L 109.679688 102.101562 L 103.675781 102.101562 L 103.675781 99.714844 L 121.367188 99.714844 L 121.367188 102.101562 L 115.363281 102.101562 L 115.363281 115.023438 L 121.367188 115.023438 Z M 99.65625 110.921875 L 101.644531 110.921875 C 101.730469 111.75 102.171875 112.300781 103.050781 112.300781 C 104 112.300781 104.554688 111.492188 104.554688 110.414062 C 104.554688 109.519531 104.128906 108.609375 103.078125 108.609375 C 102.808594 108.609375 102.128906 108.625 101.746094 109.332031 L 99.96875 109.25 L 100.664062 103.710938 L 106.203125 103.710938 L 106.203125 105.390625 L 102.101562 105.390625 L 101.746094 107.570312 C 102.113281 107.316406 102.566406 107.015625 103.546875 107.015625 C 104.894531 107.015625 106.601562 107.953125 106.601562 110.269531 C 106.601562 111.648438 105.902344 113.894531 102.9375 113.894531 C 101.359375 113.894531 99.753906 112.957031 99.65625 110.921875 M 102.765625 120.375 L 85.070312 120.375 L 85.070312 115.023438 L 91.074219 115.023438 L 91.074219 102.101562 L 85.070312 102.101562 L 85.070312 99.714844 L 102.765625 99.714844 L 102.765625 102.101562 L 96.761719 102.101562 L 96.761719 115.023438 L 102.765625 115.023438 Z M 81.105469 108.824219 C 81.105469 106.90625 81.363281 103.542969 84.855469 103.542969 C 85.269531 103.542969 86.417969 103.699219 86.917969 104.195312 C 87.472656 104.738281 87.671875 105.035156 87.855469 106.097656 L 85.878906 106.097656 C 85.824219 105.53125 85.453125 105.132812 84.71875 105.132812 C 83.425781 105.132812 83.128906 106.609375 83.054688 107.914062 L 83.085938 107.941406 C 83.355469 107.570312 83.851562 107.101562 84.972656 107.101562 C 87.058594 107.101562 88.054688 108.710938 88.054688 110.210938 C 88.054688 112.414062 86.703125 113.894531 84.757812 113.894531 C 81.703125 113.894531 81.105469 111.335938 81.105469 108.824219 M 84.160156 120.375 L 66.46875 120.375 L 66.46875 115.023438 L 72.472656 115.023438 L 72.472656 102.101562 L 66.46875 102.101562 L 66.46875 99.714844 L 84.160156 99.714844 L 84.160156 102.101562 L 78.15625 102.101562 L 78.15625 115.023438 L 84.160156 115.023438 Z M 63.84375 113.625 C 64.054688 109.589844 66.585938 106.382812 67.4375 105.476562 L 62.421875 105.476562 L 62.464844 103.710938 L 69.570312 103.710938 L 69.570312 105.25 C 68.605469 106.296875 66.132812 109.28125 65.890625 113.625 Z M 65.558594 120.375 L 47.863281 120.375 L 47.863281 115.023438 L 53.867188 115.023438 L 53.867188 102.101562 L 47.863281 102.101562 L 47.863281 99.714844 L 65.558594 99.714844 L 65.558594 102.101562 L 59.554688 102.101562 L 59.554688 115.023438 L 65.558594 115.023438 Z M 43.914062 110.828125 C 43.914062 110.3125 43.914062 108.980469 45.449219 108.269531 C 44.65625 107.871094 44.226562 107.234375 44.226562 106.296875 C 44.226562 104.582031 45.605469 103.542969 47.367188 103.542969 C 49.453125 103.542969 50.5625 104.777344 50.5625 106.167969 C 50.5625 107.035156 50.207031 107.773438 49.394531 108.199219 C 50.363281 108.679688 50.902344 109.320312 50.902344 110.625 C 50.902344 111.902344 50.078125 113.894531 47.410156 113.894531 C 44.808594 113.894531 43.914062 112.203125 43.914062 110.828125 M 122.277344 43.90625 L 130.667969 43.90625 L 130.667969 61.597656 L 122.277344 61.597656 L 122.277344 59.210938 L 128.28125 59.210938 L 128.28125 46.292969 L 122.277344 46.292969 Z M 131.578125 62.507812 L 131.578125 42.992188 L 121.367188 42.992188 L 121.367188 46.292969 L 115.363281 46.292969 L 115.363281 59.210938 L 121.367188 59.210938 L 121.367188 64.894531 L 115.363281 64.894531 L 115.363281 77.8125 L 121.367188 77.8125 L 121.367188 83.5 L 115.363281 83.5 L 115.363281 96.417969 L 121.367188 96.417969 L 121.367188 98.804688 L 46.953125 98.804688 L 46.953125 102.101562 L 40.949219 102.101562 L 40.949219 115.023438 L 46.953125 115.023438 L 46.953125 121.285156 L 122.277344 121.285156 L 122.277344 115.023438 L 128.28125 115.023438 L 128.28125 102.101562 L 122.277344 102.101562 L 122.277344 96.417969 L 128.28125 96.417969 L 128.28125 83.5 L 122.277344 83.5 L 122.277344 77.8125 L 128.28125 77.8125 L 128.28125 64.894531 L 122.277344 64.894531 L 122.277344 62.507812 Z M 131.578125 62.507812 "/>
<path fill-rule="nonzero" fill="rgb(0%, 0%, 0%)" fill-opacity="1" d="M 47.421875 107.628906 C 48.203125 107.628906 48.65625 107.105469 48.65625 106.382812 C 48.65625 105.617188 48.132812 105.132812 47.492188 105.132812 C 46.601562 105.132812 46.132812 105.644531 46.132812 106.382812 C 46.132812 106.976562 46.574219 107.628906 47.421875 107.628906 "/>
<path fill-rule="nonzero" fill="rgb(0%, 0%, 0%)" fill-opacity="1" d="M 84.617188 108.695312 C 83.863281 108.695312 83.097656 109.164062 83.097656 110.425781 C 83.097656 111.519531 83.722656 112.300781 84.671875 112.300781 C 85.394531 112.300781 86.0625 111.75 86.0625 110.382812 C 86.0625 109.105469 85.238281 108.695312 84.617188 108.695312 "/>
<path fill-rule="nonzero" fill="rgb(0%, 0%, 0%)" fill-opacity="1" d="M 47.382812 109.136719 C 46.65625 109.136719 45.960938 109.605469 45.960938 110.695312 C 45.960938 111.660156 46.515625 112.300781 47.425781 112.300781 C 48.460938 112.300781 48.855469 111.40625 48.855469 110.710938 C 48.855469 110 48.488281 109.136719 47.382812 109.136719 "/>
<path fill-rule="nonzero" fill="rgb(0%, 0%, 0%)" fill-opacity="1" d="M 122.230469 109.839844 C 122.230469 107.402344 122.273438 105.832031 122.273438 105.519531 L 122.246094 105.519531 L 119.71875 109.839844 Z M 122.230469 109.839844 "/>
</svg>
