<?xml version="1.0" encoding="UTF-8"?>
<svg xmlns="http://www.w3.org/2000/svg" xmlns:xlink="http://www.w3.org/1999/xlink" width="172" height="152" viewBox="0 0 172 152">
<path fill-rule="nonzero" fill="rgb(0%, 0%, 0%)" fill-opacity="1" d="M 77.796875 139.570312 C 78.875 139.570312 79.117188 139.839844 79.117188 140.828125 L 79.117188 141.84375 C 79.117188 142.835938 78.875 143.078125 77.796875 143.078125 L 70.6875 143.078125 C 69.613281 143.078125 69.371094 142.863281 69.371094 141.84375 L 69.371094 140.828125 C 69.371094 139.839844 69.613281 139.570312 70.6875 139.570312 Z M 77.488281 134.074219 C 78.558594 134.074219 78.800781 134.34375 78.800781 135.34375 L 78.800781 136.046875 C 78.800781 137.050781 78.558594 137.320312 77.488281 137.320312 L 71.023438 137.320312 C 69.953125 137.320312 69.679688 137.050781 69.679688 136.046875 L 69.679688 135.34375 C 69.679688 134.34375 69.953125 134.074219 71.023438 134.074219 Z M 78.558594 131.710938 L 69.925781 131.710938 C 67.558594 131.710938 66.753906 132.21875 66.753906 134.425781 L 66.753906 135.695312 C 66.753906 137.320312 67.480469 138.015625 69.414062 138.390625 C 67.410156 138.605469 66.441406 139.464844 66.441406 141.148438 L 66.441406 142.59375 C 66.441406 144.746094 67.136719 145.578125 69.800781 145.578125 L 78.6875 145.578125 C 81.347656 145.578125 82.074219 144.746094 82.074219 142.59375 L 82.074219 141.148438 C 82.074219 139.464844 81.105469 138.605469 79.117188 138.390625 C 81.035156 138.015625 81.730469 137.320312 81.730469 135.695312 L 81.730469 134.425781 C 81.730469 132.21875 80.925781 131.710938 78.558594 131.710938 "/>
<path fill-rule="nonzero" fill="rgb(0%, 0%, 0%)" fill-opacity="1" d="M 97.324219 140.199219 L 89.746094 140.199219 L 97.324219 133.984375 Z M 97.324219 145.75 L 100.253906 145.75 L 100.253906 142.503906 L 103.613281 142.503906 L 103.613281 140.199219 L 100.253906 140.199219 L 100.253906 131.539062 L 97.21875 131.539062 L 86.816406 140.199219 L 86.816406 142.503906 L 97.324219 142.503906 Z M 97.324219 145.75 "/>
<path fill-rule="nonzero" fill="rgb(0%, 0%, 0%)" fill-opacity="1" d="M 38.121094 107.628906 C 38.902344 107.628906 39.355469 107.105469 39.355469 106.382812 C 39.355469 105.617188 38.832031 105.132812 38.191406 105.132812 C 37.300781 105.132812 36.832031 105.644531 36.832031 106.382812 C 36.832031 106.976562 37.269531 107.628906 38.121094 107.628906 "/>
<path fill-rule="nonzero" fill="rgb(0%, 0%, 0%)" fill-opacity="1" d="M 38.078125 109.136719 C 37.355469 109.136719 36.660156 109.605469 36.660156 110.695312 C 36.660156 111.660156 37.214844 112.300781 38.125 112.300781 C 39.15625 112.300781 39.554688 111.40625 39.554688 110.710938 C 39.554688 110 39.1875 109.136719 38.078125 109.136719 "/>
<path fill-rule="nonzero" fill="rgb(0%, 0%, 0%)" fill-opacity="1" d="M 134.4375 113.621094 L 127.546875 113.621094 C 127.617188 112.441406 127.703125 111.207031 129.890625 109.617188 C 131.707031 108.300781 132.433594 107.789062 132.433594 106.652344 C 132.433594 105.984375 132.007812 105.21875 131.042969 105.21875 C 129.652344 105.21875 129.609375 106.367188 129.59375 107.105469 L 127.660156 107.105469 C 127.660156 103.824219 130.0625 103.542969 130.957031 103.542969 C 132.886719 103.542969 134.425781 104.679688 134.425781 106.722656 C 134.425781 108.453125 133.300781 109.335938 132.320312 110.003906 C 130.984375 110.9375 130.289062 111.390625 130.0625 111.859375 L 134.4375 111.859375 Z M 130.675781 120.355469 L 112.976562 120.355469 L 112.976562 115.023438 L 118.980469 115.023438 L 118.980469 102.101562 L 112.976562 102.101562 L 112.976562 99.714844 L 130.671875 99.714844 L 130.671875 102.101562 L 124.667969 102.101562 L 124.667969 115.023438 L 130.675781 115.023438 Z M 108.957031 110.527344 L 110.90625 110.527344 L 110.890625 110.542969 C 110.890625 111.082031 111.035156 112.300781 112.367188 112.300781 C 113.160156 112.300781 113.855469 111.761719 113.855469 110.640625 C 113.855469 109.265625 112.523438 109.207031 111.59375 109.207031 L 111.59375 107.785156 L 111.914062 107.785156 C 112.507812 107.785156 113.601562 107.726562 113.601562 106.425781 C 113.601562 106.054688 113.429688 105.132812 112.339844 105.132812 C 110.976562 105.132812 110.976562 106.425781 110.976562 106.777344 L 109.128906 106.777344 C 109.128906 104.890625 110.195312 103.542969 112.464844 103.542969 C 113.8125 103.542969 115.59375 104.226562 115.59375 106.351562 C 115.59375 107.375 114.949219 108.011719 114.382812 108.269531 L 114.382812 108.296875 C 114.738281 108.398438 115.902344 108.925781 115.902344 110.640625 C 115.902344 112.542969 114.496094 113.894531 112.46875 113.894531 C 111.515625 113.894531 108.957031 113.679688 108.957031 110.527344 M 112.066406 120.355469 L 94.375 120.355469 L 94.375 115.023438 L 100.378906 115.023438 L 100.378906 102.101562 L 94.375 102.101562 L 94.375 99.714844 L 112.066406 99.714844 L 112.066406 102.101562 L 106.0625 102.101562 L 106.0625 115.023438 L 112.066406 115.023438 Z M 90.347656 111.386719 L 90.347656 109.667969 L 94.054688 103.542969 L 96.320312 103.542969 L 96.320312 109.839844 L 97.441406 109.839844 L 97.441406 111.386719 L 96.320312 111.386719 L 96.320312 113.625 L 94.324219 113.625 L 94.324219 111.386719 Z M 93.460938 120.355469 L 75.769531 120.355469 L 75.769531 115.023438 L 81.773438 115.023438 L 81.773438 102.101562 L 75.769531 102.101562 L 75.769531 99.714844 L 93.460938 99.714844 L 93.460938 102.101562 L 87.460938 102.101562 L 87.460938 115.023438 L 93.460938 115.023438 Z M 71.75 110.925781 L 73.738281 110.925781 C 73.824219 111.75 74.265625 112.300781 75.144531 112.300781 C 76.09375 112.300781 76.648438 111.492188 76.648438 110.414062 C 76.648438 109.519531 76.222656 108.609375 75.175781 108.609375 C 74.90625 108.609375 74.222656 108.625 73.839844 109.332031 L 72.0625 109.25 L 72.757812 103.710938 L 78.300781 103.710938 L 78.300781 105.390625 L 74.195312 105.390625 L 73.839844 107.570312 C 74.210938 107.3125 74.664062 107.019531 75.640625 107.019531 C 76.992188 107.019531 78.695312 107.953125 78.695312 110.269531 C 78.695312 111.648438 78 113.894531 75.03125 113.894531 C 73.457031 113.894531 71.851562 112.957031 71.75 110.925781 M 111.949219 95.019531 L 111.949219 88.066406 L 109.546875 88.066406 L 109.546875 86.675781 L 109.832031 86.675781 C 111.75 86.675781 112.261719 85.683594 112.304688 84.9375 L 113.941406 84.9375 L 113.941406 95.019531 Z M 54.542969 113.625 C 54.753906 109.59375 57.285156 106.386719 58.136719 105.476562 L 53.121094 105.476562 L 53.164062 103.710938 L 60.269531 103.710938 L 60.269531 105.25 C 59.304688 106.300781 56.832031 109.28125 56.589844 113.625 Z M 56.253906 120.355469 L 38.5625 120.355469 L 38.5625 115.023438 L 44.566406 115.023438 L 44.566406 102.101562 L 38.566406 102.101562 L 38.566406 100.75 L 56.253906 100.75 L 56.253906 102.101562 L 50.25 102.101562 L 50.25 115.023438 L 56.253906 115.023438 Z M 34.613281 110.824219 C 34.613281 110.3125 34.613281 108.980469 36.148438 108.269531 C 35.355469 107.871094 34.925781 107.230469 34.925781 106.296875 C 34.925781 104.582031 36.304688 103.542969 38.066406 103.542969 C 40.152344 103.542969 41.261719 104.777344 41.261719 106.171875 C 41.261719 107.035156 40.90625 107.773438 40.09375 108.199219 C 41.0625 108.683594 41.601562 109.320312 41.601562 110.628906 C 41.601562 111.902344 40.777344 113.894531 38.109375 113.894531 C 35.507812 113.894531 34.613281 112.203125 34.613281 110.824219 M 53.203125 90.21875 C 53.203125 88.300781 53.460938 84.9375 56.953125 84.9375 C 57.363281 84.9375 58.515625 85.09375 59.011719 85.59375 C 59.566406 86.132812 59.769531 86.433594 59.949219 87.492188 L 57.976562 87.492188 C 57.917969 86.929688 57.550781 86.53125 56.8125 86.53125 C 55.519531 86.53125 55.222656 88.003906 55.152344 89.308594 L 55.179688 89.335938 C 55.449219 88.96875 55.945312 88.5 57.066406 88.5 C 59.152344 88.5 60.152344 90.105469 60.152344 91.609375 C 60.152344 93.8125 58.800781 95.289062 56.855469 95.289062 C 53.800781 95.289062 53.203125 92.730469 53.203125 90.21875 M 57.167969 81.109375 L 65.554688 81.109375 L 65.554688 97.769531 L 57.167969 97.769531 L 57.167969 96.417969 L 63.171875 96.417969 L 63.171875 83.5 L 57.167969 83.5 Z M 137.585938 102.101562 L 131.582031 102.101562 L 131.582031 98.804688 L 112.976562 98.804688 L 112.976562 96.417969 L 118.980469 96.417969 L 118.980469 83.5 L 106.0625 83.5 L 106.0625 96.417969 L 112.066406 96.417969 L 112.066406 98.804688 L 74.863281 98.804688 C 74.859375 98.804688 74.859375 99.261719 74.859375 99.261719 L 74.859375 102.101562 L 68.855469 102.101562 L 68.855469 115.023438 L 74.859375 115.023438 L 74.859375 120.355469 L 57.167969 120.355469 L 57.167969 115.023438 L 63.171875 115.023438 L 63.171875 102.101562 L 57.167969 102.101562 L 57.167969 98.683594 L 66.46875 98.683594 L 66.46875 80.199219 L 56.253906 80.199219 L 56.253906 83.5 L 50.25 83.5 L 50.25 96.417969 L 56.253906 96.417969 L 56.253906 99.839844 L 37.65625 99.839844 L 37.65625 102.101562 L 31.648438 102.101562 L 31.648438 115.023438 L 37.652344 115.023438 L 37.648438 120.8125 L 37.648438 121.269531 L 131.585938 121.269531 L 131.585938 115.023438 L 137.585938 115.023438 Z M 137.585938 102.101562 "/>
<path fill-rule="nonzero" fill="rgb(0%, 0%, 0%)" fill-opacity="1" d="M 58.160156 91.78125 C 58.160156 90.503906 57.339844 90.09375 56.710938 90.09375 C 55.960938 90.09375 55.195312 90.558594 55.195312 91.824219 C 55.195312 92.917969 55.820312 93.699219 56.769531 93.699219 C 57.492188 93.699219 58.160156 93.144531 58.160156 91.78125 "/>
<path fill-rule="nonzero" fill="rgb(0%, 0%, 0%)" fill-opacity="1" d="M 94.371094 105.519531 L 94.339844 105.519531 L 91.8125 109.835938 L 94.328125 109.835938 C 94.328125 107.402344 94.371094 105.832031 94.371094 105.519531 "/>
</svg>
