<?xml version="1.0" encoding="UTF-8"?>
<svg xmlns="http://www.w3.org/2000/svg" xmlns:xlink="http://www.w3.org/1999/xlink" width="172" height="152" viewBox="0 0 172 152">
<path fill-rule="nonzero" fill="rgb(0%, 0%, 0%)" fill-opacity="1" d="M 78.820312 133.039062 L 69.65625 133.039062 L 69.65625 136.027344 L 66.726562 135.515625 L 66.726562 130.675781 L 82.121094 130.675781 L 82.121094 132.90625 L 74.867188 144.800781 L 71.347656 144.800781 Z M 78.820312 133.039062 "/>
<path fill-rule="nonzero" fill="rgb(0%, 0%, 0%)" fill-opacity="1" d="M 88.914062 130.675781 L 100.898438 130.675781 L 100.65625 133.039062 L 90.984375 133.039062 L 90.660156 135.726562 C 92.785156 135.511719 94.640625 135.375 96.277344 135.375 C 100.847656 135.375 103.160156 136.933594 103.160156 140.085938 C 103.160156 143.453125 100.710938 144.746094 95.523438 144.746094 C 92.542969 144.746094 90.3125 144.527344 88.832031 144.179688 L 88.136719 141.488281 C 90.660156 141.945312 93.078125 142.214844 95.441406 142.214844 C 98.722656 142.214844 100.175781 141.675781 100.175781 139.949219 C 100.175781 138.308594 98.695312 137.792969 95.632812 137.792969 C 93.726562 137.792969 91.226562 137.957031 88.136719 138.363281 L 88.914062 130.675781 "/>
<path fill-rule="nonzero" fill="rgb(0%, 0%, 0%)" fill-opacity="1" d="M 75.765625 68.3125 L 75.738281 68.3125 L 73.207031 72.628906 L 75.722656 72.628906 C 75.722656 70.195312 75.765625 68.625 75.765625 68.3125 "/>
<path fill-rule="nonzero" fill="rgb(0%, 0%, 0%)" fill-opacity="1" d="M 56.683594 109.136719 C 55.960938 109.136719 55.265625 109.605469 55.265625 110.699219 C 55.265625 111.664062 55.816406 112.300781 56.726562 112.300781 C 57.761719 112.300781 58.160156 111.40625 58.160156 110.710938 C 58.160156 110.003906 57.792969 109.136719 56.683594 109.136719 "/>
<path fill-rule="nonzero" fill="rgb(0%, 0%, 0%)" fill-opacity="1" d="M 56.726562 107.628906 C 57.503906 107.628906 57.960938 107.105469 57.960938 106.382812 C 57.960938 105.617188 57.433594 105.136719 56.796875 105.136719 C 55.902344 105.136719 55.4375 105.644531 55.4375 106.382812 C 55.4375 106.980469 55.875 107.628906 56.726562 107.628906 "/>
<path fill-rule="nonzero" fill="rgb(0%, 0%, 0%)" fill-opacity="1" d="M 58.160156 73.175781 C 58.160156 71.898438 57.335938 71.488281 56.710938 71.488281 C 55.960938 71.488281 55.195312 71.953125 55.195312 73.21875 C 55.195312 74.3125 55.816406 75.09375 56.769531 75.09375 C 57.492188 75.09375 58.160156 74.539062 58.160156 73.175781 "/>
<path fill-rule="nonzero" fill="rgb(0%, 0%, 0%)" fill-opacity="1" d="M 121.371094 97.769531 L 112.976562 97.769531 L 112.976562 96.417969 L 118.980469 96.417969 L 118.980469 83.5 L 112.976562 83.5 L 112.976562 81.113281 L 121.371094 81.113281 Z M 111.949219 95.019531 L 111.949219 88.070312 L 109.546875 88.070312 L 109.546875 86.675781 L 109.832031 86.675781 C 111.75 86.675781 112.261719 85.6875 112.304688 84.9375 L 113.9375 84.9375 L 113.9375 95.019531 Z M 115.820312 106.722656 C 115.820312 108.457031 114.695312 109.332031 113.714844 110 C 112.382812 110.9375 111.683594 111.390625 111.457031 111.859375 L 115.832031 111.859375 L 115.832031 113.625 L 108.945312 113.625 C 109.015625 112.441406 109.097656 111.207031 111.289062 109.617188 C 113.105469 108.296875 113.828125 107.789062 113.828125 106.652344 C 113.828125 105.988281 113.402344 105.21875 112.4375 105.21875 C 111.046875 105.21875 111.003906 106.371094 110.992188 107.109375 L 109.058594 107.109375 C 109.058594 103.828125 111.457031 103.542969 112.351562 103.542969 C 114.285156 103.542969 115.820312 104.679688 115.820312 106.722656 M 112.066406 120.359375 L 94.375 120.359375 L 94.375 115.023438 L 100.378906 115.023438 L 100.378906 102.101562 L 94.375 102.101562 L 94.375 100.75 L 112.066406 100.75 L 112.066406 102.101562 L 106.0625 102.101562 L 106.0625 115.023438 L 112.066406 115.023438 Z M 90.355469 110.527344 L 92.300781 110.527344 L 92.289062 110.539062 C 92.289062 111.082031 92.429688 112.300781 93.761719 112.300781 C 94.558594 112.300781 95.25 111.761719 95.25 110.640625 C 95.25 109.265625 93.917969 109.207031 92.988281 109.207031 L 92.988281 107.785156 L 93.308594 107.785156 C 93.90625 107.785156 94.996094 107.730469 94.996094 106.425781 C 94.996094 106.054688 94.824219 105.132812 93.734375 105.132812 C 92.375 105.132812 92.375 106.425781 92.375 106.78125 L 90.523438 106.78125 C 90.523438 104.890625 91.589844 103.542969 93.863281 103.542969 C 95.210938 103.542969 96.988281 104.226562 96.988281 106.351562 C 96.988281 107.375 96.347656 108.011719 95.777344 108.269531 L 95.777344 108.296875 C 96.132812 108.398438 97.300781 108.921875 97.300781 110.640625 C 97.300781 112.542969 95.890625 113.894531 93.863281 113.894531 C 92.910156 113.894531 90.355469 113.679688 90.355469 110.527344 M 53.21875 110.824219 C 53.21875 110.316406 53.21875 108.980469 54.753906 108.269531 C 53.957031 107.871094 53.53125 107.230469 53.53125 106.296875 C 53.53125 104.578125 54.910156 103.542969 56.667969 103.542969 C 58.757812 103.542969 59.867188 104.78125 59.867188 106.167969 C 59.867188 107.035156 59.507812 107.773438 58.699219 108.199219 C 59.667969 108.679688 60.207031 109.320312 60.207031 110.625 C 60.207031 111.90625 59.382812 113.894531 56.710938 113.894531 C 54.113281 113.894531 53.21875 112.203125 53.21875 110.824219 M 54.542969 95.019531 C 54.753906 90.992188 57.285156 87.78125 58.136719 86.871094 L 53.121094 86.871094 L 53.164062 85.109375 L 60.269531 85.109375 L 60.269531 86.644531 C 59.304688 87.695312 56.832031 90.675781 56.589844 95.019531 Z M 53.203125 71.613281 C 53.203125 69.699219 53.457031 66.335938 56.953125 66.335938 C 57.367188 66.335938 58.515625 66.492188 59.011719 66.988281 C 59.566406 67.53125 59.765625 67.828125 59.953125 68.890625 L 57.972656 68.886719 C 57.917969 68.324219 57.550781 67.925781 56.8125 67.925781 C 55.519531 67.925781 55.222656 69.398438 55.152344 70.707031 L 55.179688 70.734375 C 55.449219 70.363281 55.945312 69.894531 57.066406 69.894531 C 59.15625 69.894531 60.152344 71.5 60.152344 73.007812 C 60.152344 75.207031 58.800781 76.6875 56.851562 76.6875 C 53.800781 76.6875 53.203125 74.128906 53.203125 71.613281 M 71.75 92.320312 L 73.742188 92.320312 C 73.824219 93.140625 74.265625 93.699219 75.144531 93.699219 C 76.097656 93.699219 76.648438 92.886719 76.648438 91.808594 C 76.648438 90.914062 76.222656 90.003906 75.175781 90.003906 C 74.90625 90.003906 74.222656 90.019531 73.839844 90.730469 L 72.0625 90.644531 L 72.757812 85.109375 L 78.300781 85.109375 L 78.300781 86.789062 L 74.195312 86.789062 L 73.839844 88.96875 C 74.207031 88.710938 74.664062 88.414062 75.640625 88.414062 C 76.992188 88.414062 78.695312 89.351562 78.695312 91.664062 C 78.695312 93.042969 78 95.289062 75.03125 95.289062 C 73.457031 95.289062 71.847656 94.351562 71.75 92.320312 M 71.742188 74.179688 L 71.742188 72.460938 L 75.453125 66.335938 L 77.714844 66.335938 L 77.714844 72.628906 L 78.835938 72.628906 L 78.835938 74.179688 L 77.714844 74.179688 L 77.714844 76.414062 L 75.722656 76.414062 L 75.722656 74.179688 Z M 112.066406 80.203125 L 112.066406 83.5 L 106.0625 83.5 L 106.0625 96.417969 L 112.066406 96.417969 L 112.066406 99.839844 L 93.460938 99.839844 L 93.460938 102.101562 L 87.457031 102.101562 L 87.457031 115.023438 L 93.460938 115.023438 L 93.460938 120.359375 L 57.167969 120.359375 L 57.167969 115.023438 L 63.167969 115.023438 L 63.167969 102.101562 L 57.167969 102.101562 L 57.167969 99.714844 L 75.769531 99.714844 L 75.769531 96.417969 L 81.773438 96.417969 L 81.773438 83.5 L 75.769531 83.5 L 75.769531 77.816406 L 81.773438 77.816406 L 81.773438 64.894531 L 68.855469 64.894531 L 68.855469 77.816406 L 74.859375 77.816406 L 74.859375 83.5 L 68.855469 83.5 L 68.855469 96.417969 L 74.859375 96.417969 L 74.859375 98.804688 L 57.167969 98.804688 L 57.167969 96.417969 L 63.167969 96.417969 L 63.167969 83.5 L 57.167969 83.5 L 57.167969 77.816406 L 63.167969 77.816406 L 63.167969 64.894531 L 50.25 64.894531 L 50.25 77.816406 L 56.253906 77.816406 L 56.253906 83.5 L 50.25 83.5 L 50.25 96.417969 L 56.253906 96.417969 L 56.253906 102.101562 L 50.25 102.101562 L 50.25 115.023438 L 56.253906 115.023438 L 56.253906 121.269531 L 112.976562 121.269531 L 112.976562 115.023438 L 118.980469 115.023438 L 118.980469 102.101562 L 112.976562 102.101562 L 112.976562 98.679688 L 122.28125 98.679688 L 122.28125 80.203125 Z M 112.066406 80.203125 "/>
</svg>
