<?xml version="1.0" encoding="UTF-8"?>
<svg xmlns="http://www.w3.org/2000/svg" xmlns:xlink="http://www.w3.org/1999/xlink" width="172" height="152" viewBox="0 0 172 152">
<path fill-rule="nonzero" fill="rgb(0%, 0%, 0%)" fill-opacity="1" d="M 73.390625 134.234375 L 70.433594 134.234375 L 70.433594 132.382812 L 76.320312 131.492188 L 76.320312 145.476562 L 73.390625 145.476562 Z M 73.390625 134.234375 "/>
<path fill-rule="nonzero" fill="rgb(0%, 0%, 0%)" fill-opacity="1" d="M 94.164062 134.234375 L 91.207031 134.234375 L 91.207031 132.382812 L 97.09375 131.492188 L 97.09375 145.476562 L 94.164062 145.476562 Z M 94.164062 134.234375 "/>
<path fill-rule="nonzero" fill="rgb(0%, 0%, 0%)" fill-opacity="1" d="M 56.683594 109.03125 C 55.960938 109.03125 55.265625 109.5 55.265625 110.59375 C 55.265625 111.558594 55.820312 112.199219 56.726562 112.199219 C 57.761719 112.199219 58.160156 111.304688 58.160156 110.609375 C 58.160156 109.898438 57.789062 109.03125 56.683594 109.03125 "/>
<path fill-rule="nonzero" fill="rgb(0%, 0%, 0%)" fill-opacity="1" d="M 113.941406 113.519531 L 111.949219 113.519531 L 111.949219 106.570312 L 109.546875 106.570312 L 109.546875 105.175781 L 109.832031 105.175781 C 111.75 105.175781 112.261719 104.1875 112.304688 103.4375 L 113.941406 103.4375 Z M 90.339844 113.519531 C 90.410156 112.339844 90.496094 111.105469 92.683594 109.515625 C 94.5 108.195312 95.222656 107.6875 95.222656 106.550781 C 95.222656 105.882812 94.800781 105.117188 93.832031 105.117188 C 92.445312 105.117188 92.402344 106.265625 92.386719 107.003906 L 90.453125 107.003906 C 90.453125 103.722656 92.855469 103.4375 93.75 103.4375 C 95.679688 103.4375 97.214844 104.574219 97.214844 106.621094 C 97.214844 108.351562 96.089844 109.230469 95.109375 109.898438 C 93.777344 110.835938 93.082031 111.289062 92.855469 111.757812 L 97.230469 111.757812 L 97.230469 113.519531 Z M 71.75 110.820312 L 73.742188 110.820312 C 73.824219 111.644531 74.265625 112.195312 75.144531 112.195312 C 76.097656 112.195312 76.648438 111.386719 76.648438 110.308594 C 76.648438 109.414062 76.222656 108.507812 75.171875 108.507812 C 74.902344 108.507812 74.222656 108.519531 73.839844 109.230469 L 72.0625 109.144531 L 72.757812 103.609375 L 78.296875 103.609375 L 78.296875 105.289062 L 74.195312 105.289062 L 73.839844 107.46875 C 74.210938 107.214844 74.664062 106.914062 75.640625 106.914062 C 76.988281 106.914062 78.699219 107.851562 78.699219 110.167969 C 78.699219 111.546875 78 113.789062 75.03125 113.789062 C 73.457031 113.789062 71.847656 112.851562 71.75 110.820312 M 71.742188 92.679688 L 71.742188 90.960938 L 75.453125 84.835938 L 77.714844 84.835938 L 77.714844 91.128906 L 78.835938 91.128906 L 78.835938 92.679688 L 77.714844 92.679688 L 77.714844 94.917969 L 75.722656 94.917969 L 75.722656 92.679688 Z M 71.75 73.21875 L 73.699219 73.21875 L 73.683594 73.230469 C 73.683594 73.769531 73.824219 74.988281 75.160156 74.988281 C 75.953125 74.988281 76.648438 74.449219 76.648438 73.328125 C 76.648438 71.953125 75.316406 71.898438 74.382812 71.898438 L 74.382812 70.476562 L 74.707031 70.476562 C 75.300781 70.476562 76.390625 70.417969 76.390625 69.113281 C 76.390625 68.746094 76.222656 67.820312 75.128906 67.820312 C 73.769531 67.820312 73.769531 69.113281 73.769531 69.46875 L 71.917969 69.46875 C 71.917969 67.582031 72.988281 66.230469 75.257812 66.230469 C 76.605469 66.230469 78.382812 66.914062 78.382812 69.042969 C 78.382812 70.0625 77.746094 70.703125 77.171875 70.957031 L 77.171875 70.988281 C 77.53125 71.085938 78.699219 71.613281 78.699219 73.328125 C 78.699219 75.230469 77.289062 76.582031 75.257812 76.582031 C 74.308594 76.582031 71.75 76.367188 71.75 73.21875 M 75.769531 62.410156 L 84.160156 62.410156 L 84.160156 80.097656 L 75.769531 80.097656 L 75.769531 77.710938 L 81.773438 77.710938 L 81.773438 64.792969 L 75.769531 64.792969 Z M 53.214844 110.722656 C 53.214844 110.210938 53.214844 108.875 54.753906 108.167969 C 53.957031 107.769531 53.53125 107.128906 53.53125 106.195312 C 53.53125 104.476562 54.910156 103.4375 56.667969 103.4375 C 58.753906 103.4375 59.867188 104.675781 59.867188 106.066406 C 59.867188 106.929688 59.511719 107.667969 58.699219 108.097656 C 59.667969 108.578125 60.207031 109.21875 60.207031 110.523438 C 60.207031 111.800781 59.382812 113.789062 56.710938 113.789062 C 54.113281 113.789062 53.214844 112.097656 53.214844 110.722656 M 54.539062 94.917969 C 54.753906 90.886719 57.285156 87.675781 58.136719 86.769531 L 53.121094 86.769531 L 53.164062 85.007812 L 60.269531 85.007812 L 60.269531 86.542969 C 59.304688 87.59375 56.832031 90.574219 56.589844 94.917969 Z M 53.203125 71.511719 C 53.203125 69.59375 53.457031 66.230469 56.953125 66.230469 C 57.363281 66.230469 58.515625 66.386719 59.011719 66.886719 C 59.566406 67.425781 59.765625 67.722656 59.953125 68.789062 L 57.976562 68.785156 C 57.917969 68.21875 57.546875 67.820312 56.808594 67.820312 C 55.519531 67.820312 55.222656 69.296875 55.152344 70.601562 L 55.179688 70.628906 C 55.449219 70.261719 55.945312 69.789062 57.066406 69.789062 C 59.15625 69.789062 60.148438 71.398438 60.148438 72.902344 C 60.148438 75.105469 58.800781 76.582031 56.855469 76.582031 C 53.800781 76.582031 53.203125 74.023438 53.203125 71.511719 M 106.0625 102 L 106.0625 114.917969 L 112.066406 114.917969 L 112.066406 120.40625 L 94.375 120.40625 L 94.375 114.917969 L 100.378906 114.917969 L 100.378906 102 L 87.457031 102 L 87.457031 114.917969 L 93.460938 114.917969 L 93.460938 120.40625 L 75.769531 120.40625 L 75.769531 114.917969 L 81.773438 114.917969 L 81.773438 102 L 75.769531 102 L 75.769531 96.316406 L 81.773438 96.316406 L 81.773438 83.394531 L 75.769531 83.394531 L 75.769531 81.007812 L 85.070312 81.007812 L 85.070312 61.5 L 74.859375 61.5 L 74.859375 64.792969 L 68.855469 64.792969 L 68.855469 77.710938 L 74.859375 77.710938 L 74.859375 83.394531 L 68.855469 83.394531 L 68.855469 96.316406 L 74.859375 96.316406 L 74.859375 102 L 68.855469 102 L 68.855469 114.917969 L 74.859375 114.917969 L 74.859375 120.40625 L 57.164062 120.40625 L 57.164062 114.917969 L 63.167969 114.917969 L 63.167969 102 L 57.164062 102 L 57.164062 96.316406 L 63.167969 96.316406 L 63.167969 83.394531 L 57.164062 83.394531 L 57.164062 77.710938 L 63.167969 77.710938 L 63.167969 64.792969 L 50.25 64.792969 L 50.25 77.710938 L 56.253906 77.710938 L 56.253906 83.394531 L 50.25 83.394531 L 50.25 96.316406 L 56.253906 96.316406 L 56.253906 102 L 50.25 102 L 50.25 114.917969 L 56.253906 114.917969 L 56.253906 121.316406 L 112.976562 121.316406 L 112.976562 114.917969 L 118.980469 114.917969 L 118.980469 102 Z M 106.0625 102 "/>
<path fill-rule="nonzero" fill="rgb(0%, 0%, 0%)" fill-opacity="1" d="M 56.726562 107.527344 C 57.503906 107.527344 57.957031 107 57.957031 106.28125 C 57.957031 105.515625 57.4375 105.03125 56.796875 105.03125 C 55.90625 105.03125 55.4375 105.542969 55.4375 106.28125 C 55.4375 106.875 55.875 107.527344 56.726562 107.527344 "/>
<path fill-rule="nonzero" fill="rgb(0%, 0%, 0%)" fill-opacity="1" d="M 75.765625 86.8125 L 75.738281 86.8125 L 73.207031 91.128906 L 75.722656 91.128906 C 75.722656 88.695312 75.765625 87.125 75.765625 86.8125 "/>
<path fill-rule="nonzero" fill="rgb(0%, 0%, 0%)" fill-opacity="1" d="M 58.160156 73.074219 C 58.160156 71.792969 57.335938 71.382812 56.710938 71.382812 C 55.960938 71.382812 55.191406 71.851562 55.191406 73.117188 C 55.191406 74.207031 55.816406 74.988281 56.769531 74.988281 C 57.492188 74.988281 58.160156 74.4375 58.160156 73.074219 "/>
</svg>
