<?xml version="1.0" encoding="UTF-8"?>
<svg xmlns="http://www.w3.org/2000/svg" xmlns:xlink="http://www.w3.org/1999/xlink" width="172" height="152" viewBox="0 0 172 152">
<path fill-rule="nonzero" fill="rgb(0%, 0%, 0%)" fill-opacity="1" d="M 78.816406 133.039062 L 69.65625 133.039062 L 69.65625 136.027344 L 66.722656 135.515625 L 66.722656 130.675781 L 82.121094 130.675781 L 82.121094 132.90625 L 74.867188 144.800781 L 71.347656 144.800781 Z M 78.816406 133.039062 "/>
<path fill-rule="nonzero" fill="rgb(0%, 0%, 0%)" fill-opacity="1" d="M 90.65625 138.289062 C 92.773438 138.074219 94.839844 137.96875 96.800781 137.96875 C 99.136719 137.96875 99.859375 138.261719 99.859375 139.628906 L 99.859375 140.382812 C 99.859375 141.613281 99.324219 142.042969 97.335938 142.042969 L 93.472656 142.042969 C 90.816406 142.042969 90.601562 141.507812 90.601562 139.09375 C 90.601562 138.878906 90.601562 138.609375 90.65625 138.289062 M 90.84375 136.199219 C 91.886719 133.261719 94.734375 132.613281 99.886719 132.613281 L 100.773438 132.613281 L 98.867188 130.390625 C 98.542969 130.359375 98.195312 130.332031 97.875 130.332031 C 91.378906 130.332031 87.640625 133.285156 87.640625 138.449219 L 87.640625 140.273438 C 87.640625 143.574219 88.769531 144.542969 92.210938 144.542969 L 98.0625 144.542969 C 101.285156 144.542969 102.816406 143.496094 102.816406 141.160156 L 102.816406 139.28125 C 102.816406 136.46875 101.203125 135.71875 96.960938 135.71875 C 94.8125 135.71875 92.773438 135.90625 90.84375 136.199219 "/>
<path fill-rule="nonzero" fill="rgb(0%, 0%, 0%)" fill-opacity="1" d="M 121.25 76.414062 L 121.25 69.464844 L 118.847656 69.464844 L 118.847656 68.070312 L 119.132812 68.070312 C 121.050781 68.070312 121.5625 67.082031 121.605469 66.332031 L 123.242188 66.332031 L 123.242188 76.414062 Z M 125.121094 88.121094 C 125.121094 89.851562 123.996094 90.730469 123.015625 91.394531 C 121.683594 92.335938 120.988281 92.785156 120.761719 93.257812 L 125.136719 93.257812 L 125.136719 95.019531 L 118.246094 95.019531 C 118.316406 93.839844 118.402344 92.601562 120.589844 91.015625 C 122.40625 89.695312 123.128906 89.1875 123.128906 88.050781 C 123.128906 87.382812 122.703125 86.617188 121.738281 86.617188 C 120.347656 86.617188 120.308594 87.765625 120.292969 88.503906 L 118.359375 88.503906 C 118.359375 85.222656 120.761719 84.9375 121.65625 84.9375 C 123.585938 84.9375 125.121094 86.074219 125.121094 88.121094 M 124.894531 106.351562 C 124.894531 107.375 124.25 108.015625 123.683594 108.269531 L 123.683594 108.296875 C 124.039062 108.398438 125.207031 108.925781 125.207031 110.640625 C 125.207031 112.542969 123.800781 113.894531 121.769531 113.894531 C 120.816406 113.894531 118.257812 113.683594 118.257812 110.527344 L 120.207031 110.527344 L 120.191406 110.539062 C 120.191406 111.078125 120.335938 112.300781 121.667969 112.300781 C 122.464844 112.300781 123.15625 111.761719 123.15625 110.640625 C 123.15625 109.265625 121.824219 109.207031 120.894531 109.207031 L 120.894531 107.785156 L 121.214844 107.785156 C 121.8125 107.785156 122.902344 107.730469 122.902344 106.425781 C 122.902344 106.054688 122.734375 105.136719 121.640625 105.136719 C 120.277344 105.136719 120.277344 106.425781 120.277344 106.777344 L 118.429688 106.777344 C 118.429688 104.894531 119.496094 103.542969 121.765625 103.542969 C 123.117188 103.542969 124.894531 104.226562 124.894531 106.351562 M 122.277344 62.507812 L 130.671875 62.507812 L 130.671875 80.199219 L 122.277344 80.199219 L 122.277344 77.8125 L 128.28125 77.8125 L 128.28125 64.894531 L 122.277344 64.894531 Z M 99.65625 110.925781 L 101.644531 110.925781 C 101.730469 111.746094 102.171875 112.300781 103.050781 112.300781 C 104 112.300781 104.554688 111.492188 104.554688 110.414062 C 104.554688 109.519531 104.128906 108.609375 103.078125 108.609375 C 102.808594 108.609375 102.128906 108.625 101.746094 109.335938 L 99.96875 109.246094 L 100.664062 103.714844 L 106.203125 103.714844 L 106.203125 105.390625 L 102.101562 105.390625 L 101.746094 107.570312 C 102.113281 107.316406 102.566406 107.015625 103.546875 107.015625 C 104.894531 107.015625 106.601562 107.953125 106.601562 110.269531 C 106.601562 111.644531 105.90625 113.894531 102.9375 113.894531 C 101.359375 113.894531 99.753906 112.957031 99.65625 110.925781 M 102.761719 120.355469 L 85.070312 120.355469 L 85.070312 115.019531 L 91.074219 115.019531 L 91.074219 102.101562 L 85.070312 102.101562 L 85.070312 99.71875 L 102.761719 99.71875 L 102.761719 102.101562 L 96.761719 102.101562 L 96.761719 115.019531 L 102.761719 115.019531 Z M 81.109375 108.824219 C 81.109375 106.90625 81.363281 103.542969 84.859375 103.542969 C 85.269531 103.542969 86.421875 103.699219 86.917969 104.195312 C 87.472656 104.734375 87.671875 105.035156 87.859375 106.097656 L 85.878906 106.097656 C 85.824219 105.53125 85.453125 105.136719 84.71875 105.136719 C 83.425781 105.136719 83.128906 106.605469 83.054688 107.914062 L 83.085938 107.941406 C 83.355469 107.570312 83.851562 107.101562 84.972656 107.101562 C 87.0625 107.101562 88.058594 108.707031 88.058594 110.214844 C 88.058594 112.414062 86.703125 113.894531 84.757812 113.894531 C 81.703125 113.894531 81.109375 111.335938 81.109375 108.824219 M 84.160156 120.355469 L 66.46875 120.355469 L 66.46875 115.019531 L 72.472656 115.019531 L 72.472656 102.101562 L 66.46875 102.101562 L 66.46875 99.71875 L 84.160156 99.71875 L 84.160156 102.101562 L 78.15625 102.101562 L 78.15625 115.019531 L 84.160156 115.019531 Z M 63.84375 113.625 C 64.054688 109.59375 66.589844 106.386719 67.441406 105.476562 L 62.421875 105.476562 L 62.464844 103.714844 L 69.570312 103.714844 L 69.570312 105.25 C 68.605469 106.300781 66.132812 109.28125 65.890625 113.625 Z M 65.554688 120.355469 L 47.863281 120.355469 L 47.863281 115.019531 L 53.867188 115.019531 L 53.867188 102.101562 L 47.863281 102.101562 L 47.863281 99.71875 L 65.554688 99.71875 L 65.554688 102.101562 L 59.554688 102.101562 L 59.554688 115.019531 L 65.554688 115.019531 Z M 43.914062 110.824219 C 43.914062 110.3125 43.914062 108.980469 45.453125 108.269531 C 44.65625 107.871094 44.226562 107.230469 44.226562 106.296875 C 44.226562 104.578125 45.609375 103.542969 47.367188 103.542969 C 49.453125 103.542969 50.5625 104.777344 50.5625 106.167969 C 50.5625 107.035156 50.207031 107.769531 49.398438 108.199219 C 50.363281 108.679688 50.902344 109.320312 50.902344 110.625 C 50.902344 111.902344 50.082031 113.894531 47.410156 113.894531 C 44.808594 113.894531 43.914062 112.203125 43.914062 110.824219 M 99.648438 92.785156 L 99.648438 91.0625 L 103.359375 84.9375 L 105.621094 84.9375 L 105.621094 91.234375 L 106.742188 91.234375 L 106.742188 92.785156 L 105.621094 92.785156 L 105.621094 95.019531 L 103.628906 95.019531 L 103.628906 92.785156 Z M 131.582031 81.113281 L 131.582031 61.597656 L 121.367188 61.597656 L 121.367188 64.894531 L 115.363281 64.894531 L 115.363281 77.8125 L 121.367188 77.8125 L 121.367188 83.5 L 115.363281 83.5 L 115.363281 96.417969 L 121.367188 96.417969 L 121.367188 102.101562 L 115.363281 102.101562 L 115.363281 115.019531 L 121.367188 115.019531 L 121.367188 120.355469 L 103.675781 120.355469 L 103.675781 115.019531 L 109.679688 115.019531 L 109.679688 102.101562 L 103.675781 102.101562 L 103.675781 96.417969 L 109.679688 96.417969 L 109.679688 83.5 L 96.761719 83.5 L 96.761719 96.417969 L 102.761719 96.417969 L 102.761719 98.804688 L 46.957031 98.804688 C 46.953125 98.804688 46.953125 99.261719 46.953125 99.261719 L 46.953125 102.101562 L 40.949219 102.101562 L 40.949219 115.019531 L 46.953125 115.019531 L 46.953125 121.269531 L 122.277344 121.269531 L 122.277344 115.019531 L 128.28125 115.019531 L 128.28125 102.101562 L 122.277344 102.101562 L 122.277344 96.417969 L 128.28125 96.417969 L 128.28125 83.5 L 122.277344 83.5 L 122.277344 81.113281 Z M 131.582031 81.113281 "/>
<path fill-rule="nonzero" fill="rgb(0%, 0%, 0%)" fill-opacity="1" d="M 47.378906 109.136719 C 46.660156 109.136719 45.964844 109.605469 45.964844 110.699219 C 45.964844 111.664062 46.515625 112.300781 47.425781 112.300781 C 48.460938 112.300781 48.855469 111.40625 48.855469 110.710938 C 48.855469 110.003906 48.488281 109.136719 47.378906 109.136719 "/>
<path fill-rule="nonzero" fill="rgb(0%, 0%, 0%)" fill-opacity="1" d="M 47.425781 107.628906 C 48.203125 107.628906 48.660156 107.105469 48.660156 106.382812 C 48.660156 105.617188 48.132812 105.136719 47.496094 105.136719 C 46.601562 105.136719 46.132812 105.644531 46.132812 106.382812 C 46.132812 106.980469 46.574219 107.628906 47.425781 107.628906 "/>
<path fill-rule="nonzero" fill="rgb(0%, 0%, 0%)" fill-opacity="1" d="M 84.617188 108.695312 C 83.863281 108.695312 83.097656 109.164062 83.097656 110.425781 C 83.097656 111.519531 83.722656 112.300781 84.675781 112.300781 C 85.394531 112.300781 86.0625 111.746094 86.0625 110.382812 C 86.0625 109.105469 85.242188 108.695312 84.617188 108.695312 "/>
<path fill-rule="nonzero" fill="rgb(0%, 0%, 0%)" fill-opacity="1" d="M 103.671875 86.914062 L 103.644531 86.914062 L 101.113281 91.234375 L 103.628906 91.234375 C 103.628906 88.800781 103.671875 87.226562 103.671875 86.914062 "/>
</svg>
