<?xml version="1.0" encoding="UTF-8"?>
<svg xmlns="http://www.w3.org/2000/svg" xmlns:xlink="http://www.w3.org/1999/xlink" width="172" height="152" viewBox="0 0 172 152">
<path fill-rule="nonzero" fill="rgb(0%, 0%, 0%)" fill-opacity="1" d="M 78.820312 133.039062 L 69.65625 133.039062 L 69.65625 136.027344 L 66.726562 135.515625 L 66.726562 130.675781 L 82.125 130.675781 L 82.125 132.90625 L 74.867188 144.800781 L 71.347656 144.800781 Z M 78.820312 133.039062 "/>
<path fill-rule="nonzero" fill="rgb(0%, 0%, 0%)" fill-opacity="1" d="M 97.324219 139.164062 L 89.746094 139.164062 L 97.324219 132.953125 Z M 97.324219 144.714844 L 100.253906 144.714844 L 100.253906 141.472656 L 103.613281 141.472656 L 103.613281 139.164062 L 100.253906 139.164062 L 100.253906 130.507812 L 97.21875 130.507812 L 86.820312 139.164062 L 86.820312 141.472656 L 97.324219 141.472656 Z M 97.324219 144.714844 "/>
<path fill-rule="nonzero" fill="rgb(0%, 0%, 0%)" fill-opacity="1" d="M 94.371094 105.519531 L 94.339844 105.519531 L 91.8125 109.835938 L 94.328125 109.835938 C 94.328125 107.402344 94.371094 105.828125 94.371094 105.519531 "/>
<path fill-rule="nonzero" fill="rgb(0%, 0%, 0%)" fill-opacity="1" d="M 56.726562 107.628906 C 57.503906 107.628906 57.960938 107.105469 57.960938 106.382812 C 57.960938 105.617188 57.4375 105.136719 56.796875 105.136719 C 55.902344 105.136719 55.4375 105.644531 55.4375 106.382812 C 55.4375 106.980469 55.875 107.628906 56.726562 107.628906 "/>
<path fill-rule="nonzero" fill="rgb(0%, 0%, 0%)" fill-opacity="1" d="M 56.683594 109.136719 C 55.960938 109.136719 55.265625 109.605469 55.265625 110.699219 C 55.265625 111.664062 55.820312 112.300781 56.726562 112.300781 C 57.761719 112.300781 58.160156 111.40625 58.160156 110.710938 C 58.160156 110.003906 57.792969 109.136719 56.683594 109.136719 "/>
<path fill-rule="nonzero" fill="rgb(0%, 0%, 0%)" fill-opacity="1" d="M 76.761719 91.78125 C 76.761719 90.503906 75.941406 90.089844 75.316406 90.089844 C 74.5625 90.089844 73.796875 90.558594 73.796875 91.824219 C 73.796875 92.917969 74.421875 93.695312 75.375 93.695312 C 76.097656 93.695312 76.761719 93.140625 76.761719 91.78125 "/>
<path fill-rule="nonzero" fill="rgb(0%, 0%, 0%)" fill-opacity="1" d="M 111.949219 95.019531 L 111.949219 88.070312 L 109.546875 88.070312 L 109.546875 86.675781 L 109.832031 86.675781 C 111.75 86.675781 112.261719 85.6875 112.304688 84.9375 L 113.9375 84.9375 L 113.9375 95.019531 Z M 115.820312 106.722656 C 115.820312 108.457031 114.695312 109.332031 113.714844 110 C 112.382812 110.9375 111.6875 111.390625 111.457031 111.859375 L 115.832031 111.859375 L 115.832031 113.625 L 108.945312 113.625 C 109.015625 112.441406 109.101562 111.207031 111.289062 109.617188 C 113.105469 108.296875 113.828125 107.789062 113.828125 106.652344 C 113.828125 105.988281 113.402344 105.21875 112.4375 105.21875 C 111.046875 105.21875 111.003906 106.371094 110.992188 107.109375 L 109.058594 107.109375 C 109.058594 103.828125 111.457031 103.542969 112.351562 103.542969 C 114.28125 103.542969 115.820312 104.679688 115.820312 106.722656 M 112.976562 81.113281 L 121.371094 81.113281 L 121.371094 98.804688 L 112.976562 98.804688 L 112.976562 96.417969 L 118.984375 96.417969 L 118.984375 83.5 L 112.976562 83.5 Z M 90.347656 111.386719 L 90.347656 109.667969 L 94.058594 103.542969 L 96.320312 103.542969 L 96.320312 109.835938 L 97.441406 109.835938 L 97.441406 111.386719 L 96.320312 111.386719 L 96.320312 113.625 L 94.328125 113.625 L 94.328125 111.386719 Z M 90.355469 91.921875 L 92.300781 91.921875 L 92.289062 91.9375 C 92.289062 92.476562 92.429688 93.699219 93.765625 93.699219 C 94.558594 93.699219 95.253906 93.15625 95.253906 92.035156 C 95.253906 90.664062 93.917969 90.601562 92.988281 90.601562 L 92.988281 89.183594 L 93.308594 89.183594 C 93.90625 89.183594 94.996094 89.125 94.996094 87.820312 C 94.996094 87.453125 94.828125 86.53125 93.734375 86.53125 C 92.375 86.53125 92.375 87.820312 92.375 88.175781 L 90.523438 88.175781 C 90.523438 86.289062 91.589844 84.9375 93.863281 84.9375 C 95.210938 84.9375 96.988281 85.621094 96.988281 87.75 C 96.988281 88.773438 96.347656 89.410156 95.777344 89.667969 L 95.777344 89.695312 C 96.132812 89.792969 97.300781 90.320312 97.300781 92.035156 C 97.300781 93.941406 95.890625 95.292969 93.863281 95.292969 C 92.910156 95.292969 90.355469 95.074219 90.355469 91.921875 M 53.21875 110.824219 C 53.21875 110.316406 53.21875 108.980469 54.753906 108.269531 C 53.957031 107.871094 53.53125 107.230469 53.53125 106.296875 C 53.53125 104.578125 54.910156 103.542969 56.667969 103.542969 C 58.757812 103.542969 59.867188 104.78125 59.867188 106.167969 C 59.867188 107.035156 59.507812 107.773438 58.699219 108.199219 C 59.667969 108.679688 60.207031 109.320312 60.207031 110.625 C 60.207031 111.90625 59.382812 113.894531 56.710938 113.894531 C 54.113281 113.894531 53.21875 112.203125 53.21875 110.824219 M 54.542969 95.019531 C 54.757812 90.992188 57.285156 87.78125 58.136719 86.871094 L 53.121094 86.871094 L 53.164062 85.109375 L 60.273438 85.109375 L 60.273438 86.644531 C 59.304688 87.695312 56.832031 90.675781 56.589844 95.019531 Z M 71.808594 90.214844 C 71.808594 88.300781 72.0625 84.9375 75.558594 84.9375 C 75.96875 84.9375 77.117188 85.09375 77.617188 85.589844 C 78.171875 86.132812 78.371094 86.429688 78.554688 87.496094 L 76.578125 87.492188 C 76.523438 86.925781 76.152344 86.53125 75.414062 86.53125 C 74.125 86.53125 73.824219 88.003906 73.757812 89.308594 L 73.785156 89.335938 C 74.054688 88.96875 74.550781 88.5 75.671875 88.5 C 77.757812 88.5 78.753906 90.105469 78.753906 91.609375 C 78.753906 93.8125 77.402344 95.292969 75.457031 95.292969 C 72.402344 95.292969 71.808594 92.730469 71.808594 90.214844 M 71.75 73.714844 L 73.742188 73.714844 C 73.824219 74.542969 74.265625 75.09375 75.144531 75.09375 C 76.097656 75.09375 76.648438 74.285156 76.648438 73.207031 C 76.648438 72.308594 76.226562 71.402344 75.175781 71.402344 C 74.90625 71.402344 74.222656 71.417969 73.839844 72.125 L 72.0625 72.042969 L 72.761719 66.503906 L 78.300781 66.503906 L 78.300781 68.183594 L 74.195312 68.183594 L 73.839844 70.363281 C 74.207031 70.109375 74.664062 69.808594 75.644531 69.808594 C 76.992188 69.808594 78.695312 70.75 78.695312 73.0625 C 78.695312 74.441406 78 76.6875 75.03125 76.6875 C 73.457031 76.6875 71.851562 75.746094 71.75 73.714844 M 122.28125 99.714844 L 122.28125 80.203125 L 112.066406 80.203125 L 112.066406 83.5 L 106.0625 83.5 L 106.0625 96.417969 L 112.066406 96.417969 L 112.066406 102.101562 L 106.0625 102.101562 L 106.0625 115.023438 L 112.066406 115.023438 L 112.066406 120.359375 L 94.375 120.359375 L 94.375 115.023438 L 100.378906 115.023438 L 100.378906 102.101562 L 94.375 102.101562 L 94.375 96.417969 L 100.378906 96.417969 L 100.378906 83.5 L 87.457031 83.5 L 87.457031 96.417969 L 93.460938 96.417969 L 93.460938 102.101562 L 87.457031 102.101562 L 87.457031 115.023438 L 93.460938 115.023438 L 93.460938 120.359375 L 57.167969 120.359375 L 57.167969 115.023438 L 63.167969 115.023438 L 63.167969 102.101562 L 57.167969 102.101562 L 57.167969 99.714844 L 75.769531 99.714844 L 75.769531 96.417969 L 81.773438 96.417969 L 81.773438 83.5 L 75.769531 83.5 L 75.769531 77.816406 L 81.773438 77.816406 L 81.773438 64.894531 L 68.855469 64.894531 L 68.855469 77.816406 L 74.859375 77.816406 L 74.859375 83.5 L 68.855469 83.5 L 68.855469 96.417969 L 74.859375 96.417969 L 74.859375 98.804688 L 57.167969 98.804688 L 57.167969 96.417969 L 63.167969 96.417969 L 63.167969 83.5 L 50.25 83.5 L 50.25 96.417969 L 56.253906 96.417969 L 56.253906 102.101562 L 50.25 102.101562 L 50.25 115.023438 L 56.253906 115.023438 L 56.253906 121.269531 L 112.976562 121.269531 L 112.976562 115.023438 L 118.984375 115.023438 L 118.984375 102.101562 L 112.976562 102.101562 L 112.976562 99.714844 Z M 122.28125 99.714844 "/>
</svg>
