<?xml version="1.0" encoding="UTF-8"?>
<svg xmlns="http://www.w3.org/2000/svg" xmlns:xlink="http://www.w3.org/1999/xlink" width="172" height="152" viewBox="0 0 172 152">
<path fill-rule="nonzero" fill="rgb(0%, 0%, 0%)" fill-opacity="1" d="M 77.796875 139.570312 C 78.875 139.570312 79.117188 139.839844 79.117188 140.828125 L 79.117188 141.84375 C 79.117188 142.835938 78.875 143.078125 77.796875 143.078125 L 70.6875 143.078125 C 69.609375 143.078125 69.367188 142.863281 69.367188 141.84375 L 69.367188 140.828125 C 69.367188 139.839844 69.609375 139.570312 70.6875 139.570312 Z M 77.488281 134.074219 C 78.5625 134.074219 78.804688 134.34375 78.804688 135.34375 L 78.804688 136.046875 C 78.804688 137.050781 78.5625 137.320312 77.488281 137.320312 L 71.023438 137.320312 C 69.949219 137.320312 69.683594 137.050781 69.683594 136.046875 L 69.683594 135.34375 C 69.683594 134.34375 69.949219 134.074219 71.023438 134.074219 Z M 78.5625 131.710938 L 69.925781 131.710938 C 67.558594 131.710938 66.75 132.21875 66.75 134.425781 L 66.75 135.695312 C 66.75 137.320312 67.480469 138.015625 69.414062 138.390625 C 67.40625 138.605469 66.441406 139.464844 66.441406 141.148438 L 66.441406 142.59375 C 66.441406 144.746094 67.140625 145.578125 69.800781 145.578125 L 78.683594 145.578125 C 81.347656 145.578125 82.074219 144.746094 82.074219 142.59375 L 82.074219 141.148438 C 82.074219 139.464844 81.105469 138.605469 79.117188 138.390625 C 81.03125 138.015625 81.730469 137.320312 81.730469 135.695312 L 81.730469 134.425781 C 81.730469 132.21875 80.925781 131.710938 78.5625 131.710938 "/>
<path fill-rule="nonzero" fill="rgb(0%, 0%, 0%)" fill-opacity="1" d="M 88.914062 131.710938 L 100.898438 131.710938 L 100.65625 134.074219 L 90.980469 134.074219 L 90.660156 136.757812 C 92.78125 136.546875 94.636719 136.410156 96.277344 136.410156 C 100.84375 136.410156 103.15625 137.96875 103.15625 141.121094 C 103.15625 144.488281 100.710938 145.777344 95.523438 145.777344 C 92.542969 145.777344 90.3125 145.5625 88.832031 145.214844 L 88.136719 142.519531 C 90.660156 142.976562 93.078125 143.246094 95.441406 143.246094 C 98.722656 143.246094 100.171875 142.710938 100.171875 140.984375 C 100.171875 139.339844 98.695312 138.828125 95.632812 138.828125 C 93.722656 138.828125 91.226562 138.988281 88.136719 139.394531 L 88.914062 131.710938 "/>
<path fill-rule="nonzero" fill="rgb(0%, 0%, 0%)" fill-opacity="1" d="M 75.289062 109.136719 C 74.5625 109.136719 73.867188 109.605469 73.867188 110.695312 C 73.867188 111.660156 74.421875 112.300781 75.332031 112.300781 C 76.363281 112.300781 76.761719 111.40625 76.761719 110.710938 C 76.761719 110 76.390625 109.136719 75.289062 109.136719 "/>
<path fill-rule="nonzero" fill="rgb(0%, 0%, 0%)" fill-opacity="1" d="M 58.15625 73.175781 C 58.15625 71.898438 57.335938 71.488281 56.710938 71.488281 C 55.957031 71.488281 55.195312 71.957031 55.195312 73.21875 C 55.195312 74.3125 55.816406 75.09375 56.765625 75.09375 C 57.492188 75.09375 58.15625 74.539062 58.15625 73.175781 "/>
<path fill-rule="nonzero" fill="rgb(0%, 0%, 0%)" fill-opacity="1" d="M 75.765625 68.308594 L 75.738281 68.308594 L 73.207031 72.628906 L 75.722656 72.628906 C 75.722656 70.195312 75.765625 68.621094 75.765625 68.308594 "/>
<path fill-rule="nonzero" fill="rgb(0%, 0%, 0%)" fill-opacity="1" d="M 111.949219 95.019531 L 111.949219 88.070312 L 109.546875 88.070312 L 109.546875 86.675781 L 109.828125 86.675781 C 111.75 86.675781 112.257812 85.683594 112.300781 84.9375 L 113.9375 84.9375 L 113.9375 95.019531 Z M 115.816406 106.722656 C 115.816406 108.453125 114.695312 109.335938 113.714844 110 C 112.378906 110.9375 111.683594 111.390625 111.460938 111.859375 L 115.832031 111.859375 L 115.832031 113.621094 L 108.941406 113.621094 C 109.015625 112.445312 109.097656 111.207031 111.289062 109.621094 C 113.101562 108.296875 113.828125 107.789062 113.828125 106.652344 C 113.828125 105.984375 113.402344 105.21875 112.4375 105.21875 C 111.046875 105.21875 111.003906 106.367188 110.992188 107.105469 L 109.054688 107.105469 C 109.054688 103.824219 111.460938 103.542969 112.351562 103.542969 C 114.285156 103.542969 115.816406 104.679688 115.816406 106.722656 M 112.976562 81.113281 L 121.367188 81.113281 L 121.367188 98.804688 L 112.976562 98.804688 L 112.976562 96.417969 L 118.980469 96.417969 L 118.980469 83.5 L 112.976562 83.5 Z M 71.820312 110.828125 C 71.820312 110.3125 71.820312 108.980469 73.355469 108.269531 C 72.558594 107.871094 72.132812 107.234375 72.132812 106.296875 C 72.132812 104.582031 73.511719 103.542969 75.273438 103.542969 C 77.359375 103.542969 78.46875 104.777344 78.46875 106.167969 C 78.46875 107.035156 78.113281 107.773438 77.300781 108.199219 C 78.269531 108.679688 78.808594 109.320312 78.808594 110.625 C 78.808594 111.902344 77.984375 113.894531 75.316406 113.894531 C 72.714844 113.894531 71.820312 112.203125 71.820312 110.828125 M 71.75 92.320312 L 73.742188 92.320312 C 73.824219 93.144531 74.265625 93.699219 75.144531 93.699219 C 76.09375 93.699219 76.648438 92.886719 76.648438 91.808594 C 76.648438 90.914062 76.222656 90.007812 75.171875 90.007812 C 74.902344 90.007812 74.222656 90.023438 73.839844 90.730469 L 72.058594 90.644531 L 72.757812 85.109375 L 78.296875 85.109375 L 78.296875 86.789062 L 74.191406 86.789062 L 73.839844 88.96875 C 74.207031 88.710938 74.664062 88.414062 75.640625 88.414062 C 76.992188 88.414062 78.699219 89.351562 78.699219 91.667969 C 78.699219 93.042969 78 95.289062 75.03125 95.289062 C 73.457031 95.289062 71.847656 94.351562 71.75 92.320312 M 71.742188 74.179688 L 71.742188 72.460938 L 75.453125 66.332031 L 77.714844 66.332031 L 77.714844 72.628906 L 78.835938 72.628906 L 78.835938 74.179688 L 77.714844 74.179688 L 77.714844 76.417969 L 75.722656 76.417969 L 75.722656 74.179688 Z M 54.542969 95.019531 C 54.753906 90.988281 57.285156 87.78125 58.136719 86.875 L 53.121094 86.875 L 53.160156 85.109375 L 60.269531 85.109375 L 60.269531 86.644531 C 59.300781 87.695312 56.832031 90.675781 56.589844 95.019531 Z M 53.203125 71.613281 C 53.203125 69.699219 53.457031 66.332031 56.953125 66.332031 C 57.363281 66.332031 58.511719 66.492188 59.011719 66.988281 C 59.566406 67.527344 59.765625 67.828125 59.949219 68.890625 L 57.972656 68.890625 C 57.917969 68.324219 57.550781 67.925781 56.808594 67.925781 C 55.519531 67.925781 55.222656 69.402344 55.148438 70.707031 L 55.179688 70.734375 C 55.449219 70.363281 55.945312 69.894531 57.066406 69.894531 C 59.152344 69.894531 60.148438 71.5 60.148438 73.007812 C 60.148438 75.207031 58.796875 76.683594 56.851562 76.683594 C 53.800781 76.683594 53.203125 74.128906 53.203125 71.613281 M 90.351562 91.925781 L 92.300781 91.925781 L 92.285156 91.9375 C 92.285156 92.476562 92.425781 93.699219 93.761719 93.699219 C 94.554688 93.699219 95.253906 93.160156 95.253906 92.039062 C 95.253906 90.660156 93.917969 90.605469 92.988281 90.605469 L 92.988281 89.183594 L 93.308594 89.183594 C 93.902344 89.183594 94.996094 89.125 94.996094 87.820312 C 94.996094 87.453125 94.824219 86.53125 93.734375 86.53125 C 92.371094 86.53125 92.371094 87.820312 92.371094 88.175781 L 90.523438 88.175781 C 90.523438 86.289062 91.589844 84.9375 93.859375 84.9375 C 95.207031 84.9375 96.984375 85.621094 96.984375 87.75 C 96.984375 88.773438 96.34375 89.410156 95.777344 89.664062 L 95.777344 89.695312 C 96.132812 89.792969 97.300781 90.320312 97.300781 92.039062 C 97.300781 93.9375 95.890625 95.289062 93.859375 95.289062 C 92.910156 95.289062 90.351562 95.078125 90.351562 91.925781 M 122.28125 99.714844 L 122.28125 80.199219 L 112.0625 80.199219 L 112.0625 83.5 L 106.058594 83.5 L 106.058594 96.417969 L 112.0625 96.417969 L 112.0625 102.101562 L 106.058594 102.101562 L 106.058594 115.023438 L 112.0625 115.023438 L 112.0625 120.257812 L 75.769531 120.257812 L 75.769531 115.023438 L 81.773438 115.023438 L 81.773438 102.101562 L 75.769531 102.101562 L 75.769531 99.714844 L 94.375 99.714844 L 94.375 96.417969 L 100.378906 96.417969 L 100.378906 83.5 L 87.457031 83.5 L 87.457031 96.417969 L 93.460938 96.417969 L 93.460938 98.804688 L 75.769531 98.804688 L 75.769531 96.417969 L 81.773438 96.417969 L 81.773438 83.5 L 75.769531 83.5 L 75.769531 77.8125 L 81.773438 77.8125 L 81.773438 64.894531 L 68.855469 64.894531 L 68.855469 77.8125 L 74.855469 77.8125 L 74.855469 83.5 L 68.855469 83.5 L 68.855469 96.417969 L 74.855469 96.417969 L 74.855469 98.804688 L 57.167969 98.804688 L 57.167969 96.417969 L 63.171875 96.417969 L 63.171875 83.5 L 57.167969 83.5 L 57.167969 77.8125 L 63.171875 77.8125 L 63.171875 64.894531 L 50.25 64.894531 L 50.25 77.8125 L 56.253906 77.8125 L 56.253906 83.5 L 50.25 83.5 L 50.25 96.417969 L 56.253906 96.417969 L 56.253906 99.714844 L 74.855469 99.714844 L 74.855469 102.101562 L 68.855469 102.101562 L 68.855469 115.023438 L 74.855469 115.023438 L 74.855469 121.167969 L 112.976562 121.167969 L 112.976562 115.023438 L 118.980469 115.023438 L 118.980469 102.101562 L 112.976562 102.101562 L 112.976562 99.714844 Z M 122.28125 99.714844 "/>
<path fill-rule="nonzero" fill="rgb(0%, 0%, 0%)" fill-opacity="1" d="M 75.332031 107.628906 C 76.109375 107.628906 76.5625 107.105469 76.5625 106.382812 C 76.5625 105.617188 76.039062 105.132812 75.398438 105.132812 C 74.507812 105.132812 74.039062 105.644531 74.039062 106.382812 C 74.039062 106.976562 74.476562 107.628906 75.332031 107.628906 "/>
</svg>
