<?xml version="1.0" encoding="UTF-8"?>
<svg xmlns="http://www.w3.org/2000/svg" xmlns:xlink="http://www.w3.org/1999/xlink" width="172" height="152" viewBox="0 0 172 152">
<path fill-rule="nonzero" fill="rgb(0%, 0%, 0%)" fill-opacity="1" d="M 69.882812 139.324219 C 72.003906 139.109375 74.070312 139 76.027344 139 C 78.363281 139 79.089844 139.296875 79.089844 140.664062 L 79.089844 141.414062 C 79.089844 142.648438 78.550781 143.078125 76.566406 143.078125 L 72.703125 143.078125 C 70.042969 143.078125 69.828125 142.542969 69.828125 140.128906 C 69.828125 139.914062 69.828125 139.644531 69.882812 139.324219 M 70.070312 137.230469 C 71.117188 134.292969 73.960938 133.648438 79.113281 133.648438 L 80.003906 133.648438 L 78.09375 131.421875 C 77.773438 131.394531 77.425781 131.367188 77.101562 131.367188 C 70.605469 131.367188 66.871094 134.320312 66.871094 139.484375 L 66.871094 141.308594 C 66.871094 144.609375 68 145.578125 71.4375 145.578125 L 77.289062 145.578125 C 80.511719 145.578125 82.046875 144.53125 82.046875 142.191406 L 82.046875 140.316406 C 82.046875 137.5 80.433594 136.753906 76.191406 136.753906 C 74.042969 136.753906 72.003906 136.9375 70.070312 137.230469 "/>
<path fill-rule="nonzero" fill="rgb(0%, 0%, 0%)" fill-opacity="1" d="M 99.589844 134.074219 L 90.425781 134.074219 L 90.425781 137.0625 L 87.496094 136.550781 L 87.496094 131.710938 L 102.894531 131.710938 L 102.894531 133.9375 L 95.640625 145.835938 L 92.121094 145.835938 Z M 99.589844 134.074219 "/>
<path fill-rule="nonzero" fill="rgb(0%, 0%, 0%)" fill-opacity="1" d="M 94.371094 105.519531 L 94.339844 105.519531 L 91.8125 109.835938 L 94.328125 109.835938 C 94.328125 107.402344 94.371094 105.832031 94.371094 105.519531 "/>
<path fill-rule="nonzero" fill="rgb(0%, 0%, 0%)" fill-opacity="1" d="M 56.726562 107.628906 C 57.503906 107.628906 57.960938 107.105469 57.960938 106.382812 C 57.960938 105.617188 57.433594 105.132812 56.796875 105.132812 C 55.902344 105.132812 55.4375 105.644531 55.4375 106.382812 C 55.4375 106.976562 55.875 107.628906 56.726562 107.628906 "/>
<path fill-rule="nonzero" fill="rgb(0%, 0%, 0%)" fill-opacity="1" d="M 75.316406 108.695312 C 74.5625 108.695312 73.796875 109.164062 73.796875 110.425781 C 73.796875 111.519531 74.421875 112.300781 75.371094 112.300781 C 76.09375 112.300781 76.761719 111.75 76.761719 110.382812 C 76.761719 109.105469 75.941406 108.695312 75.316406 108.695312 "/>
<path fill-rule="nonzero" fill="rgb(0%, 0%, 0%)" fill-opacity="1" d="M 56.683594 109.136719 C 55.960938 109.136719 55.265625 109.605469 55.265625 110.699219 C 55.265625 111.660156 55.816406 112.300781 56.726562 112.300781 C 57.761719 112.300781 58.160156 111.40625 58.160156 110.710938 C 58.160156 110 57.789062 109.136719 56.683594 109.136719 "/>
<path fill-rule="nonzero" fill="rgb(0%, 0%, 0%)" fill-opacity="1" d="M 111.949219 95.023438 L 111.949219 88.070312 L 109.546875 88.070312 L 109.546875 86.675781 L 109.828125 86.675781 C 111.75 86.675781 112.261719 85.6875 112.304688 84.9375 L 113.9375 84.9375 L 113.9375 95.023438 Z M 115.820312 106.722656 C 115.820312 108.457031 114.695312 109.335938 113.714844 110 C 112.378906 110.9375 111.683594 111.390625 111.457031 111.859375 L 115.832031 111.859375 L 115.832031 113.625 L 108.945312 113.625 C 109.015625 112.441406 109.101562 111.207031 111.289062 109.617188 C 113.105469 108.296875 113.828125 107.789062 113.828125 106.652344 C 113.828125 105.984375 113.402344 105.21875 112.4375 105.21875 C 111.046875 105.21875 111.003906 106.371094 110.992188 107.105469 L 109.054688 107.105469 C 109.054688 103.828125 111.457031 103.542969 112.351562 103.542969 C 114.28125 103.542969 115.820312 104.679688 115.820312 106.722656 M 112.976562 81.113281 L 121.367188 81.113281 L 121.367188 98.804688 L 112.976562 98.804688 L 112.976562 96.417969 L 118.980469 96.417969 L 118.980469 83.5 L 112.976562 83.5 Z M 90.347656 111.386719 L 90.347656 109.667969 L 94.054688 103.542969 L 96.316406 103.542969 L 96.316406 109.835938 L 97.441406 109.835938 L 97.441406 111.386719 L 96.316406 111.386719 L 96.316406 113.625 L 94.328125 113.625 L 94.328125 111.386719 Z M 90.351562 91.925781 L 92.300781 91.925781 L 92.285156 91.941406 C 92.285156 92.476562 92.429688 93.699219 93.761719 93.699219 C 94.554688 93.699219 95.25 93.160156 95.25 92.039062 C 95.25 90.660156 93.917969 90.605469 92.988281 90.605469 L 92.988281 89.183594 L 93.308594 89.183594 C 93.90625 89.183594 94.996094 89.125 94.996094 87.820312 C 94.996094 87.453125 94.824219 86.53125 93.734375 86.53125 C 92.371094 86.53125 92.371094 87.820312 92.371094 88.175781 L 90.523438 88.175781 C 90.523438 86.289062 91.59375 84.9375 93.863281 84.9375 C 95.207031 84.9375 96.988281 85.621094 96.988281 87.75 C 96.988281 88.769531 96.347656 89.410156 95.777344 89.667969 L 95.777344 89.695312 C 96.136719 89.792969 97.300781 90.320312 97.300781 92.039062 C 97.300781 93.9375 95.890625 95.289062 93.863281 95.289062 C 92.910156 95.289062 90.351562 95.078125 90.351562 91.925781 M 71.804688 108.824219 C 71.804688 106.90625 72.0625 103.542969 75.558594 103.542969 C 75.96875 103.542969 77.117188 103.699219 77.617188 104.195312 C 78.167969 104.738281 78.371094 105.035156 78.554688 106.097656 L 76.578125 106.097656 C 76.519531 105.53125 76.152344 105.132812 75.414062 105.132812 C 74.121094 105.132812 73.824219 106.609375 73.753906 107.914062 L 73.78125 107.941406 C 74.050781 107.570312 74.550781 107.101562 75.671875 107.101562 C 77.757812 107.101562 78.753906 108.710938 78.753906 110.210938 C 78.753906 112.417969 77.402344 113.894531 75.457031 113.894531 C 72.402344 113.894531 71.804688 111.335938 71.804688 108.824219 M 71.75 92.320312 L 73.738281 92.320312 C 73.824219 93.144531 74.265625 93.699219 75.144531 93.699219 C 76.09375 93.699219 76.648438 92.886719 76.648438 91.808594 C 76.648438 90.914062 76.222656 90.007812 75.171875 90.007812 C 74.902344 90.007812 74.222656 90.019531 73.839844 90.730469 L 72.0625 90.644531 L 72.761719 85.109375 L 78.300781 85.109375 L 78.300781 86.789062 L 74.195312 86.789062 L 73.839844 88.96875 C 74.207031 88.710938 74.664062 88.414062 75.640625 88.414062 C 76.992188 88.414062 78.695312 89.351562 78.695312 91.667969 C 78.695312 93.046875 78 95.289062 75.03125 95.289062 C 73.457031 95.289062 71.851562 94.351562 71.75 92.320312 M 53.214844 110.828125 C 53.214844 110.316406 53.214844 108.980469 54.753906 108.269531 C 53.957031 107.871094 53.53125 107.234375 53.53125 106.296875 C 53.53125 104.582031 54.910156 103.542969 56.667969 103.542969 C 58.757812 103.542969 59.863281 104.777344 59.863281 106.167969 C 59.863281 107.035156 59.511719 107.773438 58.699219 108.199219 C 59.664062 108.679688 60.207031 109.324219 60.207031 110.625 C 60.207031 111.902344 59.382812 113.894531 56.710938 113.894531 C 54.113281 113.894531 53.214844 112.203125 53.214844 110.828125 M 54.542969 95.023438 C 54.753906 90.988281 57.285156 87.78125 58.136719 86.875 L 53.121094 86.875 L 53.160156 85.109375 L 60.269531 85.109375 L 60.269531 86.644531 C 59.304688 87.695312 56.832031 90.675781 56.589844 95.023438 Z M 122.277344 99.714844 L 122.277344 80.203125 L 112.066406 80.203125 L 112.066406 83.5 L 106.0625 83.5 L 106.0625 96.417969 L 112.066406 96.417969 L 112.066406 102.101562 L 106.0625 102.101562 L 106.0625 115.023438 L 112.066406 115.023438 L 112.066406 120.507812 L 94.375 120.507812 L 94.375 115.023438 L 100.375 115.023438 L 100.375 102.101562 L 94.375 102.101562 L 94.375 96.417969 L 100.375 96.417969 L 100.375 83.5 L 87.457031 83.5 L 87.457031 96.417969 L 93.460938 96.417969 L 93.460938 102.101562 L 87.457031 102.101562 L 87.457031 115.023438 L 93.460938 115.023438 L 93.460938 120.507812 L 75.769531 120.507812 L 75.769531 115.023438 L 81.773438 115.023438 L 81.773438 102.101562 L 75.769531 102.101562 L 75.769531 96.417969 L 81.773438 96.417969 L 81.773438 83.5 L 68.855469 83.5 L 68.855469 96.417969 L 74.859375 96.417969 L 74.859375 102.101562 L 68.855469 102.101562 L 68.855469 115.023438 L 74.859375 115.023438 L 74.859375 120.507812 L 57.167969 120.507812 L 57.167969 115.023438 L 63.167969 115.023438 L 63.167969 102.101562 L 57.167969 102.101562 L 57.167969 96.417969 L 63.167969 96.417969 L 63.167969 83.5 L 50.25 83.5 L 50.25 96.417969 L 56.253906 96.417969 L 56.253906 102.101562 L 50.25 102.101562 L 50.25 115.023438 L 56.253906 115.023438 L 56.253906 121.421875 L 112.976562 121.421875 L 112.976562 115.023438 L 118.980469 115.023438 L 118.980469 102.101562 L 112.976562 102.101562 L 112.976562 99.714844 Z M 122.277344 99.714844 "/>
</svg>
