<?xml version="1.0" encoding="UTF-8"?>
<svg xmlns="http://www.w3.org/2000/svg" xmlns:xlink="http://www.w3.org/1999/xlink" width="172" height="152" viewBox="0 0 172 152">
<path fill-rule="nonzero" fill="rgb(0%, 0%, 0%)" fill-opacity="1" d="M 68.144531 131.710938 L 80.128906 131.710938 L 79.886719 134.070312 L 70.210938 134.070312 L 69.890625 136.761719 C 72.011719 136.546875 73.867188 136.410156 75.503906 136.410156 C 80.074219 136.410156 82.386719 137.96875 82.386719 141.117188 C 82.386719 144.484375 79.941406 145.777344 74.753906 145.777344 C 71.769531 145.777344 69.539062 145.5625 68.0625 145.214844 L 67.363281 142.519531 C 69.890625 142.980469 72.308594 143.246094 74.671875 143.246094 C 77.949219 143.246094 79.402344 142.707031 79.402344 140.984375 C 79.402344 139.339844 77.925781 138.828125 74.859375 138.828125 C 72.953125 138.828125 70.453125 138.992188 67.363281 139.394531 L 68.144531 131.710938 "/>
<path fill-rule="nonzero" fill="rgb(0%, 0%, 0%)" fill-opacity="1" d="M 94.164062 134.339844 L 91.207031 134.339844 L 91.207031 132.484375 L 97.089844 131.597656 L 97.089844 145.578125 L 94.164062 145.578125 Z M 94.164062 134.339844 "/>
<path fill-rule="nonzero" fill="rgb(0%, 0%, 0%)" fill-opacity="1" d="M 47.425781 107.628906 C 48.203125 107.628906 48.660156 107.105469 48.660156 106.382812 C 48.660156 105.617188 48.132812 105.132812 47.496094 105.132812 C 46.601562 105.132812 46.136719 105.644531 46.136719 106.382812 C 46.136719 106.980469 46.574219 107.628906 47.425781 107.628906 "/>
<path fill-rule="nonzero" fill="rgb(0%, 0%, 0%)" fill-opacity="1" d="M 66.464844 68.3125 L 66.433594 68.3125 L 63.90625 72.628906 L 66.421875 72.628906 C 66.421875 70.195312 66.464844 68.625 66.464844 68.3125 "/>
<path fill-rule="nonzero" fill="rgb(0%, 0%, 0%)" fill-opacity="1" d="M 47.382812 109.136719 C 46.660156 109.136719 45.964844 109.605469 45.964844 110.699219 C 45.964844 111.660156 46.515625 112.300781 47.425781 112.300781 C 48.460938 112.300781 48.855469 111.40625 48.855469 110.710938 C 48.855469 110.003906 48.484375 109.136719 47.382812 109.136719 "/>
<path fill-rule="nonzero" fill="rgb(0%, 0%, 0%)" fill-opacity="1" d="M 48.855469 73.175781 C 48.855469 71.898438 48.03125 71.488281 47.410156 71.488281 C 46.65625 71.488281 45.894531 71.953125 45.894531 73.21875 C 45.894531 74.3125 46.515625 75.09375 47.46875 75.09375 C 48.191406 75.09375 48.855469 74.539062 48.855469 73.175781 "/>
<path fill-rule="nonzero" fill="rgb(0%, 0%, 0%)" fill-opacity="1" d="M 123.242188 113.625 L 121.25 113.625 L 121.25 106.671875 L 118.847656 106.671875 L 118.847656 105.277344 L 119.132812 105.277344 C 121.050781 105.277344 121.5625 104.289062 121.605469 103.539062 L 123.242188 103.539062 Z M 99.640625 113.621094 C 99.714844 112.441406 99.796875 111.207031 101.988281 109.617188 C 103.800781 108.296875 104.527344 107.785156 104.527344 106.652344 C 104.527344 105.984375 104.101562 105.21875 103.136719 105.21875 C 101.746094 105.21875 101.703125 106.367188 101.691406 107.105469 L 99.753906 107.105469 C 99.753906 103.824219 102.15625 103.542969 103.050781 103.542969 C 104.980469 103.542969 106.515625 104.679688 106.515625 106.722656 C 106.515625 108.453125 105.394531 109.335938 104.414062 110 C 103.078125 110.9375 102.382812 111.390625 102.15625 111.859375 L 106.53125 111.859375 L 106.53125 113.621094 Z M 43.914062 110.824219 C 43.914062 110.3125 43.914062 108.980469 45.453125 108.269531 C 44.65625 107.871094 44.230469 107.230469 44.230469 106.296875 C 44.230469 104.582031 45.609375 103.542969 47.367188 103.542969 C 49.453125 103.542969 50.5625 104.777344 50.5625 106.167969 C 50.5625 107.03125 50.207031 107.769531 49.398438 108.199219 C 50.363281 108.679688 50.90625 109.320312 50.90625 110.625 C 50.90625 111.902344 50.082031 113.894531 47.410156 113.894531 C 44.808594 113.894531 43.914062 112.199219 43.914062 110.824219 M 45.242188 95.019531 C 45.453125 90.988281 47.984375 87.78125 48.835938 86.871094 L 43.820312 86.871094 L 43.859375 85.109375 L 50.96875 85.109375 L 50.96875 86.644531 C 50 87.695312 47.53125 90.675781 47.289062 95.019531 Z M 43.902344 71.613281 C 43.902344 69.699219 44.15625 66.335938 47.652344 66.335938 C 48.0625 66.335938 49.210938 66.492188 49.710938 66.988281 C 50.265625 67.527344 50.464844 67.828125 50.648438 68.890625 L 48.671875 68.890625 C 48.617188 68.320312 48.246094 67.925781 47.507812 67.925781 C 46.21875 67.925781 45.921875 69.398438 45.847656 70.703125 L 45.878906 70.734375 C 46.148438 70.363281 46.644531 69.894531 47.765625 69.894531 C 49.851562 69.894531 50.847656 71.5 50.847656 73.007812 C 50.847656 75.207031 49.496094 76.6875 47.550781 76.6875 C 44.496094 76.6875 43.902344 74.128906 43.902344 71.613281 M 47.863281 62.507812 L 56.253906 62.507812 L 56.253906 80.199219 L 47.863281 80.199219 L 47.863281 77.8125 L 53.867188 77.8125 L 53.867188 64.894531 L 47.863281 64.894531 Z M 62.449219 92.320312 L 64.4375 92.320312 C 64.523438 93.144531 64.964844 93.695312 65.84375 93.695312 C 66.792969 93.695312 67.347656 92.886719 67.347656 91.808594 C 67.347656 90.914062 66.921875 90.007812 65.871094 90.007812 C 65.601562 90.007812 64.921875 90.019531 64.535156 90.730469 L 62.757812 90.644531 L 63.457031 85.109375 L 68.996094 85.109375 L 68.996094 86.785156 L 64.894531 86.785156 L 64.535156 88.96875 C 64.90625 88.714844 65.363281 88.414062 66.339844 88.414062 C 67.6875 88.414062 69.394531 89.351562 69.394531 91.664062 C 69.394531 93.046875 68.699219 95.289062 65.730469 95.289062 C 64.15625 95.289062 62.546875 94.351562 62.449219 92.320312 M 62.441406 74.179688 L 62.441406 72.460938 L 66.152344 66.335938 L 68.414062 66.335938 L 68.414062 72.628906 L 69.535156 72.628906 L 69.535156 74.179688 L 68.414062 74.179688 L 68.414062 76.414062 L 66.421875 76.414062 L 66.421875 74.179688 Z M 81.050781 73.320312 L 83 73.320312 L 82.984375 73.335938 C 82.984375 73.871094 83.125 75.09375 84.460938 75.09375 C 85.253906 75.09375 85.949219 74.554688 85.949219 73.433594 C 85.949219 72.058594 84.617188 72 83.6875 72 L 83.6875 70.578125 L 84.003906 70.578125 C 84.601562 70.578125 85.695312 70.523438 85.695312 69.21875 C 85.695312 68.847656 85.523438 67.925781 84.433594 67.925781 C 83.070312 67.925781 83.070312 69.21875 83.070312 69.570312 L 81.222656 69.570312 C 81.222656 67.683594 82.289062 66.335938 84.558594 66.335938 C 85.90625 66.335938 87.683594 67.015625 87.683594 69.144531 C 87.683594 70.167969 87.042969 70.804688 86.476562 71.0625 L 86.476562 71.089844 C 86.832031 71.1875 87.996094 71.714844 87.996094 73.433594 C 87.996094 75.335938 86.589844 76.6875 84.558594 76.6875 C 83.609375 76.6875 81.050781 76.472656 81.050781 73.320312 M 115.363281 102.105469 L 115.363281 115.019531 L 121.367188 115.019531 L 121.367188 120.507812 L 103.675781 120.507812 L 103.675781 115.019531 L 109.679688 115.019531 L 109.679688 102.105469 L 96.757812 102.105469 L 96.757812 115.019531 L 102.761719 115.019531 L 102.761719 120.507812 L 47.863281 120.507812 L 47.863281 115.019531 L 53.867188 115.019531 L 53.867188 102.105469 L 47.863281 102.105469 L 47.863281 99.71875 L 66.46875 99.71875 L 66.46875 96.417969 L 72.46875 96.417969 L 72.46875 83.5 L 66.46875 83.5 L 66.46875 81.113281 L 85.074219 81.113281 L 85.074219 77.8125 L 91.074219 77.8125 L 91.074219 64.894531 L 78.15625 64.894531 L 78.15625 77.8125 L 84.160156 77.8125 L 84.160156 80.199219 L 66.46875 80.199219 L 66.46875 77.8125 L 72.46875 77.8125 L 72.46875 64.894531 L 59.554688 64.894531 L 59.554688 77.8125 L 65.554688 77.8125 L 65.554688 83.5 L 59.554688 83.5 L 59.554688 96.417969 L 65.554688 96.417969 L 65.554688 98.804688 L 47.863281 98.804688 L 47.863281 96.417969 L 53.867188 96.417969 L 53.867188 83.5 L 47.863281 83.5 L 47.863281 81.113281 L 57.167969 81.113281 L 57.167969 61.597656 L 46.953125 61.597656 L 46.953125 64.894531 L 40.949219 64.894531 L 40.949219 77.8125 L 46.953125 77.8125 L 46.953125 83.5 L 40.949219 83.5 L 40.949219 96.417969 L 46.953125 96.417969 L 46.953125 102.105469 L 40.949219 102.105469 L 40.949219 115.019531 L 46.953125 115.019531 L 46.953125 121.421875 L 122.277344 121.421875 L 122.277344 115.019531 L 128.28125 115.019531 L 128.28125 102.105469 Z M 115.363281 102.105469 "/>
</svg>
