<?xml version="1.0" encoding="UTF-8"?>
<svg xmlns="http://www.w3.org/2000/svg" xmlns:xlink="http://www.w3.org/1999/xlink" width="172" height="152" viewBox="0 0 172 152">
<path fill-rule="nonzero" fill="rgb(0%, 0%, 0%)" fill-opacity="1" d="M 77.792969 139.570312 C 78.871094 139.570312 79.113281 139.839844 79.113281 140.828125 L 79.113281 141.84375 C 79.113281 142.835938 78.871094 143.078125 77.792969 143.078125 L 70.6875 143.078125 C 69.609375 143.078125 69.367188 142.863281 69.367188 141.84375 L 69.367188 140.828125 C 69.367188 139.839844 69.609375 139.570312 70.6875 139.570312 Z M 77.484375 134.074219 C 78.5625 134.074219 78.804688 134.34375 78.804688 135.34375 L 78.804688 136.046875 C 78.804688 137.050781 78.5625 137.320312 77.484375 137.320312 L 71.023438 137.320312 C 69.949219 137.320312 69.683594 137.050781 69.683594 136.046875 L 69.683594 135.34375 C 69.683594 134.34375 69.949219 134.074219 71.023438 134.074219 Z M 78.5625 131.710938 L 69.921875 131.710938 C 67.558594 131.710938 66.75 132.21875 66.75 134.425781 L 66.75 135.695312 C 66.75 137.320312 67.476562 138.015625 69.410156 138.390625 C 67.40625 138.605469 66.4375 139.464844 66.4375 141.148438 L 66.4375 142.59375 C 66.4375 144.746094 67.136719 145.578125 69.800781 145.578125 L 78.683594 145.578125 C 81.347656 145.578125 82.074219 144.746094 82.074219 142.59375 L 82.074219 141.148438 C 82.074219 139.464844 81.105469 138.605469 79.113281 138.390625 C 81.03125 138.015625 81.730469 137.320312 81.730469 135.695312 L 81.730469 134.425781 C 81.730469 132.21875 80.925781 131.710938 78.5625 131.710938 "/>
<path fill-rule="nonzero" fill="rgb(0%, 0%, 0%)" fill-opacity="1" d="M 98.566406 139.570312 C 99.644531 139.570312 99.886719 139.839844 99.886719 140.828125 L 99.886719 141.84375 C 99.886719 142.835938 99.644531 143.078125 98.566406 143.078125 L 91.457031 143.078125 C 90.382812 143.078125 90.140625 142.863281 90.140625 141.84375 L 90.140625 140.828125 C 90.140625 139.839844 90.382812 139.570312 91.457031 139.570312 Z M 98.257812 134.074219 C 99.332031 134.074219 99.574219 134.34375 99.574219 135.34375 L 99.574219 136.046875 C 99.574219 137.050781 99.332031 137.320312 98.257812 137.320312 L 91.792969 137.320312 C 90.722656 137.320312 90.453125 137.050781 90.453125 136.046875 L 90.453125 135.34375 C 90.453125 134.34375 90.722656 134.074219 91.792969 134.074219 Z M 99.332031 131.710938 L 90.695312 131.710938 C 88.332031 131.710938 87.523438 132.21875 87.523438 134.425781 L 87.523438 135.695312 C 87.523438 137.320312 88.25 138.015625 90.183594 138.390625 C 88.179688 138.605469 87.210938 139.464844 87.210938 141.148438 L 87.210938 142.59375 C 87.210938 144.746094 87.910156 145.578125 90.570312 145.578125 L 99.457031 145.578125 C 102.117188 145.578125 102.84375 144.746094 102.84375 142.59375 L 102.84375 141.148438 C 102.84375 139.464844 101.875 138.605469 99.886719 138.390625 C 101.804688 138.015625 102.503906 137.320312 102.503906 135.695312 L 102.503906 134.425781 C 102.503906 132.21875 101.695312 131.710938 99.332031 131.710938 "/>
<path fill-rule="nonzero" fill="rgb(0%, 0%, 0%)" fill-opacity="1" d="M 38.121094 107.628906 C 38.902344 107.628906 39.355469 107.105469 39.355469 106.382812 C 39.355469 105.617188 38.832031 105.132812 38.191406 105.132812 C 37.300781 105.132812 36.832031 105.644531 36.832031 106.382812 C 36.832031 106.976562 37.269531 107.628906 38.121094 107.628906 "/>
<path fill-rule="nonzero" fill="rgb(0%, 0%, 0%)" fill-opacity="1" d="M 38.078125 109.136719 C 37.355469 109.136719 36.660156 109.605469 36.660156 110.695312 C 36.660156 111.660156 37.214844 112.300781 38.121094 112.300781 C 39.15625 112.300781 39.554688 111.40625 39.554688 110.710938 C 39.554688 110 39.183594 109.136719 38.078125 109.136719 "/>
<path fill-rule="nonzero" fill="rgb(0%, 0%, 0%)" fill-opacity="1" d="M 75.316406 108.695312 C 74.5625 108.695312 73.796875 109.164062 73.796875 110.425781 C 73.796875 111.519531 74.417969 112.300781 75.371094 112.300781 C 76.09375 112.300781 76.761719 111.75 76.761719 110.382812 C 76.761719 109.105469 75.9375 108.695312 75.316406 108.695312 "/>
<path fill-rule="nonzero" fill="rgb(0%, 0%, 0%)" fill-opacity="1" d="M 112.929688 109.839844 C 112.929688 107.402344 112.972656 105.832031 112.972656 105.519531 L 112.945312 105.519531 L 110.414062 109.839844 Z M 112.929688 109.839844 "/>
<path fill-rule="nonzero" fill="rgb(0%, 0%, 0%)" fill-opacity="1" d="M 139.96875 79.167969 L 131.578125 79.167969 L 131.578125 77.8125 L 137.585938 77.8125 L 137.585938 64.894531 L 131.578125 64.894531 L 131.578125 62.507812 L 139.96875 62.507812 Z M 130.550781 76.417969 L 130.550781 69.464844 L 128.148438 69.464844 L 128.148438 68.070312 L 128.433594 68.070312 C 130.351562 68.070312 130.863281 67.082031 130.90625 66.332031 L 132.542969 66.332031 L 132.542969 76.417969 Z M 108.941406 76.414062 C 109.011719 75.234375 109.097656 73.996094 111.289062 72.410156 C 113.105469 71.089844 113.828125 70.578125 113.828125 69.445312 C 113.828125 68.777344 113.402344 68.011719 112.4375 68.011719 C 111.046875 68.011719 111.003906 69.160156 110.992188 69.898438 L 109.058594 69.898438 C 109.058594 66.617188 111.457031 66.335938 112.351562 66.335938 C 114.28125 66.335938 115.820312 67.472656 115.820312 69.515625 C 115.820312 71.246094 114.695312 72.128906 113.710938 72.792969 C 112.378906 73.730469 111.6875 74.183594 111.457031 74.648438 L 115.832031 74.648438 L 115.832031 76.414062 Z M 115.589844 87.75 C 115.589844 88.773438 114.949219 89.410156 114.382812 89.664062 L 114.382812 89.695312 C 114.738281 89.792969 115.902344 90.320312 115.902344 92.035156 C 115.902344 93.9375 114.496094 95.289062 112.464844 95.289062 C 111.515625 95.289062 108.957031 95.074219 108.957031 91.925781 L 110.90625 91.925781 L 110.890625 91.9375 C 110.890625 92.476562 111.03125 93.699219 112.367188 93.699219 C 113.160156 93.699219 113.855469 93.15625 113.855469 92.035156 C 113.855469 90.660156 112.523438 90.605469 111.589844 90.605469 L 111.589844 89.183594 L 111.910156 89.183594 C 112.507812 89.183594 113.601562 89.125 113.601562 87.820312 C 113.601562 87.453125 113.429688 86.53125 112.335938 86.53125 C 110.976562 86.53125 110.976562 87.820312 110.976562 88.175781 L 109.125 88.175781 C 109.125 86.289062 110.195312 84.9375 112.464844 84.9375 C 113.8125 84.9375 115.589844 85.621094 115.589844 87.75 M 114.921875 103.542969 L 114.921875 109.839844 L 116.042969 109.839844 L 116.042969 111.386719 L 114.921875 111.386719 L 114.921875 113.625 L 112.929688 113.625 L 112.929688 111.386719 L 108.949219 111.386719 L 108.949219 109.664062 L 112.660156 103.542969 Z M 112.066406 120.257812 L 94.371094 120.257812 L 94.371094 115.023438 L 100.375 115.023438 L 100.375 102.101562 L 94.371094 102.101562 L 94.371094 99.714844 L 112.066406 99.714844 L 112.066406 102.101562 L 106.0625 102.101562 L 106.0625 115.023438 L 112.066406 115.023438 Z M 90.351562 110.925781 L 92.34375 110.925781 C 92.425781 111.746094 92.867188 112.300781 93.746094 112.300781 C 94.699219 112.300781 95.25 111.492188 95.25 110.414062 C 95.25 109.519531 94.828125 108.609375 93.777344 108.609375 C 93.507812 108.609375 92.824219 108.625 92.441406 109.332031 L 90.664062 109.25 L 91.363281 103.710938 L 96.902344 103.710938 L 96.902344 105.390625 L 92.796875 105.390625 L 92.441406 107.570312 C 92.8125 107.3125 93.265625 107.019531 94.242188 107.019531 C 95.59375 107.019531 97.300781 107.953125 97.300781 110.269531 C 97.300781 111.648438 96.601562 113.894531 93.632812 113.894531 C 92.058594 113.894531 90.453125 112.953125 90.351562 110.925781 M 93.460938 120.257812 L 75.769531 120.257812 L 75.769531 115.023438 L 81.773438 115.023438 L 81.773438 102.101562 L 75.769531 102.101562 L 75.769531 99.714844 L 93.460938 99.714844 L 93.460938 102.101562 L 87.457031 102.101562 L 87.457031 115.023438 L 93.460938 115.023438 Z M 71.804688 108.820312 C 71.804688 106.90625 72.0625 103.542969 75.554688 103.542969 C 75.96875 103.542969 77.117188 103.699219 77.617188 104.195312 C 78.167969 104.734375 78.367188 105.035156 78.554688 106.097656 L 76.578125 106.097656 C 76.519531 105.53125 76.152344 105.132812 75.414062 105.132812 C 74.121094 105.132812 73.824219 106.605469 73.753906 107.910156 L 73.78125 107.941406 C 74.050781 107.570312 74.546875 107.105469 75.667969 107.105469 C 77.757812 107.105469 78.753906 108.710938 78.753906 110.214844 C 78.753906 112.414062 77.402344 113.894531 75.457031 113.894531 C 72.402344 113.894531 71.804688 111.335938 71.804688 108.820312 M 74.859375 120.257812 L 57.164062 120.257812 L 57.164062 115.023438 L 63.167969 115.023438 L 63.167969 102.101562 L 57.164062 102.101562 L 57.164062 99.714844 L 74.859375 99.714844 L 74.859375 102.101562 L 68.855469 102.101562 L 68.855469 115.023438 L 74.859375 115.023438 Z M 54.539062 113.625 C 54.753906 109.59375 57.285156 106.386719 58.140625 105.476562 L 53.117188 105.476562 L 53.160156 103.710938 L 60.269531 103.710938 L 60.269531 105.25 C 59.304688 106.300781 56.832031 109.28125 56.589844 113.625 Z M 56.253906 120.257812 L 38.5625 120.257812 L 38.5625 115.023438 L 44.566406 115.023438 L 44.566406 102.101562 L 38.5625 102.101562 L 38.5625 99.714844 L 56.253906 99.714844 L 56.253906 102.101562 L 50.25 102.101562 L 50.25 115.023438 L 56.253906 115.023438 Z M 34.613281 110.824219 C 34.613281 110.3125 34.613281 108.980469 36.148438 108.269531 C 35.351562 107.871094 34.925781 107.230469 34.925781 106.296875 C 34.925781 104.578125 36.304688 103.542969 38.066406 103.542969 C 40.152344 103.542969 41.261719 104.777344 41.261719 106.171875 C 41.261719 107.035156 40.90625 107.773438 40.09375 108.199219 C 41.0625 108.683594 41.601562 109.320312 41.601562 110.628906 C 41.601562 111.902344 40.777344 113.894531 38.105469 113.894531 C 35.507812 113.894531 34.613281 112.203125 34.613281 110.824219 M 131.125 61.597656 L 130.667969 61.597656 L 130.667969 64.894531 L 124.664062 64.894531 L 124.664062 77.8125 L 130.667969 77.8125 L 130.667969 81.234375 L 112.976562 81.234375 L 112.976562 77.8125 L 118.980469 77.8125 L 118.980469 64.894531 L 106.0625 64.894531 L 106.0625 77.8125 L 112.066406 77.8125 L 112.066406 83.496094 L 106.0625 83.496094 L 106.0625 96.417969 L 112.066406 96.417969 L 112.066406 98.804688 L 37.648438 98.804688 L 37.648438 102.101562 L 31.644531 102.101562 L 31.644531 115.023438 L 37.648438 115.023438 L 37.648438 121.171875 L 112.976562 121.171875 L 112.976562 115.023438 L 118.980469 115.023438 L 118.980469 102.101562 L 112.976562 102.101562 L 112.976562 96.417969 L 118.980469 96.417969 L 118.980469 83.496094 L 112.976562 83.496094 L 112.976562 82.144531 L 131.578125 82.144531 L 131.578125 80.078125 L 140.882812 80.078125 L 140.882812 61.597656 Z M 131.125 61.597656 "/>
</svg>
