<?xml version="1.0" encoding="UTF-8"?>
<svg xmlns="http://www.w3.org/2000/svg" xmlns:xlink="http://www.w3.org/1999/xlink" width="172" height="152" viewBox="0 0 172 152">
<path fill-rule="nonzero" fill="rgb(0%, 0%, 0%)" fill-opacity="1" d="M 69.882812 139.324219 C 72 139.109375 74.066406 139.003906 76.027344 139.003906 C 78.359375 139.003906 79.085938 139.296875 79.085938 140.664062 L 79.085938 141.414062 C 79.085938 142.648438 78.550781 143.078125 76.566406 143.078125 L 72.699219 143.078125 C 70.039062 143.078125 69.828125 142.542969 69.828125 140.128906 C 69.828125 139.914062 69.828125 139.644531 69.882812 139.324219 M 70.066406 137.234375 C 71.113281 134.296875 73.960938 133.644531 79.113281 133.644531 L 80 133.644531 L 78.09375 131.421875 C 77.769531 131.394531 77.421875 131.367188 77.101562 131.367188 C 70.605469 131.367188 66.867188 134.320312 66.867188 139.484375 L 66.867188 141.308594 C 66.867188 144.609375 67.996094 145.582031 71.4375 145.582031 L 77.289062 145.582031 C 80.511719 145.582031 82.042969 144.53125 82.042969 142.191406 L 82.042969 140.3125 C 82.042969 137.503906 80.429688 136.75 76.1875 136.75 C 74.039062 136.75 72 136.9375 70.066406 137.234375 "/>
<path fill-rule="nonzero" fill="rgb(0%, 0%, 0%)" fill-opacity="1" d="M 87.609375 142.863281 L 87.609375 141.734375 L 90.457031 141.140625 L 90.457031 143.078125 L 97.917969 143.078125 C 98.992188 143.078125 99.257812 142.835938 99.257812 141.839844 L 99.257812 140.820312 C 99.257812 139.828125 98.992188 139.554688 97.914062 139.570312 L 93.230469 139.570312 L 93.230469 137.320312 L 97.402344 137.320312 C 98.476562 137.320312 98.71875 137.050781 98.71875 136.050781 L 98.71875 135.34375 C 98.71875 134.34375 98.476562 134.074219 97.402344 134.074219 L 90.542969 134.074219 L 90.542969 135.804688 L 87.804688 135.289062 L 87.804688 134.425781 C 87.804688 132.21875 88.609375 131.710938 90.972656 131.710938 L 98.476562 131.710938 C 100.839844 131.710938 101.648438 132.21875 101.648438 134.425781 L 101.648438 135.699219 C 101.648438 137.347656 100.949219 138.015625 98.964844 138.324219 C 101.167969 138.535156 102.1875 139.394531 102.1875 141.140625 L 102.1875 142.59375 C 102.1875 144.746094 101.492188 145.582031 98.832031 145.582031 L 90.777344 145.582031 C 88.414062 145.582031 87.609375 145.066406 87.609375 142.863281 "/>
<path fill-rule="nonzero" fill="rgb(0%, 0%, 0%)" fill-opacity="1" d="M 47.421875 107.632812 C 48.203125 107.632812 48.65625 107.105469 48.65625 106.382812 C 48.65625 105.617188 48.132812 105.136719 47.496094 105.136719 C 46.601562 105.136719 46.136719 105.644531 46.136719 106.382812 C 46.136719 106.980469 46.574219 107.632812 47.421875 107.632812 "/>
<path fill-rule="nonzero" fill="rgb(0%, 0%, 0%)" fill-opacity="1" d="M 85.070312 86.914062 L 85.039062 86.914062 L 82.511719 91.234375 L 85.023438 91.234375 C 85.023438 88.800781 85.070312 87.226562 85.070312 86.914062 "/>
<path fill-rule="nonzero" fill="rgb(0%, 0%, 0%)" fill-opacity="1" d="M 47.382812 109.136719 C 46.65625 109.136719 45.964844 109.605469 45.964844 110.699219 C 45.964844 111.664062 46.515625 112.300781 47.421875 112.300781 C 48.460938 112.300781 48.859375 111.40625 48.859375 110.714844 C 48.859375 110.003906 48.488281 109.136719 47.382812 109.136719 "/>
<path fill-rule="nonzero" fill="rgb(0%, 0%, 0%)" fill-opacity="1" d="M 48.855469 91.78125 C 48.855469 90.503906 48.035156 90.089844 47.410156 90.089844 C 46.660156 90.089844 45.890625 90.558594 45.890625 91.824219 C 45.890625 92.917969 46.515625 93.699219 47.46875 93.699219 C 48.191406 93.699219 48.855469 93.144531 48.855469 91.78125 "/>
<path fill-rule="nonzero" fill="rgb(0%, 0%, 0%)" fill-opacity="1" d="M 141.84375 113.625 L 139.855469 113.625 L 139.855469 106.675781 L 137.453125 106.675781 L 137.453125 105.28125 L 137.738281 105.28125 C 139.65625 105.28125 140.167969 104.289062 140.207031 103.542969 L 141.84375 103.542969 Z M 118.242188 113.621094 C 118.316406 112.441406 118.402344 111.207031 120.589844 109.617188 C 122.40625 108.300781 123.128906 107.789062 123.128906 106.652344 C 123.128906 105.984375 122.707031 105.222656 121.738281 105.222656 C 120.351562 105.222656 120.308594 106.367188 120.292969 107.105469 L 118.359375 107.105469 C 118.359375 103.828125 120.761719 103.542969 121.65625 103.542969 C 123.585938 103.542969 125.121094 104.679688 125.121094 106.726562 C 125.121094 108.453125 123.996094 109.335938 123.019531 110 C 121.683594 110.9375 120.988281 111.390625 120.761719 111.859375 L 125.136719 111.859375 L 125.136719 113.621094 Z M 99.65625 110.527344 L 101.605469 110.527344 L 101.589844 110.542969 C 101.589844 111.082031 101.730469 112.300781 103.066406 112.300781 C 103.859375 112.300781 104.554688 111.761719 104.554688 110.640625 C 104.554688 109.265625 103.21875 109.207031 102.289062 109.207031 L 102.289062 107.789062 L 102.613281 107.789062 C 103.207031 107.789062 104.296875 107.730469 104.296875 106.425781 C 104.296875 106.054688 104.128906 105.136719 103.035156 105.136719 C 101.675781 105.136719 101.675781 106.425781 101.675781 106.777344 L 99.824219 106.777344 C 99.824219 104.894531 100.894531 103.542969 103.164062 103.542969 C 104.511719 103.542969 106.289062 104.226562 106.289062 106.355469 C 106.289062 107.375 105.648438 108.015625 105.082031 108.269531 L 105.082031 108.296875 C 105.4375 108.398438 106.605469 108.925781 106.605469 110.640625 C 106.605469 112.542969 105.195312 113.894531 103.164062 113.894531 C 102.214844 113.894531 99.65625 113.679688 99.65625 110.527344 M 43.914062 110.828125 C 43.914062 110.3125 43.914062 108.980469 45.449219 108.269531 C 44.65625 107.871094 44.230469 107.234375 44.230469 106.300781 C 44.230469 104.582031 45.609375 103.542969 47.367188 103.542969 C 49.453125 103.542969 50.5625 104.777344 50.5625 106.171875 C 50.5625 107.035156 50.207031 107.773438 49.398438 108.199219 C 50.367188 108.683594 50.90625 109.320312 50.90625 110.628906 C 50.90625 111.902344 50.078125 113.894531 47.410156 113.894531 C 44.8125 113.894531 43.914062 112.199219 43.914062 110.828125 M 43.902344 90.21875 C 43.902344 88.304688 44.15625 84.9375 47.652344 84.9375 C 48.0625 84.9375 49.210938 85.097656 49.710938 85.59375 C 50.265625 86.132812 50.464844 86.433594 50.648438 87.496094 L 48.671875 87.496094 C 48.617188 86.929688 48.246094 86.53125 47.507812 86.53125 C 46.21875 86.53125 45.917969 88.003906 45.847656 89.308594 L 45.878906 89.339844 C 46.148438 88.96875 46.644531 88.5 47.765625 88.5 C 49.851562 88.5 50.851562 90.105469 50.851562 91.609375 C 50.851562 93.8125 49.496094 95.289062 47.550781 95.289062 C 44.496094 95.289062 43.902344 92.734375 43.902344 90.21875 M 26.636719 95.019531 C 26.847656 90.988281 29.382812 87.78125 30.234375 86.875 L 25.214844 86.875 L 25.257812 85.109375 L 32.363281 85.109375 L 32.363281 86.644531 C 31.398438 87.695312 28.925781 90.679688 28.683594 95.019531 Z M 62.449219 92.320312 L 64.4375 92.320312 C 64.523438 93.144531 64.964844 93.699219 65.84375 93.699219 C 66.792969 93.699219 67.347656 92.890625 67.347656 91.8125 C 67.347656 90.914062 66.921875 90.007812 65.871094 90.007812 C 65.601562 90.007812 64.917969 90.019531 64.535156 90.730469 L 62.757812 90.644531 L 63.457031 85.109375 L 68.996094 85.109375 L 68.996094 86.789062 L 64.894531 86.789062 L 64.535156 88.96875 C 64.90625 88.714844 65.363281 88.414062 66.339844 88.414062 C 67.6875 88.414062 69.394531 89.351562 69.394531 91.667969 C 69.394531 93.046875 68.699219 95.289062 65.730469 95.289062 C 64.15625 95.289062 62.546875 94.351562 62.449219 92.320312 M 81.046875 92.785156 L 81.046875 91.0625 L 84.753906 84.9375 L 87.019531 84.9375 L 87.019531 91.234375 L 88.140625 91.234375 L 88.140625 92.785156 L 87.019531 92.785156 L 87.019531 95.019531 L 85.023438 95.019531 L 85.023438 92.785156 Z M 85.074219 81.113281 L 93.464844 81.113281 L 93.464844 97.769531 L 85.074219 97.769531 L 85.074219 96.417969 L 91.074219 96.417969 L 91.074219 83.5 L 85.074219 83.5 Z M 133.96875 102.105469 L 133.96875 115.023438 L 139.972656 115.023438 L 139.972656 120.511719 L 122.28125 120.511719 L 122.28125 115.023438 L 128.285156 115.023438 L 128.285156 102.105469 L 115.363281 102.105469 L 115.363281 115.023438 L 121.367188 115.023438 L 121.367188 120.511719 L 103.675781 120.511719 L 103.675781 115.023438 L 109.679688 115.023438 L 109.679688 102.105469 L 96.757812 102.105469 L 96.757812 115.023438 L 102.765625 115.023438 L 102.765625 120.511719 L 47.863281 120.511719 L 47.863281 115.023438 L 53.867188 115.023438 L 53.867188 102.105469 L 47.863281 102.105469 L 47.863281 100.75 L 85.074219 100.75 L 85.074219 98.683594 L 94.375 98.683594 L 94.375 80.199219 L 84.160156 80.199219 L 84.160156 83.5 L 78.15625 83.5 L 78.15625 96.417969 L 84.160156 96.417969 L 84.160156 99.839844 L 66.46875 99.839844 L 66.46875 96.417969 L 72.472656 96.417969 L 72.472656 83.5 L 59.550781 83.5 L 59.550781 96.417969 L 65.558594 96.417969 L 65.558594 99.839844 L 47.863281 99.839844 L 47.863281 96.417969 L 53.867188 96.417969 L 53.867188 83.5 L 40.949219 83.5 L 40.949219 96.417969 L 46.953125 96.417969 L 46.953125 99.839844 L 29.261719 99.839844 L 29.261719 96.417969 L 35.265625 96.417969 L 35.265625 83.5 L 22.347656 83.5 L 22.347656 96.417969 L 28.351562 96.417969 L 28.351562 100.75 L 46.953125 100.75 L 46.953125 102.105469 L 40.949219 102.105469 L 40.949219 115.023438 L 46.953125 115.023438 L 46.953125 121.421875 L 140.882812 121.421875 L 140.882812 115.023438 L 146.886719 115.023438 L 146.886719 102.105469 Z M 133.96875 102.105469 "/>
</svg>
