<?xml version="1.0" encoding="UTF-8"?>
<svg xmlns="http://www.w3.org/2000/svg" xmlns:xlink="http://www.w3.org/1999/xlink" width="172" height="152" viewBox="0 0 172 152">
<path fill-rule="nonzero" fill="rgb(0%, 0%, 0%)" fill-opacity="1" d="M 69.882812 139.324219 C 72 139.109375 74.066406 139.003906 76.027344 139.003906 C 78.363281 139.003906 79.085938 139.296875 79.085938 140.664062 L 79.085938 141.414062 C 79.085938 142.648438 78.550781 143.078125 76.5625 143.078125 L 72.699219 143.078125 C 70.042969 143.078125 69.828125 142.542969 69.828125 140.128906 C 69.828125 139.914062 69.828125 139.644531 69.882812 139.324219 M 70.070312 137.234375 C 71.113281 134.296875 73.964844 133.644531 79.113281 133.644531 L 80 133.644531 L 78.09375 131.421875 C 77.773438 131.394531 77.421875 131.367188 77.101562 131.367188 C 70.605469 131.367188 66.867188 134.320312 66.867188 139.484375 L 66.867188 141.308594 C 66.867188 144.609375 67.996094 145.582031 71.4375 145.582031 L 77.289062 145.582031 C 80.511719 145.582031 82.042969 144.53125 82.042969 142.191406 L 82.042969 140.3125 C 82.042969 137.503906 80.429688 136.75 76.1875 136.75 C 74.039062 136.75 72 136.9375 70.070312 137.234375 "/>
<path fill-rule="nonzero" fill="rgb(0%, 0%, 0%)" fill-opacity="1" d="M 94.160156 134.339844 L 91.207031 134.339844 L 91.207031 132.484375 L 97.09375 131.597656 L 97.09375 145.578125 L 94.160156 145.578125 Z M 94.160156 134.339844 "/>
<path fill-rule="nonzero" fill="rgb(0%, 0%, 0%)" fill-opacity="1" d="M 75.765625 86.914062 L 75.738281 86.914062 L 73.207031 91.234375 L 75.722656 91.234375 C 75.722656 88.800781 75.765625 87.226562 75.765625 86.914062 "/>
<path fill-rule="nonzero" fill="rgb(0%, 0%, 0%)" fill-opacity="1" d="M 56.683594 109.136719 C 55.960938 109.136719 55.265625 109.605469 55.265625 110.699219 C 55.265625 111.664062 55.816406 112.300781 56.726562 112.300781 C 57.761719 112.300781 58.160156 111.40625 58.160156 110.714844 C 58.160156 110.003906 57.789062 109.136719 56.683594 109.136719 "/>
<path fill-rule="nonzero" fill="rgb(0%, 0%, 0%)" fill-opacity="1" d="M 39.554688 73.179688 C 39.554688 71.898438 38.730469 71.488281 38.109375 71.488281 C 37.355469 71.488281 36.589844 71.957031 36.589844 73.21875 C 36.589844 74.3125 37.214844 75.09375 38.164062 75.09375 C 38.890625 75.09375 39.554688 74.539062 39.554688 73.179688 "/>
<path fill-rule="nonzero" fill="rgb(0%, 0%, 0%)" fill-opacity="1" d="M 56.726562 107.632812 C 57.503906 107.632812 57.960938 107.105469 57.960938 106.382812 C 57.960938 105.617188 57.4375 105.136719 56.796875 105.136719 C 55.902344 105.136719 55.4375 105.644531 55.4375 106.382812 C 55.4375 106.980469 55.875 107.632812 56.726562 107.632812 "/>
<path fill-rule="nonzero" fill="rgb(0%, 0%, 0%)" fill-opacity="1" d="M 132.542969 113.625 L 130.550781 113.625 L 130.550781 106.675781 L 128.152344 106.675781 L 128.152344 105.28125 L 128.433594 105.28125 C 130.355469 105.28125 130.863281 104.289062 130.90625 103.542969 L 132.542969 103.542969 Z M 108.941406 113.621094 C 109.015625 112.441406 109.101562 111.207031 111.289062 109.617188 C 113.105469 108.300781 113.828125 107.789062 113.828125 106.652344 C 113.828125 105.984375 113.402344 105.222656 112.4375 105.222656 C 111.046875 105.222656 111.003906 106.367188 110.988281 107.105469 L 109.058594 107.105469 C 109.058594 103.828125 111.460938 103.542969 112.351562 103.542969 C 114.28125 103.542969 115.820312 104.679688 115.820312 106.726562 C 115.820312 108.453125 114.695312 109.335938 113.714844 110 C 112.382812 110.9375 111.6875 111.390625 111.460938 111.859375 L 115.835938 111.859375 L 115.835938 113.621094 Z M 90.355469 110.527344 L 92.304688 110.527344 L 92.289062 110.542969 C 92.289062 111.082031 92.429688 112.300781 93.761719 112.300781 C 94.558594 112.300781 95.253906 111.761719 95.253906 110.640625 C 95.253906 109.265625 93.917969 109.207031 92.988281 109.207031 L 92.988281 107.789062 L 93.308594 107.789062 C 93.90625 107.789062 94.996094 107.730469 94.996094 106.425781 C 94.996094 106.054688 94.824219 105.136719 93.734375 105.136719 C 92.371094 105.136719 92.371094 106.425781 92.371094 106.777344 L 90.523438 106.777344 C 90.523438 104.894531 91.59375 103.542969 93.859375 103.542969 C 95.210938 103.542969 96.988281 104.226562 96.988281 106.355469 C 96.988281 107.375 96.347656 108.015625 95.777344 108.269531 L 95.777344 108.296875 C 96.136719 108.398438 97.300781 108.925781 97.300781 110.640625 C 97.300781 112.542969 95.894531 113.894531 93.859375 113.894531 C 92.910156 113.894531 90.355469 113.679688 90.355469 110.527344 M 53.21875 110.828125 C 53.21875 110.3125 53.21875 108.980469 54.753906 108.269531 C 53.957031 107.871094 53.527344 107.234375 53.527344 106.300781 C 53.527344 104.582031 54.910156 103.542969 56.667969 103.542969 C 58.757812 103.542969 59.867188 104.777344 59.867188 106.171875 C 59.867188 107.035156 59.507812 107.773438 58.699219 108.199219 C 59.667969 108.683594 60.207031 109.320312 60.207031 110.628906 C 60.207031 111.902344 59.382812 113.894531 56.714844 113.894531 C 54.113281 113.894531 53.21875 112.199219 53.21875 110.828125 M 53.148438 92.320312 L 55.136719 92.320312 C 55.222656 93.144531 55.660156 93.699219 56.539062 93.699219 C 57.492188 93.699219 58.046875 92.890625 58.046875 91.8125 C 58.046875 90.914062 57.621094 90.007812 56.566406 90.007812 C 56.300781 90.007812 55.617188 90.019531 55.234375 90.730469 L 53.457031 90.644531 L 54.15625 85.109375 L 59.695312 85.109375 L 59.695312 86.789062 L 55.59375 86.789062 L 55.234375 88.96875 C 55.605469 88.714844 56.058594 88.414062 57.035156 88.414062 C 58.386719 88.414062 60.09375 89.351562 60.09375 91.667969 C 60.09375 93.046875 59.398438 95.289062 56.429688 95.289062 C 54.851562 95.289062 53.246094 94.351562 53.148438 92.320312 M 35.9375 95.019531 C 36.148438 90.988281 38.683594 87.78125 39.535156 86.875 L 34.515625 86.875 L 34.558594 85.109375 L 41.667969 85.109375 L 41.667969 86.644531 C 40.699219 87.695312 38.230469 90.679688 37.984375 95.019531 Z M 34.597656 71.613281 C 34.597656 69.699219 34.855469 66.335938 38.347656 66.335938 C 38.761719 66.335938 39.910156 66.492188 40.410156 66.988281 C 40.964844 67.527344 41.160156 67.828125 41.347656 68.894531 L 39.371094 68.890625 C 39.316406 68.324219 38.945312 67.925781 38.207031 67.925781 C 36.914062 67.925781 36.617188 69.398438 36.546875 70.707031 L 36.578125 70.734375 C 36.84375 70.367188 37.34375 69.894531 38.460938 69.894531 C 40.550781 69.894531 41.546875 71.503906 41.546875 73.007812 C 41.546875 75.207031 40.195312 76.6875 38.25 76.6875 C 35.195312 76.6875 34.597656 74.128906 34.597656 71.613281 M 71.742188 92.785156 L 71.742188 91.0625 L 75.453125 84.9375 L 77.714844 84.9375 L 77.714844 91.234375 L 78.835938 91.234375 L 78.835938 92.785156 L 77.714844 92.785156 L 77.714844 95.019531 L 75.722656 95.019531 L 75.722656 92.785156 Z M 75.769531 81.113281 L 84.160156 81.113281 L 84.160156 97.769531 L 75.769531 97.769531 L 75.769531 96.417969 L 81.773438 96.417969 L 81.773438 83.5 L 75.769531 83.5 Z M 124.667969 102.105469 L 124.667969 115.023438 L 130.671875 115.023438 L 130.671875 120.511719 L 112.976562 120.511719 L 112.976562 115.023438 L 118.980469 115.023438 L 118.980469 102.105469 L 106.0625 102.105469 L 106.0625 115.023438 L 112.066406 115.023438 L 112.066406 120.511719 L 94.371094 120.511719 L 94.371094 115.023438 L 100.378906 115.023438 L 100.378906 102.105469 L 87.457031 102.105469 L 87.457031 115.023438 L 93.460938 115.023438 L 93.460938 120.511719 L 57.164062 120.511719 L 57.164062 115.023438 L 63.171875 115.023438 L 63.171875 102.105469 L 57.164062 102.105469 L 57.164062 100.75 L 75.769531 100.75 L 75.769531 98.683594 L 85.070312 98.683594 L 85.070312 80.199219 L 74.859375 80.199219 L 74.859375 83.5 L 68.855469 83.5 L 68.855469 96.417969 L 74.859375 96.417969 L 74.859375 99.839844 L 57.164062 99.839844 L 57.164062 96.417969 L 63.171875 96.417969 L 63.171875 83.5 L 50.253906 83.5 L 50.253906 96.417969 L 56.253906 96.417969 L 56.253906 99.839844 L 38.5625 99.839844 L 38.5625 96.417969 L 44.566406 96.417969 L 44.566406 83.5 L 38.5625 83.5 L 38.5625 77.8125 L 44.566406 77.8125 L 44.566406 64.894531 L 31.648438 64.894531 L 31.648438 77.8125 L 37.648438 77.8125 L 37.648438 83.5 L 31.648438 83.5 L 31.648438 96.417969 L 37.648438 96.417969 L 37.648438 100.75 L 56.253906 100.75 L 56.253906 102.105469 L 50.253906 102.105469 L 50.253906 115.023438 L 56.253906 115.023438 L 56.253906 121.421875 L 131.582031 121.421875 L 131.582031 115.023438 L 137.585938 115.023438 L 137.585938 102.105469 Z M 124.667969 102.105469 "/>
</svg>
