<?xml version="1.0" encoding="UTF-8"?>
<svg xmlns="http://www.w3.org/2000/svg" xmlns:xlink="http://www.w3.org/1999/xlink" width="172" height="152" viewBox="0 0 172 152">
<path fill-rule="nonzero" fill="rgb(0%, 0%, 0%)" fill-opacity="1" d="M 78.820312 133.039062 L 69.652344 133.039062 L 69.652344 136.027344 L 66.726562 135.515625 L 66.726562 130.675781 L 82.125 130.675781 L 82.125 132.90625 L 74.867188 144.800781 L 71.347656 144.800781 Z M 78.820312 133.039062 "/>
<path fill-rule="nonzero" fill="rgb(0%, 0%, 0%)" fill-opacity="1" d="M 87.609375 141.828125 L 87.609375 140.699219 L 90.457031 140.109375 L 90.457031 142.042969 L 97.921875 142.042969 C 98.996094 142.042969 99.261719 141.804688 99.261719 140.808594 L 99.261719 139.785156 C 99.261719 138.792969 98.996094 138.523438 97.914062 138.535156 L 93.234375 138.535156 L 93.234375 136.285156 L 97.402344 136.285156 C 98.480469 136.285156 98.722656 136.015625 98.722656 135.015625 L 98.722656 134.3125 C 98.722656 133.308594 98.480469 133.039062 97.402344 133.039062 L 90.542969 133.039062 L 90.542969 134.769531 L 87.808594 134.257812 L 87.808594 133.390625 C 87.808594 131.1875 88.613281 130.675781 90.972656 130.675781 L 98.480469 130.675781 C 100.84375 130.675781 101.652344 131.1875 101.652344 133.390625 L 101.652344 134.664062 C 101.652344 136.3125 100.949219 136.984375 98.96875 137.285156 C 101.171875 137.503906 102.191406 138.363281 102.191406 140.109375 L 102.191406 141.558594 C 102.191406 143.710938 101.492188 144.542969 98.832031 144.542969 L 90.78125 144.542969 C 88.417969 144.542969 87.609375 144.035156 87.609375 141.828125 "/>
<path fill-rule="nonzero" fill="rgb(0%, 0%, 0%)" fill-opacity="1" d="M 75.316406 108.695312 C 74.5625 108.695312 73.796875 109.164062 73.796875 110.425781 C 73.796875 111.519531 74.421875 112.300781 75.375 112.300781 C 76.097656 112.300781 76.761719 111.746094 76.761719 110.382812 C 76.761719 109.105469 75.941406 108.695312 75.316406 108.695312 "/>
<path fill-rule="nonzero" fill="rgb(0%, 0%, 0%)" fill-opacity="1" d="M 132.542969 113.625 L 130.550781 113.625 L 130.550781 106.671875 L 128.152344 106.671875 L 128.152344 105.277344 L 128.433594 105.277344 C 130.351562 105.277344 130.867188 104.289062 130.90625 103.542969 L 132.542969 103.542969 Z M 108.957031 110.527344 L 110.90625 110.527344 L 110.890625 110.539062 C 110.890625 111.078125 111.035156 112.300781 112.367188 112.300781 C 113.164062 112.300781 113.859375 111.761719 113.859375 110.640625 C 113.859375 109.265625 112.523438 109.207031 111.59375 109.207031 L 111.59375 107.785156 L 111.914062 107.785156 C 112.507812 107.785156 113.601562 107.730469 113.601562 106.425781 C 113.601562 106.054688 113.429688 105.136719 112.339844 105.136719 C 110.976562 105.136719 110.976562 106.425781 110.976562 106.777344 L 109.128906 106.777344 C 109.128906 104.894531 110.195312 103.542969 112.464844 103.542969 C 113.8125 103.542969 115.59375 104.226562 115.59375 106.351562 C 115.59375 107.375 114.953125 108.015625 114.382812 108.269531 L 114.382812 108.296875 C 114.738281 108.398438 115.90625 108.925781 115.90625 110.640625 C 115.90625 112.542969 114.5 113.894531 112.46875 113.894531 C 111.515625 113.894531 108.957031 113.683594 108.957031 110.527344 M 108.945312 95.019531 C 109.015625 93.839844 109.101562 92.605469 111.289062 91.015625 C 113.105469 89.695312 113.828125 89.1875 113.828125 88.050781 C 113.828125 87.382812 113.402344 86.617188 112.4375 86.617188 C 111.046875 86.617188 111.003906 87.765625 110.992188 88.503906 L 109.058594 88.503906 C 109.058594 85.222656 111.460938 84.9375 112.351562 84.9375 C 114.285156 84.9375 115.820312 86.074219 115.820312 88.121094 C 115.820312 89.851562 114.695312 90.730469 113.714844 91.394531 C 112.382812 92.335938 111.6875 92.785156 111.460938 93.257812 L 115.835938 93.257812 L 115.835938 95.019531 Z M 112.976562 81.113281 L 121.371094 81.113281 L 121.371094 98.804688 L 112.976562 98.804688 L 112.976562 96.417969 L 118.980469 96.417969 L 118.980469 83.5 L 112.976562 83.5 Z M 90.351562 110.925781 L 92.34375 110.925781 C 92.429688 111.746094 92.871094 112.300781 93.75 112.300781 C 94.699219 112.300781 95.253906 111.492188 95.253906 110.414062 C 95.253906 109.519531 94.828125 108.609375 93.777344 108.609375 C 93.507812 108.609375 92.828125 108.625 92.445312 109.335938 L 90.667969 109.246094 L 91.363281 103.714844 L 96.902344 103.714844 L 96.902344 105.390625 L 92.796875 105.390625 L 92.445312 107.570312 C 92.8125 107.316406 93.265625 107.015625 94.246094 107.015625 C 95.59375 107.015625 97.300781 107.953125 97.300781 110.269531 C 97.300781 111.644531 96.605469 113.894531 93.636719 113.894531 C 92.058594 113.894531 90.453125 112.957031 90.351562 110.925781 M 93.464844 120.355469 L 75.769531 120.355469 L 75.769531 115.019531 L 81.773438 115.019531 L 81.773438 102.101562 L 75.769531 102.101562 L 75.769531 99.71875 L 93.464844 99.71875 L 93.464844 102.101562 L 87.457031 102.101562 L 87.457031 115.019531 L 93.464844 115.019531 Z M 71.808594 108.824219 C 71.808594 106.90625 72.0625 103.542969 75.558594 103.542969 C 75.96875 103.542969 77.117188 103.699219 77.617188 104.195312 C 78.171875 104.734375 78.371094 105.035156 78.554688 106.097656 L 76.578125 106.097656 C 76.523438 105.53125 76.152344 105.136719 75.414062 105.136719 C 74.125 105.136719 73.828125 106.605469 73.757812 107.914062 L 73.785156 107.941406 C 74.054688 107.570312 74.550781 107.101562 75.671875 107.101562 C 77.757812 107.101562 78.753906 108.707031 78.753906 110.214844 C 78.753906 112.414062 77.40625 113.894531 75.460938 113.894531 C 72.402344 113.894531 71.808594 111.335938 71.808594 108.824219 M 74.859375 120.355469 L 57.167969 120.355469 L 57.167969 115.019531 L 63.167969 115.019531 L 63.167969 102.101562 L 57.167969 102.101562 L 57.167969 99.71875 L 74.859375 99.71875 L 74.859375 102.101562 L 68.855469 102.101562 L 68.855469 115.019531 L 74.859375 115.019531 Z M 54.542969 113.625 C 54.753906 109.59375 57.289062 106.386719 58.140625 105.476562 L 53.121094 105.476562 L 53.164062 103.714844 L 60.269531 103.714844 L 60.269531 105.25 C 59.304688 106.300781 56.832031 109.28125 56.589844 113.625 Z M 56.253906 120.355469 L 38.566406 120.355469 L 38.566406 115.019531 L 44.566406 115.019531 L 44.566406 102.101562 L 38.566406 102.101562 L 38.566406 99.71875 L 56.253906 99.71875 L 56.253906 102.101562 L 50.25 102.101562 L 50.25 115.019531 L 56.253906 115.019531 Z M 34.613281 110.824219 C 34.613281 110.3125 34.613281 108.980469 36.152344 108.269531 C 35.351562 107.871094 34.925781 107.230469 34.925781 106.296875 C 34.925781 104.578125 36.304688 103.542969 38.066406 103.542969 C 40.152344 103.542969 41.261719 104.777344 41.261719 106.167969 C 41.261719 107.035156 40.90625 107.769531 40.097656 108.199219 C 41.0625 108.679688 41.601562 109.320312 41.601562 110.625 C 41.601562 111.902344 40.78125 113.894531 38.109375 113.894531 C 35.507812 113.894531 34.613281 112.203125 34.613281 110.824219 M 90.347656 92.785156 L 90.347656 91.0625 L 94.058594 84.9375 L 96.320312 84.9375 L 96.320312 91.234375 L 97.441406 91.234375 L 97.441406 92.785156 L 96.320312 92.785156 L 96.320312 95.019531 L 94.328125 95.019531 L 94.328125 92.785156 Z M 124.667969 102.101562 L 124.667969 115.019531 L 130.675781 115.019531 L 130.675781 120.355469 L 112.976562 120.355469 L 112.976562 115.019531 L 118.980469 115.019531 L 118.980469 102.101562 L 112.976562 102.101562 L 112.976562 99.71875 L 122.28125 99.71875 L 122.28125 80.199219 L 112.066406 80.199219 L 112.066406 83.5 L 106.0625 83.5 L 106.0625 96.417969 L 112.066406 96.417969 L 112.066406 102.101562 L 106.0625 102.101562 L 106.0625 115.019531 L 112.066406 115.019531 L 112.066406 120.355469 L 94.375 120.355469 L 94.375 115.019531 L 100.378906 115.019531 L 100.378906 102.101562 L 94.375 102.101562 L 94.375 96.417969 L 100.378906 96.417969 L 100.378906 83.5 L 87.457031 83.5 L 87.457031 96.417969 L 93.464844 96.417969 L 93.464844 98.804688 L 37.65625 98.804688 L 37.65625 102.101562 L 31.648438 102.101562 L 31.648438 115.019531 L 37.65625 115.019531 L 37.65625 121.269531 L 131.585938 121.269531 L 131.585938 115.019531 L 137.585938 115.019531 L 137.585938 102.101562 Z M 124.667969 102.101562 "/>
<path fill-rule="nonzero" fill="rgb(0%, 0%, 0%)" fill-opacity="1" d="M 38.121094 107.628906 C 38.902344 107.628906 39.355469 107.105469 39.355469 106.382812 C 39.355469 105.617188 38.832031 105.136719 38.195312 105.136719 C 37.300781 105.136719 36.832031 105.644531 36.832031 106.382812 C 36.832031 106.980469 37.269531 107.628906 38.121094 107.628906 "/>
<path fill-rule="nonzero" fill="rgb(0%, 0%, 0%)" fill-opacity="1" d="M 38.082031 109.136719 C 37.355469 109.136719 36.664062 109.605469 36.664062 110.699219 C 36.664062 111.664062 37.214844 112.300781 38.125 112.300781 C 39.160156 112.300781 39.554688 111.40625 39.554688 110.710938 C 39.554688 110.003906 39.1875 109.136719 38.082031 109.136719 "/>
<path fill-rule="nonzero" fill="rgb(0%, 0%, 0%)" fill-opacity="1" d="M 94.371094 86.914062 L 94.339844 86.914062 L 91.8125 91.234375 L 94.328125 91.234375 C 94.328125 88.800781 94.371094 87.226562 94.371094 86.914062 "/>
</svg>
